/* XPM */
static char *result[] = {
/* columns rows colors chars-per-pixel */
"58 90 219 2 ",
"   c #030303",
".  c #0B0404",
"X  c #050906",
"o  c #0B0906",
"O  c #05050A",
"+  c #0A050A",
"@  c #06090A",
"#  c #0C0B0C",
"$  c #130404",
"%  c #120906",
"&  c #12060C",
"*  c #130C0C",
"=  c #1C0C0E",
"-  c #1D0506",
";  c #0D110E",
":  c #06100F",
">  c #13110E",
",  c #1B120E",
"<  c #1F180F",
"1  c #060511",
"2  c #090613",
"3  c #070911",
"4  c #0D0C13",
"5  c #0D0B19",
"6  c #120711",
"7  c #130E13",
"8  c #1B0D12",
"9  c #110D1A",
"0  c #1C0610",
"q  c #0E1112",
"w  c #0E121A",
"e  c #071312",
"r  c #121213",
"t  c #1B1314",
"y  c #151815",
"u  c #1D1915",
"i  c #13131B",
"p  c #1B151A",
"a  c #16191B",
"s  c #1C1B1B",
"d  c #230B0F",
"f  c #24160E",
"g  c #24180F",
"h  c #2A190E",
"j  c #220C13",
"k  c #210D18",
"l  c #2E0F1D",
"z  c #221614",
"x  c #291414",
"c  c #241915",
"v  c #291B15",
"b  c #24161A",
"n  c #2B161B",
"m  c #251B1A",
"M  c #2A1C1C",
"N  c #33141E",
"B  c #331A1C",
"V  c #3B1A18",
"C  c #341113",
"Z  c #1C211E",
"A  c #21211F",
"S  c #2B201D",
"D  c #2F2715",
"F  c #3F2C1D",
"G  c #110F20",
"H  c #151323",
"J  c #161923",
"K  c #1A1A24",
"L  c #1C1D2B",
"P  c #191725",
"I  c #1E1D31",
"U  c #0B0C24",
"Y  c #2C1C24",
"T  c #211F2D",
"R  c #231B20",
"E  c #341A23",
"W  c #391926",
"Q  c #211D31",
"!  c #1D2326",
"~  c #1E212C",
"^  c #13282D",
"/  c #1D2234",
"(  c #222323",
")  c #2C2423",
"_  c #2A2927",
"`  c #22232C",
"'  c #2B2A29",
"]  c #272828",
"[  c #342524",
"{  c #3B2226",
"}  c #32242C",
"|  c #3D232B",
" . c #3C282D",
".. c #352A27",
"X. c #2D332F",
"o. c #232433",
"O. c #252A34",
"+. c #252538",
"@. c #262A3A",
"#. c #2A2D3B",
"$. c #292A35",
"%. c #27343C",
"&. c #2D343E",
"*. c #2E393D",
"=. c #293135",
"-. c #353335",
";. c #32363B",
":. c #3C3C39",
">. c #363A38",
",. c #38263D",
"<. c #4A2915",
"1. c #4B2A1D",
"2. c #482518",
"3. c #4C3719",
"4. c #563B1C",
"5. c #633E0C",
"6. c #451E2C",
"7. c #4A1E2B",
"8. c #421F21",
"9. c #4A1E31",
"0. c #521D35",
"q. c #402324",
"w. c #43232D",
"e. c #4B212E",
"r. c #492D29",
"t. c #472A27",
"y. c #532C2A",
"u. c #59292C",
"i. c #502B25",
"p. c #4A342D",
"a. c #46382B",
"s. c #553428",
"d. c #442432",
"f. c #4B2433",
"g. c #4A2736",
"h. c #453334",
"j. c #473A38",
"k. c #563A34",
"l. c #592A36",
"z. c #683022",
"x. c #763D33",
"c. c #672E35",
"v. c #3A4137",
"b. c #564339",
"n. c #6F453F",
"m. c #774637",
"M. c #2D2F40",
"N. c #2D3441",
"B. c #2F3940",
"V. c #243340",
"C. c #313642",
"Z. c #323843",
"A. c #323B48",
"S. c #3C4042",
"D. c #434444",
"F. c #4A4A48",
"G. c #584947",
"H. c #52524F",
"J. c #4F5451",
"K. c #545554",
"L. c #565959",
"P. c #694842",
"I. c #604850",
"U. c #725C54",
"Y. c #7A5B53",
"T. c #73524B",
"R. c #7B6257",
"E. c #686664",
"W. c #7D6462",
"Q. c #707271",
"!. c #74736F",
"~. c #893E2D",
"^. c #83442D",
"/. c #884736",
"(. c #87533D",
"). c #9B5734",
"_. c #975133",
"`. c #A5533F",
"'. c #807038",
"]. c #8D4E4D",
"[. c #815D56",
"{. c #985257",
"}. c #84514D",
"|. c #A6594B",
" X c #9D6F5D",
".X c #8C6C51",
"XX c #B87148",
"oX c #805F60",
"OX c #9A5F63",
"+X c #947261",
"@X c #9D7B74",
"#X c #926964",
"$X c #A67B77",
"%X c #C7794A",
"&X c #CA7F4F",
"*X c #C97853",
"=X c #DB7A50",
"-X c #C16F69",
";X c #DB9039",
":X c #D4A835",
">X c #AF8572",
",X c #B88D7A",
"<X c #BB917E",
"1X c #C8904C",
"2X c #D4A654",
"3X c #E8AF4C",
"4X c #C5917B",
"5X c #C48B79",
"6X c #8B908F",
"7X c #AB8F84",
"8X c #B98C87",
"9X c #BF9989",
"0X c #C19C8B",
"qX c #F5B69F",
"wX c #FDB6AB",
"eX c #F6B6A6",
"rX c #FEBAB0",
"tX c #EDB2A5",
"yX c None",
/* pixels */
"yXyXyXyXyXyXyXyXyXyXyXyXyXyXyXyXyXyXyXyXyX          yXyXyXyXyXyXyXyXyXyXyXyXyXyXyXyXyXyXyXyXyXyXyXyXyXyXyXyXyXyXyXyX",
"yXyXyXyXyXyXyXyXyXyXyXyXyXyXyXyXyXyX]     , 7 t * r +     # L.yXyXyXyXyXyXyXyXyXyXyXyXyXyXyXyXyXyXyXyXyXyXyXyXyXyXyX",
"yXyXyXyXyXyXyXyXyXyXyXyXyXyXyXyXyXv._ o X c b c z v t o o , :.K.yXyXyXyXyXyXyXyXyXyXyXyXyXyXyXyXyXyXyXyXyXyXyXyXyXyX",
"yXyXyXyXyXyXyXyXyXyXyXyXyXyXyXyX!.> > m u m v m m v u , m t * . * X D.yXyXyXyXyXyXyXyXyXyXyXyXyXyXyXyXyXyXyXyXyXyXyX",
"yXyXyXyXyXyXyXyXyXyXyXyXyXyXyXyX  u S m t g u < u z v c M v m z b p y Z yXyXyXyXyXyXyXyXyXyXyXyXyXyXyXyXyXyXyXyXyXyX",
"yXyXyXyXyXyXyXyXyXyXyXyXyXyXyXyXyX# o , , v c c c v m c c v v x n x c # . yXyXyXyXyXyXyXyXyXyXyXyXyXyXyXyXyXyXyXyXyX",
"yXyXyXyXyXyXyXyXyXyXyXyXyXyXyXyXyX#   A t g g c m , * , u c c g u * * # = :.yXyXyXyXyXyXyXyXyXyXyXyXyXyXyXyXyXyXyXyX",
"yXyXyXyXyXyXyXyXyXyXyXyXyXyXyXyXyXyXyXyXo u u c , o . % c m c =   . . 8 p X yXyXyXyXyXyXyXyXyXyXyXyXyXyXyXyXyXyXyXyX",
"yXyXyXyXyXyXyXyXyXyXyXyXyXyXyXyXyXyXyXyXyX      . t c c M z & j e.w.7.N X o >.yXyXyXyXyXyXyXyXyXyXyXyXyXyXyXyXyXyXyX",
"yXyXyXyXyXyXyXyXyXyXyXyXyXyXyXyXyXyXyXyXyX    . * b v x m t & & d = l.l.  > _ ' yXyXyXyXyXyXyXyXyXyXyXyXyXyXyXyXyXyX",
"yXyXyXyXyXyXyXyXyXyXyXyXyXyXyXyXyXyXyXyXyXo % , M v c c p & x w.G.k.OX].. u %   yXyXyXyXyXyXyXyXyXyXyXyXyXyXyXyXyXyX",
"yXyXyXyXyXyXyXyXyXyXyXyXyXyXyXyXyXyXyXF.# h h h v c z R P + k.-XwXtXrX$X. v %   yXyXyXyXyXyXyXyXyXyXyXyXyXyXyXyXyXyX",
"yXyXyXyXyXyXyXyXyXyXyXyXyXyXyXyXyXyXu u t f c m m c # 4 @ X $XwXwXtXtX@Xo z o   yXyXyXyXyXyXyXyXyXyXyXyXyXyXyXyXyXyX",
"yXyXyXyXyXyXyXyXyXyXyXyXyXyXyXyXyXyXs o u x c z c p r q # . @XwXeXeX+Xh.  c o o yXyXyXyXyXyXyXyXyXyXyXyXyXyXyXyXyXyX",
"yXyXyXyXyXyXyXyXyXyXyXyXyXyXyXyXyXK._ 8 b m u 8 t 7 r 8 8.q.Y.8XqXeXk.  + m = ) K.yXyXyXyXyXyXyXyXyXyXyXyXyXyXyXyXyX",
"yXyXyXyXyXyXyXyXyXyXyXyXyXyXyXyXyX+ 7 t m z 8 7 7 7 X q.{.].2.k.qXwXk.X . c c # * yXyXyXyXyXyXyXyXyXyXyXyXyXyXyXyXyX",
"yXyXyXyXyXyXyXyXyXyXyXyXyXyXyXyXyX  , m z       O q # @ 8 ].|.x.  X # = X A , c . yXyXyXyXyXyXyXyXyXyXyXyXyXyXyXyXyX",
"yXyXyXyXyXyXyXyXyXyXyXyXyXyXyXyXyXyX# % * * .   @ q 5 D '.W ..y % .XF U i * t S % # yXyXyXyXyXyXyXyXyXyXyXyXyXyXyXyX",
"yXyXyXyXyXyXyXyXyXyXyXyXyXyXyXyXyXyX  o * u o   q q 3 s.2X5.4.b.4.3Xs.U Q 7 & t u X yXyXyXyXyXyXyXyXyXyXyXyXyXyXyXyX",
"yXyXyXyXyXyXyXyXyXyXyXyXyXyXyXyXyXyXo . , u o X r q X 1.XX:X3X3X:X2X3.e P L w # p   J.yXyXyXyXyXyXyXyXyXyXyXyXyXyXyX",
"yXyXyXyXyXyXyXyXyXyXyXyXyXyXyXyXyX. * S M u o X r   ^ } - $ m.;X;X* ` S.A./ L r o t # >.yXyXyXyXyXyXyXyXyXyXyXyXyXyX",
"yXyXyXyXyXyXyXyXyXyXyXyXyXyXyXyXyX  u m m v z # 3 L V.%.` ~ D 3.3.~ %.*.V.@.N.J X # X yXyXyXyXyXyXyXyXyXyXyXyXyXyXyX",
"yXyXyXyXyXyXyXyXyXyXyXyXyXyXyXyXyX  t b u c t + O / %.%.&.N.O.w X &.&.&.V.B.N.J   q # ' D.yXyXyXyXyXyXyXyXyXyXyXyXyX",
"yXyXyXyXyXyXyXyXyXyXyXyXyXyXyXyXyX  u z * * #     J %.N.&.N.B.O.a a O.*.N.N.&.J   4 t X   yXyXyXyXyXyXyXyXyXyXyXyXyX",
"yXyXyXyXyXyXyXyXyXyXyXyXyXyXyXyXyX  t 8 o   o # @ K O.&.&.&.%.*.=.O ! B.N.N.%.w   q 4 +   yXyXyXyXyXyXyXyXyXyXyXyXyX",
"yXyXyXyXyXyXyXyXyXyXyXyXyXyXyXyXyX  t * . q q q 3 @ a O.N.N.%.*.;.  ! Z.N.N.O.w   q ; + X yXyXyXyXyXyXyXyXyXyXyXyXyX",
"yXyXyXyXyXyXyXyXyXyXyXyXyXyXyXyXyX  u = + r q r q # @ J $.;.N.#.&.  ! =.&.+.H 3 # r ; # X yXyXyXyXyXyXyXyXyXyXyXyXyX",
"yXyXyXyXyXyXyXyXyXyXyXyXyXyXyXyXyX  t p O # + r r r # + r o.&.N.&.  ! &.&.L 5 O q > # Z X.yXyXyXyXyXyXyXyXyXyXyXyXyX",
"yXyXyXyXyXyXyXyXyXyXyXyXyXyXyXyXQ.% * p 4 X X # r r r + X L &.C.=.: J =.&.P 4 + r r X yXyXyXyXyXyXyXyXyXyXyXyXyXyXyX",
"yXyXyXyXyXyXyXyXyXyXyXyXyXyXyXyXr , m p 4 # o + ; > r + O J @.N.B.O.y J &.@ # 4 r r X yXyXyXyXyXyXyXyXyXyXyXyXyXyXyX",
"yXyXyXyXyXyXyXyXyXyXyXyXyXyXyXyX. u , r w r X   X > r # # w L @.&.*.r q O.  + r r X X yXyXyXyXyXyXyXyXyXyXyXyXyXyXyX",
"yXyXyXyXyXyXyXyXyXyXyXyXyXyXyXyX  m * q e 7     O + q 7 4   5 O.&.;.r e ~   ; r +     yXyXyXyXyXyXyXyXyXyXyXyXyXyXyX",
"yXyXyXyXyXyXyXyXyXyXyXyXyXyXyXyX  c 8 2 r 4 +   3   @ q r   r ` =.;.r 2 L   # #   O   v.yXyXyXyXyXyXyXyXyXyXyXyXyXyX",
"yXyXyXyXyXyXyXyXyXyXyXyXyXyXyXyX  c p 5 ; * X   4 O O # 3 t X w / ;.i     4 # O   r X # ( yXyXyXyXyXyXyXyXyXyXyXyXyX",
"yXyXyXyXyXyXyXyXyXyXyXyXyXyXyXyX  g t 5 q > X O 4 # 4 #   p X 2 ~ Z.i     7 q O   r s s r *   yXyXyXyXyXyXyXyXyXyXyX",
"yXyXyXyXyXyXyXyXyXyXyXyXyXyXJ.q o < t 7 ; ; X . i 4 p q # # X 4 i #.J r X # q #   4 t z 8 o * . yXyXyXyXyXyXyXyXyXyX",
"yXyXyXyXyXyXyXyXyXyXyXyXyXyXy ; s S * 4 ; # . O 7 4 # r K   # 4   ` #.`   # 7 #   # % m m t R +   X 6XyXyXyXyXyXyXyX",
"yXyXyXyXyXyXyXyXyXyXyXyXyXyX  % v m t 4 q r X X r r i 5 4 p *   # r o.H   3 4 #   r 4 r z v v v S , .   X yXyXyXyXyX",
"yXyXyXyXyXyXyXyXyXyXyXyXyXyX  % v m i 4 q r X + r q 9 4 4 p 7 . 4 # K 9   4 4 4   r 7 r t c v M , S . z t . . yXyXyX",
"yXyXyXyXyXyXyXyXyXyXyXyXyXyXX o c z 7 4 q ; + X # # r 4 4 i r 4 ;   H G   4 4 4   > r 7 r u b m , , = W W j t j.yXyX",
"yXyXyXyXyXyXyXyXyXyXyXyXyXyX] o c t 7 7 q q # . % # q 4 4 7 9 4 7   H H   4 4 +   q q q 9 t z m *    .w.e.E | = p yX",
"yXyXyXyXyXyXyXyXyXyXyXyXyXs u s g 8 7 4 r r + = R +   # q 9 4 4 >   H H   4 +     r q 5 4 p z % + # . N W $ w.w.b + ",
"yXyXyXyXyXyXyXyXyXyXyXyXyX  * m u r 4 q r r . + 8 b ) 8 + O O O .   + #   & p p   X # a 4 r o # # r * 7 n y.d 6.Y   ",
"yXyXyXyXyXyXyXyXyXyXyXyXyX  7 b r r q 7 4 r O . % 8 Y b k j j k 8 8 8 8 8 8 k 8 #   # # ; ; X r r r r # x x.B b Y ] ",
"yXyXyXyXyXyXyXyXyXyXyXyXyX  7 p # q r q r 4 X o , . $ d W f.d.d.w.w.6.d.d.} 8 + #     # y # X # # y # # C ~.G.b -.yX",
"yXyXyXyXyXyXyXyXyXyXyXyXyX  & t 4 4 i r r q X % S , c > .   . .   . . + O + # t 7   yX#   X # q > + #   1.*Xd b.6XyX",
"yXyXyXyXyXyXyXyXyXyXyXyXyX  # t r r r r q r   o v c A , > t r # . X 4 i 9 O 7 4 O   yXyXr @ ; > > + K.Z 1.&X% yXyXyX",
"yXyXyXyXyXyXyXyXyXyXyXyXyX# * * r r r q r * X o c g h c v b 8 # # O 9 ` Q   O p # + yXyXyX] r X # X yX  <.&X. yXyXyX",
"yXyXyXyXyXyXyXyXyXyXyXyXyXa > * ; # r q q ; X o B g v z m b p 4 3 3 H o./ + 4 4 2   yXyXyXyX; ; s yXyX  <.%X. yXyXyX",
"yXyXyXyXyXyXyXyXyXyXyXyXr   X #           .   # B z m m p 8 7 4 3 K o.N.C.s 4 O 3   yXyXyXyXyXyXyXyXyX  <.%X. yXyXyX",
"yXyXyXyXyXyXyXyXyXyXyX) *     r q #   = b n % o v g R z 8 7 4 3 9 L #.N.C.` 4 O r   yXyXyXyXyXyXyXyXyX  <.%X. yXyXyX",
"yXyXyXyXyXyXyXyXyXK.* . ) , X . # : X 8 w.e.8 o M u p t 2 4 4 5 o.+.&.*.&.L 5 O r   yXyXyXyXyXyXyXyXyX  <.%X. yXyXyX",
"yXyXyXyXyXyXyXyXyXX.* t v u #     X   = 6.7.= # M t * 7 7 O i o./ &.N.&.*.L 5 O 7   yXyXyXyXyXyXyXyXyXX <.%X. yXyXyX",
"yXyXyXyXyXyXyXyXo 8 c c c c c c b z # j | 7.= 4 R r q + + L o.+.&.N.&.&.&.Q 4 O r   yXyXyXyXyXyXyXyXyX  2.1X$ L.yXyX",
"yXyXyXyXyXyXL.A * d v c c c c c m % z B e.7.8 X 7 7 O & i L +.M.N.&.&.N.N.Q 2 X >   yXyXyXyXyXyXyXyXyX  <.=X2.h.v.yX",
"yXyXyXyXyXyX_ o M v c c c c c v v . n f.0.e.8 + 2 7 3 H T o.&.C.&.B.&.&.N.Q 4 X r   yXyXyXyXyXyXyXyXyX>.k.^.T.C + yX",
"yXyXyXyXyX  r S , c h c c c c c m . x 6.7.f.8 O 7 3 i L o.#.N.N.N.*.&.&.N.Q 4 O >   yXyXyXyXyXyXyXyXyXyXH.% n.B J yX",
"yXyXyXyX; * z , v v c c c c c z m z * j w.7.8   + s L +.M.N.N.N.&.N.N.&.&.Q 4 X r   yXyXyXyXyXyXyXyXyXyXyX+ ~.V X yX",
"yXyXyXyX  , m c v g c c c c c c v m z * 8 8 & + O K L o.N.C.C.&.&.&.&.=.o.o.5 + t * # yXyXyXyXyXyXyXyXyXyX  ~.z.{   ",
"yXyXyXL.o c c c c c c c c c c b m m u 7 o O X 3 5 R L +.;.C.;.C.N.B.&.o.` i O O t z # yXyXyXyXyXyXyXyXyXyX  `./.u.  ",
"yXyXyX* r v c c c c c c c c c c v p t 7 t O O 9 I Q Q +.&.M.M.#.M.C.+.L L O O O t u # yXyXyXyXyXyXyXyXyXyX  XX).y.  ",
"yXyXH.# u b c c c c c c c c c c c 9 4 7 r # 9 L Q Q L Q o./ o.o.L L I H 1 5 O O t z o yXyXyXyXyXyXyXyXyXyX  *X).y.  ",
"yX>._ * z b c c c c c c c c c c u 7 5 4 X 1 1 5 4 2 4 4 4 4 4 4 4 4 7 4 O L 5   t z # yXyXyXyXyXyXyXyXyXyX  *X_.u.O ",
"yX  % v z c c c v z c z v v m u r 4 5 5 4 P 5 O   O O   O O O O   O O 3 p +.5 O 8 c # yXyXyXyXyXyXyXyXyXyX. /.^.y.O ",
"yXm * v c c c c c c h h h v b p 4 4 O 5 o./ L 5 2 5 1 1 2 5 5 1   4 5 H +.+.4 O t m # yXyXyXyXyXyXyXyXyXyXyX  u.y.  ",
"# * c x x c c c c c c h z c u 6 4 X X H +.+./ P 5 1 1 1 5 5 5 1 O / M.+.+.+.4 O 7 m # yXyXyXyXyXyXyXyXyXyXyXX u.y.  ",
"X r S c v c c c c c c c c c t # ;   O H +.+.#.L 5 O 1 5 2 5 1 1 1 Q M.o.H +.w + 7 z o yXyXyXyXyXyXyXyXyXyXyXX u.i.  ",
"  p M S g v c c c c c c m u 7 4       # w J H 5 1 O 2 5 5 5 5 1   H H 4 X i O # t v # yXyXyXyXyXyXyXyXyXyXyX  u.i.  ",
"  r , v c v c c z c c u t 7 4 3     # 8 0 1 3 O   2 5 4 5 5 2 3   6 3 * 8 9 + X r v o yXyXyXyXyXyXyXyXyXyXyXX u.i.  ",
"* > u c z z c c c c u , # i 4     7 Y f.0.+ 2 1 O 5 5 5 5 5 9 3 o 6 6 8 t.d.6 X ; u # yXyXyXyXyXyXyXyXyXyXyX  u.i.  ",
"yX' X 6 m m v b c c b s +   O 4 + 7Xt.j ,.W 8 + 1 5 5 5 5 5 5 6 + X E C % - o # y v o yXyXyXyXyXyXyXyXyXyXyX  y.y.  ",
"yXO O t 9 u m v c v u r 4 # @ X . 0X Xk.P f.k 1 2 5 5 4 5 5 5 2   Y b E W.U.) X r v % yXyXyXyXyXyXyXyXyXyXyXX u.y.  ",
"yX;.( # r , z c v c u 9 4 X ( O o n.>X+Xp.l 6 3 5 5 5 5 5 5 5 2 1 N { G.oX0Xa.O 4 v o yXyXyXyXyXyXyXyXyXyXyX  u.r.  ",
"yXyXyXX # > , z v c p 9 q o yXyX  $ Y.<X,X+ # 2 5 9 4 9 2 9 5 9 2 o W.oX% ,Xr.@ w 7   yXyXyXyXyXyXyXyXyXyXyXX u.y.  ",
"yXyXyXX r r r r a r # p   yXyXyXo 8Xk.o . + O # 4 4 4 2 5 9 5 2 G   U.5X5X. X # q   yXyXyXyXyXyXyXyXyXyXyXyXX u.y.  ",
"yXyXyXD.q # # 4 r r # p   yXyXyX# r.P.R.Y.# D.D.  # O 3 3 9 U 9 6 + ) h.a.[.w.. ;   yXyXyXyXyXyXyXyXyXyXyXyXX u.y.  ",
"yXyXyXyXX # q # # 4 r >   yXyXyXO d b.+X5X  E.Q.@ + # 3 + 5 2 5 4 O ) p.a.U.... 7 O yXyXyXyXyXyXyXyXyXyXyXyX  u.y.  ",
"yXyXyXyX# # 7 q q r r + s yXyXyX+ d.d t.8XX J.yXyXyX    + 1 4 5 5 X R.<X,XX   : r   yXyXyXyXyXyXyXyXyXyXyXyXX u.y.  ",
"yXyXyXyXyXO # r 4 q # + E.yXyXyX+ 9.f.Y . yXyXyXyXyXyXyXyXi 4 4 4 4 & $ o [ = o r   yXyXyXyXyXyXyXyXyXyXyXyX  y.y.  ",
"yXyXyXyXyXyXO X u ; + X yXyXyXyX+ | g.Y X yXyXyXyXyXyXyXyXK.` + 5 3 O 0 E w.k # #   yXyXyXyXyXyXyXyXyXyXyX% (./.i.  ",
"yXyXyXyXyXyXyX( # y #   yXyXyXyX. W E 8 # yXyXyXyXyXyXyXyXyX:.q 4 @   k d.Y & 4 4 X yXyXyXyXyXyXyXyXyXyXyXo |._.r.X ",
"yXyXyXyXyXyXyXyXa # ; X yXyXyXyX  h.x $   yXyXyXyXyXyXyXyXyXyXyX  X O 9 W $ . # 4   yXyXyXyXyXyXyXyXyXyXyX  /.x.w.r ",
"yXyXyXyXyXyXyXyXyX(   y yXyXyXyX. % U.E.  yXyXyXyXyXyXyXyXyXyXyX  q 3 o % 8Xp.o p O yXyXyXyXyXyXyXyXyXyXyX. m.V ..yX",
"yXyXyXyXyXyXyXyXyXyXyXF.yXyXyXyX  R.k.[ X yXyXyXyXyXyXyXyXyXyXyXyX4 O ..R.0X Xh.+   yXyXyXyXyXyXyXyXyXyXyX. n.B + yX",
"yXyXyXyXyXyXyXyXyXyXyXyXyXyXyXyX. W.q.d 8 yXyXyXyXyXyXyXyXyXyXyXyXO X r.,X(.[.G.= t # yXyXyXyXyXyXyXyXyXyXo t.v yXyX",
"yXyXyXyXyXyXyXyXyXyXyXyXyXyXyXyX  & N f.f.. >.yXyXyXyXyXyXyXyXyXyXO   r.,X. . d W 8.d . A yXyXyXyXyXyXyXyX    yXyXyX",
"yXyXyXyXyXyXyXyXyXyXyXyXyXyXyXyX% n 6.w.6. .p 4 yXyXyXyXyXyXyXyXyXyXa o & | | w.f.f.g.d.z t yXyXyXyXyXyXyX  @ yXyXyX",
"yXyXyXyXyXyXyXyXyXyXyXyXyXyXyXyXyXyXyXyXyXG.yXyXyXyXyXyXyXyXyXyXyXyXyXyXyXyXyXyXyXyXI.yXyX-.yXyXyXyXyXyXyXyXyXyXyXyX",
"yXyXyXyXyXyXyXyXyXyXyXyXyXyXyXyXyXyXyXyXyXyXyXyXyXyXyXyXyXyXyXyXyXyXyXyXyXyXyXyXyXyXyXyXyXyXyXyXyXyXyXyXyXyXyXyXyXyX",
"yXyXyXyXyXyXyXyXyXyXyXyXyXyXyXyXyXyXyXyXyXyXyXyXyXyXyXyXyXyXyXyXyXyXyXyXyXyXyXyXyXyXyXyXyXyXyXyXyXyXyXyXyXyXyXyXyXyX"
};
