/* XPM */
static char *result[] = {
/* columns rows colors chars-per-pixel */
"69 90 232 2 ",
"   c #030303",
".  c #0A0404",
"X  c #050906",
"o  c #0A0906",
"O  c #05050A",
"+  c #0A050A",
"@  c #060A0A",
"#  c #0B0B0C",
"$  c #120404",
"%  c #130A05",
"&  c #12040B",
"*  c #130D0C",
"=  c #1B0B0E",
"-  c #1B070C",
";  c #0D110E",
":  c #14110E",
">  c #1B120E",
",  c #060612",
"<  c #090613",
"1  c #070A11",
"2  c #0C0C14",
"3  c #0D0C19",
"4  c #060E18",
"5  c #120D13",
"6  c #1B0D12",
"7  c #120C1A",
"8  c #100615",
"9  c #0E1112",
"0  c #0E1018",
"q  c #121213",
"w  c #1B1413",
"e  c #161915",
"r  c #1D1916",
"t  c #13131B",
"y  c #1D1519",
"u  c #1B1B1B",
"i  c #15191D",
"p  c #220C0F",
"a  c #24160E",
"s  c #21190F",
"d  c #2D160D",
"f  c #230D14",
"g  c #2C0B10",
"h  c #231514",
"j  c #2A1515",
"k  c #241A14",
"l  c #291915",
"z  c #221419",
"x  c #2B151A",
"c  c #241B1A",
"v  c #2A1B1B",
"b  c #34161C",
"n  c #381A18",
"m  c #23211E",
"M  c #2B201D",
"N  c #3C251B",
"B  c #0A0D22",
"V  c #120F20",
"C  c #151421",
"Z  c #191722",
"A  c #161924",
"S  c #1A1B24",
"D  c #1C142B",
"F  c #1C1C2B",
"G  c #161829",
"H  c #1D1F31",
"J  c #0E142B",
"K  c #2C1522",
"L  c #2C1D23",
"P  c #221D2C",
"I  c #261C21",
"U  c #3C1C22",
"Y  c #3E1B2A",
"T  c #341822",
"R  c #211E32",
"E  c #1E212D",
"W  c #1E2422",
"Q  c #1E2132",
"!  c #1D3B3A",
"~  c #242523",
"^  c #232823",
"/  c #21232E",
"(  c #252B2A",
")  c #2B2C2B",
"_  c #2B2A27",
"`  c #3D2424",
"'  c #3C232C",
"]  c #34272A",
"[  c #2A302E",
"{  c #393328",
"}  c #232434",
"|  c #242A36",
" . c #2A2C35",
".. c #24263A",
"X. c #28253C",
"o. c #262A3A",
"O. c #2A2D3B",
"+. c #292734",
"@. c #2B3336",
"#. c #26333B",
"$. c #2C353E",
"%. c #2E383D",
"&. c #343434",
"*. c #31333C",
"=. c #343A3A",
"-. c #3C3F3D",
";. c #353936",
":. c #38263D",
">. c #4A2814",
",. c #4B201C",
"<. c #462814",
"1. c #493318",
"2. c #553A11",
"3. c #431E2B",
"4. c #4A1D2D",
"5. c #401725",
"6. c #461E32",
"7. c #531B37",
"8. c #442327",
"9. c #4B2B23",
"0. c #43232D",
"q. c #4A212C",
"w. c #482B27",
"e. c #532C2A",
"r. c #59292C",
"t. c #502929",
"y. c #4B352B",
"u. c #4B372A",
"i. c #54302D",
"p. c #442631",
"a. c #4A2333",
"s. c #4C2932",
"d. c #472937",
"f. c #453232",
"g. c #463C3B",
"h. c #543533",
"j. c #543E35",
"k. c #683022",
"l. c #723C2F",
"z. c #63393B",
"x. c #763D33",
"c. c #3A4137",
"v. c #55453A",
"b. c #5B443C",
"n. c #53492B",
"m. c #6F453F",
"M. c #724039",
"N. c #725532",
"B. c #272C41",
"V. c #2D3542",
"C. c #2F3841",
"Z. c #263542",
"A. c #313843",
"S. c #373A44",
"D. c #312D47",
"F. c #783A48",
"G. c #494847",
"H. c #5A4443",
"J. c #5B474E",
"K. c #4D524E",
"L. c #51534F",
"P. c #535453",
"I. c #545858",
"U. c #6A4742",
"Y. c #784C46",
"T. c #6B564B",
"R. c #72584F",
"E. c #6B5B55",
"W. c #7A5B52",
"Q. c #775B55",
"!. c #624951",
"~. c #7B6157",
"^. c #7B634E",
"/. c #6B6765",
"(. c #767A78",
"). c #7B6861",
"_. c #893E2D",
"`. c #83442D",
"'. c #965929",
"]. c #884736",
"[. c #87533D",
"{. c #9B5734",
"}. c #934E38",
"|. c #A5533F",
" X c #977037",
".X c #A47C35",
"XX c #823D45",
"oX c #915052",
"OX c #A6564B",
"+X c #A44F58",
"@X c #8C6A57",
"#X c #9D6F5D",
"$X c #8D7045",
"%X c #BA704C",
"&X c #B15E65",
"*X c #977166",
"=X c #9C7172",
"-X c #886760",
";X c #B17973",
":X c #C7794A",
">X c #CA7F4F",
",X c #C97853",
"<X c #DB7A50",
"1X c #E79E37",
"2X c #E5B237",
"3X c #9F867B",
"4X c #AD8879",
"5X c #BD8A75",
"6X c #B78C7C",
"7X c #B08070",
"8X c #BC917E",
"9X c #D08F41",
"0X c #C88250",
"qX c #D5A653",
"wX c #D7A74B",
"eX c #EFAA4D",
"rX c #C48B79",
"tX c #858786",
"yX c #909594",
"uX c #B58D89",
"iX c #B09284",
"pX c #C29687",
"aX c #D89E8F",
"sX c #E1938E",
"dX c #E2ABA2",
"fX c #EBB2A6",
"gX c #F6B5A3",
"hX c #FBBAAA",
"jX c #FAB9A6",
"kX c #F8B7B1",
"lX c #F5A6A0",
"zX c None",
/* pixels */
"zXzXzXzXzXzXzXzXzXzXzXzXzXzXzXzXzXzXzXzXzXzXzXzXzXzXzXzXzXzX&.o           zXzXzXzXzXzXzXzXzXzXzXzXzXzXzXzXzXzXzXzXzXzXzXzXzXzXzXzXzXzXzXzX",
"zXzXzXzXzXzXzXzXzXzXzXzXzXzXzXzXzXzXzXzXzXzXzXzXzXzXzXzXX o ~ w w * w w * X X o @ o zXzXzXzXzXzXzXzXzXzXzXzXzXzXzXzXzXzXzXzXzXzXzXzXzXzXzX",
"zXzXzXzXzXzXzXzXzXzXzXzXzXzXzXzXzXzXzXzXzXzXzXzXzXzXzXzXo o * k z c c x k * * # % # o zXzXzXzXzXzXzXzXzXzXzXzXzXzXzXzXzXzXzXzXzXzXzXzXzXzX",
"zXzXzXzXzXzXzXzXzXzXzXzXzXzXzXzXzXzXzXzXzXzXzXzXzXzXzX. r k z h k k l k k z k k k h o     # P.zXzXzXzXzXzXzXzXzXzXzXzXzXzXzXzXzXzXzXzXzXzX",
"zXzXzXzXzXzXzXzXzXzXzXzXzXzXzXzXzXzXzXzXzXzXzXzXzXzXzX. k k l l k s > k k j l l l l v x v w - . zXzXzXzXzXzXzXzXzXzXzXzXzXzXzXzXzXzXzXzXzX",
"zXzXzXzXzXzXzXzXzXzXzXzXzXzXzXzXzXzXzXzXzXzXzXzXzXzXzXzX# % * w l l c l k h a k a l j j x m # $ zXzXzXzXzXzXzXzXzXzXzXzXzXzXzXzXzXzXzXzXzX",
"zXzXzXzXzXzXzXzXzXzXzXzXzXzXzXzXzXzXzXzXzXzXzXzXzXzXzXzX# . m e h h c r * v k > s v w w = : # w v.zXzXzXzXzXzXzXzXzXzXzXzXzXzXzXzXzXzXzXzX",
"zXzXzXzXzXzXzXzXzXzXzXzXzXzXzXzXzXzXzXzXzXzXzXzXzXzXzXzXzXzXzXo c k r % X . > l M e @   . & 6 e X zXzXzXzXzXzXzXzXzXzXzXzXzXzXzXzXzXzXzXzX",
"zXzXzXzXzXzXzXzXzXzXzXzXzXzXzXzXzXzXzXzXzXzXzXzXzXzXzXzXzXzXzXzX      % > r m k > . n 3.6.7.- O * zXzXzXzXzXzXzXzXzXzXzXzXzXzXzXzXzXzXzXzX",
"zXzXzXzXzXzXzXzXzXzXzXzXzXzXzXzXzXzXzXzXzXzXzXzXzXzXzXzXzXzXzXzX  o : w k M : : - z.n f f XXb X w ) zXzXzXzXzXzXzXzXzXzXzXzXzXzXzXzXzXzXzX",
"zXzXzXzXzXzXzXzXzXzXzXzXzXzXzXzXzXzXzXzXzXzXzXzXzXzXzXzXzXzXzXzX% > c k k s o w 8.oXU.b.j.;Xt.o r   zXzXzXzXzXzXzXzXzXzXzXzXzXzXzXzXzXzXzX",
"zXzXzXzXzXzXzXzXzXzXzXzXzXzXzXzXzXzXzXzXzXzXzXzXzXzXzXzXzXzXG.o d a l l k e ; ` oX+XsXhXjXhXz.; k   zXzXzXzXzXzXzXzXzXzXzXzXzXzXzXzXzXzXzX",
"zXzXzXzXzXzXzXzXzXzXzXzXzXzXzXzXzXzXzXzXzXzXzXzXzXzXzXzXzXe w w s d c c k f # ` &XlXgXgXhXdXH.; w   [ zXzXzXzXzXzXzXzXzXzXzXzXzXzXzXzXzXzX",
"zXzXzXzXzXzXzXzXzXzXzXzXzXzXzXzXzXzXzXzXzXzXzXzXzXzXzXzXzXc # z k k k z w + 0.i.,.kXhXjXfXT.v # k * ( v.zXzXzXzXzXzXzXzXzXzXzXzXzXzXzXzXzX",
"zXzXzXzXzXzXzXzXzXzXzXzXzXzXzXzXzXzXzXzXzXzXzXzXzXzXzXzXP._ 5 c c z w 7 5 . z.XXN =XaXjXdX.   % h c +   zXzXzXzXzXzXzXzXzXzXzXzXzXzXzXzXzX",
"zXzXzXzXzXzXzXzXzXzXzXzXzXzXzXzXzXzXzXzXzXzXzXzXzXzXzXzX# * w c k w * 5 5 . z.+XoX% ;XgXfX.   = h c o   zXzXzXzXzXzXzXzXzXzXzXzXzXzXzXzXzX",
"zXzXzXzXzXzXzXzXzXzXzXzXzXzXzXzXzXzXzXzXzXzXzXzXzXzXzXzX. : v h     q w . : % 8.oXOXn X o 7 < ; k k k >   zXzXzXzXzXzXzXzXzXzXzXzXzXzXzXzX",
"zXzXzXzXzXzXzXzXzXzXzXzXzXzXzXzXzXzXzXzXzXzXzXzXzXzXzXzXzX# % % % : * # @ 7 n.N.5.N 5 N $X%     : a l > . zXzXzXzXzXzXzXzXzXzXzXzXzXzXzXzX",
"zXzXzXzXzXzXzXzXzXzXzXzXzXzXzXzXzXzXzXzXzXzXzXzXzXzXzXzXzX  . : k r o o q o $X.X2.u.n.'.eXO B <   % s w # I.zXzXzXzXzXzXzXzXzXzXzXzXzXzXzX",
"zXzXzXzXzXzXzXzXzXzXzXzXzXzXzXzXzXzXzXzXzXzXzXzXzXzXzXzXzX# o > w o o q t $ l.9X2XeXqXwXqXo J D O . % w q @ zXzXzXzXzXzXzXzXzXzXzXzXzXzXzX",
"zXzXzXzXzXzXzXzXzXzXzXzXzXzXzXzXzXzXzXzXzXzXzXzXzXzXzXzX. * L v m o o #   ! v O $ %X1X X6 %.;.$.t O . o q   zXzXzXzXzXzXzXzXzXzXzXzXzXzXzX",
"zXzXzXzXzXzXzXzXzXzXzXzXzXzXzXzXzXzXzXzXzXzXzXzXzXzXzXzX  w y 5 # o   w / Z.( E S 1.1.{ E %.[ %.O./ 2 @ : @   zXzXzXzXzXzXzXzXzXzXzXzXzXzX",
"zXzXzXzXzXzXzXzXzXzXzXzXzXzXzXzXzXzXzXzXzXzXzXzXzXzXzXzX  r f 2   # . 2 +.$.#.C.$.E # t =.$.#.C.$.$.0 O 9 :   @ zXzXzXzXzXzXzXzXzXzXzXzXzX",
"zXzXzXzXzXzXzXzXzXzXzXzXzXzXzXzXzXzXzXzXzXzXzXzXzXzXzXzX  w y 1   # o 1 E C.$.$.C.V.W i S %.$.C.V.| 2 O : 9 X   zXzXzXzXzXzXzXzXzXzXzXzXzX",
"zXzXzXzXzXzXzXzXzXzXzXzXzXzXzXzXzXzXzXzXzXzXzXzXzXzXzXzX  r w 2   # . 2 Z $.$.$.$.$.%.u @ #.C.V.#.| 1 O 9 q   X zXzXzXzXzXzXzXzXzXzXzXzXzX",
"zXzXzXzXzXzXzXzXzXzXzXzXzXzXzXzXzXzXzXzXzXzXzXzXzXzXzXzX  h z 2   @ ; # 1 E O.V.$.Z.%./   $.*.Z.#.Q # @ q 5 o X zXzXzXzXzXzXzXzXzXzXzXzXzX",
"zXzXzXzXzXzXzXzXzXzXzXzXzXzXzXzXzXzXzXzXzXzXzXzXzXzXzXzX. w z 3   o q # 2 # S V.V.Z.| ~ O %. .$.} 3 1 9 : X   zXzXzXzXzXzXzXzXzXzXzXzXzXzX",
"zXzXzXzXzXzXzXzXzXzXzXzXzXzXzXzXzXzXzXzXzXzXzXzXzXzXzXzX: w y 3     q 9 q @ 1 F V.C.V./   @.%.O.F O # q :   zXzXzXzXzXzXzXzXzXzXzXzXzXzXzX",
"zXzXzXzXzXzXzXzXzXzXzXzXzXzXzXzXzXzXzXzXzXzXzXzXzXzXzXX w M w 2   o 2 : ; : O 4 F $.V./ ; E %.| C O 1 q q ; zXzXzXzXzXzXzXzXzXzXzXzXzXzXzX",
"zXzXzXzXzXzXzXzXzXzXzXzXzXzXzXzXzXzXzXzXzXzXzXzXzXzXzX. r * 2 t @ @ o 2 q 9 2 @ < P O.$.( ; E E + # q o   (.zXzXzXzXzXzXzXzXzXzXzXzXzXzXzX",
"zXzXzXzXzXzXzXzXzXzXzXzXzXzXzXzXzXzXzXzXzXzXzXzXzXzXzX. c 6 5 9 q . X # q ; q @ + D O.%.%.  S S . # e +   zXzXzXzXzXzXzXzXzXzXzXzXzXzXzXzX",
"zXzXzXzXzXzXzXzXzXzXzXzXzXzXzXzXzXzXzXzXzXzXzXzXzXzXzX. r 5 2 t q     o # ; : ; # t +. .%.X S t X # # X   zXzXzXzXzXzXzXzXzXzXzXzXzXzXzXzX",
"zXzXzXzXzXzXzXzXzXzXzXzXzXzXzXzXzXzXzXzXzXzXzXzXzXzXG.$ > w 3 q : X O # O 2 q w *   i +.&.X t C   2     X X c.zXzXzXzXzXzXzXzXzXzXzXzXzXzX",
"zXzXzXzXzXzXzXzXzXzXzXzXzXzXzXzXzXzXzXzXzXzXzXzXzXu e h k 7 3 0 q   O # O   o 9 # O C +. .O O o # 2 O o t   # ~ zXzXzXzXzXzXzXzXzXzXzXzXzX",
"zXzXzXzXzXzXzXzXzXzXzXzXzXzXzXzXzXzXzXzXzXzXzXzXzX@ # k M * 2 2 ;   # 2 o t o     O Z +.O.O   X # # X O t r e : *   zXzXzXzXzXzXzXzXzXzXzX",
"zXzXzXzXzXzXzXzXzXzXzXzXzXzXzXzXzXzXzXzXzXzXzXzXzX  o k s * 3 q # o 2 5 2 y * + . + q S +.Z # O 2 q O   # w z w # = . zXzXzXzXzXzXzXzXzXzX",
"zXzXzXzXzXzXzXzXzXzXzXzXzXzXzXzXzXzXzXzXzXzXzXzXzX  # h k 5 3 q # @ # 0 q # y r * 5 + 2 F *.t   # q + @ q % z v w v o   X tXzXzXzXzXzXzXzX",
"zXzXzXzXzXzXzXzXzXzXzXzXzXzXzXzXzXzXzXzXzXzXzXzX  w v z 5 2 t 9 w   # w 5 q 2 t S 2   q y ..< O 2 q O   t 7 w k k k v l c . . # zXzXzXzXzX",
"zXzXzXzXzXzXzXzXzXzXzXzXzXzXzXzXzXzXzXzXzXzXzXzX  : v h 5 2 0 q 9   ; q # q # t i 7 < # # H < O 2 t O @ : 5 6 > k k k v k . - x . O zXzXzX",
"zXzXzXzXzXzXzXzXzXzXzXzXzXzXzXzXzXzXzXzXzXzXzXzX  6 c h 5 4 q 9 ; @ o @ 9 5 5 5 t 5 2 #   F 3   # 5 O o q t 2 * w c w : 6 6 Y Y f z g.zXzX",
"zXzXzXzXzXzXzXzXzXzXzXzXzXzXzXzXzXzXzXzXzXzXzXzX  w c h # 2 0 q 9 # . # 9 2 q 7 2 2 2 #   H 8 O 2 2 O o q e q q 6 y #   # K a.a.U ' f w zX",
"zXzXzXzXzXzXzXzXzXzXzXzXzXzXzXzXzXzXzXzXzXzXzXzX. 5 c z 5 3 t 9 q o f z     # q 0 2 q #   P 3 O # + O   * 9 q 7 2 + # ; # & K T $ 0.0.c @ ",
"zXzXzXzXzXzXzXzXzXzXzXzXzXzXzXzXzXzXzXzXzXzXzX  r v c y 5 2 q q q + % z L I 5 o @ @ #     2 O O + L % O @ ; e 9 O # q q :   8 b i.f ' K   ",
"zXzXzXzXzXzXzXzXzXzXzXzXzXzXzXzXzXzXzXzXzXzXzX  z y r e q 2 ; q q O . = w x f 6 - - 6 6 = p 6 6 6 y 7 O   o @ 9   e 9 #   ;.q l x.b j T ~ ",
"zXzXzXzXzXzXzXzXzXzXzXzXzXzXzXzXzXzXzXzXzXzXzX  w x y 2 q 9 q 9 0 X * = $ $ j ' ' ' ' 0.p.0.3.p.] . + .     . #   e : q @ zXq d _.U.z *.zX",
"zXzXzXzXzXzXzXzXzXzXzXzXzXzXzXzXzXzXzXzXzXzX&.o r x 6 # 2 q q q ; . > k > r % . O + . . O . O + + 8 y # O zXu X e @ 9 @ # zX  1.:Xp G.yXzX",
"u K.zXzXzXzXzXzXzXzXzXzXzXzXzXzXzXzXzXX   : ~ . r w * 2 q q q 9 9   : m l > > q 5 2 #   O 7 t 7 . t # O   zXzX) o X @ e P.zX  <.>X$ zXzXzX",
"X c.zXzXzXzXzXzXzXzXzXzXzXzXzXzXzXzXv.o ; o X . w w * q q q q q : X : l k l l z 5 2 2 O . Z R C   # t & # zXzXzXX     zXzXzXO >.>X. zXzXzX",
"X . m zXzXzXzXzXzXzXzXzXzXzXzXzX. . % s m s >   9 : # : 2 ; q 9 # X w b h k c y 2 2 2 < < G Q F # X 0 5 k   zXzXzXzXzXzXzXzX  >.:X. zXzXzX",
"  2   9 (.zXzXzXzXzXzXzXzX)   X k > r m k a :   1 o             .   w l k c c w 5 2 < 2 F O.V.O.S . @ 7 k   zXzXzXzXzXzXzXzX  >.:X. zXzXzX",
"O q # o u X [ zXzXzXzXzX_ m q * v c k k k a >   @ o # # # X 5 z x * > l k c y q 2 o 2 C / $.A.O.P   @ y k   zXzXzXzXzXzXzXzX  <.:X. zXzXzX",
"  + e e o o W zXzXzXzXg.: > c z k l h l c s r   X   : # ; X f 0.q.= : c k t 2 2 2 2 G } | $.C.| D   2 i k   zXzXzXzXzXzXzXzX  >.:X. zXzXzX",
"  o q ; q e @ X O zXzX  r m k > h j k h l a >   O       X   = 4.q.= q v k 2 0 @ O i F o.$.*.%.$.R   @ w k   zXzXzXzXzXzXzXzX  >.:X. zXzXzX",
"zX  o e # 5 q q # o   + w m r k h l v v k h k k a h v e # . f 3.4.6 + 2 3 ; O 2 F H O.$.V.$.C.O.P   # : k   zXzXzXzXzXzXzXzX  <.0X$ I.zXzX",
"zX    q q q q q q # o % # * * # % w v v v c k k c k l c o 6 T a.q.6 # 7 0   2 Z E X.$.V.$.V.$.O.P O @ w k   zXzXzXzXzXzXzXzXX >.<X,.g.c.zX",
"zX=.) @ 5 ; 2 q q q 9 w .   . . o o * : > > > * : : : 6 . v p.4.q.- # * # 2 Z Q | V.V.$.$.V.*.O.P O 2 : k   zXzXzXzXzXzXzXzX&.n.`.Y.j o zX",
"zXzX;.  # 5 9 9 e 0 q w # q q q : o                   & . z 0.4.4.= o & O S Q | $.V.Z.V.$.V.$.O.F O @ w k   zXzXzXzXzXzXzXzXzXP.o m.v C zX",
"zXzXzX  e 9 * q q 2 2 2 t 0 9 q 2 9 q 0 9 2 2 2 2 2 # #   o f 3.4.- O 8 S Q ..V.V.Z.$.$.$.$.$.O.P O ; : k   zXzXzXzXzXzXzXzXzXzX. _.n X zX",
"zXzXzXI.# o 9 q # e 9 2 5 # 9 t q q q 5 # 5 3 3 5 2 5 2 O O 7 6 6 t Z D Q  .$.Z.$.$.#.$.$.*.C.#.P O q w w   zXzXzXzXzXzXzXzXzXzXO _.k.`   ",
"zXzXzXzX( e @ 9 9 e # e e t e # 5 2 2 5 5 2 2 8 8 3 < 2 O + O O 2 C F R X.A.V.V.A.V.A.V.$.O.O.E 7   # w k   zXzXzXzXzXzXzXzXzXzX. |.].r.  ",
"zXzXzXzXzX  X # O e e e 2 # 2 q 2 3 5 2 7 2 2 2 2 2 2 t     O 2 Z F R X.D.V.V.V.V.V.D.V.O.Q H C , O O t r   zXzXzXzXzXzXzXzXzXzX  %X{.r.  ",
"zXzXzXzXzXzXzX/.e     O o q 1 o 2 2 2 3 2 O O       _ tX2 O , O < C R R R } P H R H E / H G 4 , , 2 O . :   zXzXzXzXzXzXzXzXzXzX  ,X{.r.  ",
"zXzXzXzXzXzXzXzXzXzXzXzXo O   # O O O O O O zXzXzXzXzXzXX 2 < < O , 3 2 < 2 2 2 2 2 1 2 2 2 1 4 G S 2   5   zXzXzXzXzXzXzXzXzXzX  ,X{.r.O ",
"zXzXzXzXzXzXzXzXzXzXzXzX@ 2               zXzXzXzXzXzXzXO 7 C G C < O O O   O O O O   X O O 0 E o.o.2 O q   zXzXzXzXzXzXzXzXzXzX  [._.t.O ",
"zXzXzXzXzXzXzXzXzXzXzXzXzXzXzXzXzXzXzXzXzXzXzXzXzXzXzX  2 A ..X.Q G B < 3 , , 3 3 < O O 3 B D X...| 3 O q   zXzXzXzXzXzXzXzXzXzXzXX r.e.  ",
"zXzXzXzXzXzXzXzXzXzXzXzXzXzXzXzXzXzXzXzXzXzXzXzXzXzXzX  2 C Q B...Q C < , < < < 8 3 O 3 ..O.X.....} 0 + :   zXzXzXzXzXzXzXzXzXzXzX  r.e.  ",
"zXzXzXzXzXzXzXzXzXzXzXzXzXzXzXzXzXzXzXzXzXzXzXzXzXzXzX  , C Q o...| F , O , 3 3 2 < O 3 ..X.H F } G 1 @ q   zXzXzXzXzXzXzXzXzXzXzX  r.e.  ",
"zXzXzXzXzXzXzXzXzXzXzXzXzXzXzXzXzXzXzXzXzXzXzXzXzXzXzX  O @ 1 4 A A 3 O O 3 3 < 3 3 O 1 C t 1 # 0 X X O 2   zXzXzXzXzXzXzXzXzXzXzXX r.e.  ",
"zXzXzXzXzXzXzXzXzXzXzXzXzXzXzXzXzXzXzXzXzXzXzXzXzXzXzX    * 6 - , O O @ 7 3 3 < 3 3 + O 5 O * = 6 O   : o   zXzXzXzXzXzXzXzXzXzXzX  r.e.  ",
"zXzXzXzXzXzXzXzXzXzXzXzXzXzXzXzXzXzXzXzXzXzXzXzXzXzXzX  5 L 6.7.+ O 1 @ O 3 V 3 7 < O * 2 6 x s.Y . o ;   zXzXzXzXzXzXzXzXzXzXzXzXX r.e.  ",
"zXzXzXzXzXzXzXzXzXzXzXzXzXzXzXzXzXzXzXzXzXzXzXzXzXzXzXo iXt.f D.' w I.zX2 2 , 3 < V 8 @   3.g o %   @ ;   zXzXzXzXzXzXzXzXzXzXzXzXX r.e.  ",
"zXzXzXzXzXzXzXzXzXzXzXzXzXzXzXzXzXzXzXzXzXzXzXzXzXzXzXo uX#Xj.z 0.f zXzXzXO + t 4 3 O & L = H.Q.T.. @ #   zXzXzXzXzXzXzXzXzXzXzXzX  r.9.  ",
"zXzXzXzXzXzXzXzXzXzXzXzXzXzXzXzXzXzXzXzXzXzXzXzXzXzXzX# m.7X@Xu.v % zXzXzXt 2 O < V 4 & b { E.*XiX% 9 1   zXzXzXzXzXzXzXzXzXzXzXzX  r.e.  ",
"zXzXzXzXzXzXzXzXzXzXzXzXzXzXzXzXzXzXzXzXzXzXzXzXzXzXzX. % W.8XrX    zXzXzXzXq 2 3 8 V + # uXh.u.5X$ 9 1   zXzXzXzXzXzXzXzXzXzXzXzXX r.e.  ",
"zXzXzXzXzXzXzXzXzXzXzXzXzXzXzXzXzXzXzXzXzXzXzXzXzXzXzXo uXh.o o   zXzXzXzXzX# # 3 , < 3 . uX5X@X.   9 0   zXzXzXzXzXzXzXzXzXzXzXzX  r.e.  ",
"zXzXzXzXzXzXzXzXzXzXzXzXzXzXzXzXzXzXzXzXzXzXzXzXzXzXzX& w.T.~.W.  zXzXzXzXzXI.S.+ 3 8 # . f.f.H.R.p # ; X zXzXzXzXzXzXzXzXzXzXzXzXX r.e.  ",
"zXzXzXzXzXzXzXzXzXzXzXzXzXzXzXzXzXzXzXzXzXzXzXzXzXzXzX+ p v.*XrXO zXzXzXzXzXzXzXO 5 + < O f.y.v.R.% q ;   zXzXzXzXzXzXzXzXzXzXzXzXX r.e.  ",
"zXzXzXzXzXzXzXzXzXzXzXzXzXzXzXzXzXzXzXzXzXzXzXzXzXzXzX+ p.p 9.6Xe zXzXzXzXzXzXzXt O < 1 # 4X6X^.o   9 @ # zXzXzXzXzXzXzXzXzXzXzXzXX r.e.  ",
"zXzXzXzXzXzXzXzXzXzXzXzXzXzXzXzXzXzXzXzXzXzXzXzXzXzXzXo 6.7.L . (.zXzXzXzXzXzXzXtXO 2 1 O = & 6 0.& O W zXzXzXzXzXzXzXzXzXzXzXzXzXX r.e.  ",
"zXzXzXzXzXzXzXzXzXzXzXzXzXzXzXzXzXzXzXzXzXzXzXzXzXzXzX+ Y d.L X zXzXzXzXzXzXzXzXyX  # 2 1 O K Y 3.& + X zXzXzXzXzXzXzXzXzXzXzXzX% [.].9.  ",
"zXzXzXzXzXzXzXzXzXzXzXzXzXzXzXzXzXzXzXzXzXzXzXzXzXzXzX. ' T 6 o zXzXzXzXzXzXzXzXzX( 2 2 @ O K Y I o e zXzXzXzXzXzXzXzXzXzXzXzXzXo {.}.e.O ",
"zXzXzXzXzXzXzXzXzXzXzXzXzXzXzXzXzXzXzXzXzXzXzXzXzXzXzX  f.j $   zXzXzXzXzXzXzXzXzXzX    @ O I K % . ( zXzXzXzXzXzXzXzXzXzXzXzXzX. oXl.' q ",
"zXzXzXzXzXzXzXzXzXzXzXzXzXzXzXzXzXzXzXzXzXzXzXzXzXzXzX  $ E./.  zXzXzXzXzXzXzXzXzXzX  X 0 @ o y.3X. zXzXzXzXzXzXzXzXzXzXzXzXzXzX. x.n ' zX",
"zXzXzXzXzXzXzXzXzXzXzXzXzXzXzXzXzXzXzXzXzXzXzXzXzXzXzXO ~.b.`   zXzXzXzXzXzXzXzXzXzXzX~ 1 . b.*XpXR.v.  O zXzXzXzXzXzXzXzXzXzXzX. U.n o zX",
"zXzXzXzXzXzXzXzXzXzXzXzXzXzXzXzXzXzXzXzXzXzXzXzXzXzXzX. ~.` p 6 zXzXzXzXzXzXzXzXzXzXzXzXO . W.;XoX@X' 6 f zXzXzXzXzXzXzXzXzXzXzX. w.k zXzX",
"zXzXzXzXzXzXzXzXzXzXzXzXzXzXzXzXzXzXzXzXzXzXzXzXzXzXzX  = T a.q.. ;.zXzXzXzXzXzXzXzXzXzXO o R.@X  $ f U 4.. O c zXzXzXzXzXzXzXzX    zXzXzX",
"zXzXzXzXzXzXzXzXzXzXzXzXzXzXzXzXzXzXzXzXzXzXzXzXzXzXzX& x Y 0.3.' y zXzXzXzXzXzXzXzXzXzXzX1 * p Y 0.6.s.s.p.0.z w zXzXzXzXzXzXzX  X zXzXzX",
"zXzXzXzXzXzXzXzXzXzXzXzXzXzXzXzXzXzXzXzXzXzXzXzXzXzXzXzXzXzXzXzXJ.zXzXzXzXzXzXzXzXzXzXzXzXzXzXzXzXzXzXzXzX!.zXzX&.zXzXzXzXzXzXzXzXzXzXzXzX",
"zXzXzXzXzXzXzXzXzXzXzXzXzXzXzXzXzXzXzXzXzXzXzXzXzXzXzXzXzXzXzXzXzXzXzXzXzXzXzXzXzXzXzXzXzXzXzXzXzXzXzXzXzXzXzXzXzXzXzXzXzXzXzXzXzXzXzXzXzX",
"zXzXzXzXzXzXzXzXzXzXzXzXzXzXzXzXzXzXzXzXzXzXzXzXzXzXzXzXzXzXzXzXzXzXzXzXzXzXzXzXzXzXzXzXzXzXzXzXzXzXzXzXzXzXzXzXzXzXzXzXzXzXzXzXzXzXzXzXzX"
};
