/* XPM */
static char *result[] = {
/* columns rows colors chars-per-pixel */
"57 90 230 2 ",
"   c #030303",
".  c #0B0404",
"X  c #050906",
"o  c #0B0906",
"O  c #04040A",
"+  c #0A060A",
"@  c #060A0A",
"#  c #0C0B0C",
"$  c #120404",
"%  c #1A0404",
"&  c #120907",
"*  c #1A0905",
"=  c #11050A",
"-  c #130C0C",
";  c #1C0C0D",
":  c #1B0409",
">  c #0D100E",
",  c #061007",
"<  c #13110E",
"1  c #1A120D",
"2  c #191509",
"3  c #040412",
"4  c #0A0612",
"5  c #070B12",
"6  c #0C0C13",
"7  c #0E0D19",
"8  c #0C071C",
"9  c #130712",
"0  c #120E13",
"q  c #1A0C13",
"w  c #110F1C",
"e  c #180614",
"r  c #0E1112",
"t  c #0D121B",
"y  c #061618",
"u  c #121213",
"i  c #1C1414",
"p  c #161816",
"a  c #1D1A15",
"s  c #13131C",
"d  c #1C1519",
"f  c #14191B",
"g  c #1B1A1A",
"h  c #2B0C0E",
"j  c #250908",
"k  c #22140E",
"l  c #28150F",
"z  c #240C13",
"x  c #290B15",
"c  c #221614",
"v  c #291614",
"b  c #241915",
"n  c #291A15",
"m  c #24151A",
"M  c #2A151B",
"N  c #231B1A",
"B  c #2A1B1A",
"V  c #32131B",
"C  c #321A1A",
"Z  c #3B1B1C",
"A  c #391814",
"S  c #1E211E",
"D  c #28201C",
"F  c #37231F",
"G  c #141422",
"H  c #181624",
"J  c #161A22",
"K  c #1A1B25",
"L  c #1C1C2A",
"P  c #14152A",
"I  c #1E1D34",
"U  c #100F22",
"Y  c #2B1C22",
"T  c #241A26",
"R  c #331C24",
"E  c #3C1D24",
"W  c #3C1F29",
"Q  c #331524",
"!  c #221F31",
"~  c #210B31",
"^  c #1D212B",
"/  c #1F2420",
"(  c #1D2431",
")  c #1F2138",
"_  c #1C3631",
"`  c #2B2324",
"'  c #21232D",
"]  c #2B2B2B",
"[  c #282527",
"{  c #332423",
"}  c #3C232B",
"|  c #322C2D",
" . c #3C2A2E",
".. c #362327",
"X. c #2C312D",
"o. c #35312A",
"O. c #232433",
"+. c #252935",
"@. c #2A2B35",
"#. c #262639",
"$. c #26293A",
"%. c #2A2D3A",
"&. c #2B2636",
"*. c #2C3235",
"=. c #23313C",
"-. c #2C343D",
";. c #2C3A3D",
":. c #343434",
">. c #31363C",
",. c #34393C",
"<. c #3A3D3B",
"1. c #373735",
"2. c #342338",
"3. c #441A1A",
"4. c #4A2916",
"5. c #4C2C1D",
"6. c #4C2818",
"7. c #431E2C",
"8. c #491E2D",
"9. c #461F32",
"0. c #4B1E31",
"q. c #511C30",
"w. c #44232E",
"e. c #48282A",
"r. c #512621",
"t. c #5A2624",
"y. c #5C2924",
"u. c #5B2B29",
"i. c #532A25",
"p. c #49352E",
"a. c #45352D",
"s. c #55322B",
"d. c #5A302B",
"f. c #523124",
"g. c #442430",
"h. c #4B2432",
"j. c #472B37",
"k. c #443232",
"l. c #4A3532",
"z. c #4C3A35",
"x. c #443B3D",
"c. c #573938",
"v. c #592F33",
"b. c #693537",
"n. c #703931",
"m. c #3C413D",
"M. c #5F441F",
"N. c #48403B",
"B. c #54463B",
"V. c #5C453C",
"C. c #574923",
"Z. c #7A4338",
"A. c #2D2C43",
"S. c #2E3541",
"D. c #2E3941",
"F. c #323542",
"G. c #323943",
"H. c #363949",
"J. c #353652",
"K. c #5B3C41",
"L. c #6D3946",
"P. c #3E4446",
"I. c #424443",
"U. c #4A4344",
"Y. c #4D4C4D",
"T. c #554947",
"R. c #47504C",
"E. c #54524D",
"W. c #535653",
"Q. c #5B5C5B",
"!. c #405250",
"~. c #684A4C",
"^. c #7E4641",
"/. c #754C4B",
"(. c #78554B",
"). c #775A54",
"_. c #6D5250",
"`. c #77625F",
"'. c #676965",
"]. c #7A7A78",
"[. c #716F6B",
"{. c #874334",
"}. c #944A37",
"|. c #A75E3A",
" X c #8D6437",
".X c #8A6929",
"XX c #A87539",
"oX c #A16F36",
"OX c #CB7538",
"+X c #8C3B4B",
"@X c #8A4249",
"#X c #9A5642",
"$X c #8E4D4C",
"%X c #A95D58",
"&X c #976442",
"*X c #B67655",
"=X c #A96155",
"-X c #9A5E71",
";X c #997568",
":X c #8F726A",
">X c #A6766B",
",X c #A67D79",
"<X c #CD7B44",
"1X c #D27D45",
"2X c #C67A52",
"3X c #C37476",
"4X c #B18438",
"5X c #D59D3E",
"6X c #B88554",
"7X c #BCA257",
"8X c #9D827E",
"9X c #A68577",
"0X c #CB9454",
"qX c #D1AB4F",
"wX c #F2B94B",
"eX c #878A89",
"rX c #989998",
"tX c #92948D",
"yX c #AD8D83",
"uX c #B38C8A",
"iX c #B79487",
"pX c #B4968E",
"aX c #C69289",
"sX c #EEB89D",
"dX c #F6AAA3",
"fX c #EBB6A5",
"gX c #FDBDAC",
"hX c #FCB6A4",
"jX c #F3B9B1",
"kX c None",
/* pixels */
"kXkXkXkXkXkXkXkXkXkXkXkXkXkXkXkXkXkXkXkXkXkXkXkXkXkXkXkXkXkXkXkXkXkXkXkXkXkXkXkXkXkXkXkXkXkXkXkXkXkXkXkXkXkXkXkXkX",
"kXkXkXkXkXkXkXkXkXkXkXkXkXkXkXX.< < i u i < < i D X       1.kXkXkXkXkXkXkXkXkXkXkXkXkXkXkXkXkXkXkXkXkXkXkXkXkXkXkX",
"kXkXkXkXkXkXkXkXkXkXkXkXkXkXkX  b b N b c c N a - & & - . [ o.kXkXkXkXkXkXkXkXkXkXkXkXkXkXkXkXkXkXkXkXkXkXkXkXkXkX",
"kXkXkXkXkXkXkXkXkXkXkXkXkXkXkXX b b b k c n c c n B b n c < o o kXkXkXkXkXkXkXkXkXkXkXkXkXkXkXkXkXkXkXkXkXkXkXkXkX",
"kXkXkXkXkXkXkXkXkXkXkXkXkXkX*.X N N b D b a b D b v n N B v c p X m.kXkXkXkXkXkXkXkXkXkXkXkXkXkXkXkXkXkXkXkXkXkXkX",
"kXkXkXkXkXkXkXkXkXkXkXkXkXkXkXkXo i i a b 2 o & b n n b - = . - u p ] kXkXkXkXkXkXkXkXkXkXkXkXkXkXkXkXkXkXkXkXkXkX",
"kXkXkXkXkXkXkXkXkXkXkXkXkXkXkXkX# u 2 1 < & & - 1 b 1 q 9 q q x c #   kXkXkXkXkXkXkXkXkXkXkXkXkXkXkXkXkXkXkXkXkXkX",
"kXkXkXkXkXkXkXkXkXkXkXkXkXkXkXkXkXu       2 n D b D a $ R 9.9.g.i o   kXkXkXkXkXkXkXkXkXkXkXkXkXkXkXkXkXkXkXkXkXkX",
"kXkXkXkXkXkXkXkXkXkXkXkXkXkXkXkXo   2 N a b 2 b n * 3.@Xh   j +XE   o kXkXkXkXkXkXkXkXkXkXkXkXkXkXkXkXkXkXkXkXkXkX",
"kXkXkXkXkXkXkXkXkXkXkXkXkXkXkXkX. u ; N k k D b ; ../.%X>X,X9XaXl.o # / kXkXkXkXkXkXkXkXkXkXkXkXkXkXkXkXkXkXkXkXkX",
"kXkXkXkXkXkXkXkXkXkXkXkXkXkXeX1.& 2 b k b A i f . b.%X3XdXdXgXfXz.o N   kXkXkXkXkXkXkXkXkXkXkXkXkXkXkXkXkXkXkXkXkX",
"kXkXkXkXkXkXkXkXkXkXkXkXkXkXkX# 1 b b v n a u @ h b.3XgXfXsXgXdXc.. `   kXkXkXkXkXkXkXkXkXkXkXkXkXkXkXkXkXkXkXkXkX",
"kXkXkXkXkXkXkXkXkXkXkXkXkXkXkXX b n m B v 0 0 O +   B.sXgXhXfX& o - N . 1.kXkXkXkXkXkXkXkXkXkXkXkXkXkXkXkXkXkXkXkX",
"kXkXkXkXkXkXkXkXkXkXkXkXkXkXkX  b n B m d + + : L.L.b.V.jXhXjX  X # m - ] ] kXkXkXkXkXkXkXkXkXkXkXkXkXkXkXkXkXkXkX",
"kXkXkXkXkXkXkXkXkXkXkXkXkXkXkX  k 2 - r 4 # X $ v.$X+XV ;X9X:Xz + - - ` X   kXkXkXkXkXkXkXkXkXkXkXkXkXkXkXkXkXkXkX",
"kXkXkXkXkXkXkXkXkXkXkXkXkXkXkX  i 2     O X y 3 j d.-X$X1 O $ 7 7 . . g -   kXkXkXkXkXkXkXkXkXkXkXkXkXkXkXkXkXkXkX",
"kXkXkXkXkXkXkXkXkXkXkXkXkXkXkX  . 2 o     e e & 7XM.+ 2 @ C.qXj O # #   - u u tXkXkXkXkXkXkXkXkXkXkXkXkXkXkXkXkXkX",
"kXkXkXkXkXkXkXkXkXkXkXkXkXkXkX  u a < X # # # $ 0XXXoXXX X4XqXO U 4 + O . 6 + :.kXkXkXkXkXkXkXkXkXkXkXkXkXkXkXkXkX",
"kXkXkXkXkXkXkXkXkXkXkXkXkXW.<.> N 1 o # # 0 7 i Z.&X6X0XwXqX Xl O.J 4 7 7 0 # X <.kXkXkXkXkXkXkXkXkXkXkXkXkXkXkXkX",
"kXkXkXkXkXkXkXkXkXkXkXkXkX# < N a & o o O ~ 2.o.. o 4.OXwX.X$ _ =.O.' ! ! H X u # u kXkXkXkXkXkXkXkXkXkXkXkXkXkXkX",
"kXkXkXkXkXkXkXkXkXkXkXkXkX  < N a -   O f *._ A.J.H.S 8 O J ;.:.H.-.S.S.%.s X o X   kXkXkXkXkXkXkXkXkXkXkXkXkXkXkX",
"kXkXkXkXkXkXkXkXkXkXkXkXkX# o c > o   O K %.S.;.D.S._ J O s ;.;.*.-.S.A.K @ # u X   kXkXkXkXkXkXkXkXkXkXkXkXkXkXkX",
"kXkXkXkXkXkXkXkXkXkXkXkX[.] & m   o 6 6 s O.=.S.D.D.G.-.5 s +.;.-.S.H.%.t o u u + X kXkXkXkXkXkXkXkXkXkXkXkXkXkXkX",
"kXkXkXkXkXkXkXkXkXkXkXkXg u c m   # u 6 + K O.-.D.D.-.;.*.K @ ;.D.S.S.O.s @ u # # X kXkXkXkXkXkXkXkXkXkXkXkXkXkXkX",
"kXkXkXkXkXkXkXkXkXkXkXkX  - c v   6 p 6   t O.%.F.F.S.;.,.^ O *.-.S.S.L 5 X u 0 X   kXkXkXkXkXkXkXkXkXkXkXkXkXkXkX",
"kXkXkXkXkXkXkXkXkXkXkXkXX a m n   + u 6 # s G L +.-.D.;.;.^ O -.-.S.$.G 6 @ u X *.I.kXkXkXkXkXkXkXkXkXkXkXkXkXkXkX",
"kXkXkXkXkXkXkXkXkXkXkXkX  m B k   # u # u # 7 J O.$.-.D.D.^   ,.>.%.^ O # u p X :.kXkXkXkXkXkXkXkXkXkXkXkXkXkXkXkX",
"kXkXkXkXkXkXkXkXkXkXkXkX- 1 i c   # u u # # # 6 H %.D.D.*.^ O *.F.%.f O # o u   kXkXkXkXkXkXkXkXkXkXkXkXkXkXkXkXkX",
"kXkXkXkXkXkXkXkXkXkXkX:.- c i 1 @ X # # u u > @ 6 L $.-.;.*.f J %.( 5 # u u #   kXkXkXkXkXkXkXkXkXkXkXkXkXkXkXkXkX",
"kXkXkXkXkXkXkXkXkXkXkXX 2 N q # u o X   # - u # O 7 +.D.-.S.-.@ K L O u u < # :.Q.kXkXkXkXkXkXkXkXkXkXkXkXkXkXkXkX",
"kXkXkXkXkXkXkXkXkXkXkX. b 2 i w 0 u #     X < > O u +.-.;.*.;.O s L   s o # u ].rXkXkXkXkXkXkXkXkXkXkXkXkXkXkXkXkX",
"kXkXkXkXkXkXkXkXkXkXkX. b b p 6 u u X   # X o r 6 O 5 ^ G.-.>.  t J O u X #   - I.kXkXkXkXkXkXkXkXkXkXkXkXkXkXkXkX",
"kXkXkXkXkXkXkXkXkXI.a 1 m a 6 7 r < #   6 6 O + u - # 5 >.>.>.  J w   X   O u . S ,.kXkXkXkXkXkXkXkXkXkXkXkXkXkXkX",
"kXkXkXkXkXkXkXkXkXX o N m 0 # 7 u 6 o   - 0 6 # # 0 >   *.G.-.  H s O     O d # # S 1.kXkXkXkXkXkXkXkXkXkXkXkXkXkX",
"kXkXkXkXkXkXkXkXkX# - n a u 0 s > u #   r # s d + X # @ ' *.*.@ u 7 + #   O 0 u T o o o W.kXkXkXkXkXkXkXkXkXkXkXkX",
"kXkXkXkXkXkXkXkXkXX o b m q 6 u < u #   6 0 7 0 d # X X 5 J %.*.r + 3 s   # 7 0 a N D p o o g [.kXkXkXkXkXkXkXkXkX",
"kXkXkXkXkXkXkXkXkX# o n a 0 6 s r u o   > u 0 0 0 u < X   O s -.u 4 4 s O O 6 0 d n n N p p p D   m.kXkXkXkXkXkXkX",
"kXkXkXkXkXkXkXkXI.` ; c d s 6 > # u #   r r r u 0 0 - & o X X -.s   6 u # O r 0 0 m T b 2 D g   - | x.kXkXkXkXkXkX",
"kXkXkXkXkXkXkXkXo - B c d 0 > r u u #   # u r r 0 0 u n i < X %.t X 6 # X O r r u i N b b c c = R m $ - Y.kXkXkXkX",
"kXkXkXkXkXkXkXkX  i m a i u r > # # #     # r r u u 6 u 0 o   ' 6 X # u + X r r 6 6 - N o . = Y W h.g. .i | kXkXkX",
"kXkXkXkXkXkXkXkX  i m i u 0 u r u u + . m - + + u u 0 7 > #   ' 6 # u   O O u u u r # # o o - q } V x 7.} ` 1.kXkX",
"kXkXkXkXkXkXkXkXX - n c - - r r > u o $ m m q q = + # 4 # #   s + O # u +   # 6 r 6 @ . > > 7 @ d M R h 7.R X kXkX",
"kXkXkXkXkXkXkXkX. 1 m g 0 6 u > r u #   $ B  .R +     O         . . = Y s   # + u @   > u > > u # [ y.x h ..u kXkX",
"kXkXkXkXkXkXkXkXo 1 N u 6 0 u 6 r u -   < o   + { w.w.8.0.h.7.8.E  .R e + 6 X X # #   > > r > #   M {.~.Z 3 kXkXkX",
"kXkXkXkXkXkXkX1.1 i N u # 7 u u u u o   a p i 1 q z j ; q q q q q q q = + 0 + Q.[ # # u f # # P.. F |.C B.!.kXkXkX",
"kXkXkXkXkXkXkX  T i 0 u 6 r u r s u o . i v C m # @ @ X .   O 4 0 + O u s - X rX:.# #   # p ] kX  r.0X. E.kXkXkXkX",
"kXkXkXkXkXkXkXX m - 0 6 < r u # r 7 #   2 n l c g f r < = = 0 H T s O # a d u ].<.X       ] kXkX3 6.OX+ kXkXkXkXkX",
"kXkXkXkXkXkXkX  u - i u 0 u u # 6 u o   N a a a q = 0 5 @ 7 P -.&.t O # i c g o I.kXkXkXkXkXkXkXO 4.<X+ kXkXkXkXkX",
"kXkXkXkXkXkXkX  > u # # . X .   + + O   c b c d 6 u u O 6 G ( =.$.( s + 2 b c   kXkXkXkXkXkXkXkX  4.1X  kXkXkXkXkX",
"kXkXkXkXkXkXkX  u # o @ @ X     q m 0   m N w 0 0 # # t K ' +.-.S.%.L O . b c   kXkXkXkXkXkXkXkXO 4.1X. kXkXkXkXkX",
"kXkXkXkXkXkXkX@ u o @ r r r # @ g.g.M   B s 0 0 r X # ' ^ #.-.S.G.=.L 5 0 b i   kXkXkXkXkXkXkXkX  6.1X  kXkXkXkXkX",
"kXkXkXkXkXkXkXX X   X           9.0.M   m i 6 0 # O 7 I I O.S.D.;.-.$.O.0 o 1   kXkXkXkXkXkXkXkX  6.1X. kXkXkXkXkX",
"kXkXkXkXkXkXkXkX:.` . u u u o . 0.0.M   1 0 r > @ y P I A.A.-.S.-.-.S.$.L i i   kXkXkXkXkXkXkXkX  6.1X  kXkXkXkXkX",
"kXkXkXkXkXkXkXkXkXo i b S 2 ; z g.h.Y   # 0 0 4 8 P +.+.-.=.S.S.-.-.-.S.&.G X 1.kXkXkXkXkXkXkXkX5 5.2X3.U.kXkXkXkX",
"kXkXkXkXkXkXkXkX  2 n b a o q w.h.q.x X 0 u . + L O.( %.-.S.-.-.-.-.F.F.&.G # kXkXkXkXkXkXkXkXkX3 f.*X^.C X kXkXkX",
"kXkXkXkXkXkXkX  N c b 2 N $ ; E 0.q.x   7 + s K L O.S.-.-.S.S.-.-.-.>.%.O.s   kXkXkXkXkXkXkXkXkXkXT.j n.V O kXkXkX",
"kXkXkXkXkXkX< i D b B b b 1 ; z 7.h.Q   6 + 7 K +.-.F.S.S.S.S.S.-.-.-.$.O.G   kXkXkXkXkXkXkXkXkXkXkX  $XB X kXkXkX",
"kXkXkXkXkX< - D k l k l C B 1 - Y M q O # 4 L O.-.-.S.S.-.-.-.-.;.-.+.L L s X kXkXkXkXkXkXkXkXkXkXkXX n.r.c kXkXkX",
"kXkXkX].# 1 i n k b n n k v n c O   # # O s O.>.>.*.>.-.-.G.G.-.F.%.O.L L s   kXkXkXkXkXkXkXkXkXkXT.4 {.n.d.# kXkX",
"kXkXkXrXo 1 b b n c b B v n b c # r u u O f +.-.-.S.S.F.>.-.%.O.L G 3 O O O # kXkXkXkXkXkXkXkXkXkXkX. 2X#Xr.  kXkX",
"kXkXkX1.o a m b b b v n c m c 1 # u # O u L ) #.#.&.#.$.O.#.#.O.s 5 3 3   / W.kXkXkXkXkXkXkXkXkXkX*.$ OX|.5.  kXkX",
"kXkXkX  ` c v b b b b b n a i u 0 u @   u H 7 7 U G U 7 w U G G 3 6 H H @ r kXkXkXkXkXkXkXkXkXkXkX'.$ OX}.d.  kXkX",
"kXkXE.. N n b N b c c b v i 6 0 # O       O O O O O O O O O O O 6 K A.! r   kXkXkXkXkXkXkXkXkXkXkXE.@ *X$Xy.  kXkX",
"kXo 0 N N n b c c n n n i u 7 t 6 O O 7 6 # + + + + 6 + O + # 0 K #.A.#.7   kXkXkXkXkXkXkXkXkXkXkXkXkXj d.y.  kXkX",
"kX  # N b b b b b b N N 0 0 u s O t J L 4 0 O O 7 s 7 3 O X 4 H #.) ) $.r   kXkXkXkXkXkXkXkXkXkXkXkXkX  s.t.  kXkX",
"kX  o a b l b b c c N g 0 0 6 u   J ( #.4 @ # ] + 6 4 7 O O w #.( ( ) ( 6   kXkXkXkXkXkXkXkXkXkXkXkXkX  s.y.  kXkX",
"kXX # N c n b b n c N g 0 0 u 6   O t ( 5 O g kXu O 7 4 O   w ! t t ^ 3 O   kXkXkXkXkXkXkXkXkXkXkXkXkX  s.t.  kXkX",
"kX  o N n k b b m c a q 0 0 #     6 5 t @ Q.'.kXkXG.+ 6 O O 6 w 4   6   #   kXkXkXkXkXkXkXkXkXkXkXkXkX  s.t.  kXkX",
"kXI.o.- n b n b b b i e q s #   ; q + 4 O W.kXkXkX@ @ 4 O O 4 3 = q z + [ kXkXkXkXkXkXkXkXkXkXkXkXkXkX  s.t.  kXkX",
"kXkXo.  n b b v m g i # s f r   W z 9 6 - kXkXkXkX*.@ O   + = 4 Y w.j.@ P.kXkXkXkXkXkXkXkXkXkXkXkXkXkX  s.t.  kXkX",
"kXkXkX. B b b b m i 0 @ p 7 o . g.W M 0 kXkXkXkXkXkXkX  +   = 2.u $ % . kXkXkXkXkXkXkXkXkXkXkXkXkXkXkX  s.t.  kXkX",
"kXkXkX  m n b n m u 0 r u - F `.z { Y   kXkXkXkXkXkXkX    0 d z T.$X(.o kXkXkXkXkXkXkXkXkXkXkXkXkXkXkX  s.t.  kXkX",
"kXkXkXm.- a b c u q 6 r r + a.iXp.B i o kXkXkXkXkXkXkX] :.] m l._.;XpX. U.kXkXkXkXkXkXkXkXkXkXkXkXkXkX  s.t.  kXkX",
"kXkXkXkXX 1 b i u s s r r X k.yXyXl.+ u kXkXkXkXkXkXkXtXkXkX; yXk.l.9X$ x.kXkXkXkXkXkXkXkXkXkXkXkXkXkX  s.t.  kXkX",
"kXkXkXkX# u i u u r 6 + t @ $ : * . :.kXkXkXkXkXkXkXkXkXkXkX$ yXaX/.j X kXkXkXkXkXkXkXkXkXkXkXkXkXkXkX  s.y.  kXkX",
"kXkXkXkXkX> # u # u # 0 # X { [.).B r kXkXkXkXkXkXkXkXkXkXkX. l.k.B.).- kXkXkXkXkXkXkXkXkXkXkXkXkXkXkX. d.r.  kXkX",
"kXkXkXkXkXkXr r p u u s # - ..).iXp.a kXkXkXkXkXkXkXkXkXkXkX. l.l.c.).$ N.kXkXkXkXkXkXkXkXkXkXkXkXkXkX. s.r.  kXkX",
"kXkXkXkXkXkXI.# r u r @ . Y M j 9Xz.u kXkXkXkXkXkXkXkXkXkXkXD :XuX_.# @ Q.kXkXkXkXkXkXkXkXkXkXkXkXkXkX  c.r.  kXkX",
"kXkXkXkXkXkXkXkX  > p > + Q g.g.* T.kXkXkXkXkXkXkXkXkXkXkXkX].1 $ M e.$ kXkXkXkXkXkXkXkXkXkXkXkXkXkXkX* t.u.  kXkX",
"kXkXkXkXkXkXkXkXkX  r 6 = V 0.9.@ kXkXkXkXkXkXkXkXkXkXkXkXkXkXo M E k.. kXkXkXkXkXkXkXkXkXkXkXkXkXkXo.(.^.y.  kXkX",
"kXkXkXkXkXkXkXkXkX<.. u   m W Q   kXkXkXkXkXkXkXkXkXkXkXkXkXkX  Q W R   kXkXkXkXkXkXkXkXkXkXkXkXkXkX. %X}.f.X kXkX",
"kXkXkXkXkXkXkXkXkXkXkXX . V C .   kXkXkXkXkXkXkXkXkXkXkXkXkXkX  [ M $ . kXkXkXkXkXkXkXkXkXkXkXkXkXkX. {.{.z.u kXkX",
"kXkXkXkXkXkXkXkXkXkXkXkXX X p.yXX kXkXkXkXkXkXkXkXkXkXkXkXkXkX  . a.pX& 1.kXkXkXkXkXkXkXkXkXkXkXkXkX. ^.A [ ].kXkX",
"kXkXkXkXkXkXkXkXkXkXkXkX  ~._.p.  kXkXkXkXkXkXkXkXkXkXkXkXkXkX  V.;XiX$Xc.  g kXkXkXkXkXkXkXkXkXkXP.. (.C 5 kXkXkX",
"kXkXkXkXkXkXkXkXkXkXkXkX  T.K.; i K.Y.kXkXkXkXkXkXkXkXkXkXkXkX  (.>X$X`. .q d K.kXkXkXkXkXkXkXkXkXkXo i. .kXkXkXkX",
"kXkXkXkXkXkXkXkXkXkXkXkXX - z h...p :.kXkXkXkXkXkXkXkXkXkXkXkX  `._.2 - M K.Y : . <.kXkXkXkXkXkXkXkX  $  .kXkXkXkX",
"kXkXkXkXkXkXkXkXkXkXkXkX. M 7.h.h.7.Y d kXkXkXkXkXkXkXkXkXkXkX  $ z W 9.9.9.7.w.w.m # kXkXkXkXkXkXkX    kXkXkXkXkX",
"kXkXkXkXkXkXkXkXkXkXkXkX- v w.j.g.g...0 kXkXkXkXkXkXkXkXkXkXkX> . i } 9.W 9.w.w.w.m + kXkXkXkXkXkXkX# @ kXkXkXkXkX",
"kXkXkXkXkXkXkXkXkXkXkXkXkXkXkXkXkXkXkXkXkXkXkXkXkXkXkXkXkXkXkXkXkXkXkXkXkXkXkXkXkXkXkXkXkXkXkXkXkXkXkXkXkXkXkXkXkX",
"kXkXkXkXkXkXkXkXkXkXkXkXkXkXkXkXkXkXkXkXkXkXkXkXkXkXkXkXkXkXkXkXkXkXkXkXkXkXkXkXkXkXkXkXkXkXkXkXkXkXkXkXkXkXkXkXkX"
};
