/* XPM */
static char *result[] = {
/* columns rows colors chars-per-pixel */
"36 90 186 2 ",
"   c #0E0C1B",
".  c #100C19",
"X  c #170C18",
"o  c #0E131D",
"O  c #1D121D",
"+  c #280404",
"@  c #22060A",
"#  c #3A0808",
"$  c #2C1406",
"%  c #2A1905",
"&  c #20160E",
"*  c #2D1B08",
"=  c #251809",
"-  c #361209",
";  c #331E09",
":  c #381A09",
">  c #201616",
",  c #351815",
"<  c #39210C",
"1  c #090E20",
"2  c #180F20",
"3  c #041024",
"4  c #071229",
"5  c #09132C",
"6  c #0D1526",
"7  c #121A27",
"8  c #1A1726",
"9  c #0C1631",
"0  c #0C1A35",
"q  c #0C1F38",
"w  c #181F30",
"e  c #241F2E",
"r  c #1C212B",
"t  c #0D233B",
"y  c #182C3E",
"u  c #2D292E",
"i  c #312F2E",
"p  c #252634",
"a  c #352F3D",
"s  c #440F0C",
"d  c #4B1A0E",
"f  c #541511",
"g  c #671D15",
"h  c #5C2E18",
"j  c #6E2118",
"k  c #62231A",
"l  c #772A1D",
"z  c #6C331E",
"x  c #4E3233",
"c  c #4B2F29",
"v  c #743728",
"b  c #4A4132",
"n  c #544834",
"m  c #5B4D36",
"M  c #695738",
"N  c #715D3A",
"B  c #7D653C",
"V  c #0F2941",
"C  c #112C44",
"Z  c #132F48",
"A  c #102741",
"S  c #14324B",
"D  c #1F374A",
"F  c #163750",
"G  c #173A53",
"H  c #183C55",
"J  c #173F59",
"K  c #183F59",
"L  c #203B4F",
"P  c #3A3B49",
"I  c #18435D",
"U  c #3B4455",
"Y  c #184661",
"T  c #194965",
"R  c #1A4D6B",
"E  c #1B516F",
"W  c #1B5473",
"Q  c #1D5877",
"!  c #1E5C7C",
"~  c #1C5778",
"^  c #29536B",
"/  c #355E77",
"(  c #564F59",
")  c #664D46",
"_  c #715B51",
"`  c #71584F",
"'  c #6F674E",
"]  c #706A51",
"[  c #71725A",
"{  c #4B5D6E",
"}  c #843423",
"|  c #844228",
" . c #8C4A3B",
".. c #A94732",
"X. c #876B3F",
"o. c #9A753C",
"O. c #C45B3F",
"+. c #896A45",
"@. c #8D7244",
"#. c #88754D",
"$. c #927341",
"%. c #9F7C44",
"&. c #9A6D55",
"*. c #956D55",
"=. c #9D7158",
"-. c #99795B",
";. c #867259",
":. c #A2745B",
">. c #A6785E",
",. c #AB7B5D",
"<. c #866E64",
"1. c #8D7165",
"2. c #947364",
"3. c #847579",
"4. c #AC7D63",
"5. c #A07C6D",
"6. c #74826D",
"7. c #90805D",
"8. c #AF8946",
"9. c #AB8442",
"0. c #B18A46",
"q. c #B48E49",
"w. c #BC9149",
"e. c #8A8D6B",
"r. c #AE8165",
"t. c #A08764",
"y. c #B48569",
"u. c #B6886B",
"i. c #BB8B6E",
"p. c #B18975",
"a. c #C89A4A",
"s. c #C2984E",
"d. c #C59B53",
"f. c #DDA84F",
"g. c #D5A24E",
"h. c #D7A653",
"j. c #D9A957",
"k. c #C39473",
"l. c #C99C77",
"z. c #CB9C7A",
"x. c #CCA17E",
"c. c #CDAF6F",
"v. c #E5B865",
"b. c #1E5F80",
"n. c #1F6384",
"m. c #1F6788",
"M. c #1F698A",
"N. c #216B8C",
"B. c #276A88",
"V. c #276F91",
"C. c #227394",
"Z. c #227798",
"A. c #227A9B",
"S. c #2C7C9D",
"D. c #31789A",
"F. c #6E7283",
"G. c #747182",
"H. c #2A85A6",
"J. c #2D87A9",
"K. c #3083A6",
"L. c #3688AB",
"P. c #3A8FB2",
"I. c #3E91B4",
"U. c #789580",
"Y. c #458FB2",
"T. c #4494B7",
"R. c #4495B9",
"E. c #4E9BBE",
"W. c #5895B6",
"Q. c #559DC0",
"!. c #67A8CA",
"~. c #71ADCF",
"^. c #B49386",
"/. c #96A281",
"(. c #A8AB86",
"). c #D2AA85",
"_. c #D9B78D",
"`. c #DBBB92",
"'. c #DBC39B",
"]. c #E0C49A",
"[. c #EADAAC",
"{. c #E8D5A8",
"}. c #E4CDA2",
"|. c #EDE0B2",
" X c #83B8D7",
".X c None",
/* pixels */
".X.X.X.X.X.X.X.X.X.X.X.X.X.X.X.X= % = = % = .X.X.X.X.X.X.X.X.X.X.X.X.X.X",
".X.X.X.X.X.X.X.X.X.X.X.X.X.X.X.X% % % % % % % .X.X.X.X.X.X.X.X.X.X.X.X.X",
".X.X.X.X.X.X.X.X.X.X.X.X.X.X.X% % = = % = % $ .X.X.X.X.X.X.X.X.X.X.X.X.X",
".X.X.X.X.X.X.X.X.X.X.X.X.X.X.X% = % % = % = = .X.X.X.X.X.X.X.X.X.X.X.X.X",
".X.X.X.X.X.X.X.X.X.X.X.X.X.X.X% % % = % % % % .X.X.X.X.X.X.X.X.X.X.X.X.X",
".X.X.X.X.X.X.X.X.X.X.X.X.X.X.X% % % = = = % % .X.X.X.X.X.X.X.X.X.X.X.X.X",
".X.X.X.X.X.X.X.X.X.X.X.X.X.X.X% % % % % % = % .X.X.X.X.X.X.X.X.X.X.X.X.X",
".X.X.X.X.X.X.X.X.X.X.X.X.X.X.X.X+.*.-.7.-.% % .X.X.X.X.X.X.X.X.X.X.X.X.X",
".X.X.X.X.X.X.X.X.X.X.X.X.X:.,.y.k.z.)._.`.2..X.X.X.X.X.X.X.X.X.X.X.X.X.X",
".X.X.X.X.X.X.X.X.X.X.X.X.X&.=.y.k.z.x.)._.{.|..X.X.X.X.X.X.X.X.X.X.X.X.X",
".X.X.X.X.X.X.X.X.X.X.X.X&.&.:.r.4.y.i.k.x.`.{..X.X.X.X.X.X.X.X.X.X.X.X.X",
".X.X.X.X.X.X.X.X.X.X.X.X&.&.=.:.>.4.4.y.k._.{.|..X.X.X.X.X.X.X.X.X.X.X.X",
".X.X.X.X.X.X.X.X.X.X.X&.&.&.&.=.:.:.:.:.,.x.].[..X.X.X.X.X.X.X.X.X.X.X.X",
".X.X.X.X.X.X.X.X.X.X.X&.&.&.&.&.&.&.&.=.-.k.`.}..X.X.X.X.X.X.X.X.X.X.X.X",
".X.X.X.X.X.X.X.X.X.X.X&.=.*.&.&.&.&.&.&.:.u.x.`..X.X.X.X.X.X.X.X.X.X.X.X",
".X.X.X.X.X.X.X.X.X.X.X*.=.1.{ <.&.=.:.1.F.p.x.`..X.X.X.X.X.X.X.X.X.X.X.X",
".X.X.X.X.X.X.X.X.X.X.X.X&.1.{ [ 2.>.4.3./ ^.^.)..X.X.X.X.X.X.X.X.X.X.X.X",
".X.X.X.X.X.X.X.X.X.X.X.X&.&.;.1.&.>.p.5.<.k.z.z..X.X.X.X.X.X.X.X.X.X.X.X",
".X.X.X.X.X.X.X.X.X.X.X.X&.&.&.&.&.>.4.4.4.k.z.z..X.X.X.X.X.X.X.X.X.X.X.X",
".X.X.X.X.X.X.X.X.X.X.X.X.X&.&.&.&.:.4.4.4.4.k..X.X.X.X.X.X.X.X.X.X.X.X.X",
".X.X.X.X.X.X.X.X.X.X.X.X.X&.&.&.&.=.,.4.4.4.k..X.X.X.X.X.X.X.X.X.X.X.X.X",
".X.X.X.X.X.X.X.X.X.X.X.X.X.X&.&.&.&.:.>.4.4..X.X.X.X.X.X.X.X.X.X.X.X.X.X",
".X.X.X.X.X.X.X.X.X.X.X.X.X.X.X.X&.&.=.:.z.j..X.X.X.X.X.X.X.X.X.X.X.X.X.X",
".X.X.X.X.X.X.X.X.X.X.X.X.X.XZ h.,.=.=.y.`.c..X.X.X.X.X.X.X.X.X.X.X.X.X.X",
".X.X.X.X.X.X.X.X.X.X.X9 9 t t h.4.=.&.,.k.(.E..X.X.X.X.X.X.X.X.X.X.X.X.X",
".X.X.X.X.X.X.X.X.X9 5 9 9 5 +.p *.&.>.2.S.6./.I.I..X.X.X.X.X.X.X.X.X.X.X",
".X.X.X.X.X.X.X.X9 5 9 5 4 u B r ) ` _ _ ^ 6.e.A.H.I.R..X.X.X.X.X.X.X.X.X",
".X.X.X.X.X.X9 5 4 4 5 5 3 B M 7 3 0 t Z L [ e.! N.A.J.R.!..X.X.X.X.X.X.X",
".X.X.X.X.X5 4 3 3 3 3 1 3 u B 7 3 0 A Z D ] ;.T E n.Z.J.I.E.~..X.X.X.X.X",
".X.X.X.X.X3 3 3 3 3 3 3 3 3 X.r 3 0 A q A ' #.S I R ! N.H.J.R. X.X.X.X.X",
".X.X.X.X3 3 3 3 3 3 3 3 3 3 +.r 9 9 0 q p #.V C Z H I E Q M.A.I..X.X.X.X",
".X.X.X.X3 3 3 3 3 3 3 3 3 3 m 7 5 5 5 5 p #.t t t Z F I T W M.L.!..X.X.X",
".X.X.X3 3 3 3 3 3 3 3 3 3 3 3 X.7 3 3 3 w @.5 0 0 t A C S Y W S.!..X.X.X",
".X.X.X3 3 3 3 3 3 3 3 3 3 3 3 b N 3 3 7 %.i 4 4 5 0 0 t Z F I B.Y..X.X.X",
".X.X.X3 3 3 3 3 3 3 3 3 3 3 3 3 M N B o.x 3 3 3 5 3 5 0 t C I n.J.~..X.X",
".X.X3 3 3 3 3 3 3 3 3 3 3 3 3 b B h.f.B b 3 3 3 3 3 3 3 5 9 A T N.T..X.X",
".X.X3 3 3 3 3 3 3 3 3 3 3 3 i a.h.d.w.j.g.3 3 3 3 3 3 3 3 5 t T m.L.Q..X",
".X.X3 3 3 3 3 3 3 3 3 3 3 3 X.8.v.j.q.j.w.m 3 3 3 3 3 3 3 3 9 S R V.W..X",
".X3 3 3 3 3 3 3 3 3 3 3 3 n 8.q.j.v.q.w.8.X.3 3 3 3 3 3 3 3 5 A H ! Y..X",
".X3 3 3 3 3 3 3 3 3 3 3 3 o X.0.9.%.j.d.0.+.3 3 3 3 3 3 3 5 9 q V T ! .X",
".X3 3 3 3 3 3 3 3 3 3 3 3 3 m w.j.q.0.v.g.3 3 3 3 3 3 3 3 4 9 q V S R W.",
"3 3 3 3 3 3 3 3 3 3 3 o 3 3 6 X.0.d.a.0.X.3 3 3 3 3 3 3 3 4 9 q V Z H E ",
"3 3 3 3 3 3 3 3 3 3 3 3 3 3 3 3 r n n r 3 3 3 3 3 3 3 3 3 5 5 q t Z F Y ",
"3 3 3 3 3 3 3 3 3 3 3 3 3 3 3 3 3 3 3 3 3 3 3 3 3 3 3 3 3 4 5 q A Z F H ",
"3 3 3 3 3 3 3 3 3 3 3 3 3 3 3 3 3 3 3 3 3 3 3 3 3 3 3 3 3 4 9 q A S S H ",
"3 3 3 3 3 3 3 3 3 3 3 3 3 3 3 3 3 3 3 3 3 3 3 3 3 3 3 3 3 4 9 q t C S H ",
"3 3 3 3 3 3 3 3 3 3 3 3 3 3 3 3 3 3 3 3 3 3 3 3 3 3 3 3 3 4 5 9 t C S F ",
"3 3 3 3 3 3 3 3 3 3 3 3 3 3 3 3 3 3 3 3 3 3 3 3 3 3 3 3 3 4 9 0 t C S F ",
"3 3 3 3 3 3 3 3 3 3 3 3 3 3 3 3 3 3 3 3 3 3 3 3 3 3 3 3 3 5 5 9 t t C S ",
"3 3 3 3 3 3 3 3 3 3 3 3 3 3 3 3 3 3 3 3 3 3 3 3 3 3 3 3 5 5 5 9 t A S W ",
"3 3 3 3 3 3 3 3 1   . . . . . . . 1 3 3 3 3 3 3 3 3 3 3 5 5 9 0 t t C R ",
"3 3 3 3 3 3 .X.X.X+ + + + + + + + @ . X O O O O O O w q 5 9 5 9 t t C T ",
"3 3 o .X.X.X.X.X. + + + + + + + + + # s f f g j j j ( E..X.X.X0 t t t H ",
"u ) _ &..X.X.X.X    . .   . . . . . 2 2 e p a P P P / S..X.X.X.Xt t V F ",
"&.&.&.&.&..X.X3 3 3 3 3 3 3 3 3 3 3 3 5 9 t V G Y R b.D.W..X.X&.&.&..X.X",
"&.&.&.&.&..X.X3 3 3 3 3 3 3 3 3 3 3 3 5 9 t V F K T ~ V.K..X&.&.&.&.&..X",
"&.&.&.&.&..X3 3 3 3 3 3 3 3 3 3 3 3 3 3 9 q V Z H T ! M.S..X*.&.&.&.&..X",
"&.&.&.&.&..X3 3 3 3 3 3 3 3 3 3 3 3 3 3 4 9 t V F T ! N.J.I.2.&.&.&.&..X",
"&.&.&.&..X.X3 3 3 3 3 3 3 3 3 3 3 3 3 3 3 9 q t S I W M.A.J.1.&.&.&.&..X",
".X.X.X.X.X3 3 3 3 3 3 3 3 3 3 3 3 3 3 3 4 9 0 V S I E n.A.L..X&.&.&..X.X",
".X.X.X.X.X3 3 3 3 3 3 3 3 3 3 3 3 3 3 3 3 4 0 t Z H E m.A.J..X.X.X.X.X.X",
".X.X.X.X.X3 3 3 3 3 3 3 3 3 3 3 3 3 3 3 3 4 9 t Z I E n.C.H..X.X.X.X.X.X",
".X.X.X.X.X3 3 3 3 3 3 3 3 3 3 3 3 3 3 3 3 3 4 t Z I R W m.A..X.X.X.X.X.X",
".X.X.X.X.X3 3 3 3 3 3 3 3 3 3 3 3 3 3 3 3 3 4 t Z G Y W M.A..X.X.X.X.X.X",
".X.X.X.X.X3 3 3 3 3 3 3 3 3 3 3 3 3 3 3 3 3 5 9 t t F Y ! M..X.X.X.X.X.X",
".X.X.X.X3 3 3 3 3 3 3 3 3 3 3 3 3 3 3 3 3 3 5 0 t C F Y Q M.A..X.X.X.X.X",
".X.X.X.X3 3 3 3 3 3 3 3 3 3 3 3 3 3 3 3 3 3 4 9 t V F I W n.Z..X.X.X.X.X",
".X.X.X.X3 3 3 3 3 3 3 3 3 3 3 3 3 3 3 3 3 3 5 9 t t S H T Q n..X.X.X.X.X",
".X.X.X.X3 3 3 3 3 3 3 3 3 3 3 3 3 3 3 3 3 3 5 9 t V S H T E n..X.X.X.X.X",
".X.X.X.X3 3 3 3 3 3 3 3 3 3 3 3 3 3 3 3 3 3 4 9 q V S G I R W .X.X.X.X.X",
".X.X.X.X3 3 3 3 3 3 3 3 3 3 3 3 3 3 3 3 3 3 4 9 t V S G Y R ~ .X.X.X.X.X",
".X.X.X.X3 3 3 3 3 3 3 3 3 3 3 3 3 3 3 3 3 3 4 9 q V S G Y R ! .X.X.X.X.X",
".X.X.X.X3 3 3 3 3 3 3 3 3 3 3 3 3 3 3 3 3 3 5 9 t V S G Y R W .X.X.X.X.X",
".X.X.X.X3 3 3 3 3 3 3 3 3 3 3 3 3 3 3 3 3 3 5 0 t V S H Y T R .X.X.X.X.X",
".X.X.X.X3 3 3 3 3 3 3 3 3 3 3 3 3 3 3 3 3 3 5 5 q V S H Y T T .X.X.X.X.X",
".X.X.X.X3 3 3 3 3 3 3 3 3 3 3 3 3 3 3 3 3 3 5 0 t t S F J K H .X.X.X.X.X",
".X.X.X.X.X3 3 3 3 3 3 3 3 3 3 3 3 3 3 3 3 3 5 5 t V S F F F G .X.X.X.X.X",
".X.X.X.X.X3 3 3 3 3 3 3 3 3 3 3 3 3 3 3 3 3 5 0 t V S S S S .X.X.X.X.X.X",
".X.X.X.X.X3 3 3 3 3 3 3 3 3 3 3 3 3 3 3 3 3 4 0 t t S S A A .X.X.X.X.X.X",
".X.X.X.X.X3 3 3 3 3 3 3 3 3 3 3 3 3 3 3 3 3 5 9 t t t t t t .X.X.X.X.X.X",
".X.X.X.X.X3 3 3 3 3 3 3 3 3 3 3 3 3 3 3 3 3 5 9 t t q q 9 9 .X.X.X.X.X.X",
".X.X.X.X.X1 o o 3 3 3 3 3 3 3 3 3 3 3 3 3 3 5 9 0 0 9 9 5 4 .X.X.X.X.X.X",
".X.X.X.X.X.X.X= & , O 3 3 3 3 3 3 3 3 3 3 3 5 5 5 4 1 O & > .X.X.X.X.X.X",
".X.X.X.X.X.X.X% * d k v  .x 6 3 3 3 3 3 3 3 1 6 u c > % * * .X.X.X.X.X.X",
".X.X.X.X.X.X.X.X* - j ..O.| < % * * % % % - s l ..} % * % % .X.X.X.X.X.X",
".X.X.X.X.X.X.X.X* % d l ..z ; % % % ; % % - f } ..| % * * .X.X.X.X.X.X.X",
".X.X.X.X.X.X.X.X.X* * : z z * * % * % % % $ s k } z * * .X.X.X.X.X.X.X.X",
".X.X.X.X.X.X.X.X.X.X.X* % * * % * % % * % * % % ; .X.X.X.X.X.X.X.X.X.X.X",
".X.X.X.X.X.X.X.X.X.X.X.X.X* % * ; % % % % ; * ; .X.X.X.X.X.X.X.X.X.X.X.X",
".X.X.X.X.X.X.X.X.X.X.X.X.X.X.X% ; % % ; .X.X.X.X.X.X.X.X.X.X.X.X.X.X.X.X"
};
