/* XPM */
static char *result[] = {
/* columns rows colors chars-per-pixel */
"36 90 189 2 ",
"   c #0C0D1D",
".  c #170913",
"X  c #0D121D",
"o  c #13121E",
"O  c #2A1905",
"+  c #22170C",
"@  c #24180E",
"#  c #2D1B0A",
"$  c #2C1705",
"%  c #321B08",
"&  c #3A1D0A",
"*  c #301907",
"=  c #331C13",
"-  c #3D210C",
";  c #060F23",
":  c #041024",
">  c #0A1425",
",  c #0F1826",
"<  c #071229",
"1  c #0B142D",
"2  c #141B27",
"3  c #151B29",
"4  c #191E29",
"5  c #1A1A26",
"6  c #0C1531",
"7  c #0C1A34",
"8  c #0D1F39",
"9  c #201622",
"0  c #2A1C25",
"q  c #1D2129",
"w  c #0A2036",
"e  c #0C233B",
"r  c #1C2A3A",
"t  c #23242C",
"y  c #2B2B2C",
"u  c #26282A",
"i  c #352123",
"p  c #3A372F",
"a  c #33302D",
"s  c #292730",
"d  c #2C2932",
"f  c #3C3733",
"g  c #400E09",
"h  c #4A140D",
"j  c #531D10",
"k  c #5B1C12",
"l  c #6D1F16",
"z  c #611811",
"x  c #5B201C",
"c  c #582214",
"v  c #6A2417",
"b  c #672417",
"n  c #732A1B",
"m  c #6D341F",
"M  c #4F3A22",
"N  c #513C24",
"B  c #453839",
"V  c #503F3D",
"C  c #5A2826",
"Z  c #672A22",
"A  c #773521",
"S  c #54432A",
"D  c #4D4333",
"F  c #524734",
"G  c #5C4E36",
"H  c #57483C",
"J  c #5F5036",
"K  c #665538",
"L  c #655437",
"P  c #755F3B",
"I  c #0F2941",
"U  c #0F2641",
"Y  c #122D46",
"T  c #132E48",
"R  c #122643",
"E  c #14314B",
"W  c #173147",
"Q  c #153752",
"!  c #173B55",
"~  c #1A3B57",
"^  c #1A3F5B",
"/  c #25394D",
"(  c #243E53",
")  c #36434E",
"_  c #284659",
"`  c #194764",
"'  c #194A66",
"]  c #1C4C68",
"[  c #1F526F",
"{  c #1E5977",
"}  c #2B4E65",
"|  c #234E68",
" . c #385365",
".. c #2C5C7A",
"X. c #245875",
"o. c #3B607C",
"O. c #5C4741",
"+. c #544E51",
"@. c #5E5E5F",
"#. c #495A57",
"$. c #6E5449",
"%. c #7A594A",
"&. c #755549",
"*. c #615D5B",
"=. c #645754",
"-. c #61604D",
";. c #66605E",
":. c #7A654F",
">. c #59636A",
",. c #576170",
"<. c #7C717A",
"1. c #6B7D74",
"2. c #822C1F",
"3. c #87372A",
"4. c #963B2A",
"5. c #836A3E",
"6. c #81673D",
"7. c #835E4E",
"8. c #8F7140",
"9. c #8C6552",
"0. c #8D6A57",
"q. c #8E6A58",
"w. c #866D5E",
"e. c #936B55",
"r. c #9A6D55",
"t. c #956E5A",
"y. c #9E7159",
"u. c #927054",
"i. c #987842",
"p. c #A2745A",
"a. c #A5795E",
"s. c #8A6D63",
"d. c #8B7067",
"f. c #AC7D63",
"g. c #A57960",
"h. c #AB8545",
"j. c #AB8646",
"k. c #B28A47",
"l. c #B38D4A",
"z. c #B88F49",
"x. c #BE954D",
"c. c #BC9652",
"v. c #9C9579",
"b. c #AA8363",
"n. c #A68764",
"m. c #B18563",
"M. c #B38569",
"N. c #B5896C",
"B. c #BA8B6D",
"V. c #A28F76",
"C. c #BF8E70",
"Z. c #BA9172",
"A. c #B49A75",
"S. c #C1954B",
"D. c #C6994D",
"F. c #CB9C4D",
"G. c #C19953",
"H. c #C89E53",
"J. c #DEA84F",
"K. c #CEA051",
"L. c #DDA953",
"P. c #DDAE5B",
"I. c #D8A653",
"U. c #E4AE54",
"Y. c #E1B15C",
"T. c #C29474",
"R. c #C79B7A",
"E. c #C99A78",
"W. c #DCB264",
"Q. c #C9A17E",
"!. c #E6B967",
"~. c #286A8A",
"^. c #376B88",
"/. c #2C7393",
"(. c #3A7192",
"). c #357FA1",
"_. c #67939E",
"`. c #4C90B4",
"'. c #5191B2",
"]. c #4A85A5",
"[. c #6198B4",
"{. c #71A1BE",
"}. c #76A9C6",
"|. c #BAA882",
" X c #CCA480",
".X c #D2AF89",
"XX c #D5B28D",
"oX c #DCBE96",
"OX c None",
/* pixels */
"OXOXOXOXOXOXOXOXOXOXOXOXOXOXOXOXOXO O + O O OXOXOXOXOXOXOXOXOXOXOXOXOXOX",
"OXOXOXOXOXOXOXOXOXOXOXOXOXOXOXOXO O O O O + O OXOXOXOXOXOXOXOXOXOXOXOXOX",
"OXOXOXOXOXOXOXOXOXOXOXOXOXOXOXOX+ O O O O O O OXOXOXOXOXOXOXOXOXOXOXOXOX",
"OXOXOXOXOXOXOXOXOXOXOXOXOXOXOXOXO O + O O + O OXOXOXOXOXOXOXOXOXOXOXOXOX",
"OXOXOXOXOXOXOXOXOXOXOXOXOXOXOXOXO O O + O O O OXOXOXOXOXOXOXOXOXOXOXOXOX",
"OXOXOXOXOXOXOXOXOXOXOXOXOXOXOXOXO O O O O O O OXOXOXOXOXOXOXOXOXOXOXOXOX",
"OXOXOXOXOXOXOXOXOXOXOXOXOXOXOXOXS S S S M M N OXOXOXOXOXOXOXOXOXOXOXOXOX",
"OXOXOXOXOXOXOXOXOXOXOXOXOXOXOXOX|.A.A.n.n.y.f.R.E.T.OXOXOXOXOXOXOXOXOXOX",
"OXOXOXOXOXOXOXOXOXOXOXOXOXOXOXOXoX.X XR.E.T.T.T.C.B.OXOXOXOXOXOXOXOXOXOX",
"OXOXOXOXOXOXOXOXOXOXOXOXOXOXOXXX XZ.M.M.M.m.f.f.f.f.f.OXOXOXOXOXOXOXOXOX",
"OXOXOXOXOXOXOXOXOXOXOXOXOXOXOXT.N.f.p.y.y.y.r.p.y.y.p.OXOXOXOXOXOXOXOXOX",
"OXOXOXOXOXOXOXOXOXOXOXOXOXOXQ.M.f.p.r.r.r.r.r.r.r.r.r.OXOXOXOXOXOXOXOXOX",
"OXOXOXOXOXOXOXOXOXOXOXOXOXOXT.b.y.t.0.t.r.r.r.r.0.t.r.OXOXOXOXOXOXOXOXOX",
"OXOXOXOXOXOXOXOXOXOXOXOXOXOXB.g.s.,. .;.t.r.r.t.} <.t.OXOXOXOXOXOXOXOXOX",
"OXOXOXOXOXOXOXOXOXOXOXOXOXOXOXy.t.@. .,.s.r.e.<.| <.t.OXOXOXOXOXOXOXOXOX",
"OXOXOXOXOXOXOXOXOXOXOXOXOXOXOXy.t.@. .*.e.r.e.t.} t.r.OXOXOXOXOXOXOXOXOX",
"OXOXOXOXOXOXOXOXOXOXOXOXOXOXOXp.y.t.e.e.r.r.r.r.e.t.r.OXOXOXOXOXOXOXOXOX",
"OXOXOXOXOXOXOXOXOXOXOXOXOXOXOXp.r.r.r.r.r.r.r.r.r.r.r.OXOXOXOXOXOXOXOXOX",
"OXOXOXOXOXOXOXOXOXOXOXOXOXOXOXOXr.r.r.r.r.r.r.r.r.r.OXOXOXOXOXOXOXOXOXOX",
"OXOXOXOXOXOXOXOXOXOXOXOXOXOXOXOXr.r.r.r.r.r.r.r.r.r.OXOXOXOXOXOXOXOXOXOX",
"OXOXOXOXOXOXOXOXOXOXOXOXOXOXOXOXOXa.p.p.r.r.r.r.r.OXOXOXOXOXOXOXOXOXOXOX",
"OXOXOXOXOXOXOXOXOXOXOXOXOXOXOXOXOXZ.Z.a.r.r.r.OXOXOXOXOXOXOXOXOXOXOXOXOX",
"OXOXOXOXOXOXOXOXOXOXOXOXOXOXOXOXOXV.m.p.r.u.w.OXOXOXOXOXOXOXOXOXOXOXOXOX",
"OXOXOXOXOXOXOXOXOXOXOXOXOXOXOX'._.v.m.p.r.e.>.Y.X.OXOXOXOXOXOXOXOXOXOXOX",
"OXOXOXOXOXOXOXOXOXOXOXOX{.~.~.o.1.n.u.%.%.$.) l.#.W Y OXOXOXOXOXOXOXOXOX",
"OXOXOXOXOXOXOXOXOXOX}.).~.{ ` ( -.:.p t t q 7 f c.W e Y Y OXOXOXOXOXOXOX",
"OXOXOXOXOXOXOXOX'./...[ ' ! Y r G L q : : : : , L.t e e e e OXOXOXOXOXOX",
"OXOXOXOXOXOX}.'./.] ! ! ! I 7 3 D L u : : : : u S.4 7 7 8 8 6 OXOXOXOXOX",
"OXOXOXOXOXOX].X.Q T T T T 6 < : q J F q : : , F.q < < 1 6 6 1 1 OXOXOXOX",
"OXOXOXOXOXOXo.E e 7 6 6 < ; : : q J G q : : q J., : ; < < < < : OXOXOXOX",
"OXOXOXOXOX(.^ 8 6 1 ; ; ; : : : q J G q : : q J., ; : : ; : : : : OXOXOX",
"OXOXOXOXOX' e 6 1 < ; ; : : : : 2 F J q : : u F.> ; : : ; ; : : : OXOXOX",
"OXOXOXOX(.^ e 6 1 : : : : : : : : t G F u p 5.y : : : : : ; : : : : OXOX",
"OXOXOXOX..E 7 1 < : : : : : : : : q D 5.P 5.K a : : : : : : : : : : OXOX",
"OXOXOX(.~ 8 7 1 : : : : : : : : q G l.I.U.U.D.x.> : : : : : : : : : OXOX",
"OXOXOX..R 6 1 < : : : : : : : : a P D.Y.!.P.F.J.p : : : : : : : : : OXOX",
"OXOXOX~ 7 1 < < : : : : : : : , F j.x.H.c.l.k.x.k.2 : : : : : : : : : OX",
"OXOXX.R 6 < : : : : : : : : : , F j.x.z.k.c.G.z.U.q : : : : : : : : : OX",
"OXOX' 8 < : : : : : : : : : : : y 5.F.D.k.S.W.S.k.2 : : : : : : : : : OX",
"OX/.I 1 < : : : : : : : : : : : 2 J k.S.S.S.c.k.p : : : : : : : : : : OX",
"OX{ 7 : : : : : : : : : : : : : : q D P k.j.D a : : : : : : : : : : : : ",
"OXw < : : : : : : : : : : : : : : : : q y u , : : : : : : : : : : : : : ",
"OX: : : : : : : : : : : : : : : : : : : : : : : : : ; : : : : : : : : : ",
"OX: : : : : : : : : : : : : : : : : : : : : : : : : : : : : : : : : : : ",
"OX: : : : : : : : : : : : : : : : : : : : : : : : : : : : : : : ; : : : ",
"OX: : : : : : : : : : : : : : : : : : : : : :   : : : : : : ; : : : : : ",
"Q : : : : : : : : : : : : : : : : : : : : : : : : : : : : : : : : : : : ",
"E : : : : : : : : : : : : : : : : : : : : : : : : : : : : : : : : : : : ",
"e : : : : : : : : : : : : ; : : ; ; ; ; ; : ; : : : : : : : : : : : : : ",
"6 : : : : : : : : : ; ; : : : : ; ; ; < : : ; ; : : : : : : : : : : : ; ",
": : : : : : : < w 7 X                   ;           ; ; : : ; ; : : ; ; ",
": : : , 3 < : e { Q o . . . . . . . . . . . . . . . . OXOXOXOXd s q , : ",
"V s y B O.OXOXOXX.T >           ;     ;       ;       ; OXOXe.7.%.&.O.OX",
"e.%.%.7.e.OXOXOX! 8 > : : : : ; : : ; ; ; ; ; : : : : : OXOXr.r.t.r.r.OX",
"r.r.r.r.r.e.OXQ U 6 : : : : : : : : : ; ; : : : : : : : 4 7.r.r.r.r.r.OX",
"r.r.r.r.r.:.} T e 6 1 : : : : : : : : : : : : : : : : : 3 $.e.r.r.r.r.OX",
"r.r.r.r.9.@.( I U 7 1 1 : : : : : : : : : : : : : : : : , V 9.r.r.r.r.OX",
"r.r.r.r.9.+./ Y e 8 7 6 : : : : : ; : : : : : : : : : : , B 7.r.r.r.r.OX",
"OXr.r.e.=./ E Y U e 6 1 : : : : : : : : : : : : : : : : ; 3 H 9.r.r.OXOX",
"OXOXOXOXOXE E Y I e 7 1 : : : : : : : : : : : : ; : : : : ; OXOXOXOXOXOX",
"OXOXOXOXOXE Y I U 8 6 6 6 : : : : : : : : : : : : : : : : : OXOXOXOXOXOX",
"OXOXOXOXOXI U e 8 6 6 6 1 : : : : : : : : : : : : : : : : : OXOXOXOXOXOX",
"OXOXOXOXOXU U 8 7 6 1 1 : : : : : : : : ; : : : : : : : : : OXOXOXOXOXOX",
"OXOXOXOXOX8 8 7 6 1 < < : : : : : : : : : : : : : : : : : : OXOXOXOXOXOX",
"OXOXOXOX7 7 6 1 < : ; : : : : : : : : : : : : : : : : : : : OXOXOXOXOXOX",
"OXOXOXOX6 6 1 < < : : : : ; : : : : : : : : : : : : : : : : OXOXOXOXOXOX",
"OXOXOXOX6 < : : : : : : : : : : ; : : : : : : : : : : : : : OXOXOXOXOXOX",
"OXOXOXOX< < : : : : : : : : : : : : : : : : : : ; : : : : : OXOXOXOXOXOX",
"OXOXOXOX: : : : : : : : : : : : : : : : : : : : : : : : : : OXOXOXOXOXOX",
"OXOXOXOX: : : : : : : : : : : : : : : : : : : : : : : : : : OXOXOXOXOXOX",
"OXOXOXOX: : : : : : : : : : : : : : : : : : : : : : : : : : OXOXOXOXOXOX",
"OXOXOXOX: : : : : : ; : : : : : : : : : : : ; : : : : : : : OXOXOXOXOXOX",
"OXOXOXOX: : : : ; : : : : : : : : : : : : : : : : : : : : : OXOXOXOXOXOX",
"OXOXOXOX: : : : : : : : : : : : : : : ; : : : : : : : : : : OXOXOXOXOXOX",
"OXOXOXOX: : : : : : : : : ; : : : : : : : : : : : : : : : : OXOXOXOXOXOX",
"OXOXOXOX: : : : : : : : : : : : : : : : : : : : : ; : : : : OXOXOXOXOXOX",
"OXOXOXOX: : : : : : : : : : : : : : : : : : : : : : : : : : OXOXOXOXOXOX",
"OXOXOXOX: : : : : : : ; : : : : : : : : : ; : : : : : : : : OXOXOXOXOXOX",
"OXOXOXOX: : : : : : : : : : : : : : : : : : : : : : : : : OXOXOXOXOXOXOX",
"OXOXOXOX: : : : : : : : : : : : : : : : : : : : : : : : : OXOXOXOXOXOXOX",
"OXOXOXOX: : : : : : : ; : : : : ; : : : ; ; ; : : : : : : OXOXOXOXOXOXOX",
"OXOXOXOXX X X X > : ; ; : : : : : : : : ; ; : : ; : : ; : OXOXOXOXOXOXOX",
"OXOXOXOX@ @ @ = i 0 0 5 : : : : : : : : ; 5 9 9 >   X X OXOXOXOXOXOXOXOX",
"OXOXOXOXO O - m 3.3.m x o X X X X X X X 0 C Z z = + @ + OXOXOXOXOXOXOXOX",
"OXOXOXOXOX# h A 4.4.2.v + + + O + + @ % Z 3.2.l j * O O OXOXOXOXOXOXOXOX",
"OXOXOXOXOXOX- c b b n z - O O O O O O - n 3.l z h # # O OXOXOXOXOXOXOXOX",
"OXOXOXOXOXOXOX% & & & & O O - O O O # % j k h & * * % OXOXOXOXOXOXOXOXOX",
"OXOXOXOXOXOXOXOXOX# @ # O O O # # O # # # % O O % % OXOXOXOXOXOXOXOXOXOX",
"OXOXOXOXOXOXOXOXOXOXOX% O # O O # O # # O # O OXOXOXOXOXOXOXOXOXOXOXOXOX",
"OXOXOXOXOXOXOXOXOXOXOXOXOXOX# # O O O OXOXOXOXOXOXOXOXOXOXOXOXOXOXOXOXOX"
};
