/* XPM */
static char *result[] = {
/* columns rows colors chars-per-pixel */
"36 90 159 2 ",
"   c #1F070C",
".  c #1C080F",
"X  c #0B0E1E",
"o  c #1C0B14",
"O  c #150B16",
"+  c #0E121C",
"@  c #1C1612",
"#  c #11141A",
"$  c #1A191A",
"%  c #171517",
"&  c #280404",
"*  c #2A0B0F",
"=  c #2A1905",
"-  c #26190B",
";  c #2D1C09",
":  c #301C08",
">  c #23141C",
",  c #36220D",
"<  c #39250C",
"1  c #29241D",
"2  c #3C2913",
"3  c #352713",
"4  c #060F22",
"5  c #080F21",
"6  c #041024",
"7  c #071228",
"8  c #09132C",
"9  c #091121",
"0  c #151725",
"q  c #0C1430",
"w  c #0C1A34",
"e  c #0E1E39",
"r  c #241F2A",
"t  c #1B2125",
"y  c #0C233B",
"u  c #1A2C3A",
"i  c #22222D",
"p  c #222525",
"a  c #212B30",
"s  c #472F16",
"d  c #4B321C",
"f  c #5A3E1F",
"g  c #563C24",
"h  c #413638",
"j  c #453839",
"k  c #5D422A",
"l  c #50422C",
"z  c #654929",
"x  c #684D33",
"c  c #6C5438",
"v  c #0F2840",
"b  c #112C44",
"n  c #132F48",
"m  c #15334C",
"M  c #19374D",
"N  c #163750",
"B  c #173A54",
"V  c #183D56",
"C  c #173F59",
"Z  c #183F59",
"A  c #243344",
"S  c #263E47",
"D  c #243B52",
"F  c #4F3B40",
"G  c #17405A",
"H  c #18425D",
"J  c #364B4E",
"K  c #304558",
"L  c #184662",
"P  c #194A66",
"I  c #1A4D6B",
"U  c #1B506F",
"Y  c #1C5473",
"T  c #1D5B7B",
"R  c #1C5877",
"E  c #1E607F",
"W  c #5A4540",
"Q  c #484753",
"!  c #604942",
"~  c #684E45",
"^  c #7D5841",
"/  c #7C5740",
"(  c #635D60",
")  c #596A78",
"_  c #865F48",
"`  c #846446",
"'  c #8B634B",
"]  c #8E684E",
"[  c #90674F",
"{  c #867147",
"}  c #8A6450",
"|  c #9A6D55",
" . c #956B52",
".. c #9F7359",
"X. c #987054",
"o. c #A4795D",
"O. c #897E79",
"+. c #AD7E64",
"@. c #AF8066",
"#. c #A58262",
"$. c #B5876A",
"%. c #B78B6C",
"&. c #BD8D6F",
"*. c #B0A16C",
"=. c #BAAD76",
"-. c #F7BA55",
";. c #C59473",
":. c #C79876",
">. c #CB9B79",
",. c #CCA37F",
"<. c #1F6283",
"1. c #1F6788",
"2. c #206586",
"3. c #216B8C",
"4. c #23708F",
"5. c #217394",
"6. c #217798",
"7. c #2D779A",
"8. c #227B9C",
"9. c #2A789A",
"0. c #3E7190",
"q. c #267FA0",
"w. c #4A7795",
"e. c #2A85A6",
"r. c #2787A8",
"t. c #2D87A9",
"y. c #2E89AB",
"u. c #2486A6",
"i. c #3083A5",
"p. c #338BAE",
"a. c #388BAD",
"s. c #378EB2",
"d. c #3E92B5",
"f. c #73848A",
"g. c #418DAE",
"h. c #448FB2",
"j. c #4294B7",
"k. c #4595B9",
"l. c #4997BB",
"z. c #4C99BD",
"x. c #5498BA",
"c. c #6190B0",
"v. c #539DC1",
"b. c #5DA3C6",
"n. c #64A6CA",
"m. c #6EABCF",
"M. c #73AED1",
"N. c #78B1D3",
"B. c #CFA480",
"V. c #D2AB85",
"C. c #D0A782",
"Z. c #D6B18A",
"A. c #D9B58C",
"S. c #DCBE92",
"D. c #DFC397",
"F. c #E4CDA2",
"G. c #F0E3B6",
"H. c #80B5D6",
"J. c None",
/* pixels */
"J.J.J.J.J.J.J.J.J.J.J.J.J.J.J.J.;.;.;.:.J.J.J.J.J.J.J.J.J.J.J.J.J.J.J.J.",
"J.J.J.J.J.J.J.J.J.J.J.J.J.J.J.;.:.>.,.V.A.S.J.J.J.J.J.J.J.J.J.J.J.J.J.J.",
"J.J.J.J.J.J.J.J.J.J.J.J.J...+.&.;.>.>.C.V.A.D.J.J.J.J.J.J.J.J.J.J.J.J.J.",
"J.J.J.J.J.J.J.J.J.J.J.J.J...@.$.&.;.>.,.C.Z.S.G.J.J.J.J.J.J.J.J.J.J.J.J.",
"J.J.J.J.J.J.J.J.J.J.J.J.J.o.+.[ l k k z #.Z.A.F.J.J.J.J.J.J.J.J.J.J.J.J.",
"J.J.J.J.J.J.J.J.J.J.J.J.|  .g = = - = = = c ,.D.F.J.J.J.J.J.J.J.J.J.J.J.",
"J.J.J.J.J.J.J.J.J.J.J.J.| ` d = = = = = = d %.A.S.J.J.J.J.J.J.J.J.J.J.J.",
"J.J.J.J.J.J.J.J.J.J.J.| | / = = = = = = = = o.,.V.J.J.J.J.J.J.J.J.J.J.J.",
"J.J.J.J.J.J.J.J.J.J.J.| | ^ = = =   = = = - ..;.;.J.J.J.J.J.J.J.J.J.J.J.",
"J.J.J.J.J.J.J.J.J.J.J.J.| ^ = = = = = = - = | &.&.J.J.J.J.J.J.J.J.J.J.J.",
"J.J.J.J.J.J.J.J.J.J.J.J.| / = = = = = = = - ` $.$.J.J.J.J.J.J.J.J.J.J.J.",
"J.J.J.J.J.J.J.J.J.J.J.J.J.c = = = = = = - = _ o.J.J.J.J.J.J.J.J.J.J.J.J.",
"J.J.J.J.J.J.J.J.J.J.J.J.J./ , ; : : : ; ; , ` J.J.J.J.J.J.J.J.J.J.J.J.J.",
"J.J.J.J.J.J.J.J.J.J.J.J.J.J.d ; : : : : : d ' J.J.J.J.J.J.J.J.J.J.J.J.J.",
"J.J.J.J.J.J.J.J.J.J.J.J.J.J.J.: : : : : : J.J.J.J.J.J.J.J.J.J.J.J.J.J.J.",
"J.J.J.J.J.J.J.J.J.J.J.J.J.J.J.: ; : : : : J.J.J.J.J.J.J.J.J.J.J.J.J.J.J.",
"J.J.J.J.J.J.J.J.J.J.J.J.J.J.J.: : : = : : J.J.J.J.J.J.J.J.J.J.J.J.J.J.J.",
"J.J.J.J.J.J.J.J.J.J.J.J.J.J.J.s : : : : : J.J.J.J.J.J.J.J.J.J.J.J.J.J.J.",
"J.J.J.J.J.J.J.J.J.J.J.J.J.J.{ z < : : : f J.-.J.J.J.J.J.J.J.J.J.J.J.J.J.",
"J.J.J.J.J.J.J.J.J.J.J.J.J.e A l < : , s ` *.=.J.J.J.J.J.J.J.J.J.J.J.J.J.",
"J.J.J.J.J.J.J.J.J.J.y e q q 8 $ , < < 2 J 4.i.l.z.J.J.J.J.J.J.J.J.J.J.J.",
"J.J.J.J.J.J.J.J.J.q w q q 8 7 # , < < 3 S T 6.p.k.v.J.J.J.J.J.J.J.J.J.J.",
"J.J.J.J.J.J.J.q q q q q q 6 6 6 $ , < p n G U 1.8.s.v.M.J.J.J.J.J.J.J.J.",
"J.J.J.J.J.J.7 8 q q q q 8 6 6 6 6 6 q 8 e b G R 1.6.e.j.n.N.J.J.J.J.J.J.",
"J.J.J.J.J.6 7 q q q 8 8 7 4 6 6 6 8 q q q w n L R 2.6.y.l.m.H.J.J.J.J.J.",
"J.J.J.J.6 6 6 7 7 6 6 4 6 6 6 6 7 q q q q q q m Z Y <.6.y.z.b.N.J.J.J.J.",
"J.J.J.J.6 6 6 6 6 6 6 6 6 6 6 7 8 q q q q q q y n C I 2.5.t.j.v.J.J.J.J.",
"J.J.J.6 6 6 6 6 6 6 6 6 6 6 6 8 q q q q q q q y v n V I T 5.t.d.J.J.J.J.",
"J.J.J.6 6 6 6 6 6 6 6 6 6 6 6 6 7 q q q q q q q w y v B P Y <.9.k.J.J.J.",
"J.J.6 6 6 6 6 6 6 6 6 6 6 6 6 6 6 8 8 q q q q q q w e N L I <.3.a.J.J.J.",
"J.J.6 6 6 6 6 6 6 6 6 6 6 6 6 4 6 6 6 q q q q q q q w v N V I 2.e.k.J.J.",
"J.6 6 6 6 6 6 6 6 6 6 6 6 6 6 6 6 6 6 6 7 q q q q q q w v N C Y 3.g.J.J.",
"J.6 6 6 6 6 6 6 6 6 6 6 6 6 6 6 6 6 6 6 6 7 7 7 8 q q q e m B I 2.g.J.J.",
"J.6 6 6 6 6 6 6 6 6 6 6 6 6 6 6 6 6 6 6 6 4 6 6 6 6 6 6 4 e v L 2.5.k.J.",
"J.6 6 6 6 6 6 6 6 6 6 6 6 6 6 6 6 6 6 6 6 6 6 6 6 6 6 6 7 w y B I 3.j.J.",
"6 6 6 6 6 6 6 6 6 6 6 6 6 6 6 6 6 6 6 6 6 6 6 6 6 6 6 6 6 7 y C I 2.i.b.",
"6 6 6 6 6 6 6 6 6 6 6 6 6 6 6 6 6 6 6 6 6 6 6 6 6 6 6 6 6 7 e n L E 6.j.",
"6 6 6 6 6 6 6 6 6 6 4 6 6 6 6 6 6 6 6 6 6 6 6 6 6 6 6 6 6 6 8 v Z R 3.a.",
"6 6 6 6 6 6 6 6 6 6 6 6 6 6 6 6 6 6 6 6 6 6 6 6 6 6 6 6 6 6 8 v V Y 2.8.",
"6 6 6 6 6 6 6 6 6 6 6 6 6 6 6 6 6 6 6 6 6 6 6 6 6 6 6 6 6 6 6 w n H T 5.",
"6 6 6 6 6 6 6 6 6 6 6 6 6 6 6 6 6 6 6 6 6 6 6 6 6 6 6 6 6 6 6 w b Z Y 2.",
"6 6 6 6 6 6 6 6 6 6 6 6 6 6 6 6 4 6 6 6 6 6 6 6 6 6 6 6 6 6 6 e n G I T ",
"6 6 6 6 6 6 6 6 6 6 6 6 6 6 6 6 6 6 6 6 6 6 6 6 6 6 6 6 6 6 6 8 n B H Y ",
"6 6 6 6 6 6 6 6 6 6 6 6 6 6 6 6 6 6 6 6 6 6 6 6 4 6 6 6 6 6 6 7 y n B P ",
"6 6 6 6 6 6 6 6 6 6 6 6 6 6 6 6 6 6 6 6 6 6 6 6 6 6 6 6 6 6 6 6 8 e b N ",
"6 6 6 6 6 6 6 6 6 6 4 6 6 6 6 6 6 6 6 6 6 6 6 6 6 6 6 6 6 6 6 6 6 q y b ",
"6 6 6 6 6 6 6 6 6 6 6 6 6 6 6 6 6 6 6 6 6 6 6 6 6 6 6 6 6 6 6 6 6 7 w y ",
"6 4 6 6 6 6 6 6 6 6 6 6 6 6 6 6 6 6 6 6 6 6 6 6 6 6 6 6 6 6 6 6 6 6 7 y ",
"6 6 6 6 7 6 6 6 6 X X 6 6 6 6 6 6 6 6 6 6 6 6 6 6 5 A 0.w.D 4 6 6 6 6 w ",
"6 6 i l ~ ~ h 6 6 o O 6 6 6 6 6 6 6 6 6 6 6 6 6 6 5 K v.n.c.( ~ x i 6 6 ",
"J.| | | | | W 6 6 O   5 6 6 6 6 6 6 4 4 6 6 6 6 4 * Q k.v.n.O.|  .| | | ",
"J.| | | | | ! 6 6 O . . .   & & & & & & & & > r i F ) s.k.z.f.| | | | | ",
"J.| | | | } h 6 6 6 6 6 6 X . . o . . o o > N U T 3.6.t.p.d.x.| | | | J.",
"J.J.J.J.J.F 6 6 6 6 6 6 6 6 6 6 6 6 4 8 e y m C L R <.5.8.r.v.J.J.J.J.J.",
"J.J.J.J.J.J.6 6 6 6 6 6 6 6 6 6 6 6 6 8 w y v m N P Y <.5.8.z.J.J.J.J.J.",
"J.J.J.J.J.7 6 6 6 6 6 6 6 6 6 6 6 6 6 7 q e y v m C L Y <.1.h.J.J.J.J.J.",
"J.J.J.J.J.6 6 6 6 6 6 6 6 6 6 6 6 6 6 7 q w y v n n B L P 9.v.n.J.J.J.J.",
"J.J.J.J.J.6 6 6 6 6 6 6 6 6 6 6 6 6 6 8 q w y v n n B V L 5.k.m.J.J.J.J.",
"J.J.J.J.J.6 6 6 6 6 6 6 6 6 6 6 6 6 4 8 q w y v m N B L P 7.v.M.J.J.J.J.",
"J.J.J.J.J.6 6 6 6 6 6 6 6 6 6 6 6 6 4 7 8 w e v n N B C P 9.v.n.J.J.J.J.",
"J.J.J.J.J.6 6 6 6 6 6 6 6 6 6 6 6 6 6 4 8 w e v n m B Z P 5.d.b.J.J.J.J.",
"J.J.J.J.J.6 6 6 6 6 6 6 6 6 6 6 6 6 6 8 q w y v n m B L Y 5.p.v.J.J.J.J.",
"J.J.J.J.J.6 6 6 6 6 6 6 6 6 6 6 6 6 4 8 q q y v b m Z U R 6.y.v.J.J.J.J.",
"J.J.J.J.J.6 6 6 4 6 6 6 6 6 6 6 6 6 6 7 q q e y v N Z I <.8.r.v.J.J.J.J.",
"J.J.J.J.J.6 6 6 6 6 6 6 6 6 6 6 6 6 6 7 q q e y v B L Y <.6.t.d.J.J.J.J.",
"J.J.J.J.J.6 6 6 6 6 6 6 6 6 6 6 6 6 6 8 q w y v m C P Y <.8.p.z.J.J.J.J.",
"J.J.J.J.J.6 6 6 6 6 6 6 6 6 6 X 6 6 6 q q w y b N H P Y T 5.t.d.J.J.J.J.",
"J.J.J.J.J.6 6 6 6 6 6 6 6 6 6 6 6 6 6 q q q y v V L I T <.1.5.u.J.J.J.J.",
"J.J.J.J.J.6 6 6 6 6 6 6 6 6 6 6 6 6 6 q q q y n m Z L I T <.5.J.J.J.J.J.",
"J.J.J.J.J.J.6 6 6 6 6 6 6 6 6 6 6 6 6 q q w y n N C L Y R 1.5.J.J.J.J.J.",
"J.J.J.J.J.J.6 6 6 6 6 6 6 6 6 6 6 6 6 8 q w e v m B H P R <.5.J.J.J.J.J.",
"J.J.J.J.J.J.6 6 6 6 6 6 6 6 6 6 6 6 6 8 q q y v m N H P I T 3.J.J.J.J.J.",
"J.J.J.J.J.J.6 6 6 6 6 6 6 6 6 6 6 6 4 7 q q q y v N V L I T <.J.J.J.J.J.",
"J.J.J.J.J.J.6 6 6 6 6 6 6 6 6 6 6 6 6 7 8 q q y v m B H P Y <.J.J.J.J.J.",
"J.J.J.J.J.J.6 6 6 6 6 6 6 6 6 6 6 6 6 6 8 q q w y n m Z P I T J.J.J.J.J.",
"J.J.J.J.J.J.6 6 6 6 6 6 6 6 6 6 6 6 6 4 7 q q w y b m Z P Y 2.J.J.J.J.J.",
"J.J.J.J.J.J.6 6 6 6 6 6 6 6 6 6 6 6 6 6 7 8 q q w y n N G Y T J.J.J.J.J.",
"J.J.J.J.J.J.6 6 6 6 6 6 6 6 6 6 6 6 6 6 6 8 q q w y b N Z P Y J.J.J.J.J.",
"J.J.J.J.J.J.J.6 6 6 6 6 6 6 6 6 6 4 6 6 6 7 8 q q y y M V P J.J.J.J.J.J.",
"J.J.J.J.J.J.J.% 6 6 6 6 6 6 6 6 6 7 4 6 6 7 q q q q y b m 1 = J.J.J.J.J.",
"J.J.J.J.J.J.J.- + 6 6 6 6 6 6 6 6 6 6 6 6 6 q q q q y b u ; = J.J.J.J.J.",
"J.J.J.J.J.J.J.- + 6 6 6 6 6 6 6 6 6 6 6 6 6 8 q q w y b a = J.J.J.J.J.J.",
"J.J.J.J.J.J.J.J.- + 6 6 6 6 6 6 6 6 6 6 6 6 8 q q q e t ; = J.J.J.J.J.J.",
"J.J.J.J.J.J.J.J.= @ 9 6 6 6 6 6 6 6 6 6 6 9 7 q q q 0 - = J.J.J.J.J.J.J.",
"J.J.J.J.J.J.J.J.J.= = = # 4 6 6 6 6 6 6 6 6 6 0 : = = = J.J.J.J.J.J.J.J.",
"J.J.J.J.J.J.J.J.J.J.= : = ; @ # # + # # % ; = : = ; = = J.J.J.J.J.J.J.J.",
"J.J.J.J.J.J.J.J.J.J.: = = : = = ; = = ; = : : = = : ; J.J.J.J.J.J.J.J.J.",
"J.J.J.J.J.J.J.J.J.J.J.J.= : ; = = : = = = = = = = J.J.J.J.J.J.J.J.J.J.J.",
"J.J.J.J.J.J.J.J.J.J.J.J.J.: = : = : = = ; = = = J.J.J.J.J.J.J.J.J.J.J.J.",
"J.J.J.J.J.J.J.J.J.J.J.J.J.J.J.J.: = : ; : J.J.J.J.J.J.J.J.J.J.J.J.J.J.J."
};
