/* XPM */
static char *result[] = {
/* columns rows colors chars-per-pixel */
"36 90 177 2 ",
"   c #1F070C",
".  c #1C080F",
"X  c #1E160E",
"o  c #0C0D1C",
"O  c #140B15",
"+  c #190912",
"@  c #110C19",
"#  c #0B111E",
"$  c #151315",
"%  c #1B1513",
"&  c #13141A",
"*  c #1B1618",
"=  c #230609",
"-  c #251706",
";  c #2C1605",
":  c #271805",
">  c #281804",
",  c #22150B",
"<  c #2D1C08",
"1  c #321707",
"2  c #301C08",
"3  c #361807",
"4  c #2B1312",
"5  c #361415",
"6  c #381A1B",
"7  c #36220B",
"8  c #38240C",
"9  c #060F22",
"0  c #080F21",
"q  c #041024",
"w  c #0B1224",
"e  c #061329",
"r  c #0A142D",
"t  c #07192F",
"y  c #121423",
"u  c #13192E",
"i  c #15192C",
"p  c #0C1631",
"a  c #0C1B34",
"s  c #0D1E38",
"d  c #141C34",
"f  c #201B25",
"g  c #0D223B",
"h  c #0D253B",
"j  c #18273C",
"k  c #1F303E",
"l  c #25252F",
"z  c #2A2529",
"x  c #2B2930",
"c  c #252434",
"v  c #332D33",
"b  c #3B3238",
"n  c #49311C",
"m  c #533823",
"M  c #493C3A",
"N  c #523F3C",
"B  c #54413F",
"V  c #6B4A33",
"C  c #61533B",
"Z  c #79553E",
"A  c #0F2941",
"S  c #0E2740",
"D  c #112B44",
"F  c #132F48",
"G  c #172B42",
"H  c #14344D",
"J  c #1E364B",
"K  c #153750",
"L  c #163B55",
"P  c #1A3E56",
"I  c #173D58",
"U  c #183F59",
"Y  c #17415C",
"T  c #19435D",
"R  c #21495D",
"E  c #3A4A56",
"W  c #194662",
"Q  c #194A66",
"!  c #1A4D6B",
"~  c #164460",
"^  c #1A516E",
"/  c #1C5473",
"(  c #1D5C7C",
")  c #1D5977",
"_  c #1E607F",
"`  c #584444",
"'  c #50574F",
"]  c #454F57",
"[  c #694E43",
"{  c #664D45",
"}  c #6D5147",
"|  c #715448",
" . c #795949",
".. c #685853",
"X. c #7D5F51",
"o. c #7B6255",
"O. c #767459",
"+. c #446569",
"@. c #85604F",
"#. c #8A624E",
"$. c #87714C",
"%. c #846454",
"&. c #8D6551",
"*. c #916752",
"=. c #956A53",
"-. c #9A6D55",
";. c #9D7056",
":. c #9E7159",
">. c #A67C4E",
",. c #A2755C",
"<. c #A5785E",
"1. c #A8795F",
"2. c #AC7D62",
"3. c #7A866E",
"4. c #95895C",
"5. c #AF8E5D",
"6. c #BC8C59",
"7. c #AF8065",
"8. c #B18366",
"9. c #B48569",
"0. c #BA8B6D",
"q. c #B68A6C",
"w. c #BE8E70",
"e. c #BF9373",
"r. c #BEA767",
"t. c #BFAD71",
"y. c #C4A25B",
"u. c #EAB75B",
"i. c #EDB95E",
"p. c #C39568",
"a. c #C39473",
"s. c #CA9E7B",
"d. c #C69977",
"f. c #CCA56A",
"g. c #D7B06E",
"h. c #CDA17E",
"j. c #CCA177",
"k. c #D3AA7F",
"l. c #1E6282",
"z. c #1F6B8B",
"x. c #216586",
"c. c #216C8D",
"v. c #296D8B",
"b. c #237394",
"n. c #237C9D",
"m. c #2C7D9E",
"M. c #287798",
"N. c #397D97",
"B. c #2A829F",
"V. c #3C859E",
"C. c #2C81A3",
"Z. c #2D89AB",
"A. c #2785A6",
"S. c #3387A9",
"D. c #41899F",
"F. c #6A918C",
"G. c #779F99",
"H. c #4A93AF",
"J. c #4996B8",
"K. c #589BB5",
"L. c #71A3AE",
"P. c #6AA9CA",
"I. c #879E89",
"U. c #9EAD9B",
"Y. c #B0AD82",
"T. c #CEA581",
"R. c #CFA887",
"E. c #D1A783",
"W. c #D3AC86",
"Q. c #D2AC8C",
"!. c #D6B28A",
"~. c #D8B68E",
"^. c #DAB98F",
"/. c #D7B99E",
"(. c #D4B9A4",
"). c #D2C0BB",
"_. c None",
/* pixels */
"_._._._._._._._._._._._._._._._._._.> > > > : > > _._._._._._._._._._._.",
"_._._._._._._._._._.!.W.E.a.w.9._.> > > > > : : > > _._._._._._._._._._.",
"_._._._._._._._.!.W.E.T.s.a.0.<.Z > > > > > > > > > _._._._._._._._._._.",
"_._._._._.^.^.!.W.E.h.a.a.0.2.Z 7 > > > > > > > > > _._._._._._._._._._.",
"_._._.(./.~.W.s.a.a.0.9.8.2.;.V < > > > > > > > 2 2 2 2 2 _._._._._._._.",
"_._.(.(.Q.h.a.0.9.7.2.<.,.,.=.V < > > > > > > < 2 2 ; 2 2 2 _._._._._._.",
"_._.Q.R.h.a.0.7.<.<.,.:.:.;.=.V < > > > > > < < 2 2 2 2 2 2 _._._._._._.",
"_._.T.s.a.0.9.2.,.:.:.:.;.;.=.Z n > > > > > ; 2 2 2 2 2 2 2 _._._._._._.",
"_._.d.a.0.9.2.1.,.:.:.-.-.-.-.=.Z m 2 ; > > < 2 2 2 2 2 2 2 _._._._._._.",
"_._.0.9.9.2.2.<.:.-.-.-.-.-.-.-.=.#._._._._._.2 2 2 2 2 2 2 _._._._._._.",
"_._.0.9.2.2.,.:.-.-.-.-.-.-.-.-.-.-._._._._._._.2 7 7 2 7 7 _._._._._._.",
"_._.9.2.2.,.:.-.-.-.-.-.-.-.-.-.-._._._._._._._._.7 8 7 8 8 _._._._._._.",
"_._._.<.:.-.-.-.-.-.-.-.-.-.-.-._._._._._._._._._.8 8 8 8 8 _._._._._._.",
"_._._._.-.-.-.-.-.-.-.-.-.-.-._._._._._._._._._._._._.8 _._._._._._._._.",
"_._._._._.-.-.-.-.;.;.-.-.-.-.-._._._._._._._._._._._._._._._._._._._._.",
"_._._._._._._._._._.,.-.-.-.-.-._._._._._._._._._._._._._._._._._._._._.",
"_._._._._._._._._.q.2.:.;.-.-.=. .d K ! _._._._._._._._._._._._._._._._.",
"_._._._._._._._.s.e.7.<.;.=.$.| b r A ~ W I H _._._._._._._._._._._._._.",
"_._._._._._._._.k.j.p.6.>.Z B l e q t S F D h g r _._._._._._._._._._._.",
"_._._._._._._._.g.f.5.$.C x q q 9 9 q e p s p r e e e _._._._._._._._._.",
"_._._._._._._.y.4.O.' k t q q q q q q q q e e q q q q _._._._._._._._._.",
"_._._._._._.f.3.+.W H h t q q q q q q q q q q q q q q q _._._._._._._._.",
"_._._._._.f.F.c.) ~ K S t 9 q q q q q q q q q q q q 9 9 _._._._._._._._.",
"_._._._.Y.G.D.b.( ^ Y F s e q q q q q 9 q q q q q q q 9 e _._._._._._._.",
"_._._._.L.H.m.c.) ! W H S e q q q q q q q q q q q q q q q q _._._._._._.",
"_._._._.J.S.c.) Q P H D s t q q q q 9 q q q q q q q q q q q _._._._._._.",
"_._._.P.J.M.( ! Y H D g p e q q q q q q 9 q q q 9 q q q q q q _._._._._.",
"_.i.U.K.S.c./ T K D g p e q q q q q q q q q q q q q q q q q q _._._._._.",
"_.i.U.K.m._ ~ H D s p r e 9 9 q q q q 9 q q q q q q q q q q q q _._._._.",
"_.i.I.V.c.^ K A h s p r q 9 q q q q q q q q q q q q q q q q q q _._._._.",
"_.i.I.N._ T F h a r r e q q q q q q q q q q q q q q q q q q q q _._._._.",
"_._.A.b.) L A h a p e 9 q q q q q q q q q q q q q q q q 9 q q q 9 e _._.",
"_.m.b.l.! K S a p p r e q q q q q q q q q q q q q q q q q q q q 9 q _._.",
"_.Z.b.l.Y g p p r r r r q q 9 q q q q q q q q q q q q q q q q q q q _._.",
"_.n.l.! H s p e e q q q q q q q q q q q q q q q q q q q q q q q q q _._.",
"_.c.l.W F a e q q q q q q q q q q q 9 q q q q q q q q q q q q q q q q _.",
"_.c.) I g e q q q q q q q q q q q q q q 9 q q q q q q q q q q q q 9 e _.",
"_.c./ L s e q q q q q q q q q q q q q q q q q q q q q q q q q q q 9 9 _.",
"_.( ^ L s e q q q q q q q q q q q q q 9 q q q q q q q q q q q q q q 9 _.",
"_.l.^ L s e q q q q q q q q q q q q q q q q q q # q q q q q q q q q 9 e ",
"_.l.! K g q q q q q q q q q q q q q q q 9 q q q q q q q q q q q q q q q ",
"Z.c./ I h q q q q q q q q q q q q q q q q q q q q q q q q q q q q q q 9 ",
"Z.b.) Y S e q q q q q q q q q 9 q q q q q q q q q q y x { @.@._._._._._.",
"n.z.! K h t q q q q q q q q q q q q q q q q q q q u v { &.;.;.-.-._._._.",
"m.c.^ L h r q q q q q 9 q q q q q q q q q q q q 9 i B &.-.-.-.-.-.-._._.",
"Z.b./ I h r q q q q q q q q q q q q q q q q 9 # o z } #.-.-.-.-.-.-._._.",
"Z.c.^ K S r q q q q q q q q q 9 q q 9 q 9 9 # O   6 [ *.-.-.-.-.-.-._._.",
"C.x.! K s e e q q q q q q q q q q q 9 9 9 o +   + f N @.-.-.-.-.-.-._._.",
"n.l.~ F s e q q q q 9 9 q q q q 9 9 q 9 o O O @ o r v { &.-.-.-.-._._._.",
"b.( U F s r e 9 q q 9 9 9 9 9 9 9 9 q o O o q q q q w x } _._._._._._._.",
"z./ I D s p e 9 q q q 0 O + + + O O 9 o o q q q q q q q _._._._._._._._.",
"l.^ I D s p e e 9 q q 0 + = = + O o 9 q q q q q q q q q _._._._._._._._.",
"( Q I H A a r 9 q q q 9 o @ @ 0 q 9 q q q q q q q q q q _._._._._._._._.",
"/ Q ~ K F g p e q q q e 9 9 9 9 q q q q q q q 9 q q q q _._._._._._._._.",
"^ Q U K D g p e q q e e e q q q q q q q q q q q q q q q e _._._._._._._.",
") ! ~ K F g a r q e e r q 9 q q q q q q q q q q q q q q q _._._._._._._.",
"x./ ! U K D G d u u u p q 9 q q q q 9 q q q q q q q 9 q e _._._._._._._.",
"_./ ! ~ P E ..%.@.X.` c r 9 q q q q q q q q q q q q q q 9 _._._._._._._.",
"_.Q W W ] X.=.-.-.-.*.[ c q q q q q q q q q q q q q q q 9 _._._._._._._.",
"_./ ^ R ] %.-.-.-.-.=.| c q q q q q q q q q q q q q q q q q _._._._._._.",
"_./ ! R ] %.:.-.-.-.=.| x 9 9 e q q q q q q q q q q q q q q _._._._._._.",
"_./ ! W ] %.-.-.-.-.=.| x 9 9 9 q q q q q q q q q q q q q q _._._._._._.",
"_./ ! R E o.=.-.-.-.&.{ c q q q q q q q q q q q q 9 q q 9 q _._._._._._.",
"_.) / Q W E ..X.X. .` c e q q q 9 q q q q q q q q q q q 9 9 e _._._._._.",
"_.l.) ^ ~ L J G G j d r q 9 q q q q q q 9 q q q q q q q q q q _._._._._.",
"_._.) ! W I H D g s p r q q q q q 9 q q q q q q q q q q q q 9 q _._._._.",
"_._./ ^ Q U L H S s p e r q q q q q q q q q q q q q q q q q q q _._._._.",
"_._.( ) ! W P H A s p r q q q q q q q q q q q q q q q q q q q q e _._._.",
"_._.l.( / W I H F s s r q q q q q q 9 q q q q q q q q q q q q q q q _._.",
"_._.x.) / W U K F A s r e q q q q q q q q q q q q q q q q q q q q q _._.",
"_._.c.l./ W U L H A s r e 9 q q q q q q q q q q q q 9 q q q q q 9 q _._.",
"_._.c.l./ W P L K F s p q q q q q q q q q q q q q q q q q q q q 9 9 e _.",
"_._.( ( / W I P H D g r e q q q q q q q q q q q q q 9 q q q q q q q q _.",
"_._./ / ^ Q Y K H D g r q q q q q q q q q 9 q q q q q q q q q q q q q q ",
"_._./ ! ! ~ P L H D g r e q q q q q q q q q q q q q q q q q q q q q q q ",
"_._.Y T T W T P H D g r q q q q q q q q q q q q q q q q q q q q q q q q ",
"_._._.P I Y Y P H D g r e 9 q q 9 q q q q q q q q q q q q q q q 9 q q _.",
"_._._._.K H L K H D g r 9 e q q q q q q q q q q q q q q q q q q 9 # $ _.",
"_._._._.H H H H H D s r e q q 9 q q q q q q q 9 q q q q q 9 9 9 # $ - _.",
"_._._._.h D D D F D s r 9 9 q q q q q q q q q q q q q q q 9 0 # % X > > ",
"_._._._.a d g h S h h p q q q q q q q q q q q q q q q # q # X X > > > > ",
"_._._._.r p a a a a a r e q q q q q 9 q q q q q q q # $ $ X - > > > > - ",
"_._._._.% , * y p p p r q 9 q q 9 9 q q 9 q q # # $ X X - > > > > > > _.",
"_._._._.> : > , % * y w w q # # w w w w # # # + X - - - > > > > > > > _.",
"_._._._._.> > > > , , , X X X 4 5 5 5 5 5 , , > : > > > > > > - > _._._.",
"_._._._._.> > > > > > > > > > ; 1 1 1 3 ; ; > > : > > > > > > > _._._._.",
"_._._._._.> > > > > - > > > > > - > > > > > > > > : > > > > > _._._._._.",
"_._._._._._.> - > > > > : > > : - > > > : > > > > > > > _._._._._._._._.",
"_._._._._._.> > > > > > > > > > : > > > > > > > > > _._._._._._._._._._.",
"_._._._._._._._.> : : > > : > > > > > > _._._._._._._._._._._._._._._._."
};
