/* XPM */
static char *result[] = {
/* columns rows colors chars-per-pixel */
"36 90 163 2 ",
"   c #1D1408",
".  c #000814",
"X  c #0C0C13",
"o  c #000C1B",
"O  c #1A0F13",
"+  c #04101D",
"@  c #171510",
"#  c #1B1912",
"$  c #15151B",
"%  c #2C0905",
"&  c #360D06",
"*  c #201404",
"=  c #241808",
"-  c #2C1C0C",
";  c #32170D",
":  c #22211C",
">  c #2D241A",
",  c #031323",
"<  c #0F1420",
"1  c #091827",
"2  c #051929",
"3  c #091D2D",
"4  c #0E202F",
"5  c #182022",
"6  c #0E2232",
"7  c #102636",
"8  c #132B3B",
"9  c #192E3D",
"0  c #1D313E",
"q  c #232828",
"w  c #202C32",
"e  c #2A3337",
"r  c #31373F",
"t  c #363D3F",
"y  c #462E1A",
"u  c #422A17",
"i  c #4B331E",
"p  c #4F3924",
"a  c #4B3624",
"s  c #523B25",
"d  c #703F2B",
"f  c #56412A",
"g  c #59423A",
"h  c #674B39",
"j  c #1A3242",
"k  c #1F3748",
"l  c #233744",
"z  c #223A4A",
"x  c #293C4B",
"c  c #2B414E",
"v  c #35434D",
"b  c #2D4250",
"n  c #314552",
"m  c #364955",
"M  c #384A56",
"N  c #3B4D59",
"B  c #424449",
"V  c #484C4D",
"C  c #524741",
"Z  c #41515D",
"A  c #49535B",
"S  c #585856",
"D  c #5B5B58",
"F  c #60524D",
"G  c #735341",
"H  c #765946",
"J  c #685F5C",
"K  c #5A615B",
"L  c #69615E",
"P  c #465661",
"I  c #485661",
"U  c #4D5B65",
"Y  c #4E5C68",
"T  c #515D66",
"R  c #515E68",
"E  c #556169",
"W  c #59656D",
"Q  c #5D6A72",
"!  c #676360",
"~  c #6D6562",
"^  c #6F6862",
"/  c #66676A",
"(  c #726C64",
")  c #7F6960",
"_  c #7C7B6B",
"`  c #606D75",
"'  c #616F78",
"]  c #64747C",
"[  c #6A7273",
"{  c #777673",
"}  c #865D49",
"|  c #885F4B",
" . c #8B624E",
".. c #856448",
"X. c #8E6652",
"o. c #84695C",
"O. c #956D5A",
"+. c #926955",
"@. c #99715E",
"#. c #806C62",
"$. c #9D7764",
"%. c #A17966",
"&. c #A37D6A",
"*. c #7D837D",
"=. c #8F8059",
"-. c #8A8366",
";. c #87887B",
":. c #968C72",
">. c #9C9479",
",. c #A6816E",
"<. c #B28665",
"1. c #B48867",
"2. c #B88D6A",
"3. c #A1926C",
"4. c #A78270",
"5. c #AA8573",
"6. c #AD8877",
"7. c #AF8A78",
"8. c #B28E7D",
"9. c #B3917E",
"0. c #C3A669",
"q. c #C5AB7B",
"w. c #677780",
"e. c #687781",
"r. c #697984",
"t. c #6D7D8A",
"y. c #71818E",
"u. c #788185",
"i. c #758692",
"p. c #778896",
"a. c #788A96",
"s. c #7A8E9A",
"d. c #7D929E",
"f. c #7F94A1",
"g. c #92929E",
"h. c #B69382",
"j. c #B99684",
"k. c #BA9986",
"l. c #BD9C8A",
"z. c #8296A4",
"x. c #8498A7",
"c. c #869AAA",
"v. c #ADA9A7",
"b. c #B8B4B4",
"n. c #C7AE87",
"m. c #C1A28E",
"M. c #C4A787",
"N. c #C3A692",
"B. c #C5AA96",
"V. c #C7AF9B",
"C. c #CAB39E",
"Z. c #CBB6A1",
"A. c #CEBCA6",
"S. c #CFBFA8",
"D. c #D2C4AC",
"F. c #D3C8AF",
"G. c #C5C1BA",
"H. c #D5CCB3",
"J. c #D8CEB6",
"K. c #DAD2BB",
"L. c #DED6C1",
"P. c #E2DAC6",
"I. c None",
/* pixels */
"I.I.I.I.I.I.= = = = = = I.I.I.I.I.I.I.I.I.I.I.I.I.I.I.I.I.I.I.I.I.I.I.I.",
"I.I.I.I.I.= = = = = = = = I.I.I.X.@.&.7.h.I.I.I.I.I.I.I.I.I.I.I.I.I.I.I.",
"I.I.I.I.= = = = = = = = = I.I.X.&.8.k.l.l.l.l.h.I.I.I.I.I.I.I.I.I.I.I.I.",
"I.I.I.I.= = = = = = = = = I.I.@.8.m.m.N.B.B.m.l.j.I.I.I.I.I.I.I.I.I.I.I.",
"- - - - = = = = = = = = = h &.8.l.V.B.V.C.C.V.m.j.I.I.I.I.I.I.I.I.I.I.I.",
"- - - - = = = = = = = = = G 4.j.l.C.Z.Z.Z.A.D.C.m.8.I.I.I.I.I.I.I.I.I.I.",
"- - - - = = = = = = = = = H 5.j.N.A.A.A.D.J.K.F.V.l.&.N.I.I.I.I.I.I.I.I.",
"- - - - - = = = = = = = = G 4.h.m.Z.A.H.L.P.L.J.A.v.g.A.A.I.I.I.I.I.I.I.",
"- - - - - = = = = = = = a $.8.l.B.A.F.J.K.L.P.K.D.b.k A.F.I.I.I.I.I.I.I.",
"- - - - - - = = = = = I.I.+.&.h.m.C.D.H.K.K.P.P.K.G.b.D.F.F.I.I.I.I.I.I.",
"- - - - - - - I.I.I.I.I.I. .@.6.l.V.A.F.J.J.L.P.P.K.J.F.D.C.I.I.I.I.I.I.",
"I.- - - - - I.I.I.I.I.I.I.I. .$.9.C.A.A.F.J.K.L.L.K.J.F.A.I.I.I.I.I.I.I.",
"I.I.I.I.I.I.I.I.I.I.I.I.I.I.I.| O.h.B.A.D.F.H.J.K.J.F.F.F.I.I.I.I.I.I.I.",
"I.I.I.I.I.I.I.I.I.I.I.I.I.I.I.I.I.%.h.B.C.A.F.F.H.H.D.A.I.I.I.I.I.I.I.I.",
"I.I.I.I.I.I.I.I.I.I.I.I.I.I.I.I.I.I.%.j.N.C.D.D.D.A.C.I.I.I.I.I.I.I.I.I.",
"I.I.I.I.I.I.I.I.I.I.I.I.I.I.I.I.I.I.X.4.8.l.C.C.N.m.I.I.I.I.I.I.I.I.I.I.",
"I.I.I.I.I.I.I.I.I.I.I.I.I.I.I.I.I.I.&.8.j.8.I.I.I.I.I.I.I.I.I.I.I.I.I.I.",
"I.I.I.I.I.I.I.I.I.I.I.I.I.I.. . . . ..j.j.5.I.I.I.I.I.I.I.I.I.I.I.I.I.I.",
"I.I.I.I.I.I.I.I.I.I.I.I.I.I.. . . . g m.m.l.l.I.I.I.I.I.I.I.I.I.I.I.I.I.",
"I.I.I.I.I.I.I.I.I.I.I.I.I.. . . . . 3 N.B.N.m.q.I.I.I.I.I.I.I.I.I.I.I.I.",
"I.I.I.I.I.I.I.I.I.I.I.I.I.. o o o o c :.q.n.Z.( =.I.I.I.I.I.I.I.I.I.I.I.",
"I.I.I.I.I.I.I.I.I.I.I.I.I.o o o o 2 P [ ;.:.q.{ _ 0.I.I.I.I.I.I.I.I.I.I.",
"I.I.I.I.I.I.I.I.I.I.I.I.. o o o , 2 A ' r.u.g.3.K I.0.I.I.I.I.I.I.I.I.I.",
"I.I.I.I.I.I.I.I.I.I.I.I.. o + , , k U ] y.y.r.*.-.I.I.0.I.I.I.I.I.I.I.I.",
"I.I.I.I.I.I.I.I.I.I.I.I.. o , 2 2 b Z ] y.i.y.e.` 3.0.0.I.I.I.I.I.I.I.I.",
"I.I.I.I.I.I.I.I.I.I.I.I.. o , 3 9 Z E ] t.s.t.e.` W I.0.0.I.I.I.I.I.I.I.",
"I.I.I.I.I.I.I.I.I.I.I.. . o 2 6 k n U w.i.s.y.r.] ` I.0.0.I.I.I.I.I.I.I.",
"I.I.I.I.I.I.I.I.I.I.I.. o , 3 7 z M I ] a.s.i.t.e.` E I.0.I.I.I.I.I.I.I.",
"I.I.I.I.I.I.I.I.I.I.I.. o , 3 7 k M E e.y.a.a.y.e.' E I.0.0.I.I.I.I.I.I.",
"I.I.I.I.I.I.I.I.I.I.I.. . , 4 7 k M E w.y.a.a.y.] ' E N I.0.I.I.I.I.I.I.",
"I.I.I.I.I.I.I.I.I.I.I.. o o 1 4 9 m E ] y.a.a.t.r.Q E Z I.0.0.I.I.I.I.I.",
"I.I.I.I.I.I.I.I.I.I.I.. . , 3 4 j N W ] y.a.f.p.y.] E Z V 0.0.I.I.I.I.I.",
"I.I.I.I.I.I.I.I.I.I.. . . o , 3 j Z E e.t.a.z.z.a.r.Q P z I.0.I.I.I.I.I.",
"I.I.I.I.I.I.I.I.I.I.. . . o , 3 j Z Q e.y.a.x.s.y.' Q N z I.I.I.I.I.I.I.",
"I.I.I.I.I.I.I.I.I.I.. . . o 3 3 j Z E e.t.a.z.d.p.r.Q P c I.I.I.I.I.I.I.",
"I.I.I.I.I.I.I.I.I.I.. . . o , 3 j M E e.y.a.z.c.f.i.Q N x I.I.I.I.I.I.I.",
"I.I.I.I.I.I.I.I.I.I.. . . . , 3 j n E ] t.a.z.x.f.i.Q N b I.I.I.I.I.I.I.",
"I.I.I.I.I.I.I.I.I.I.. . . . o 3 9 n E e.t.a.f.x.x.f.Q Z m I.I.I.I.I.I.I.",
"I.I.I.I.I.I.I.I.I.I.. . . . o 3 8 x I ] y.a.z.c.c.s.] E m k I.I.I.I.I.I.",
"I.I.I.I.I.I.I.I.I.I.. . . . o , 7 c U ' t.p.s.c.c.s.] W c j I.I.I.I.I.I.",
"I.I.I.I.I.I.I.I.I.I.. . . . . , 6 z Z Q y.p.f.f.c.d.] E c k I.I.I.I.I.I.",
"I.I.I.I.I.I.I.I.I.I.. . . . o , 7 k Z Q y.s.f.x.c.c.w.E m k I.I.I.I.I.I.",
"I.I.I.I.I.I.I.I.I.I.. . . . . , 4 x m W w.y.s.f.c.c.y.W b j I.I.I.I.I.I.",
"I.I.I.I.I.I.I.I.I.I.I.. . . o o o 8 m E w.t.f.f.x.f.t.Q b j I.I.I.I.I.I.",
"I.I.I.I.I.I.I.I.I.I.I.. . . o o o 6 k Y ' t.s.f.d.f.y.] n j I.I.I.I.I.I.",
"I.I.I.I.I.I.I.I.I.I.I.. . . . . o 6 k Y w.t.s.f.d.d.t.] I x N I.I.I.I.I.",
"I.I.I.I.I.I.I.I.I.I.I.. . . . . o 2 k U ] t.s.s.d.d.t.w.I l Y I.I.I.I.I.",
"I.I.I.I.I.I.I.I.I.I.I.I.o . o . . 2 j P Q r.p.p.s.f.y.r.Q I W I.I.I.I.I.",
"I.I.I.I.I.I.I.I.I.I.I.I.o o o o o 3 8 Z W r.i.i.i.s.i.t.r.w.' I.I.I.I.I.",
"I.I.I.I.I.I.I.I.I.I.I.I.o 2 2 + o . 4 n Q r.i.i.i.i.i.i.r.e.e.I.I.I.I.I.",
"I.I.I.I.I.I.I.I.I.I.I.o o , 2 2 + o 1 x Y e.i.p.i.i.i.i.i.r.] ` I.I.I.I.",
"I.I.I.I.I.I.I.I.I.I.I.. + , 1 X X X . 7 n Q t.t.t.i.i.p.t.r.e.` I.I.I.I.",
"I.I.I.I.I.I.I.I.I.I.I.o + 2 $ & & % O 4 x U ] e.t.i.i.p.i.t.r.e.I.I.I.I.",
"I.I.I.I.I.I.I.I.I.I.I.o , 2 3 l V d d + 7 m E Q ] r.t.t.y.y.t.r.I.I.I.I.",
"I.I.I.I.I.I.I.I.I.I.I.o 2 3 3 9 m J { v 1 x I R Q ] e.t.t.t.t.r.] I.I.I.",
"I.I.I.I.I.I.I.I.I.I.I.o 2 3 4 7 c Q p.Y o 9 N P R Q ` e.t.t.t.t.] I.I.I.",
"I.I.I.I.I.I.I.I.I.I.I.3 6 8 8 8 j Z t.i.Y + j c n M E E ` e.t.t.] I.I.I.",
"I.I.I.I.I.I.I.I.I.I.I.1 4 7 8 j z E t.y.Y + 7 k z c Z Z W Q ` t.e.I.I.I.",
"I.I.I.I.I.I.I.I.I.I.+ 3 7 8 j k z b ] r.t.Y , 6 7 j c c A / e.] ` I.I.I.",
"I.I.I.I.I.I.I.I.I.I.+ 6 6 8 j k c v U ] w.E 3 3 3 6 B B F o.u.r.` I.I.I.",
"I.I.I.I.I.I.I.I.I.I.+ 4 8 j j z c m m ` ] ] M x x r } } } } ) r.` W I.I.",
"I.I.I.I.I.I.I.I.I.I., 6 8 k k b n Z Z W Q ] r.y.i.) } } } } ) r.] W I.I.",
"I.I.I.I.I.I.I.I.I.I., 8 j k z b n Z Z E W ` w.r.y.#.} } } } #.r.] U I.I.",
"I.I.I.I.I.I.I.I.I.I., 8 j k b n M Z U W W ` w.y.y.) } } }  .#.r.Q U I.I.",
"I.I.I.I.I.I.I.I.I.I., 9 z c b n N P E W ' ] r.t.y.d. ...} #.s.e.Q W I.I.",
"I.I.I.I.I.I.I.I.I.I., 0 z k b b N N E Q ' ] r.i.y.s.d.d.c.z.a.t.] W I.I.",
"I.I.I.I.I.I.I.I.I.I., 9 k c b N Z E E Q ' ] t.i.i.a.d.d.f.z.y.e.W U I.I.",
"I.I.I.I.I.I.I.I.I.I.+ 6 9 k c N I E E Q ' ] r.y.i.i.d.d.f.z.a.e.Q R I.I.",
"I.I.I.I.I.I.I.I.I.I.+ 6 j k c N I E Q Q ' ] r.y.i.i.s.d.d.f.d.r.` R I.I.",
"I.I.I.I.I.I.I.I.I.I.+ 6 j k c N Z E Q ` ] r.y.y.i.i.i.s.d.d.d.r.Q U I.I.",
"I.I.I.I.I.I.I.I.I.I.o 4 j k c N Z E Q ' ] ] y.r.t.y.i.i.d.d.i.] Y n I.I.",
"I.I.I.I.I.I.I.I.I.I.o 4 j k c N Z E Q Q ] r.y.y.t.y.i.i.s.d.a.] W M I.I.",
"I.I.I.I.I.I.I.I.I.I.1 6 9 c c N A E Q ' ] ] r.t.t.y.i.i.a.d.s.] Y n I.I.",
"I.I.I.I.I.I.I.I.I.I.2 6 j c b N R E Q Q ] ] t.t.t.t.i.i.a.s.y.] U b I.I.",
"I.I.I.I.I.I.I.I.I.I., 6 8 k c n N E Q ' ] ] r.y.t.t.i.i.i.i.t.Q Z b I.I.",
"I.I.I.I.I.I.I.I.I.I., 6 9 j c n N E E ' ] w.w.t.t.t.i.i.y.y.] E m k I.I.",
"I.I.I.I.I.I.I.I.I.I., 2 7 k c n N E E ` ] ] ] t.t.t.i.i.t.r.] Z c j I.I.",
"I.I.I.I.I.I.I.I.I.I.o 3 6 j c n N E E ` ] ] ] r.t.t.y.i.r.e.Q N z 6 $ I.",
"I.I.I.I.I.I.I.I.I.  . 1 7 j b b N A E Q ] ] ] w.r.y.y.] ] Q W I x 5   I.",
"I.I.I.I.I.I.I.I.=   . 2 6 k c n N U E Q Q ] ] ] r.t.r.] Q Q W N b # = * ",
"I.I.I.I.I.I.I.I.* * X + 6 k c n N U E W Q ` ] ] r.r.] ` W W T M q =   * ",
"I.I.I.I.I.I.I.I.* *   @ 2 j c b N N E Q Q ` ] ] ] ` Q E E T Z c : * * I.",
"I.I.I.I.I.I.I.I.* * * # 6 k k c N Z E W Q ` ] ] ] ` Q E T Z M : * * = I.",
"I.I.I.I.I.I.I.I.I.* * * # 0 x c M N U W Q Q ] ` Q W U Z M M v > *   I.I.",
"I.I.I.I.I.I.I.I.I.=   * * q w e e Z Z E Q ` Q W W U L L D S C -   I.I.I.",
"I.I.I.I.I.I.I.I.I.I.* * * * * * * v t L ^ ^ ( ( ^ ! <.<.1.2...= = I.I.I.",
"I.I.I.I.I.I.I.I.I.I.I.I.* *     * * * u y y i i i p s s s s s I.I.I.I.I.",
"I.I.I.I.I.I.I.I.I.I.I.I.I.I.I.= * * * * * * * *   = * * = = I.I.I.I.I.I.",
"I.I.I.I.I.I.I.I.I.I.I.I.I.I.I.I.I.= * * * * *     * * I.I.I.I.I.I.I.I.I.",
"I.I.I.I.I.I.I.I.I.I.I.I.I.I.I.I.I.I.I.I.* * * = * * I.I.I.I.I.I.I.I.I.I."
};
