/* XPM */
static char *result[] = {
/* columns rows colors chars-per-pixel */
"36 90 182 2 ",
"   c #1E070D",
".  c #1C080E",
"X  c #1E160D",
"o  c #0C0D1D",
"O  c #140A15",
"+  c #190911",
"@  c #110C18",
"#  c #0D121C",
"$  c #151414",
"%  c #1B1613",
"&  c #14141C",
"*  c #18101B",
"=  c #260607",
"-  c #251706",
";  c #291604",
":  c #261806",
">  c #281804",
",  c #22160B",
"<  c #2E1C08",
"1  c #2B150F",
"2  c #331607",
"3  c #381708",
"4  c #301C08",
"5  c #361708",
"6  c #320F10",
"7  c #201611",
"8  c #3C1314",
"9  c #36220C",
"0  c #38240C",
"q  c #392410",
"w  c #060F23",
"e  c #090E21",
"r  c #041024",
"t  c #0A1224",
"y  c #071329",
"u  c #0A142D",
"i  c #07182D",
"p  c #09192F",
"a  c #161A2B",
"s  c #0C1531",
"d  c #0C1A34",
"f  c #0D1E38",
"g  c #161F33",
"h  c #0D233B",
"j  c #0B2137",
"k  c #182539",
"l  c #23242F",
"z  c #292A2C",
"x  c #242432",
"c  c #222A3C",
"v  c #322C33",
"b  c #393135",
"n  c #401514",
"m  c #452E19",
"M  c #4F3520",
"N  c #5B4029",
"B  c #524A39",
"V  c #63452F",
"C  c #6D4C35",
"Z  c #704F38",
"A  c #78533D",
"S  c #69543D",
"D  c #0F2740",
"F  c #0F2941",
"G  c #112C44",
"H  c #122F48",
"J  c #14334C",
"K  c #153751",
"L  c #163A54",
"P  c #193D56",
"I  c #173E59",
"U  c #183F59",
"Y  c #242F40",
"T  c #253649",
"R  c #3D3843",
"E  c #203E53",
"W  c #17415C",
"Q  c #19435C",
"!  c #344A59",
"~  c #3B4C58",
"^  c #2B4355",
"/  c #194662",
"(  c #194965",
")  c #1A4D6A",
"_  c #174462",
"`  c #1B516E",
"'  c #1C5473",
"]  c #1D5C7C",
"[  c #1D5878",
"{  c #214960",
"}  c #1D607F",
"|  c #3D616B",
" . c #5B4640",
".. c #574344",
"X. c #4D5750",
"o. c #585151",
"O. c #604943",
"+. c #6A4F46",
"@. c #6A4F48",
"#. c #68534C",
"$. c #725347",
"%. c #745549",
"&. c #685852",
"*. c #6A6E59",
"=. c #7B6255",
"-. c #697D6F",
";. c #825E4A",
":. c #86614E",
">. c #87724C",
",. c #866151",
"<. c #8B6450",
"1. c #936A54",
"2. c #9A6D55",
"3. c #9D7056",
"4. c #9E7159",
"5. c #A3755C",
"6. c #A5785B",
"7. c #AB7C62",
"8. c #B07F66",
"9. c #96885A",
"0. c #AA814B",
"q. c #AF8165",
"w. c #B18367",
"e. c #B48569",
"r. c #B7886B",
"t. c #BB8C6D",
"y. c #B8876B",
"u. c #BF9070",
"i. c #B9A468",
"p. c #D8A15B",
"a. c #CBA458",
"s. c #F4BA56",
"d. c #CB9C67",
"f. c #C39474",
"g. c #C79A78",
"h. c #C99C7A",
"j. c #C9AF6A",
"k. c #D6B46A",
"l. c #CDA27E",
"z. c #C5B073",
"x. c #D4B673",
"c. c #E8B76D",
"v. c #1E5F80",
"b. c #1E6383",
"n. c #1F698A",
"m. c #216585",
"M. c #226B8C",
"N. c #2A6E8B",
"B. c #26718F",
"V. c #247394",
"C. c #267A9B",
"Z. c #3B7E95",
"A. c #2D7EA0",
"S. c #3A8094",
"D. c #2C82A4",
"F. c #2580A1",
"G. c #3F8EB1",
"H. c #42869C",
"J. c #69928E",
"K. c #7A9887",
"L. c #7AA19E",
"P. c #4089A0",
"I. c #5598AE",
"U. c #4B98BB",
"Y. c #4C96BA",
"T. c #619FB8",
"R. c #6EA5B8",
"E. c #58A0C3",
"W. c #65A5C6",
"Q. c #869E88",
"!. c #97AA9A",
"~. c #CEA583",
"^. c #D2AB85",
"/. c #D3AC88",
"(. c #D0A782",
"). c #D6B28A",
"_. c #D9B58C",
"`. c #DAB98F",
"'. c #D5B491",
"]. c #D5BAA4",
"[. c #D4BFB6",
"{. c None",
/* pixels */
"{.{.{.{.{.{.{.{.{.{.{.> > > > > > > {.{.{.{.{.{.{.{.{.{.{.{.{.{.{.{.{.{.",
"{.{.{.{.{.{.{.{.{.{.> > > > > > > > < N y.f.g.l.^./.{.{.{.{.{.{.{.{.{.{.",
"{.{.{.{.{.{.{.{.{.{.> > > > > > > > 9 V 4.r.f.h.l.(.).).{.{.{.{.{.{.{.{.",
"{.{.{.{.{.{.{.{.{.{.> > > > > > : - < m ;.q.t.f.g.l.^.^._.`._.{.{.{.{.{.",
"{.{.{.{.{.{.{.4 4 4 4 < > > > > > > > 9 Z 4.7.7.e.y.t.f.g.(._.'.].{.{.{.",
"{.{.{.{.{.{.4 4 4 4 4 4 < > > > > > > 0 C 1.4.5.6.7.8.w.t.f.~.'.].[.{.{.",
"{.{.{.{.{.{.4 4 4 4 4 4 < ; > > > > > 0 C 1.4.4.5.4.5.6.7.r.f.l.~./.{.{.",
"{.{.{.{.{.{.4 4 4 4 4 4 < < > > > > < m A 1.4.2.2.5.5.5.7.y.t.f.h.~.{.{.",
"{.{.{.{.{.{.4 4 4 < 4 4 < > > > > 9 M A 2.2.2.2.2.4.4.5.7.8.y.f.f.g.{.{.",
"{.{.{.{.{.{.4 4 2 4 4 4 4 {.{.{.{.{.2.2.2.2.2.2.2.2.2.4.5.7.7.w.y.y.{.{.",
"{.{.{.{.{.{.0 9 4 9 4 {.{.{.{.{.{.{.2.2.2.2.2.2.2.2.2.2.4.5.7.7.e.r.{.{.",
"{.{.{.{.{.{.0 0 0 0 0 {.{.{.{.{.{.{.{.2.2.2.2.2.2.2.2.2.4.4.5.7.w.y.{.{.",
"{.{.{.{.{.{.0 0 0 0 0 {.{.{.{.{.{.{.{.{.2.2.2.2.2.2.2.2.2.2.2.4.5.{.{.{.",
"{.{.{.{.{.{.{.0 0 0 {.{.{.{.{.{.{.{.{.{.{.2.2.2.2.2.2.2.2.2.2.2.{.{.{.{.",
"{.{.{.{.{.{.{.{.{.{.{.{.{.{.{.{.{.{.{.{.2.2.2.2.2.5.4.{.{.{.{.{.{.{.{.{.",
"{.{.{.{.{.{.{.{.{.{.{.{.{.{.{.{.{.{.{.{.2.2.2.2.2.5.{.{.{.{.{.{.{.{.{.{.",
"{.{.{.{.{.{.{.{.{.{.{.{.{.{.{.) ( J R %.2.2.2.2.4.7.t.{.{.{.{.{.{.{.{.{.",
"{.{.{.{.{.{.{.{.{.{.{.{.{.J L / I F g b $.<.2.2.5.w.u.~.{.{.{.{.{.{.{.{.",
"{.{.{.{.{.{.{.{.{.{.y u f h G G f i r y a b S 0.p.d.x.`.{.{.{.{.{.{.{.{.",
"{.{.{.{.{.{.{.{.{.{.w y u s d d y r w r r y z B >.d.c.c.{.{.{.{.{.{.{.{.",
"{.{.{.{.{.{.{.{.{.r r r r r r r r r r r r r r i k X.*.9.a.{.{.{.{.{.{.{.",
"{.{.{.{.{.{.{.{.r r r r r r r r r r r r r r r i h K { | -.i.s.{.{.{.{.{.",
"{.{.{.{.{.{.{.r r r r r r r r r r r r r r r r i h K ( ' N.J.k.{.{.{.{.{.",
"{.{.{.{.{.{.{.r r r r r r r r r r r r r r r i j J Q ' m.V.P.L.z.{.{.{.{.",
"{.{.{.{.{.{.r r r r r r r r r r r r r r r y i h K ( ' ] M.A.U.R.{.{.{.{.",
"{.{.{.{.{.{.r r r r r r r w r r r r r r r r i j F J I ( ' M.D.U.E.{.{.{.",
"{.{.{.{.{.r r r r r r r r r r r r r r r r r y d h F K W ) v.C.Y.W.{.{.{.",
"{.{.{.{.{.r r r r r r w r r r r r r r r r r r y d h H J W ' V.G.T.!.x.{.",
"{.{.{.{.r r w r r r r r r r r r r r o r r r r r u s f F J / m.A.I.!.x.{.",
"{.{.{.{.r r r r r r r r r r r r r r r r r r r r y s f f G K ' V.H.Q.k.{.",
"{.{.{.r r r r r r r r r r r r r r r r r r r r r y u d f h J ( m.Z.K.j.{.",
"{.{.{.r r r r r r r w r r r w r r r r r r r r r r u s d f F I v.B.Z.{.{.",
"{.{.r r r r r r r r r r r r r r r r r r r r r r r u s s d D K ` } V.F.{.",
"{.{.r r w r r r r r r r r r r r r r r r r r r r u u u u u s d _ ] V.D.{.",
"{.{.r r r r r r r w r r r r r r r r r r r r r r r r y y u u d L ` b.V.{.",
"{.r r r r r r r r r r r r w r r r r r r r r r r r r r r r y d J / [ n.{.",
"{.r r r r r w r r r r r r r r w r r r r r r r r r r r r r r y D K ` b.{.",
"{.r r r r r r r r r r r r r r r r r r r r r r r r r r r r r r h I ' n.{.",
"{.r r r r r r r r r r r r r r r r r r r r r r r r r r r r r y h L ) ] {.",
"r r r r r r r r r w r r r r r r r r r r r r r r r r r r w w r D L ) [ {.",
"r r r r r r r r r r r r r r r r r r r r r r r r r r r r r w y h K ) ] {.",
"{.{.{.t t u t t r r r r r r r r r r r r r r r r r r r r r r r D L ' M.F.",
"{.{.{.{.{.{.{. .x t w w r r r r r r r r r r r r r r r r r r r H W } C.D.",
"{.{.{.2.2.3.3.<.@.b w w r r r r r r r r r r r r r r w r r r r F K ` b.V.",
"{.{.2.2.2.2.2.2.;. .t w r r r r r r r r r r r r r r r r w y y D I ` M.C.",
"{.{.2.2.2.2.2.2.1.%.a O o w r r r r r r r r r r r r r r w r u D I ` B.D.",
"{.{.2.2.2.2.2.2.1.$.@   O o w r r r r r r r r r r r r r w r y D K ' n.F.",
"{.{.2.2.2.2.2.2.<.O.e O   . @ r r r r r r r r r r r r r r r y D J ( b.C.",
"{.{.{.2.2.2.2.<.+.b r e @ O O o r r r w w r w r r r r r r r u f J / b.V.",
"{.{.{.{.{.{.{.{.x t r r r r o O @ o # w e w e w r r r r r y s f F W ' n.",
"{.{.{.{.{.{.{.{.r r r r r r r o o o @ + + + + O o r r r w r s h H W ' b.",
"{.{.{.{.{.{.{.{.r w r r r r r r r w o @ . = =   o r r r w y s h F L ( ' ",
"{.{.{.{.{.{.{.{.r r r r r r r r r r r w o @ @ o w w w r y i f F J I ) ' ",
"{.{.{.{.{.{.{.{.r r r r r r r r r r r r r r r r y r w y y s h H K Q ( ` ",
"{.{.{.{.{.{.{.r r r r r r r r r r r r r r r r y y y w w y d h H K W ) ) ",
"{.{.{.{.{.{.{.r r r r r r r r r r r r r r r r r y y w r y d h H K Q ) ' ",
"{.{.{.{.{.{.{.r r r r r r r r r r r r r r r r y u u u y s k G K W ) ' ] ",
"{.{.{.{.{.{.{.r r r r w r r r r r r r r w r r r x @.;.,.,.&.Q W Q ) ' {.",
"{.{.{.{.{.{.{.r r r r r r r r r r r r r r r r x O.1.2.2.2.1.=.! Q ( ) {.",
"{.{.{.{.{.{.r r r r r r r r w r r r w r r r r v $.2.2.2.2.2.1.~ { ) ` {.",
"{.{.{.{.{.{.r r w r r r r r r r r r r r r r w v $.2.2.2.2.2.1.~ Q ) ' {.",
"{.{.{.{.{.{.r r r r r r r r r r r r r r r r r v $.2.2.2.2.2.1.~ { ( ' {.",
"{.{.{.{.{.{.r r r r r r r r r r r r r r r r y x  .1.2.2.2.1.=.! { ) ' {.",
"{.{.{.{.{.r r r r r r r r r r w r w r r r r w u x ..@.#.#.o.^ / ( ' [ {.",
"{.{.{.{.{.r r r r w r r r r r r r r r r r r r y u k c Y T T P / ) ' v.{.",
"{.{.{.{.{.r r r r r r r r r r r r r r r r r r r u u f h G J P / ) ' {.{.",
"{.{.{.{.r r r r r r r r r r r r r r r r r r r y u s f D H P U ( ' ' {.{.",
"{.{.{.r r r r r r r r r r r r w r r r w w r r r u s f D J P / ' [ [ {.{.",
"{.{.{.r w r r r r r w r r r r r r r r r r r r y u d h G J U / ' ] v.{.{.",
"{.{.r r r r r r r r r r r r r r r r r r r r r r s h G H K U ) ' ] b.{.{.",
"{.{.r r r r r r r r r r r w r r r r r r r r w r u h G J L U / ' b.b.{.{.",
"{.r r r w r r r r r r r r r r r r r w r r r r r s f G J P U ) [ b.n.{.{.",
"{.r r r r r r r w r r r r r r r r r r r r r r r s h H J P U / ' ] ] {.{.",
"r r r r r r r r r r r r r r w r r r r r r r r r u h H J P U / ' ' ' {.{.",
"r r r r r r r r r r r r r r r r r r r r r r w y u h G J K W / ) ` ) {.{.",
"w r r r r r r r w r r r r r r r r r r r r r w r u h G J P W / / W Q {.{.",
"{.r r r r r r r r r r w r r w r r r r r r r r y u h H J L Q Q L P {.{.{.",
"{.$ # r r r r r r r r r r r r r r r w r r r r y u h G J P K K J {.{.{.{.",
"{., $ # r r r r r r r r r r r r r r r r r r w y u h G H J J J H {.{.{.{.",
"> > X $ $ r r r r r r r r r r r r r r r w w w t u h G H G G D G {.{.{.{.",
"> > > - , $ o w r r r w r r w w r r r r r r w y u h D F h h d d {.{.{.{.",
"> > > > > > X $ # r r w r w r w r r r w r r r r u f d d d s s s {.{.{.{.",
"{.> > > > > > > - X % # w r w w w y r r w w w y i s s a a % 7 7 {.{.{.{.",
"{.> > > > > > > > > > % $ # e e t e e w t r w t y t * % - - > {.{.{.{.{.",
"{.{.{.> > > > > > > > > > , , 6 n 8 8 8 1 X X X X X - > > > > {.{.{.{.{.",
"{.{.{.{.> > > > > > > > > > ; 2 3 3 5 5 ; > > > > > > > > > > {.{.{.{.{.",
"{.{.{.{.{.> > > > > > > > > > > > > > > > > > > > > > > > > > {.{.{.{.{.",
"{.{.{.{.{.{.{.{.- > > > > > > > > > > > > > > > > > > > > > {.{.{.{.{.{.",
"{.{.{.{.{.{.{.{.{.{.> > > > > > > > > > > > > > > > > > > > {.{.{.{.{.{.",
"{.{.{.{.{.{.{.{.{.{.{.{.{.{.{.> > > > > > > > > > > > > {.{.{.{.{.{.{.{."
};
