/* XPM */
static char *result[] = {
/* columns rows colors chars-per-pixel */
"36 90 216 2 ",
"   c #11141C",
".  c #280404",
"X  c #260B0E",
"o  c #3C0808",
"O  c #3F0A09",
"+  c #281804",
"@  c #291804",
"#  c #291905",
"$  c #2A1905",
"%  c #2B1905",
"&  c #2B1A06",
"*  c #2C1A06",
"=  c #2D1A06",
"-  c #2D1B07",
";  c #2E1B07",
":  c #2F1B07",
">  c #2F1C08",
",  c #301C08",
"<  c #041024",
"1  c #051025",
"2  c #051126",
"3  c #061126",
"4  c #061127",
"5  c #0E1726",
"6  c #071128",
"7  c #071229",
"8  c #081229",
"9  c #08122A",
"0  c #09122B",
"q  c #0A132D",
"w  c #0B132E",
"e  c #0C142F",
"r  c #0C1430",
"t  c #0C1631",
"y  c #0C1732",
"u  c #0C1933",
"i  c #0C1934",
"p  c #0C1A34",
"a  c #0C1B35",
"s  c #0A1E35",
"d  c #0C1D36",
"f  c #0C1E37",
"g  c #0C233B",
"h  c #0C243C",
"j  c #0E273F",
"k  c #22252A",
"l  c #302B32",
"z  c #4F140F",
"x  c #561B0F",
"c  c #561611",
"v  c #541C10",
"b  c #671C13",
"n  c #691C14",
"m  c #6A1C14",
"M  c #7A271B",
"N  c #7D281C",
"B  c #7E291C",
"V  c #493B3A",
"C  c #743027",
"Z  c #4B4232",
"A  c #55423F",
"S  c #5F5036",
"D  c #7A5F2F",
"F  c #735E3A",
"G  c #0E2740",
"H  c #0F2841",
"J  c #102A43",
"K  c #112B44",
"L  c #132C46",
"P  c #122D46",
"I  c #132F47",
"U  c #112C49",
"Y  c #142F48",
"T  c #143049",
"R  c #12304E",
"E  c #11354F",
"W  c #16364F",
"Q  c #123651",
"!  c #123852",
"~  c #173851",
"^  c #173A53",
"/  c #143A56",
"(  c #163B56",
")  c #183B54",
"_  c #183C55",
"`  c #25384A",
"'  c #1A455F",
"]  c #184662",
"[  c #184864",
"{  c #184965",
"}  c #184A66",
"|  c #1D4B64",
" . c #1C4B66",
".. c #194E6B",
"X. c #1F4D68",
"o. c #17506D",
"O. c #1B5373",
"+. c #1C5474",
"@. c #1C5575",
"#. c #5D514F",
"$. c #5E5C5C",
"%. c #695B55",
"&. c #615F5F",
"*. c #69644D",
"=. c #69605B",
"-. c #4F6177",
";. c #57657A",
":. c #6E7B69",
">. c #802A1D",
",. c #843823",
"<. c #863924",
"1. c #953A29",
"2. c #973B2A",
"3. c #894029",
"4. c #AE4832",
"5. c #B04A33",
"6. c #BE553C",
"7. c #886C3F",
"8. c #9A753C",
"9. c #A37D3F",
"0. c #9C7A43",
"q. c #9A6D55",
"w. c #9C6F57",
"e. c #9E7159",
"r. c #9F7259",
"t. c #A07359",
"y. c #A1735B",
"u. c #A4775C",
"i. c #926F63",
"p. c #92736A",
"a. c #A97A60",
"s. c #AA7B61",
"d. c #AB7B62",
"f. c #AC7E62",
"g. c #AE7D65",
"h. c #AE7E65",
"j. c #AA8442",
"k. c #B28A45",
"l. c #B58D48",
"z. c #B58D4A",
"x. c #BB924A",
"c. c #B08367",
"v. c #B18368",
"b. c #B28669",
"n. c #B6886B",
"m. c #BA8A6D",
"M. c #BD8D6D",
"N. c #BE8E6F",
"B. c #C4974B",
"V. c #CC9C4B",
"C. c #CF995E",
"Z. c #D2A04C",
"A. c #D7A44E",
"S. c #D9A54F",
"D. c #CCA154",
"F. c #DDB05E",
"G. c #EDB353",
"H. c #EEB453",
"J. c #EDB454",
"K. c #EEB454",
"L. c #EEB657",
"P. c #F4B854",
"I. c #F7BA55",
"U. c #C39271",
"Y. c #C59473",
"T. c #C69D7A",
"R. c #CB9A79",
"E. c #CD9F7D",
"W. c #DBA460",
"Q. c #CCA37F",
"!. c #E4B663",
"~. c #F7C162",
"^. c #F7C973",
"/. c #1F6282",
"(. c #206586",
"). c #2F6680",
"_. c #356E8D",
"`. c #277193",
"'. c #207394",
"]. c #207596",
"[. c #207796",
"{. c #2F7597",
"}. c #3A7395",
"|. c #3C7B9C",
" X c #2E7FA1",
".X c #327FA2",
"XX c #426783",
"oX c #427B9C",
"OX c #7E7584",
"+X c #817480",
"@X c #2486A6",
"#X c #388EB2",
"$X c #3C90B4",
"%X c #4883A5",
"&X c #4D93B4",
"*X c #4595B9",
"=X c #5EA3C4",
"-X c #65A6CB",
";X c #90A287",
":X c #CFA682",
">X c #CFA983",
",X c #D1A984",
"<X c #D3AC86",
"1X c #D6B08C",
"2X c #DAB88E",
"3X c #DEC299",
"4X c #DFC49B",
"5X c #EECA81",
"6X c #F7CF82",
"7X c #E1C79B",
"8X c #E7D4A6",
"9X c #EDE0B1",
"0X c #86BAD8",
"qX c #99C4E0",
"wX c #9EC7E3",
"eX c None",
/* pixels */
"eXeXeXeXeXeXeXeXeXeXeXeXeXeXeXeXeX+ + + + + eXeXeXeXeXeXeXeXeXeXeXeXeXeX",
"eXeXeXeXeXeXeXeXeXeXeXeXeXeXeXeX+ + + + + + + eXeXeXeXeXeXeXeXeXeXeXeXeX",
"eXeXeXeXeXeXeXeXeXeXeXeXeXeXeXeX+ + + + + + + eXeXeXeXeXeXeXeXeXeXeXeXeX",
"eXeXeXeXeXeXeXeXeXeXeXeXeXeXeXeX+ + + + + + + eXeXeXeXeXeXeXeXeXeXeXeXeX",
"eXeXeXeXeXeXeXeXeXeXeXeXeXeXeXeX+ + + + + + + eXeXeXeXeXeXeXeXeXeXeXeXeX",
"eXeXeXeXeXeXeXeXeXeXeXeXeXeXeXeX+ + + + + + + eXeXeXeXeXeXeXeXeXeXeXeXeX",
"eXeXeXeXeXeXeXeXeXeXeXeXeXeXeXeX+ + + + + + + eXeXeXeXeXeXeXeXeXeXeXeXeX",
"eXeXeXeXeXeXeXeXeXeXeXeXeXeXeXeX9X8X7X2X,X:X:X:XR.R.eXeXeXeXeXeXeXeXeXeX",
"eXeXeXeXeXeXeXeXeXeXeXeXeXeXeXeX3X<XE.R.R.Y.U.U.U.m.eXeXeXeXeXeXeXeXeXeX",
"eXeXeXeXeXeXeXeXeXeXeXeXeXeXeX4XQ.n.b.b.b.b.h.g.g.h.b.eXeXeXeXeXeXeXeXeX",
"eXeXeXeXeXeXeXeXeXeXeXeXeXeXeXN.c.s.r.q.q.q.q.q.q.q.q.eXeXeXeXeXeXeXeXeX",
"eXeXeXeXeXeXeXeXeXeXeXeXeXeX>Xv.d.t.q.q.q.q.q.q.q.q.q.eXeXeXeXeXeXeXeXeX",
"eXeXeXeXeXeXeXeXeXeXeXeXeXeXT.u.e.w.q.q.q.q.q.q.q.q.q.eXeXeXeXeXeXeXeXeX",
"eXeXeXeXeXeXeXeXeXeXeXeXeXeXM.u.p.-.{ =.q.q.q.q. .+Xq.eXeXeXeXeXeXeXeXeX",
"eXeXeXeXeXeXeXeXeXeXeXeXeXeXeXe.e.&.{ ;.i.q.q.OX .+Xq.eXeXeXeXeXeXeXeXeX",
"eXeXeXeXeXeXeXeXeXeXeXeXeXeXeXe.e.&.{ =.q.q.q.q.| q.q.eXeXeXeXeXeXeXeXeX",
"eXeXeXeXeXeXeXeXeXeXeXeXeXeXeXe.e.w.q.q.q.q.q.q.q.q.q.eXeXeXeXeXeXeXeXeX",
"eXeXeXeXeXeXeXeXeXeXeXeXeXeXeXq.q.q.q.q.q.q.q.q.q.q.q.eXeXeXeXeXeXeXeXeX",
"eXeXeXeXeXeXeXeXeXeXeXeXeXeXeXeXq.q.q.q.q.q.q.q.q.q.eXeXeXeXeXeXeXeXeXeX",
"eXeXeXeXeXeXeXeXeXeXeXeXeXeXeXeXq.q.q.q.q.q.q.q.q.q.eXeXeXeXeXeXeXeXeXeX",
"eXeXeXeXeXeXeXeXeXeXeXeXeXeXeXeXeXq.q.q.q.q.q.q.q.eXeXeXeXeXeXeXeXeXeXeX",
"eXeXeXeXeXeXeXeXeXeXeXeXeXeXeXeXeXeX1Xf.q.q.q.eXeXeXeXeXeXeXeXeXeXeXeXeX",
"eXeXeXeXeXeXeXeXeXeXeXeXeXeXeXeXeXeXq.q.q.q.q.eXeXeXeXeXeXeXeXeXeXeXeXeX",
"eXeXeXeXeXeXeXeXeXeXeXeXeXeXeX0X*X;XC.y.q.q.).L.(.eXeXeXeXeXeXeXeXeXeXeX",
"eXeXeXeXeXeXeXeXeXeXeXeXqX'./.@.:.W.a.q.q.q.` K.T T T eXeXeXeXeXeXeXeXeX",
"eXeXeXeXeXeXeXeXeXeXwX$X@.O.] ~ *.7.< < < < < r J.h j T T eXeXeXeXeXeXeX",
"eXeXeXeXeXeXeXeX-X X..{ [ ^ P s S 7.< < < < < < G.t h h h h eXeXeXeXeXeX",
"eXeXeXeXeXeXwX=X`.' _ _ ) L q < S 7.< < < < < < G.2 r i h d r eXeXeXeXeX",
"eXeXeXeXeXeX&X} T T T T Y w < < < F F < < < < G.< < 4 r r r r r eXeXeXeX",
"eXeXeXeXeXeXXXh h y r r < < < < < F F < < < < G.< < < < 7 9 < < eXeXeXeX",
"eXeXeXeXeXoXE p r r 1 < < < < < < F F < < < < G.< < < < < < < < < eXeXeX",
"eXeXeXeXeXo.a r r 3 < < < < < < < F F < < < < G.< < < < < < < < < eXeXeX",
"eXeXeXeX%X! a r r 3 < < < < < < < < 7.S < < S.5 < < < < < < < < < < eXeX",
"eXeXeXeX_.h a r 4 < < < < < < < < < < 0.Z B.k < < < < < < < < < < < eXeX",
"eXeXeX|.K d r r 4 < < < < < < < < F I.I.I.I.I.I.< < < < < < < < < < eXeX",
"eXeXeX}.r r r 6 < < < < < < < < < F Z.F.6X^.x.P.< < < < < < < < < < eXeX",
"eXeXeX/ r r 8 < < < < < < < < < S A.k.F.z.D j.k.G.< < < < < < < < < < eX",
"eXeX{.r 0 < < < < < < < < < < < S A.k.9.8.!.x.k.G.< < < < < < < < < < eX",
"eXeX+.r 0 < < < < < < < < < < < < F ~.D.k.k.5Xl.G.< < < < < < < < < < eX",
"eX.Xq < < < < < < < < < < < < < < F I.V.k.k.H.I.< < < < < < < < < < < eX",
"eX[.< < < < < < < < < < < < < < < < < 0.I.I.k < < < < < < < < < < < < < ",
"eX< < < < < < < < < < < < < < < < < < < < < < < < < < < < < < < < < < < ",
"eX< < < < < < < < < < < < < < < < < < < < < < < < < < < < < < < < < < < ",
"eX< < < < < < < < < < < < < < < < < < < < < < < < < < < < < < < < < < < ",
"eX< < < < < < < < < < < < < < < < < < < < < < < < < < < < < < < < < < < ",
"eX< < < < < < < < < < < < < < < < < < < < < < < < < < < < < < < < < < < ",
"^ < < < < < < < < < < < < < < < < < < < < < < < < < < < < < < < < < < < ",
"I < < < < < < < < < < < < < < < < < < < < < < < < < < < < < < < < < < < ",
"g < < < < < < < < < < < < < < < < < < < < < < < < < < < < < < < < < < < ",
"e < < < < < < < < < < < < < < < < < < < < < < < < < < < < < < < < < < < ",
"< < < < < < < < < < < < < < < < < < < < < < < < < < < < < < < < < < < < ",
"< < < < < < < eX#XX.X . . . . . . . . . . . . . . . . eXeXeXeX< < < < < ",
"eX< < l q.eXeXeX@XU 1 < < < < < < < < < < < < < < < < < eXeXq.q.q.q.eXeX",
"q.q.q.q.q.q.eX].R r 1 < < < < < < < < < < < < < < < < < eXeXq.q.q.q.q.eX",
"q.q.q.q.q.q.eXh u r 1 < < < < < < < < < < < < < < < < < < eXq.q.q.q.q.eX",
"q.q.q.q.q.q.@.Q h y r < < < < < < < < < < < < < < < < < < eXq.q.q.q.q.eX",
"q.q.q.q.q.$.( H h y r r < < < < < < < < < < < < < < < < < V q.q.q.q.q.eX",
"q.q.q.q.q.#.T H h h t r < < < < < < < < < < < < < < < < < V q.q.q.q.q.eX",
"eXq.q.q.%.W T T G h t r < < < < < < < < < < < < < < < < < < A q.q.q.eXeX",
"eXeXeXeXeXT T T G h t r < < < < < < < < < < < < < < < < < < eXeXeXeXeXeX",
"eXeXeXeXeXT T H h h t r e < < < < < < < < < < < < < < < < < eXeXeXeXeXeX",
"eXeXeXeXeXJ h h h y r r e < < < < < < < < < < < < < < < < < eXeXeXeXeXeX",
"eXeXeXeXeXh h h u r r r < < < < < < < < < < < < < < < < < < eXeXeXeXeXeX",
"eXeXeXeXeXh h p r r 1 < < < < < < < < < < < < < < < < < < < eXeXeXeXeXeX",
"eXeXeXeXf r r r 4 < < < < < < < < < < < < < < < < < < < < < eXeXeXeXeXeX",
"eXeXeXeXr r r 6 < < < < < < < < < < < < < < < < < < < < < < eXeXeXeXeXeX",
"eXeXeXeXr 9 < < < < < < < < < < < < < < < < < < < < < < < < eXeXeXeXeXeX",
"eXeXeXeX0 < < < < < < < < < < < < < < < < < < < < < < < < < eXeXeXeXeXeX",
"eXeXeXeX< < < < < < < < < < < < < < < < < < < < < < < < < < eXeXeXeXeXeX",
"eXeXeXeX< < < < < < < < < < < < < < < < < < < < < < < < < < eXeXeXeXeXeX",
"eXeXeXeX< < < < < < < < < < < < < < < < < < < < < < < < < < eXeXeXeXeXeX",
"eXeXeXeX< < < < < < < < < < < < < < < < < < < < < < < < < < eXeXeXeXeXeX",
"eXeXeXeX< < < < < < < < < < < < < < < < < < < < < < < < < < eXeXeXeXeXeX",
"eXeXeXeX< < < < < < < < < < < < < < < < < < < < < < < < < < eXeXeXeXeXeX",
"eXeXeXeX< < < < < < < < < < < < < < < < < < < < < < < < < < eXeXeXeXeXeX",
"eXeXeXeX< < < < < < < < < < < < < < < < < < < < < < < < < < eXeXeXeXeXeX",
"eXeXeXeX< < < < < < < < < < < < < < < < < < < < < < < < < < eXeXeXeXeXeX",
"eXeXeXeX< < < < < < < < < < < < < < < < < < < < < < < < < < eXeXeXeXeXeX",
"eXeXeXeX< < < < < < < < < < < < < < < < < < < < < < < < < < eXeXeXeXeXeX",
"eXeXeXeX< < < < < < < < < < < < < < < < < < < < < < < < < eXeXeXeXeXeXeX",
"eXeXeXeX< < < < < < < < < < < < < < < < < < < < < < < < < eXeXeXeXeXeXeX",
"eXeXeXeX< < < < < < < < < < < < < < < < < < < < < < < < < eXeXeXeXeXeXeX",
"eXeXeXeX= + * ,   < < < < < < < < < < < < < < < < < < < < eXeXeXeXeXeXeX",
"eXeXeXeXeX* * 3.6.4.1.B < < < < < < < < < C >.N , # , , eXeXeXeXeXeXeXeX",
"eXeXeXeXeX* , 3.5.2.>.m , # , ; & * * % ,.2.>.m b : + $ , eXeXeXeXeXeXeX",
"eXeXeXeXeXeX, v n n M m , # ; $ = * * - <.2.>.m z # ; + eXeXeXeXeXeXeXeX",
"eXeXeXeXeXeXeX+ ; $ > , , # , ; + * , % x c O o + , , eXeXeXeXeXeXeXeXeX",
"eXeXeXeXeXeXeXeXeX, @ , + : $ ; & * * , $ ; @ + , , eXeXeXeXeXeXeXeXeXeX",
"eXeXeXeXeXeXeXeXeXeXeX, + , ; $ = * , % + ; @ eXeXeXeXeXeXeXeXeXeXeXeXeX",
"eXeXeXeXeXeXeXeXeXeXeXeXeXeX; $ = * * eXeXeXeXeXeXeXeXeXeXeXeXeXeXeXeXeX"
};
