/* XPM */
static char *result[] = {
/* columns rows colors chars-per-pixel */
"36 90 181 2 ",
"   c #170D07",
".  c #000814",
"X  c #000C1B",
"o  c #04101D",
"O  c #0E1417",
"+  c #1E1315",
"@  c #201404",
"#  c #241808",
"$  c #2E1609",
"%  c #361409",
"&  c #3B2211",
"*  c #031423",
"=  c #091827",
"-  c #051929",
";  c #091D2C",
":  c #1E1F27",
">  c #0E202F",
",  c #15222C",
"<  c #0E2232",
"1  c #102636",
"2  c #132A3A",
"3  c #192C3A",
"4  c #202C32",
"5  c #2B3537",
"6  c #283439",
"7  c #3C3633",
"8  c #363D3F",
"9  c #4E2919",
"0  c #5B2A1C",
"q  c #52291A",
"w  c #54301E",
"e  c #4D332C",
"r  c #583928",
"t  c #513730",
"y  c #663A27",
"u  c #5C473F",
"i  c #75452F",
"p  c #6B4E3E",
"a  c #63483E",
"s  c #7F4E36",
"d  c #1A3242",
"f  c #1F3748",
"g  c #233A4B",
"h  c #2A3E4B",
"j  c #2B414E",
"k  c #2E4450",
"l  c #304551",
"z  c #354955",
"x  c #384A56",
"c  c #3C4D59",
"v  c #3E505C",
"b  c #444143",
"n  c #43474B",
"m  c #5D4941",
"M  c #564E4F",
"N  c #41515D",
"B  c #5A5252",
"V  c #6B4F43",
"C  c #765E54",
"Z  c #75584A",
"A  c #6D6059",
"S  c #786156",
"D  c #7A6459",
"F  c #455560",
"G  c #485661",
"H  c #4C5B64",
"J  c #4D5E6C",
"K  c #525C65",
"L  c #525F68",
"P  c #4F616C",
"I  c #56626A",
"U  c #59656D",
"Y  c #5D6A72",
"T  c #576875",
"R  c #797266",
"E  c #606D75",
"W  c #6F6F72",
"Q  c #64737C",
"!  c #767C7E",
"~  c #646769",
"^  c #89583E",
"/  c #865D49",
"(  c #89604C",
")  c #926145",
"_  c #8D6450",
"`  c #856B5B",
"'  c #856A59",
"]  c #956C59",
"[  c #926955",
"{  c #89785D",
"}  c #887848",
"|  c #A27455",
" . c #967969",
".. c #A17A67",
"X. c #A57F6C",
"o. c #998552",
"O. c #9E8A55",
"+. c #968251",
"@. c #A38E58",
"#. c #AA945C",
"$. c #AF985E",
"%. c #B0985F",
"&. c #9B886B",
"*. c #8A8B7F",
"=. c #958774",
"-. c #97947F",
";. c #AA8167",
":. c #B48967",
">. c #AA9665",
",. c #A1926C",
"<. c #A9996E",
"1. c #B79D62",
"2. c #BC916E",
"3. c #A78270",
"4. c #AA8573",
"5. c #A58F7A",
"6. c #AF8A78",
"7. c #B28E7C",
"8. c #A99B76",
"9. c #A9937F",
"0. c #A69478",
"q. c #BD9370",
"w. c #B9977B",
"e. c #BCA265",
"r. c #AFA27F",
"t. c #C39A75",
"y. c #C3A669",
"u. c #CBAE6D",
"i. c #C5A86A",
"p. c #667680",
"a. c #687781",
"s. c #697983",
"d. c #6D7D8A",
"f. c #667884",
"g. c #71828E",
"h. c #758692",
"j. c #778995",
"k. c #788A96",
"l. c #7A8E9A",
"z. c #7C8492",
"x. c #7D929E",
"c. c #7F94A1",
"v. c #868D89",
"b. c #888682",
"n. c #8D9189",
"m. c #989480",
"M. c #989A89",
"N. c #8A9498",
"B. c #9A9E94",
"V. c #949D9B",
"C. c #9E9E9A",
"Z. c #A19F8D",
"A. c #A99984",
"S. c #B69482",
"D. c #B99685",
"F. c #BE9E8B",
"G. c #B2A494",
"H. c #8297A5",
"J. c #869AAA",
"K. c #8498A7",
"L. c #B5AEAF",
"P. c #BBAFA9",
"I. c #B7B2B2",
"U. c #B6B7AA",
"Y. c #C0A18E",
"T. c #C3A692",
"R. c #C5AA96",
"E. c #C7AE9A",
"W. c #C9B29D",
"Q. c #CAB495",
"!. c #CBB6A2",
"~. c #CEBCA5",
"^. c #C6B9AA",
"/. c #D2C4AC",
"(. c #C4C5BD",
"). c #D5CBB3",
"_. c #D8CBB7",
"`. c #DBD2BB",
"'. c #DED6C1",
"]. c #E2DAC6",
"[. c None",
/* pixels */
"[.[.[.[.[.[.[.[.[.[.[.[.[.[.[.# # # # # # [.[.[.[.[.[.[.[.[.[.[.[.[.[.[.",
"[.[.[.[.[.[.[.[.[.[.[.[.[.[.[.# # # # # # [.[.[.[.[.[.[.[.[.[.[.[.[.[.[.",
"[.[.[.[.[.[.[.[.[.[.[.[.[.[.# # # # # # # # [.[.[.[.[.[.[.[.[.[.[.[.[.[.",
"[.[.[.[.[.[.[.[.[.[.[.[.[.[.# # # # # # # # [.[.[.[.[.[.[.[.[.[.[.[.[.[.",
"[.[.[.[.[.[.[.[.[.[.[.[.[.[.# # # # # # # # [.[.[.[.[.[.[.[.[.[.[.[.[.[.",
"[.[.[.[.[.[.[.[.[.[.[.[.[.[.# # # # # # # # [.[.[.[.[.[.[.[.[.[.[.[.[.[.",
"[.[.[.[.[.[.[.[.[.[.[.[.[.[.# # # # # # # # [.[.[.[.[.[.[.[.[.[.[.[.[.[.",
"[.[.[.[.[.[.[.[.[.[.[.[.[.[.# # # # # # # # [.[.[.[.[.[.[.[.[.[.[.[.[.[.",
"[.[.[.[.[.[.[.[.[.[.[.[.[.[.[.p ..S.7.] t [.[.[.[.[.[.[.[.[.[.[.[.[.[.[.",
"[.[.[.[.[.[.[.[.[.[.[.[.[.] 4.D.F.F.Y.Y.D.[.[.[.[.[.[.[.[.[.[.[.[.[.[.[.",
"[.[.[.[.[.[.[.[.[.[.[.[._  .T.R.E.R.E.!.E.F.F.[.[.[.[.[.[.[.[.[.[.[.[.[.",
"[.[.[.[.[.[.[.[.[.[.[.[._ 3.R.E.E.W.!.!.!.W.R.[.[.[.[.[.[.[.[.[.[.[.[.[.",
"[.[.[.[.[.[.[.[.[.[.[./ _ 4.Y.E.E.W.!.!.~.).E.[.[.[.[.[.[.[.[.[.[.[.[.[.",
"[.[.[.[.[.[.[.[.[.[.[./ _ 3.D.R.E.E.W.!./././.[.[.[.[.[.[.[.[.[.[.[.[.[.",
"[.[.[.[.[.[.[.[.[.[.[./ ] 4.F.R.E.E.!.!.~./.~.[.[.[.[.[.[.[.[.[.[.[.[.[.",
"[.[.[.[.[.[.[.[.[.[.[._ ..w.Y.E.E.E.E.!.!.~.~.[.[.[.[.[.[.[.[.[.[.[.[.[.",
"[.[.[.[.[.[.[.[.[.[.[._ ..D.T.E.E.E.!.!.!.!.~.[.[.[.[.[.[.[.[.[.[.[.[.[.",
"[.[.[.[.[.[.[.[.[.[.[.(  .W K P.!.!.L.L.L.~.~.[.[.[.[.[.[.[.[.[.[.[.[.[.",
"[.[.[.[.[.[.[.[.[.[.[.(  .K g I././.N.J C._.~.[.[.[.[.[.[.[.[.[.[.[.[.[.",
"[.[.[.[.[.[.[.[.[.[.[.( ] b.z.^._.`.v.f B._.~.[.[.[.[.[.[.[.[.[.[.[.[.[.",
"[.[.[.[.[.[.[.[.[.[.[.[.[ 6.T.W./.'.].'.`./.R.[.[.[.[.[.[.[.[.[.[.[.[.[.",
"[.[.[.[.[.[.[.[.[.[.[.[.[.3.F.E.~.'.].'.`./.E.[.[.[.[.[.[.[.[.[.[.[.[.[.",
"[.[.[.[.[.[.[.[.[.[.[.[.[.3.D.F.E._.'.`.).E.[.[.[.[.[.[.[.[.[.[.[.[.[.[.",
"[.[.[.[.[.[.[.[.[.[.[.[.[.[.w.F.E.)._.).~.D.[.[.[.[.[.[.[.[.[.[.[.[.[.[.",
"[.[.[.[.[.[.[.[.[.[.[.[.* 3 n w.F.~.~.Q.R f [.[.[.[.[.[.[.[.[.[.[.[.[.[.",
"[.[.[.[.[.[.[.[.[.[.= d 3 f { R S.G.T.A.{ z I k [.[.[.[.[.[.[.[.[.[.[.[.",
"[.[.[.[.[.[.[.* 1 2 g h z z y.~ Y.R.G.! ,.Y E T p.[.[.[.[.[.[.[.[.[.[.[.",
"[.[.[.[.[.X * < 3 l N N I &.Y b.~./.U.z.8.x.l.h.d.d.E k [.[.[.[.[.[.[.[.",
"[.[.[.[.[.; 1 g x N H U U ,.Q v.).`.(.J.J.J.x.k.h.h.d.Y H k [.[.[.[.[.[.",
"[.[.[.[.* g z c H U Y Q s.=.*.d.g.l.J.J.J.y.J.H.c.j.j.h.s.T c h [.[.[.[.",
"[.[.[.[.: c G U U E Q s.d.d.i.d.g.x.J.J.V.r.J.J.c.c.l.c.x.g.Q N [.[.[.[.",
"[.[.[.. k H U Q Q d.d.d.d.d.y.g.k.H.J.J.r.J.J.J.J.K.K.K.H.H.l.Q c [.[.[.",
"[.[.[.. g P I Q p.g.d.d.d.g.e.g.x.K.J.J.A.J.J.J.J.J.J.J.J.J.H.g.H [.[.[.",
"[.[.o = g N U Q Q Q s.d.d.g.b.-.x.c.J.V.Z.J.J.J.J.J.J.J.J.J.H.H.U j [.[.",
"[.[.- > j N U Q Q Q d.d.d.d.d.8.l.x.J.B.B.J.J.J.J.J.J.J.J.J.H.H.x.Y [.[.",
"[.[.= 3 j N U Y s.Q Q Q d.d.g.v.M.N.Z.Z.J.J.J.J.J.J.J.J.J.H.H.l.j.Y [.[.",
"[.[.2 f c I U Y Q Q Q s.d.d.d.g.8.r.M.J.J.K.K.H.H.c.K.c.H.x.x.j.h.d.H [.",
"[.= 3 g H U Y Y Q Q Q Q d.d.d.*.<.1.B.V.c.x.x.x.N.c.c.c.x.x.l.j.h.g.J [.",
"[.1 g v I U Y E Q Q Q g.d.d.g.e.e.#.e.>.N.x.x.x.x.x.c.x.x.x.x.l.h.h.P [.",
"[.g z v I I Y Y Q Q Q s.d.d.<.$.u.o.#.#.M.x.x.x.x.x.x.x.x.x.x.x.x.k.f.v ",
"g l v N I U U Y E Q Q g.d.d.y.@.e.e.} @.<.x.x.x.x.x.x.x.x.x.x.x.x.x.h.H ",
"g l c N I I U E s.Q Q s.d.d.e.O.o.+.e.O.e.x.x.x.x.x.x.x.x.x.x.x.x.x.x.x.",
"g k x N H I U E Q Q Q s.d.d.d.y.#.O.$.u.n.h.j.x.x.x.x.x.x.x.x.x.x.x.x.x.",
"g g l N N I U E Q Q Q p.d.d.d.8.>.#.>.8.v.h.j.x.x.x.x.x.l.x.x.x.x.x.x.x.",
"d g j c N L I U Y Q Q f.d.d.g.h.-.r.-.h.h.h.k.x.x.x.x.l.j.l.l.l.l.x.x.x.",
"3 g j l c N N I I E Q g.d.d.s.h.h.h.h.h.h.h.k.x.x.x.j.g.d.h.h.h.h.k.k.k.",
"3 f g l z N N L I U E g.d.d.s.h.h.h.h.h.h.h.k.x.x.k.g.d.d.g.h.h.h.h.h.h.",
"2 d g l l z v N H I Y p.d.d.g.h.h.h.h.h.h.h.k.x.l.g.g.s.s.d.g.h.h.h.h.h.",
"< 2 f f g l l z F H U E s.d.d.g.h.h.h.h.h.h.h.d.d.Q Q E Q s.d.d.d.d.d.g.",
"< 2 d f f g k l z G H Y Q p.d.h.h.h.h.h.h.j.d.d.s.E U E E Q Q d.d.d.d.p.",
"< < 2 2 f f g j k z v U U Q s.h.h.h.h.h.h.g.d.s.Q U U U U E Q Q f.d.g.P ",
"; < 1 2 3 d f f g k c H U E Q d.h.h.h.h.g.d.Q Q Y U K I I Y U Q Q f.d.Y ",
"- - < < 1 2 3 f g h z N I U Q d.g.h.g.d.f.Q E U U N F G L I U Y Y Q Q [.",
"7 m m m m b [.< : e t a V Z ' ` =.5.9.5.5.&. .` ' A I c N [.U U Y Q Q [.",
"[./ / / / [.[.[.+ 0 y i s ^ ) | :.2.t.t.q.q.q.2.| =.s.L [.[.[.C S S D [.",
"[./ / / / [.[.= g l c I I Q Q d.g.A.t.t.t.t.t.q.t.D.l.Q [.[.[./ / / / [.",
"[.[./ / [.[.[.- 3 z v U U E Q g.g.x.x.x.x.x.x.x.x.H.x.h.Q [.[./ / / / [.",
"[.[.[.[.[.[.o 2 f k v I U Q Q d.g.l.x.x.x.x.x.x.x.H.x.j.g.[.[.[./ / [.[.",
"[.[.[.[.[.[.< 3 g c F I U Q Q g.j.j.x.x.x.x.x.N.x.x.l.h.g.Y [.[.[.[.[.[.",
"[.[.[.[.[.* * 2 f k N I U Q Q g.g.j.x.x.x.x.x.x.x.l.j.g.d.Q [.[.[.[.[.[.",
"[.[.[.[.[.X * 1 3 j c I U Q Q d.j.g.x.x.x.x.x.x.x.x.g.g.d.Q [.[.[.[.[.[.",
"[.[.[.[.[.X * < d j x U Y Q Q d.g.h.l.x.x.x.x.x.x.g.g.d.p.Q Y [.[.[.[.[.",
"[.[.[.[.[.X * < d j c U Y Q d.d.g.h.j.x.x.x.x.x.k.h.g.g.s.Q Q [.[.[.[.[.",
"[.[.[.[.[.X * < 2 f j N U Q Q d.d.g.j.l.x.x.x.k.h.g.d.d.s.p.Q [.[.[.[.[.",
"[.[.[.[.[.X * 1 3 j k F U Q Q g.d.g.j.x.x.x.x.k.h.g.g.d.p.Q Q [.[.[.[.[.",
"[.[.[.[.X - ; 2 d j z H I E Q d.d.g.h.j.x.x.x.l.j.j.g.d.d.p.Q [.[.[.[.[.",
"[.[.[.[.o ; > d g x c I U E Q d.d.h.h.j.x.x.x.x.l.h.h.g.d.d.d.[.[.[.[.[.",
"[.[.[.[.o ; < d g z c I U Q Q g.d.g.h.j.x.x.x.x.k.h.h.g.d.d.d.[.[.[.[.[.",
"[.[.[.[.* ; 1 d g l v I U Q Q s.d.g.h.j.x.x.x.k.h.h.h.h.g.d.s.[.[.[.[.[.",
"[.[.[.[.- ; 1 d g l c I U Q Q s.d.g.h.h.x.x.x.j.h.h.h.h.h.d.d.[.[.[.[.[.",
"[.[.[.[.- ; 1 d g z v I U E Q s.d.d.h.h.h.x.j.h.h.h.h.h.d.d.d.[.[.[.[.[.",
"[.[.[.[.- - < f g x N I Y E Q Q d.d.h.h.h.x.h.h.h.h.h.g.d.d.d.[.[.[.[.[.",
"[.[.[.[.o - ; d g z c U U Q Q s.d.d.g.h.h.l.h.h.h.h.h.d.d.d.s.[.[.[.[.[.",
"[.[.[.[.[.* - 1 d k c U U E Q s.d.d.g.j.h.h.h.h.h.g.g.g.s.s.Q [.[.[.[.[.",
"[.[.[.[.[.* * ; 1 g k H U Q Q s.d.d.d.g.h.h.h.h.g.d.d.s.Q Q E [.[.[.[.[.",
"[.[.[.[.[.X * - > 2 d z G U Q Q Q Q d.d.d.h.g.d.d.s.Q Q Q Y Y [.[.[.[.[.",
"[.[.[.[.[.X * ; < 1 d z v L Y Y Q Q Q s.d.d.d.g.s.Q Q E Y I I [.[.[.[.[.",
"[.[.[.[.[.X X * - < d k F L I U U Y Q Q s.d.s.Q Q Q E Y U H N [.[.[.[.[.",
"[.[.[.[.[.. X * - ; 1 f k G J I U U E Q Q d.Q E Q Y U U L v c [.[.[.[.[.",
"[.[.[.[.[.. X X - ; < d g c N H L I U Y Q Q Q E Y Y U L N x [.[.[.[.[.[.",
"[.[.[.[.[.. . X * - > 1 f l x N N N U U Y E Y Y U L G c z 6 [.[.[.[.[.[.",
"[.[.[.[.[.[.  O o * - < 3 j j x N N H I U Y Y U U F c h g 3 [.[.[.[.[.[.",
"[.[.[.[.[.[.[.@ @ O * > 1 f g j l N N N L ~ L G N l h g d < [.[.[.[.[.[.",
"[.[.[.[.[.[.[.@ @ 9 i t < d g g l l N N K U L G N k 6 @ @ [.[.[.[.[.[.[.",
"[.[.[.[.[.[.[.[.@   $ r s 7 , 4 5 5 5 8 8 B M b p y @ @ [.[.[.[.[.[.[.[.",
"[.[.[.[.[.[.[.[.@ @ @ $ w & @ @ @ @ @ @ @ 0 0 q 9 & @ [.[.[.[.[.[.[.[.[.",
"[.[.[.[.[.[.[.[.[.@ @ @ @ @ @ @ @ @ @ @ @ % % @ @ @ [.[.[.[.[.[.[.[.[.[.",
"[.[.[.[.[.[.[.[.[.[.[.@ @ @ @ @ @ @ @ @ @ @ @ @ [.[.[.[.[.[.[.[.[.[.[.[.",
"[.[.[.[.[.[.[.[.[.[.[.[.@ @ @ @ @ @ @ @ @ @ @ [.[.[.[.[.[.[.[.[.[.[.[.[.",
"[.[.[.[.[.[.[.[.[.[.[.[.[.[.[.@ @ @ @ @ [.[.[.[.[.[.[.[.[.[.[.[.[.[.[.[."
};
