/* XPM */
static char *result[] = {
/* columns rows colors chars-per-pixel */
"36 90 179 2 ",
"   c #140F0A",
".  c #1D150A",
"X  c #181109",
"o  c #000814",
"O  c #000C1B",
"+  c #0C0B11",
"@  c #120A11",
"#  c #03101E",
"$  c #0D1418",
"%  c #14131C",
"&  c #161815",
"*  c #350E08",
"=  c #201404",
"-  c #241808",
";  c #2C1C0C",
":  c #211608",
">  c #3B1109",
",  c #221E14",
"<  c #251213",
"1  c #371610",
"2  c #2F200E",
"3  c #30210F",
"4  c #272319",
"5  c #382717",
"6  c #031423",
"7  c #091826",
"8  c #051929",
"9  c #0A1D2D",
"0  c #041826",
"q  c #101E27",
"w  c #0F212E",
"e  c #172126",
"r  c #0E2333",
"t  c #112636",
"y  c #142A3A",
"u  c #1A2F3E",
"i  c #1E2B32",
"p  c #282A25",
"a  c #232B34",
"s  c #293439",
"d  c #343236",
"f  c #673928",
"g  c #644937",
"h  c #694E3C",
"j  c #674B39",
"k  c #71563C",
"l  c #1B3343",
"z  c #1F3748",
"x  c #203646",
"c  c #233847",
"v  c #233B4B",
"b  c #293E4E",
"n  c #2B414F",
"m  c #2E4351",
"M  c #314552",
"N  c #364955",
"B  c #394B56",
"V  c #3D4E5A",
"C  c #3F505C",
"Z  c #474648",
"A  c #524545",
"S  c #404E5B",
"D  c #42525D",
"F  c #48565F",
"G  c #644C42",
"H  c #7B5845",
"J  c #6C665B",
"K  c #465560",
"L  c #485762",
"P  c #4B5A64",
"I  c #4F5E68",
"U  c #515E67",
"Y  c #525F68",
"T  c #55626A",
"R  c #59666E",
"E  c #5A6063",
"W  c #5A6772",
"Q  c #5E6A73",
"!  c #576570",
"~  c #646B6C",
"^  c #786E6C",
"/  c #7E726D",
"(  c #7B7B6D",
")  c #606E76",
"_  c #616F78",
"`  c #65747D",
"'  c #687277",
"]  c #7A7473",
"[  c #865D49",
"{  c #885F4B",
"}  c #89614C",
"|  c #856352",
" . c #8F6852",
".. c #916955",
"X. c #956E5B",
"o. c #95745B",
"O. c #806D63",
"+. c #85726B",
"@. c #807C64",
"#. c #9E7662",
"$. c #987961",
"%. c #847D75",
"&. c #A27D6A",
"*. c #7E837C",
"=. c #A18D5E",
"-. c #89836C",
";. c #968863",
":. c #9B8B62",
">. c #928769",
",. c #818174",
"<. c #948F77",
"1. c #A4806E",
"2. c #AD8364",
"3. c #B58968",
"4. c #AA966A",
"5. c #A59369",
"6. c #AC8775",
"7. c #A78372",
"8. c #B18D7B",
"9. c #AC9A71",
"0. c #A19676",
"q. c #B3917F",
"w. c #B99977",
"e. c #B4A27C",
"r. c #C3A669",
"t. c #677781",
"y. c #6A7A84",
"u. c #6E7E8A",
"i. c #687782",
"p. c #737D85",
"a. c #747F88",
"s. c #6F808C",
"d. c #71818D",
"f. c #78838B",
"g. c #748592",
"h. c #778995",
"j. c #788A96",
"k. c #7A8D9A",
"l. c #7D919D",
"z. c #7F93A1",
"x. c #828081",
"c. c #8E9095",
"v. c #919296",
"b. c #AE9588",
"n. c #B69482",
"m. c #B99685",
"M. c #BB9986",
"N. c #BE9E8B",
"B. c #BFA08D",
"V. c #BFAC8D",
"C. c #B6AD9E",
"Z. c #B9A291",
"A. c #8195A4",
"S. c #8498A7",
"D. c #869AAA",
"F. c #A8A5A5",
"G. c #C0A28C",
"H. c #C6AC8F",
"J. c #C2A592",
"K. c #C5AB95",
"L. c #C7AF9A",
"P. c #C8AF9B",
"I. c #C9B29E",
"U. c #CBB6A2",
"Y. c #CEBBA5",
"T. c #CDBEA9",
"R. c #D0BFA7",
"E. c #C5BFB4",
"W. c #CEC3AE",
"Q. c #D2C4AC",
"!. c #D3C8AF",
"~. c #CCC6BB",
"^. c #D5CBB3",
"/. c #D7CFB8",
"(. c #D8CEB7",
"). c #DAD2BC",
"_. c #DED5C1",
"`. c #E1D9C5",
"'. c None",
/* pixels */
"'.'.'.'.'.'.'.'.'.'.'.'.N.J.J.J.G.N.N.n. .'.'.- - - - - - - - '.'.'.'.'.",
"'.'.'.'.'.'.'.'.'.'.'.n.B.K.L.L.P.J.J.G.6.X.'.- - - - - - - - - ; ; ; '.",
"'.'.'.'.'.'.'.'.'.'.'.N.J.U.U.U.I.P.I.J.n.&.j - - - - - - - - ; ; ; ; ; ",
"'.'.'.'.'.'.'.'.'.'.n.J.T.(.^.Y.U.Y.I.J.M.&.h - - - - - - - - - ; ; ; ; ",
"'.'.'.'.'.'.'.'.Z.b.Z.U.(.`.).!.T.Y.Y.G.m.1.h - - - - - - - - ; ; ; ; ; ",
"'.'.'.'.'.'.'.R.C.c.F.T.(.`.`._.^.Q.Y.J.m.7.H 5 - - - - - - - ; ; ; ; ; ",
"'.'.'.'.'.'.'.Q.C.c.F.^.`.`._.).^.!.U.K.M.6.X.g - - - - - - ; ; ; ; ; ; ",
"'.'.'.'.'.'.!.!.W.E.~._.`.`.).(.^.Q.I.B.n.&...'.'.'.'.'.- ; ; ; ; ; ; ; ",
"'.'.'.'.'.'.I.Y.^.(._._._.).).^.Q.Y.I.B.6...} '.'.'.'.'.'.; ; ; ; ; ; '.",
"'.'.'.'.'.'.'.T.!.(./.)._./.^.Q.Q.U.K.8.X.} '.'.'.'.'.'.'.'.'.'.'.'.'.'.",
"'.'.'.'.'.'.'.!.!.^.(.(./.^.!.Q.U.K.q.X.} '.'.'.'.'.'.'.'.'.'.'.'.'.'.'.",
"'.'.'.'.'.'.'.'.Y.T.!.^.!.Q.Y.I.J.n.#.'.'.'.'.'.'.'.'.'.'.'.'.'.'.'.'.'.",
"'.'.'.'.'.'.'.'.'.I.Y.R.Q.Y.I.G.q.&.'.'.'.'.'.'.'.'.'.'.'.'.'.'.'.'.'.'.",
"'.'.'.'.'.'.'.'.'.'.J.K.I.I.N.q.&...'.'.'.'.'.'.'.'.'.'.'.'.'.'.'.'.'.'.",
"'.'.'.'.'.'.'.'.'.'.'.'.'.#.8.m.8.&.'.'.'.'.'.'.'.'.'.'.'.'.'.'.'.'.'.'.",
"'.'.'.'.'.'.'.'.'.'.'.'.'.&.&.n.8.{ o o o o '.'.'.'.'.'.'.'.'.'.'.'.'.'.",
"'.'.'.'.'.'.'.'.'.'.'.'.'.M.m.J.N.H o o o o '.'.'.'.'.'.'.'.'.'.'.'.'.'.",
"'.'.'.'.'.'.'.'.'.'.'.'.G.G.V.K.K.9 o o o o o '.'.'.'.'.'.'.'.'.'.'.'.'.",
"'.'.'.'.'.'.'.'.'.'.'.=.e.K.H.H.9.b O O o o o '.'.'.'.'.'.'.'.'.'.'.'.'.",
"'.'.'.'.'.'.'.'.'.'.'.J %.H.e.9.' S O O O O o '.'.'.'.'.'.'.'.'.'.'.'.'.",
"'.'.'.'.'.'.'.'.'.'.'.( <.0.*.i.) P 8 6 O O O o '.'.'.'.'.'.'.'.'.'.'.'.",
"'.'.'.'.'.'.'.'.'.'.'.@.*.d.d.u._ L y 6 6 6 o o '.'.'.'.'.'.'.'.'.'.'.'.",
"'.'.'.'.'.'.'.'.r.r.4.,.y.d.h.u._ P m 8 8 6 O o '.'.'.'.'.'.'.'.'.'.'.'.",
"'.'.'.'.'.'.'.'.r.4.( ' y.d.j.u._ U N y 8 6 o o '.'.'.'.'.'.'.'.'.'.'.'.",
"'.'.'.'.'.'.'.r.r.-.Q ' y.d.k.u.i.T N l 9 6 O o '.'.'.'.'.'.'.'.'.'.'.'.",
"'.'.'.'.'.'.'.r.5.~ Q t.y.h.k.h._ L M b t 8 O O o '.'.'.'.'.'.'.'.'.'.'.",
"'.'.'.'.'.'.'.r.>.R Q t.g.j.j.h.t.Y V x y 9 6 O o '.'.'.'.'.'.'.'.'.'.'.",
"'.'.'.'.'.'.'.:.D I Q t.u.j.j.u._ T M z t 8 6 O o '.'.'.'.'.'.'.'.'.'.'.",
"'.'.'.'.'.'.r.;.F Y Q t.d.k.h.u.` T C z t 9 6 o o '.'.'.'.'.'.'.'.'.'.'.",
"'.'.'.'.'.r.r.;.L Y Q t.s.j.h.g.) T M l 9 6 O O o '.'.'.'.'.'.'.'.'.'.'.",
"'.'.'.'.'.'.:.b V T t.d.k.z.j.u.` Q S l r 9 6 o o '.'.'.'.'.'.'.'.'.'.'.",
"'.'.'.'.'.'.;.n V R i.g.A.A.j.u.i.T V l 9 6 O o o o '.'.'.'.'.'.'.'.'.'.",
"'.'.'.'.'.'.'.m D T ` u.z.z.j.u.t.W C l 9 0 O o o o '.'.'.'.'.'.'.'.'.'.",
"'.'.'.'.'.'.'.M K ! t.g.z.z.j.u.t.! C l w 8 O o o o '.'.'.'.'.'.'.'.'.'.",
"'.'.'.'.'.'.'.m V W u.z.S.z.j.u.` T V l 9 6 O o o o '.'.'.'.'.'.'.'.'.'.",
"'.'.'.'.'.'.'.N K Q g.z.z.z.j.u.t.T m l 9 6 o o o o '.'.'.'.'.'.'.'.'.'.",
"'.'.'.'.'.'.'.N K W h.z.D.z.j.u.t.T m l 9 O O o o o '.'.'.'.'.'.'.'.'.'.",
"'.'.'.'.'.'.b V I t.k.D.D.z.j.u.` P v l 7 O o o o o '.'.'.'.'.'.'.'.'.'.",
"'.'.'.'.'.'.z M I t.j.z.S.k.j.u.Q I b t 0 O o o o o '.'.'.'.'.'.'.'.'.'.",
"'.'.'.'.'.'.x m I t.k.D.S.k.j.u.Q L b t 6 O o o o o '.'.'.'.'.'.'.'.'.'.",
"'.'.'.'.'.'.b N T y.z.D.z.z.j.u.Q D x t 6 O o o o o '.'.'.'.'.'.'.'.'.'.",
"'.'.'.'.'.'.l M I u.z.D.A.k.d.` R N n t 6 O o o o o '.'.'.'.'.'.'.'.'.'.",
"'.'.'.'.'.'.b B ! s.A.D.A.k.s.` T C y 6 O O o o o '.'.'.'.'.'.'.'.'.'.'.",
"'.'.'.'.'.'.l M W g.z.z.z.j.s.` L b r O O O o o o '.'.'.'.'.'.'.'.'.'.'.",
"'.'.'.'.'.'.m P ` s.k.l.z.j.u.i.T v 9 O O o o o o '.'.'.'.'.'.'.'.'.'.'.",
"'.'.'.'.'.B M K ` s.l.l.l.j.d._ K v 9 O o o o o o '.'.'.'.'.'.'.'.'.'.'.",
"'.'.'.'.'.K B P t.s.k.l.l.j.u._ K v 0 o o O o o '.'.'.'.'.'.'.'.'.'.'.'.",
"'.'.'.'.'.Q W t.u.j.k.j.h.d.y.W M l 8 o o O O O '.'.'.'.'.'.'.'.'.'.'.'.",
"'.'.'.'.'.) t.y.d.g.j.g.g.g.y.Q M y 7 O O # O # '.'.'.'.'.'.'.'.'.'.'.'.",
"'.'.'.'.'.` y.s.g.g.g.g.g.j.y.R b w o O 6 8 8 O '.'.'.'.'.'.'.'.'.'.'.'.",
"'.'.'.'.Q ` i.d.g.g.g.g.g.g.` P x 7 O O 8 8 6 O # '.'.'.'.'.'.'.'.'.'.'.",
"'.'.'.'.` i.y.d.g.g.g.d.s.y.Q m t o + @ @ % 6 # O '.'.'.'.'.'.'.'.'.'.'.",
"'.'.'.'.i.d.u.g.g.g.d.y.` ) P z 7 < * > 1 7 8 6 O '.'.'.'.'.'.'.'.'.'.'.",
"'.'.'.'.y.u.d.d.u.u.y.` Q R N t O f f A d 9 8 6 O '.'.'.'.'.'.'.'.'.'.'.",
"'.'.'.` y.u.u.u.u.i.` Q T L c 7 S ] J V u 9 9 6 # '.'.'.'.'.'.'.'.'.'.'.",
"'.'.'.t.u.u.u.u.t.` Q Y F B u # _ g.R N y 9 9 6 # '.'.'.'.'.'.'.'.'.'.'.",
"'.'.'.` u.y.t.` W Y K B m l 7 F d.u.K v y t r r 9 '.'.'.'.'.'.'.'.'.'.'.",
"'.'.'.` y.` Q T L V M v l t O W s.u.I x z y t r 9 '.'.'.'.'.'.'.'.'.'.'.",
"'.'.'.) _ W T K N m l l t 6 K y.u.` N x l y y t 9 6 '.'.'.'.'.'.'.'.'.'.",
"'.'.'.) u.g.] A b l y r 9 6 K t.` Q M n x z y t 9 # '.'.'.'.'.'.'.'.'.'.",
"'.'.'.) ` ^ [ [ [ G a 9 7 K ` ` Q N M n x l y y q # '.'.'.'.'.'.'.'.'.'.",
"'.'.T ' u./ [ [ [ [ O.a.u.i.` Q Q D D m m x l y r 6 '.'.'.'.'.'.'.'.'.'.",
"'.'.T t.i.+.[ [ [ [ O.p.u.y.Q Q T D C m m x l y t 7 '.'.'.'.'.'.'.'.'.'.",
"'.'.P Q y.+.[ [ [ [ O.p.i.t.Q R T K D N m m l l t 7 '.'.'.'.'.'.'.'.'.'.",
"'.'.I ) y.] | } | | / p.u.y.) Q R T D V M n v l y 7 '.'.'.'.'.'.'.'.'.'.",
"'.'.T _ i.g.x.+.+.( h.g.u.y.` Q R T D V m n v x y 7 '.'.'.'.'.'.'.'.'.'.",
"'.'.Y _ u.g.A.S.z.l.k.j.d.i.` ) Q T F D N n b z y 7 '.'.'.'.'.'.'.'.'.'.",
"'.'.P W y.d.l.A.l.l.j.j.d.u.y.) R T T D V m v l y 7 '.'.'.'.'.'.'.'.'.'.",
"'.'.I Q u.j.l.l.l.k.g.g.s.y.` ) R R T F B n x l r # '.'.'.'.'.'.'.'.'.'.",
"'.'.T ) u.j.A.l.l.j.g.g.g.s.t.` Q Q T F V n l l r 6 '.'.'.'.'.'.'.'.'.'.",
"'.'.D Q u.l.l.l.k.g.g.s.s.s.t.` ) ) T D B n z y w # '.'.'.'.'.'.'.'.'.'.",
"'.'.n I ` d.k.l.j.g.g.u.u.u.t.` Q R T S V n z l 9 O '.'.'.'.'.'.'.'.'.'.",
"'.'.N W i.k.l.j.g.d.s.s.u.u.t.` Q Q T C C n z u w O '.'.'.'.'.'.'.'.'.'.",
"'.'.n I ` j.l.j.g.g.d.s.s.t.` ` Q Q T I B m v l r 8 '.'.'.'.'.'.'.'.'.'.",
"'.'.b P ` d.j.j.g.g.s.u.u.t.` ` Q Q T I C m n u r 9 '.'.'.'.'.'.'.'.'.'.",
"'.'.b K Q u.g.g.g.g.u.u.s.y.t.` ) R Y C m n l y r 7 '.'.'.'.'.'.'.'.'.'.",
"'.'.l V T ` g.g.g.g.u.u.u.i.` ` ~ T T C M n l y 9 6 '.'.'.'.'.'.'.'.'.'.",
"'.'.u n P ` i.s.g.d.u.u.i.` ` ` Q T T C m n l t 9 6 '.'.'.'.'.'.'.'.'.'.",
"'.'.t v C W t.y.u.d.u.u.i.t.` ` Q T T V M n l r 8 6 '.'.'.'.'.'.'.'.'.'.",
"'.. q c C T ` ` i.u.u.u.i.t.` ` Q T P V m n l r 7 O   '.'.'.'.'.'.'.'.'.",
"'.: , b L R Q ) ` y.s.y.` ` ' ) R T F D m n l t 7 # X '.'.'.'.'.'.'.'.'.",
": . - s S Y T Q ) ` y.s.` ` Q R R R P B m n l r # + . = '.'.'.'.'.'.'.'.",
". = : 4 M L Y T Q Q ` ` ` ` ) Q R T D D M n l w $ . . = '.'.'.'.'.'.'.'.",
"'.= = , s V F Y T R _ ` ` ` ) R R T D S m x l w & = = = '.'.'.'.'.'.'.'.",
"'.'.: : p M S F P T Q Q ' ) Q Q T T D V n v u e . = : '.'.'.'.'.'.'.'.'.",
"'.'.'.: 5 Z m N C F T R Q ) Q Q T F D N m v a . = = . '.'.'.'.'.'.'.'.'.",
"'.'.'.= ; g o.;.o.O.E T R Q R ~ T D V , 4 - . = = = '.'.'.'.'.'.'.'.'.'.",
"'.'.'.'.5 k w.3.3.2.o.o.o...} } [ ; , = = = : . = '.'.'.'.'.'.'.'.'.'.'.",
"'.'.'.'.'.3 3 3 ; 3 ; ; 3 ; ; ; - = = = = : = : '.'.'.'.'.'.'.'.'.'.'.'.",
"'.'.'.'.'.'.= = = = = = = = = = = = = = = '.'.'.'.'.'.'.'.'.'.'.'.'.'.'."
};
