/* XPM */
static char *result[] = {
/* columns rows colors chars-per-pixel */
"48 90 216 2 ",
"   c #030303",
".  c #0A0404",
"X  c #050905",
"o  c #0A0806",
"O  c #05040A",
"+  c #0A060B",
"@  c #060A0A",
"#  c #0B0B0C",
"$  c #130305",
"%  c #130906",
"&  c #12060A",
"*  c #1B0409",
"=  c #120C0C",
"-  c #1A0C0D",
";  c #1A0402",
":  c #0D110E",
">  c #00100C",
",  c #13110D",
"<  c #1A120E",
"1  c #1E180F",
"2  c #030412",
"3  c #0C0715",
"4  c #060B12",
"5  c #0D0C13",
"6  c #0D0B1A",
"7  c #08081B",
"8  c #130D13",
"9  c #1C0D12",
"0  c #120E1B",
"q  c #1A0D19",
"w  c #0E1112",
"e  c #0E121B",
"r  c #121213",
"t  c #1B1413",
"y  c #151917",
"u  c #1E1916",
"i  c #13141B",
"p  c #1C141B",
"a  c #151B1A",
"s  c #1D1B1A",
"d  c #200C06",
"f  c #250A0E",
"g  c #2B190F",
"h  c #30190F",
"j  c #210C13",
"k  c #250D16",
"l  c #221614",
"z  c #241915",
"x  c #2A1A15",
"c  c #231619",
"v  c #2A151C",
"b  c #241B1A",
"n  c #2A1B1A",
"m  c #281714",
"M  c #341713",
"N  c #341B1C",
"B  c #38181B",
"V  c #320E19",
"C  c #1F2510",
"Z  c #24211D",
"A  c #29211D",
"S  c #0B1522",
"D  c #151423",
"F  c #161B23",
"G  c #1C1B25",
"H  c #1E1E2C",
"J  c #181526",
"K  c #2D1B22",
"L  c #201F2E",
"P  c #311D25",
"I  c #3D1D2A",
"U  c #341521",
"Y  c #1D222E",
"T  c #1C2422",
"R  c #1E2335",
"E  c #232424",
"W  c #2B2323",
"Q  c #21232C",
"!  c #2C2B2A",
"~  c #272927",
"^  c #332425",
"/  c #352529",
"(  c #3C232B",
")  c #392827",
"_  c #232433",
"`  c #242A34",
"'  c #2B2C35",
"]  c #2C2D3B",
"[  c #252A39",
"{  c #3B2C33",
"}  c #2B3336",
"|  c #2C343C",
" . c #2D383C",
".. c #293636",
"X. c #333433",
"o. c #353B36",
"O. c #32353E",
"+. c #333A3D",
"@. c #3B3C3B",
"#. c #3B3533",
"$. c #2B332B",
"%. c #451D1D",
"&. c #462B15",
"*. c #472D1A",
"=. c #4A301C",
"-. c #58381A",
";. c #532B1C",
":. c #60381A",
">. c #431D2A",
",. c #4B1C2D",
"<. c #461C26",
"1. c #471D30",
"2. c #43232E",
"3. c #4C232F",
"4. c #492925",
"5. c #522C26",
"6. c #53262B",
"7. c #5B272A",
"8. c #45352D",
"9. c #49312E",
"0. c #5C3E23",
"q. c #452432",
"w. c #4C2130",
"e. c #402931",
"r. c #4A2A33",
"t. c #552933",
"y. c #433935",
"u. c #563A35",
"i. c #683431",
"p. c #38493A",
"a. c #54411F",
"s. c #504321",
"d. c #58443A",
"f. c #494025",
"g. c #7C422B",
"h. c #61453E",
"j. c #774332",
"k. c #2B2E41",
"l. c #2F3541",
"z. c #263142",
"x. c #303441",
"c. c #323941",
"v. c #30374C",
"b. c #523C44",
"n. c #3F4340",
"m. c #4A4B49",
"M. c #444345",
"N. c #5D4441",
"B. c #4C514D",
"V. c #4E5152",
"C. c #535351",
"Z. c #74554C",
"A. c #795A55",
"S. c #6A4F4D",
"D. c #5D665A",
"F. c #72615B",
"G. c #7C605D",
"H. c #766A40",
"J. c #666866",
"K. c #7B6761",
"L. c #7A7979",
"P. c #8D3A38",
"I. c #86482A",
"U. c #894536",
"Y. c #945532",
"T. c #A45737",
"R. c #C97E3D",
"E. c #89474A",
"W. c #895E4E",
"Q. c #945546",
"!. c #895555",
"~. c #975055",
"^. c #B1554D",
"/. c #A0574C",
"(. c #90695E",
"). c #8F664B",
"_. c #BD7547",
"`. c #855A6B",
"'. c #9B6765",
"]. c #957B75",
"[. c #A27B7A",
"{. c #CB7947",
"}. c #CD7948",
"|. c #D0784F",
" X c #CB7555",
".X c #CF7E74",
"XX c #708874",
"oX c #C68435",
"OX c #E1983F",
"+X c #9A847C",
"@X c #BE927B",
"#X c #B28A7A",
"$X c #CF814E",
"%X c #DC8E44",
"&X c #D48357",
"*X c #DCA453",
"=X c #D4A642",
"-X c #E4A34B",
";X c #E0B346",
":X c #C19076",
">X c #D4A766",
",X c #7F8583",
"<X c #968181",
"1X c #979B97",
"2X c #92908B",
"3X c #A98E81",
"4X c #B78C83",
"5X c #BE9587",
"6X c #8AA48D",
"7X c #CE8E8B",
"8X c #F3AE9C",
"9X c #ECA89B",
"0X c #F8B7A9",
"qX c #F2ABA4",
"wX c #FBC7B4",
"eX c None",
/* pixels */
"eXeXeXeXeXeXeXeXeXeXB.# X X m.1XeXeXeXeXeXeXeXeXeXeXeXeXeXeXeXeXeXeXeXeXeXeXeXeXeXeXeXeXeXeXeXeX",
"eXeXeXeXeXeXeXs X , W = u # ! X.# : o eXeXeXeXeXeXeXeXeXeXeXeXeXeXeXeXeXeXeXeXeXeXeXeXeXeXeXeXeX",
"eXeXeXeXeXeX@.# o = - b n c 1 o : = = b eXeXeXeXeXeXeXeXeXeXeXeXeXeXeXeXeXeXeXeXeXeXeXeXeXeXeXeX",
"eXeXeXeXeX! o b l t z n m x < 1 z u z t o . M.eXeXeXeXeXeXeXeXeXeXeXeXeXeXeXeXeXeXeXeXeXeXeXeXeX",
"eXeXeXeX, r b v z C z z m x z A n x x c l b = ! eXeXeXeXeXeXeXeXeXeXeXeXeXeXeXeXeXeXeXeXeXeXeXeX",
"eXeXeXeXeXo = o b z z l m z 1 l m x z A v x < , X eXeXeXeXeXeXeXeXeXeXeXeXeXeXeXeXeXeXeXeXeXeXeX",
"eXeXeXeXeXeXX ~ , < A z z 1 < t z z u u - < = : < C.eXeXeXeXeXeXeXeXeXeXeXeXeXeXeXeXeXeXeXeXeXeX",
"eXeXeXeXeXeXeXeX, % u u u = o     u z - . .   9 r o o.eXeXeXeXeXeXeXeXeXeXeXeXeXeXeXeXeXeXeXeXeX",
"eXeXeXeXeXeXeXeXeX~ o = . . , A z z % f ^ >.6.U + r , , eXeXeXeXeXeXeXeXeXeXeXeXeXeXeXeXeXeXeXeX",
"eXeXeXeXeXeXeXeXeXo X o # < z 1 z - 8.<.< f 7.t.. C #   eXeXeXeXeXeXeXeXeXeXeXeXeXeXeXeXeXeXeXeX",
"eXeXeXeXeXeXeXeXeXo = o z z x < m B S.E.d.d.'.A.o p # X eXeXeXeXeXeXeXeXeXeXeXeXeXeXeXeXeXeXeXeX",
"eXeXeXeXeXeXeXJ.o , z z z l 1 , $ !./..X0X8X0X[.X c < A L.eXeXeXeXeXeXeXeXeXeXeXeXeXeXeXeXeXeXeX",
"eXeXeXeXeXeXeXy < 1 u z x n j @ % !.7X9X0X0X0X].+ t t < r eXeXeXeXeXeXeXeXeXeXeXeXeXeXeXeXeXeXeX",
"eXeXeXeXeXeXeX  b z l z c t 8 > . B 7XwX8X0X'.#.o o 1 t   eXeXeXeXeXeXeXeXeXeXeXeXeXeXeXeXeXeXeX",
"eXeXeXeXeXeXeX  b z m c q 8 w = I %.A.#X8X0Xu.O @ . , < X eXeXeXeXeXeXeXeXeXeXeXeXeXeXeXeXeXeXeX",
"eXeXeXeXeXeXeXX 1 l c b 8 5 o %.~.~.*.d.0XqXd.5 8 X < ,   eXeXeXeXeXeXeXeXeXeXeXeXeXeXeXeXeXeXeX",
"eXeXeXeXeXeXeX  u o .     8 # 4 - `.^.i.- O 4 3 8   i p = eXeXeXeXeXeXeXeXeXeXeXeXeXeXeXeXeXeXeX",
"eXeXeXeXeXeXeX  < # o   + o @ *.).^ 2.K 8 H.8.+ @ @ o 8 q ! eXeXeXeXeXeXeXeXeXeXeXeXeXeXeXeXeXeX",
"eXeXeXeXeXeXeX  r < r   r O O -.OXs.s.s.-.;X-.e a @ X o u @ } eXeXeXeXeXeXeXeXeXeXeXeXeXeXeXeXeX",
"eXeXeXeXeXeXeX  t z t   5 O 2 5.oX*X*X-X-X*X-.S ..X O     r # y eXeXeXeXeXeXeXeXeXeXeXeXeXeXeXeX",
"eXeXeXeXeXeXeX  t s t   O { z.R $ 1 Y.%X=Xf C p.v.| | | Q   @ w @ eXeXeXeXeXeXeXeXeXeXeXeXeXeXeX",
"eXeXeXeXeXeXo t i t 5 O Q +.x.z.Q T ~ =.f.Y ` ..l.| l.] G O : : # X eXeXeXeXeXeXeXeXeXeXeXeXeXeX",
"eXeXeXeXeX  = b 9 8 5 O ' | l.x.| O.Y e   |  .|  .| | ] G O # r #   eXeXeXeXeXeXeXeXeXeXeXeXeXeX",
"eXeXeXeXeX  = b & o O O i ` | c.| l.| ` a F } | | } [ _ G O # : # o.eXeXeXeXeXeXeXeXeXeXeXeXeXeX",
"eXeXeXeXeX  o c o o O 8 # F ` | | | c. .} O ` l...| R Y i O @ # w eXeXeXeXeXeXeXeXeXeXeXeXeXeXeX",
"eXeXeXeXeX  = c . = # r 5 O S [ l.| |  .| O ~ l...l.[ S 3 # # : X eXeXeXeXeXeXeXeXeXeXeXeXeXeXeX",
"eXeXeXeXeXX @ K . # r w y # @ e _ l.O. .| O Q | | ` i O r 5 : : X eXeXeXeXeXeXeXeXeXeXeXeXeXeXeX",
"eXeXeXeXeXX # b . # r r r #   5 _ | O. .| O ~ O.O.Q 5 O r @ w ,   eXeXeXeXeXeXeXeXeXeXeXeXeXeXeX",
"eXeXeXeXeX  o K . O 5 r y # X 5 F ] x.| | @ Q } O.G 5 @ w 5 w # y eXeXeXeXeXeXeXeXeXeXeXeXeXeXeX",
"eXeXeXeXeXr # K o O @ 5 w t 8 O @ H z.| } ..S a ' 5 5 w r # @ E eXeXeXeXeXeXeXeXeXeXeXeXeXeXeXeX",
"eXeXeXeXp.s t b & # O O o r 8 X   F k.| | c.e 6 ' O + r r @ @.m.eXeXeXeXeXeXeXeXeXeXeXeXeXeXeXeX",
"eXeXeXeX  = c t t w #   # 3 5 w @ i [ k.| } a 5 L   5 i @   m.eXeXeXeXeXeXeXeXeXeXeXeXeXeXeXeXeX",
"eXeXeXeX  < z q 6 w @   p + + 8 @ + i L k.O.i 4 G O o 5   X   , eXeXeXeXeXeXeXeXeXeXeXeXeXeXeXeX",
"eXeXeXeX  t s 8 r w 5   i 8 5   o # 3 6 Q | i 5 L O   O   t = X @ eXeXeXeXeXeXeXeXeXeXeXeXeXeXeX",
"eXeXeXeX  < l 8 6 r #   r r 8 - % o o 5 8 ' 5 5 G o       , 8 c < s X eXeXeXeXeXeXeXeXeXeXeXeXeX",
"eXeXeXeX  < t 8 w e # . 8 = t A z - & O O 8 # i i + 5 X   o o u c r = y eXeXeXeXeXeXeXeXeXeXeXeX",
"eXeXeXeXX < < 8 r r @ O t # t z z z + X r   i D O O 5 @   @ r , A < x y X X eXeXeXeXeXeXeXeXeXeX",
"eXeXeX. 1 z p 3 w r #   r # 5 r t z < 5   O J i   # 8 #   r 5 r u z z l 1 t   X 8 eXeXeXeXeXeXeX",
"eXeXeX. 1 z p 3 r r X   r 5 5 r t t l 5 o   D i   # r 5   5 5 r < z z l l c . - K r @ eXeXeXeXeX",
"eXeXeXO 1 z p 5 e , O   o 8 r 5 0 q 8 5 #   J i   5 r #   8 r r , t u b < - k I >.9 t / eXeXeXeX",
"eXeXeX. t z t 3 w w : . = & 5 4 5 5 3 0 ,   D i   # 5 o   5 w r r r t p o + P q.w.( ( j ' ,XeXeX",
"eXeXeX. 1 z p 3 w , @ . K . O @ 5 0 5 5 ,   J i   5 X     r w r w 8 8 % X w = U K $ r.w.v = $.eX",
"eXeXeX  t b y 5 e w # X 9 v v k + @ @ . .   + @ . o c c O O t # r r 8 @ @ w @ = B ;.p I n . } 1X",
"eXm.@.= u b = 5 e 5 #   = c P k j j f 9 9 - j q 9 q v q + X O w r 8 # o # r t o M g.K V W E o.eX",
"eX# , u s t # 5 r w # . t + . t { >.,.2.2.2.q.q.q.P 9 . # O X r @ r o X t 5 5 # h I.b.I $.eXeXeX",
"eX  # Z u r # r w e w   b l l o   . . X . . + + + + 8 8 #   eXeXo   y w r @ # X *. X& S.XXeXeXeX",
"eX  # s r < y t w w #   c n h m t # O # o O 5 0 p + o y 8 . eXeXeX8 @ # o # M.# =. X. D.6XeXeXeX",
"eX  o , = 8 i w e w @ . z n l c v + q = 8 O D _ F   O p c + eXeXeXX # , y o eX  &.|.o p.eXeXeXeX",
"eX    # , 5 r @ y : o . l c l z u 5 6 r 5 O 0 L L   @ t z   eXeXeXeXT # E eXeXX &.{.  eXeXeXeXeX",
"eX  X # O   X   .   .   z b c z t 5 w y @ O 0 _ H O o t t   eXeXeXeXeXeXeXeXeX  &.{.. eXeXeXeXeX",
"eX    o # # X . v K 9   c z z t 8 5 r 5 O e Q ` H O @ 1 u   eXeXeXeXeXeXeXeXeXO &.{.. eXeXeXeXeX",
"eX    . o # o . 2.q.v   b n x t 8 r 5 @ O G ] ] H   o t z   eXeXeXeXeXeXeXeXeX  &.{.. eXeXeXeXeX",
"eX    o     X $ >.,.v   b z z t 3 8 r #   F ] ] L O o t z   eXeXeXeXeXeXeXeXeX  &.{.  eXeXeXeXeX",
"eXeXeXeX  r 8 & r.,.v . Z z b 8 @ r X 3 H Y [ ] H O @ t u   eXeXeXeXeXeXeXeXeXX ;.R.+ +.2XeXeXeX",
"eXeXeXeX  @ - v >.w.v   c c p 8 5 r O 6 H R | ] H O O < u   eXeXeXeXeXeXeXeXeXX 4.&X6.{ y.eXeXeX",
"eXeXeXeXX   9 w.,.,.v   b l p = r w O 4 Y | l.] H   @ 1 z   eXeXeXeXeXeXeXeXeXo.y.j.U.B . eXeXeX",
"eXeXeXJ.@ o - I ,.w.v . z c r = t @ # 6 R | x.] H O @ t t   eXeXeXeXeXeXeXeXeXeXO.= g.x T eXeXeX",
"eXeXeXs r s 8 - >.w.v   z c 8 + 8 X w _ ] l.| ] L   @ t z   eXeXeXeXeXeXeXeXeXeXM.2 g.h 5 eXeXeX",
"eXeXeX  l b z < - 9 - - l < 8 < =   0 _ | l.x.] H   # t u   eXeXeXeXeXeXeXeXeXeXeXO I.i.2.  eXeX",
"eXeXeX. u x z z = @ = z l 8 5 # @ 5 J L l.] | _ F O o u u   eXeXeXeXeXeXeXeXeXeXeX  T.U.t.    eX",
"eXeXeX  l z z z 1 1 z z t 8 5 @ O G _ _ k.k.[ H D O + t u X eXeXeXeXeXeXeXeXeXeXeX  _.T.6.  X eX",
"eXeXX.% l z z A z Z g l t 0 i 3 O G L H L H H 6 3 O O # z   eXeXeXeXeXeXeXeXeXeXeX. $XT.6.    eX",
"eX@.~ - l z l A u 1 z l r 5 r @   5 6 5 5 5 5 5 O 3 X o s   eXeXeXeXeXeXeXeXeXeXeX. }.T.6.    eX",
"eXX # b z l z z z z x z 5 3 5 o O O O O O O   5 i 5 O + u   eXeXeXeXeXeXeXeXeXeXeX& I.U.6.  X eX",
"eX  o z z z z z z c b u 5 i O O 5 3 6 5   3 7 H R 6 O + i   eXeXeXeXeXeXeXeXeXeXeXeXX 5.7.    eX",
"eX  & b z z c z x z z t 5 6 O O 6 5 3 o O 3 Y R H i 2 O r   eXeXeXeXeXeXeXeXeXeXeXeX  5.7.    eX",
"eX  o z z z x z z z l q 5 5 O O 5 6 3 O O 2 H _ D 5 O O r   eXeXeXeXeXeXeXeXeXeXeXeX  5.7.  X eX",
"eX  o b c z z z z z q 8 w O O # 5 3 3 3 O 3 S e O O   O r   eXeXeXeXeXeXeXeXeXeXeXeX  5.7.    eX",
"eXo - z z z z z z l t 8 5 X O 5 3 5 6 @ O 2 3 5 9 9 . @ 5   eXeXeXeXeXeXeXeXeXeXeXeX  4.7.    eX",
"eX- n c z z z z z t i 3 w O O 5 3 6 6 5   p & 9 { e.9 @ e   eXeXeXeXeXeXeXeXeXeXeXeXX 5.7.  X eX",
"eX< z z z z c z z t 8 5 r   + 6 6 6 6 4 O . K P o . X @ r . eXeXeXeXeXeXeXeXeXeXeXeX  5.7.    eX",
"eX< v m z z z z c 8 8 8 r   O 5 3 6 6 5 O W l ) A.Z.N X w   eXeXeXeXeXeXeXeXeXeXeXeX  5.7.    eX",
"eX- b c z z z z b - 5 5 5   O 5 3 6 3 3 o W 8.N.!.5Xt.X : X eXeXeXeXeXeXeXeXeXeXeXeX  5.7.  X eX",
"eX< m z z z z z b 9 + 0 #   O 5 3 6 6 3 8 . F.G.$ 3Xy.@ : X eXeXeXeXeXeXeXeXeXeXeXeX  5.7.    eX",
"eXt c v b z z b t , 5 y 5 O 2 3 6 6 6 7 0 . A.:X3X% . @ e   eXeXeXeXeXeXeXeXeXeXeXeX  5.7.    eX",
"eXt b z x z z z < r 5 8 # @ 3 3 6 7 7 8 5 + W #.9.A.b # # X eXeXeXeXeXeXeXeXeXeXeXeX  4.7.  X eX",
"eXZ 9 t x z z z - w y 5 X # 5 5 6 3 3 6 5   ^ 8.9.G.W X : X eXeXeXeXeXeXeXeXeXeXeXeX  5.7.    eX",
"eXr o r s u s z = w r 5   + # 3 6 3 6 7 4 % Z.@X#X$ . O w X eXeXeXeXeXeXeXeXeXeXeXeXX 5.7.X   eX",
"eX  o 8 8 5 0 0 5 w r r     O O O 3 5 0 5 # o * * { p 3 w   eXeXeXeXeXeXeXeXeXeXeXeX  5.7.X   eX",
"eXeXX o r 8 8 # 5 , # w   eXeXeXV.w O + r 3 O 3 U I 8 # # X eXeXeXeXeXeXeXeXeXeXeXX Q.U.5.    eX",
"eXeXeXC X , r a @ : : :   eXeXeXeXE y : + 8 5 9 q.K - X w X eXeXeXeXeXeXeXeXeXeXeXX ^.Q.5.X   eX",
"eXeXeXeX@ # : w @ : r r   eXeXeXeXeXeXeX8 r @ 9 ( % X @ w O eXeXeXeXeXeXeXeXeXeXeXX P.j.r.r : eX",
"eXeXeXeX2XX.o w : : : r   eXeXeXeXeXeXeXL.5 # % ; +X8.o r   eXeXeXeXeXeXeXeXeXeXeXX E.M / L.eXeX",
"eXeXeXeXc.K c   @ : : w   eXeXeXeXeXeXeXeXeXw n Z.7X(.u.. X eXeXeXeXeXeXeXeXeXeXeX  E.n . eXeXeX",
"eXeXeXeXo t v q t - # #   eXeXeXeXeXeXeXeXeX  y.5XW.W.b.9 9 @ eXeXeXeXeXeXeXeXeXeXX 6.z eXeXeXeX",
"eXeXeXeX@ + v 2.2.j . X y eXeXeXeXeXeXeXeXeXo e.<X- * j q.q.9 . t eXeXeXeXeXeXeXeX@ X eXeXeXeXeX",
"eXeXeXeX# c 2.>.r./ b @ <XeXeXeXeXeXeXeXeXeX: . f n ( I 1.1.q.( / 3 eXeXeXeXeXeXeX@ @ eXeXeXeXeX",
"eXeXeXeXy.eXeXeXeXeXeXeXeXeXeXeXeXeXeXeXeXeXeXC.eXeXeXeXeXeXeXeXeXeXeXeXeXeXeXeXeXeXeXeXeXeXeXeX",
"eXeXeXeXeXeXeXeXeXeXeXeXeXeXeXeXeXeXeXeXeXeXeXeXeXeXeXeXeXeXeXeXeXeXeXeXeXeXeXeXeXeXeXeXeXeXeXeX",
"eXeXeXeXeXeXeXeXeXeXeXeXeXeXeXeXeXeXeXeXeXeXeXeXeXeXeXeXeXeXeXeXeXeXeXeXeXeXeXeXeXeXeXeXeXeXeXeX"
};
