/* XPM */
static char *result[] = {
/* columns rows colors chars-per-pixel */
"48 90 217 2 ",
"   c #030303",
".  c #0B0404",
"X  c #050905",
"o  c #0A0806",
"O  c #05040A",
"+  c #0A060B",
"@  c #060A09",
"#  c #0B0B0B",
"$  c #130305",
"%  c #130A06",
"&  c #1D0906",
"*  c #12050A",
"=  c #1B050A",
"-  c #130C0C",
";  c #1A0C0C",
":  c #0D100E",
">  c #00100C",
",  c #14110D",
"<  c #1A120E",
"1  c #040412",
"2  c #0A0713",
"3  c #060B12",
"4  c #0D0C13",
"5  c #0D0B1A",
"6  c #08081B",
"7  c #120D13",
"8  c #1C0D12",
"9  c #120E1A",
"0  c #1A0E1A",
"q  c #0E1112",
"w  c #0D111C",
"e  c #121213",
"r  c #1C1414",
"t  c #151916",
"y  c #1D1916",
"u  c #14141C",
"i  c #1C141A",
"p  c #141A1A",
"a  c #1D1B1A",
"s  c #200C06",
"d  c #24090B",
"f  c #22190E",
"g  c #2B190F",
"h  c #30190F",
"j  c #210C13",
"k  c #250D16",
"l  c #221614",
"z  c #241915",
"x  c #2A1A15",
"c  c #231619",
"v  c #2A151D",
"b  c #241B1A",
"n  c #2A1A1B",
"m  c #291717",
"M  c #341713",
"N  c #31131C",
"B  c #341B1D",
"V  c #3E1D1C",
"C  c #320E19",
"Z  c #1F2510",
"A  c #24211E",
"S  c #29211C",
"D  c #32201F",
"F  c #0B1522",
"G  c #151423",
"H  c #161B23",
"J  c #1C1B25",
"K  c #1D1D2B",
"L  c #181526",
"P  c #211620",
"I  c #2D1C22",
"U  c #201F2D",
"Y  c #2F1220",
"T  c #3B1D29",
"R  c #341A24",
"E  c #1E232E",
"W  c #1B2421",
"Q  c #1E2335",
"!  c #232424",
"~  c #2C2223",
"^  c #2A2925",
"/  c #21232C",
"(  c #2C2B2A",
")  c #222A29",
"_  c #332425",
"`  c #35242A",
"'  c #3C232A",
"]  c #392827",
"[  c #3E362F",
"{  c #232433",
"}  c #242A33",
"|  c #2B2C35",
" . c #2C2D3A",
".. c #262A38",
"X. c #3B2C33",
"o. c #2B3336",
"O. c #2D343C",
"+. c #2D383C",
"@. c #293636",
"#. c #333533",
"$. c #353B36",
"%. c #32353E",
"&. c #333A3D",
"*. c #3C3D3C",
"=. c #3D3130",
"-. c #2B332B",
";. c #451D1D",
":. c #462B15",
">. c #472D1A",
",. c #4A301C",
"<. c #58381A",
"1. c #532B1C",
"2. c #60381A",
"3. c #431C2A",
"4. c #4B1C2D",
"5. c #461C26",
"6. c #471D30",
"7. c #43232E",
"8. c #4C232F",
"9. c #412D2B",
"0. c #4B2926",
"q. c #522C26",
"w. c #53262B",
"e. c #5B272A",
"r. c #46332B",
"t. c #462433",
"y. c #4C2130",
"u. c #422832",
"i. c #4A2B34",
"p. c #552933",
"a. c #433A37",
"s. c #573E38",
"d. c #5C3E23",
"f. c #683431",
"g. c #3B453C",
"h. c #54411F",
"j. c #504321",
"k. c #40403E",
"l. c #59433B",
"z. c #494025",
"x. c #7C422B",
"c. c #61453E",
"v. c #774332",
"b. c #2B2E41",
"n. c #2E3541",
"m. c #2A3542",
"M. c #313442",
"N. c #323943",
"B. c #30374C",
"V. c #523C44",
"C. c #444644",
"Z. c #494A49",
"A. c #434249",
"S. c #4E5152",
"D. c #545452",
"F. c #5E4742",
"G. c #735549",
"H. c #7A5956",
"J. c #6A4F4D",
"K. c #5D665A",
"L. c #72615E",
"P. c #766A40",
"I. c #696969",
"U. c #7B6860",
"Y. c #70736F",
"T. c #726F76",
"R. c #7A7979",
"E. c #8D3A38",
"W. c #86482A",
"Q. c #894536",
"!. c #945532",
"~. c #A45737",
"^. c #C97E3D",
"/. c #89474A",
"(. c #945546",
"). c #8A5755",
"_. c #8F524F",
"`. c #B1554D",
"'. c #A0574C",
"]. c #986C41",
"[. c #BD7547",
"{. c #855A6B",
"}. c #996A65",
"|. c #957B75",
" X c #A27B7A",
".X c #CB7947",
"XX c #CD7948",
"oX c #D0784F",
"OX c #CB7555",
"+X c #CF7E74",
"@X c #708874",
"#X c #C68435",
"$X c #E1983F",
"%X c #AC8C7E",
"&X c #B18C7B",
"*X c #BE927B",
"=X c #CF814E",
"-X c #D8894E",
";X c #DCA453",
":X c #D4A642",
">X c #E4A34B",
",X c #E0B346",
"<X c #C19076",
"1X c #D4A766",
"2X c #7F8583",
"3X c #968181",
"4X c #91928E",
"5X c #B08F86",
"6X c #8AA48D",
"7X c #C4948C",
"8X c #DA8E8C",
"9X c #F3AE9C",
"0X c #ECA89B",
"qX c #F8B7A9",
"wX c #F2ABA4",
"eX c #FBC7B4",
"rX c None",
/* pixels */
"rXrXrXrXrXrXrXrX      @ @ rXrXrXrXrXrXrXrXrXrXrXrXrXrXrXrXrXrXrXrXrXrXrXrXrXrXrXrXrXrXrXrXrXrXrX",
"rXrXrXrXrXrXrXg., r r , % y     a rXrXrXrXrXrXrXrXrXrXrXrXrXrXrXrXrXrXrXrXrXrXrXrXrXrXrXrXrXrXrX",
"rXrXrXrXrXrXrX  b l b n b % % o e k.rXrXrXrXrXrXrXrXrXrXrXrXrXrXrXrXrXrXrXrXrXrXrXrXrXrXrXrXrXrX",
"rXrXrXrXrXrXC.o A b l l b l b b z o   . o @ C.rXrXrXrXrXrXrXrXrXrXrXrXrXrXrXrXrXrXrXrXrXrXrXrXrX",
"rXrXrXrXrXt t a , f z z S z z l z y b A b t t ! rXrXrXrXrXrXrXrXrXrXrXrXrXrXrXrXrXrXrXrXrXrXrXrX",
"rXrXrXrXrXrX^ - a S y f z z z l x x z b x x < ,   rXrXrXrXrXrXrXrXrXrXrXrXrXrXrXrXrXrXrXrXrXrXrX",
"rXrXrXrXrXrXrXt o < S f S < e r l l z < ; r - : e D.rXrXrXrXrXrXrXrXrXrXrXrXrXrXrXrXrXrXrXrXrXrX",
"rXrXrXrXrXrXrXrXo , y y y % o     y A - . . . 7 e o $.rXrXrXrXrXrXrXrXrXrXrXrXrXrXrXrXrXrXrXrXrX",
"rXrXrXrXrXrXrXrXrX^ o ,     < A y z % C _ ' p.C + e , e rXrXrXrXrXrXrXrXrXrXrXrXrXrXrXrXrXrXrXrX",
"rXrXrXrXrXrXrXrXrXo   . , < l z l ; 9.5.< d e.w.. Z :   rXrXrXrXrXrXrXrXrXrXrXrXrXrXrXrXrXrXrXrX",
"rXrXrXrXrXrXrXrXrXo % o z z x < c V J./.l.l.}.H.. y #   rXrXrXrXrXrXrXrXrXrXrXrXrXrXrXrXrXrXrXrX",
"rXrXrXrXrXrXrXI.o , S f z g < : $ _.`.+XqX9XqX X  a < S R.rXrXrXrXrXrXrXrXrXrXrXrXrXrXrXrXrXrXrX",
"rXrXrXrXrXrXrXt r f l z n m j @ o ).8X0XqXqXqX|.% r y , e rXrXrXrXrXrXrXrXrXrXrXrXrXrXrXrXrXrXrX",
"rXrXrXrXrXrXrX  b l r c b r 7 > . ;.5XeX9XqX}.=.+ + r <   rXrXrXrXrXrXrXrXrXrXrXrXrXrXrXrXrXrXrX",
"rXrXrXrXrXrXrX  A f l b e 7 q , 5.;.G.&X9XqXs.O o . , < X rXrXrXrXrXrXrXrXrXrXrXrXrXrXrXrXrXrXrX",
"rXrXrXrXrXrXrX  r f b v 7 4 . ;._.).0.l.qXwXl.4 e   y ,   rXrXrXrXrXrXrXrXrXrXrXrXrXrXrXrXrXrXrX",
"rXrXrXrXrXrXrX  t - .     ; # 3 & {.`.f.; O w 2 q O u i - rXrXrXrXrXrXrXrXrXrXrXrXrXrXrXrXrXrXrX",
"rXrXrXrXrXrXrX  % + +   @ o @ :.]._ 7.P 7 P.r.O # @ @ - 7 ( rXrXrXrXrXrXrXrXrXrXrXrXrXrXrXrXrXrX",
"rXrXrXrXrXrXrX  % r e   e O 1 <.$Xj.h.j.<.,X<.4 p @ o @ a O o.rXrXrXrXrXrXrXrXrXrXrXrXrXrXrXrXrX",
"rXrXrXrXrXrXa.o y z e   4 O 1 q.#X1X;X>X>X;X<.F @.  O . . e : e rXrXrXrXrXrXrXrXrXrXrXrXrXrXrXrX",
"rXrXrXrXrXa t y b a e . O #.m.Q % s !.$X:Xr Z $.B.O.+. .W O @ q @ rXrXrXrXrXrXrXrXrXrXrXrXrXrXrX",
"rXrXrXrXrXo . I c r 7 O U M.n.m./ / ^ D z./ -.@.O.O.n. .J O : : :   rXrXrXrXrXrXrXrXrXrXrXrXrXrX",
"rXrXrXrXrX  o b 0 7 4 O | %.n.n.n.N.E p O O.n.+.+.@.b. .J O @ t :   rXrXrXrXrXrXrXrXrXrXrXrXrXrX",
"rXrXrXrXrX  + b - o O O u { @.N.+.+.n.) u H o.O.O.O.....P O # , @ $.rXrXrXrXrXrXrXrXrXrXrXrXrXrX",
"rXrXrXrXY.A , b + o O e 4 H { n.n.O.n.O.o.O } +.o.O...K u O # @ e rXrXrXrXrXrXrXrXrXrXrXrXrXrXrX",
"rXrXrXrXt : b y $ # o e q O w ..n.O.O.%.+.  } O.o.n.Q w 4 # # 4 X rXrXrXrXrXrXrXrXrXrXrXrXrXrXrX",
"rXrXrXrX  - b i . 4 e 7 e # @ 5 { O.%.+.O.O / O.O.} G @ q 4 : : o rXrXrXrXrXrXrXrXrXrXrXrXrXrXrX",
"rXrXrXrX  ; z y o # e e t #   3 { O.+.+.O.O ) %.%.E q O e @ q ,   rXrXrXrXrXrXrXrXrXrXrXrXrXrXrX",
"rXrXrXrX  - z b O @ 4 e e # o 4 J  .O.O.O.3 E o.%.J 4 O e q e @ t rXrXrXrXrXrXrXrXrXrXrXrXrXrXrX",
"rXrXrXrX  < b b + O # # e t e o 3 K m.O.@.| G p | 4 @ q e 4 @ ! rXrXrXrXrXrXrXrXrXrXrXrXrXrXrXrX",
"rXrXrXrX  < z b # 4 o O O e 7 O   H b.+.O.&.w 4 } O 2 u q @ *.Z.rXrXrXrXrXrXrXrXrXrXrXrXrXrXrXrX",
"rXrXrXrX  ; b i e e O o o 4 4 q O u { m.O.O.p 4 ! O 4 e @   Z.rXrXrXrXrXrXrXrXrXrXrXrXrXrXrXrXrX",
"rXrXrXT.. < 0 2 u q o   t . 4 - o + 9 { M.%.u 4 J O @ 4       , rXrXrXrXrXrXrXrXrXrXrXrXrXrXrXrX",
"rXrXrXb < f 0 5 q q @   e 7 4   o # + 5 /  .u 3 ! O   O   t -   @ rXrXrXrXrXrXrXrXrXrXrXrXrXrXrX",
"rXrXrX  z f P 5 q t #   e 7 7 ; - + o 4 4 | 4 4 J O .     , ; a , a   rXrXrXrXrXrXrXrXrXrXrXrXrX",
"rXrXrX  z f i 5 q q o   r - i S y ; * O O 7 4 q u + # @   + + y b 7 < t rXrXrXrXrXrXrXrXrXrXrXrX",
"rXrXrXO z l r 9 q q @   t - i z z z + X q   u G O O 4 #   o q e A j n t   X rXrXrXrXrXrXrXrXrXrX",
"rXrXrX  b x i - q q @   e # - e y z < # .   L G   # 4 4   e 4 e y z f y z A .   7 rXrXrXrXrXrXrX",
"rXrXrX. b b i 4 e e X   e : 4 7 8 l l 4 @   L u   # e #   4 4 7 < z z n z n . r I e @ rXrXrXrXrX",
"rXD.g.% z x 8 # q e o   + 7 q 4 4 9 9 7 #   L u   q e #   e e e , r l l < - j R 5.0 r ` rXrXrXrX",
"rX# : , f x y # q q #   * - 4 4 4 7 2 7 ,   G u   # # @   e e q e e e m , + ` t.y.u.' j ( 2XrXrX",
"rX  o z z l c + q e # o I . O O 4 9 4 4 e   L G   4 @     q q e q 7 7 .     * Y v $ i.y.v # -.rX",
"rX  @ z l 0 9 7 q q #   8 c Y c o @ @ . o   O o . . P y O O @ u q e 7 - O @ + 7 B 1.i T R . $.4X",
"rX  o z c 0 9 4 t q #   ; c I k 8 k k 8 8 j 8 8 8 0 Y j + .   # t e o O o q i @ M x.I C ! ^ $.rX",
"rX  o y 8 9 9 4 q q :   y *   0 X.3.4.7.7.7.t.t.t.R 0 O #   e e # e @ o q e # o h W.V.T -.rXrXrX",
"rX  + i u 7 7 e q w :   c l z %   o . . .   . O . . 7 7 # . C.C.o   o e e # o o >.OX= D.@XrXrXrX",
"rXX # u 4 q q e q q #   b x g l r # O # - O 9 G i O o e 7 O rXrX  # e # o # Z.t ,.oX. K.6XrXrXrX",
"rX  # e e e e : e 4 # o l b m l m + 0 # 4 O 9 { H O @ i v . rXrX# e # e O X rX  :.oX. g.rXrXrXrX",
"rXo 4 q e - e @ e q + . r b z z y 4 5 e 4 O 9 { K   o r y   rXrXrXt : ! rXrXrX  :..X  rXrXrXrXrX",
"rX@ 4 o X   O   o   .   z x l y y 4 4 t @ O 9 { K O + e y   rXrXrXrXrXrXrXrXrX  :..X. rXrXrXrXrX",
"rX  O o # @ . . v Y t . l b z l e 4 e # @ w / { K   # < y   rXrXrXrXrXrXrXrXrXX :..X. rXrXrXrXrX",
"rX    . o # @ . 7.t.v   b x z y 7 7 4 @ O J  . .E O o r z   rXrXrXrXrXrXrXrXrX  :..X. rXrXrXrXrX",
"rX    .       $ 3.4.v   b z l y 2 7 e #   J  . .U O o r y   rXrXrXrXrXrXrXrXrX  :..X  rXrXrXrXrX",
"rXrXrXrX  e e * u.4.v . b c a 8 # e O 5 U U  ...K 1 O r n   rXrXrXrXrXrXrXrXrXX 1.^.+ &.4XrXrXrX",
"rXrXrXrX  o - Y 3.8.v   b c i 7 7 e . 5 { { n.O...5 4 7 b   rXrXrXrXrXrXrXrXrX  q.-Xw.X.a.rXrXrX",
"rXrXrXrX@   8 y.4.4.m   b b 8 7 e 4 O 2 /  .N.n.n.J 4 o z   rXrXrXrXrXrXrXrXrX$.k.f.Q.B . rXrXrX",
"rXrXrXI.o o 8 T 4.y.v . z c e * t o # 5 } b.N.m.M.K 4 + z . rXrXrXrXrXrXrXrXrXrX&.% f.D Z rXrXrX",
"rXrXrXt e a 7 ; 3.y.v   b l 7 # 4 O e U O.n.m.O.n.J 7 o b   rXrXrXrXrXrXrXrXrXrXA.1 W.h 3 rXrXrX",
"rXrXrX. y b z r 8 8 * ; l r 7 , -   u E O.%.N. .{ K 7 + y   rXrXrXrXrXrXrXrXrXrXrXO W.f.3.  rXrX",
"rXrXrX  z z x z % # < f l 7 7 # o 4 L { n.b.O.{ J u o + a   rXrXrXrXrXrXrXrXrXrXrX  ~.Q.p.  O rX",
"rXrXrX. z l z z z t f x y 7 5 O O L { { n.b.{ K G 4 O + b   rXrXrXrXrXrXrXrXrXrXrX  [.~.w.    rX",
"rXrX#.o z l z z z z z l r 4 u # O J U K U U U 5 1 2 O o l   rXrXrXrXrXrXrXrXrXrXrX. =X~.w.  o rX",
"rXg.^ ; z z z z z f x f e 4 e #   4 5 4 4 4 4 2 2 2 O + a   rXrXrXrXrXrXrXrXrXrXrX. XX~.w.    rX",
"rX  @ b z z z z z z z z 4 4 4 O O O O O O O O 4 u 5 O 4 a   rXrXrXrXrXrXrXrXrXrXrX* W.Q.w.    rX",
"rX  + z z z z z b b z y 4 5 O O 5 2 5 #   5 6 K Q 5 1 O e   rXrXrXrXrXrXrXrXrXrXrXrXX q.e.    rX",
"rX  % b z z z z z n z y 4 5 O O 4 5 5 + O 5 H } U 5 3 O e   rXrXrXrXrXrXrXrXrXrXrXrX  q.e.    rX",
"rX  o z n l z z z z y 0 q 4 O   4 5 4 O   1 E Q L 4 O O e   rXrXrXrXrXrXrXrXrXrXrXrX  q.e.    rX",
"rX  + z z z z z l l 8 7 4 o O 4 4 2 5 O O 4 w G O O   O e   rXrXrXrXrXrXrXrXrXrXrXrX  q.e.  X rX",
"rX@ ; b z l z z z l r 7 w   o 4 5 2 5 O O 2 2 2 0 * o @ 4 O rXrXrXrXrXrXrXrXrXrXrXrXX q.e.    rX",
"rX; b l z z z z l y i 2 4   O 5 6 5 6 4 O 8 * r i.T c O O t rXrXrXrXrXrXrXrXrXrXrXrX  q.e.    rX",
"rX< m z z x z z l r 9 4 e   O 4 4 5 5 4     I B $ @ X   2 Y.rXrXrXrXrXrXrXrXrXrXrXrX  q.e.    rX",
"rX; n c z l z z z 7 7 7 e   + 4 5 5 5 4 O ( l ' H.H.B   o rXrXrXrXrXrXrXrXrXrXrXrXrX  q.e.    rX",
"rX; b z z z z z z 7 # 7 #   O 5 5 5 5 2 o I r.F.).7Xr.    rXrXrXrXrXrXrXrXrXrXrXrXrX  q.e.    rX",
"rX< n l z z z z b 8 * 9 4   O 4 6 5 5 2 7 . L.L.& 5X[     rXrXrXrXrXrXrXrXrXrXrXrXrX  q.e.    rX",
"rXr c l b z z b y 4 4 e # O 3 6 5 5 5 6 9 o H.<X&Xs % O O rXrXrXrXrXrXrXrXrXrXrXrXrX  q.e.  X rX",
"rXr c n x z z z < e q e O o 2 4 5 6 6 7 4 + ^ =.] L.b o X rXrXrXrXrXrXrXrXrXrXrXrXrX  q.e.    rX",
"rXA r f l z z z ; 4 t 7 O o 4 5 2 2 6 9 4   _ r.r.U.S   X rXrXrXrXrXrXrXrXrXrXrXrXrX  q.e.    rX",
"rXe @ , y y a y - q e 4   # # 2 2 9 9 1 3 % G.*X&X$ . O   rXrXrXrXrXrXrXrXrXrXrXrXrX  q.e.    rX",
"rX  @ 7 9 7 7 9 4 e q q     O O O 2 5 9 4 # * = = ` 8 O # rXrXrXrXrXrXrXrXrXrXrXrXrX  q.e.  X rX",
"rXrX@ . 7 7 7 7 7 : # e   rXrXrXS.4 . O 7 3 O 7 Y i.7 O   rXrXrXrXrXrXrXrXrXrXrXrXX (.Q.q.    rX",
"rXrXrXa @ , e p o q : e   rXrXrXrX! e q + 7 4 8 ' N *   X rXrXrXrXrXrXrXrXrXrXrXrXX `.(.q.  X rX",
"rXrXrXrX@ @ e q @ : : :   rXrXrXrXrXrXrX7 u @ 8 I $ . @   rXrXrXrXrXrXrXrXrXrXrXrXX E.v.i.e : rX",
"rXrXrXrX4X#.. q : q : e   rXrXrXrXrXrXrXR.# # * s 3Xr.. o rXrXrXrXrXrXrXrXrXrXrXrX  /.M ` R.rXrX",
"rXrXrXrX*.~ i . X : : q   rXrXrXrXrXrXrXrXrXq n G.7X}.l.+ W rXrXrXrXrXrXrXrXrXrXrX  /.x . rXrXrX",
"rXrXrXrXo i c 8 t ; # @   rXrXrXrXrXrXrXrXrX  a.5X).).s.j 9 o rXrXrXrXrXrXrXrXrXrX. w.z rXrXrXrX",
"rXrXrXrX@ O v 7.8.j .   t rXrXrXrXrXrXrXrXrXo 9.%X; % k t.t.8 $ t rXrXrXrXrXrXrXrX@ X rXrXrXrXrX",
"rXrXrXrX- c 7.3.i.` A : 2XrXrXrXrXrXrXrXrXrX: o ; m ' T 6.6.7.' ` * rXrXrXrXrXrXrX@ @ rXrXrXrXrX",
"rXrXrXrXa.rXrXrXrXrXrXrXrXrXrXrXrXrXrXrXrXrXrXD.rXrXrXrXrXrXrXrXrXrXrXrXrXrXrXrXrXrXrXrXrXrXrXrX",
"rXrXrXrXrXrXrXrXrXrXrXrXrXrXrXrXrXrXrXrXrXrXrXrXrXrXrXrXrXrXrXrXrXrXrXrXrXrXrXrXrXrXrXrXrXrXrXrX",
"rXrXrXrXrXrXrXrXrXrXrXrXrXrXrXrXrXrXrXrXrXrXrXrXrXrXrXrXrXrXrXrXrXrXrXrXrXrXrXrXrXrXrXrXrXrXrXrX"
};
