/* XPM */
static char *result[] = {
/* columns rows colors chars-per-pixel */
"62 90 228 2 ",
"   c #030303",
".  c #0B0404",
"X  c #040905",
"o  c #0C0907",
"O  c #05040A",
"+  c #0A060B",
"@  c #050A0B",
"#  c #0B0B0C",
"$  c #130404",
"%  c #1A0405",
"&  c #130906",
"*  c #1C0B04",
"=  c #13050A",
"-  c #120C0C",
";  c #1A0D0C",
":  c #0D110D",
">  c #14110E",
",  c #1B130F",
"<  c #161205",
"1  c #050412",
"2  c #090713",
"3  c #070A13",
"4  c #0D0C13",
"5  c #0D0B1A",
"6  c #03051A",
"7  c #120D13",
"8  c #1B0D12",
"9  c #110E1B",
"0  c #140918",
"q  c #0E1112",
"w  c #0E121B",
"e  c #071910",
"r  c #121213",
"t  c #1B1314",
"y  c #151A16",
"u  c #1D1916",
"i  c #13131B",
"p  c #1A1519",
"a  c #15191D",
"s  c #1B1B1A",
"d  c #280909",
"f  c #23140E",
"g  c #230D12",
"h  c #290A16",
"j  c #231613",
"k  c #291314",
"l  c #241915",
"z  c #291A15",
"x  c #23161B",
"c  c #2C151B",
"v  c #251B1A",
"b  c #2A1C1B",
"n  c #31141D",
"m  c #321A1B",
"M  c #3D1C1A",
"N  c #1E211F",
"B  c #27211D",
"V  c #34211F",
"C  c #3D251E",
"Z  c #140F22",
"A  c #131322",
"S  c #161B24",
"D  c #191A25",
"F  c #17192B",
"G  c #1C1C2A",
"H  c #191724",
"J  c #1E1D34",
"K  c #0D0E22",
"L  c #241F21",
"P  c #281926",
"I  c #351B24",
"U  c #3B1D24",
"Y  c #3B1D29",
"T  c #361624",
"R  c #251A33",
"E  c #1E2124",
"W  c #1D212B",
"Q  c #1C2331",
"!  c #1F2138",
"~  c #19372F",
"^  c #232423",
"/  c #2B2322",
"(  c #21222D",
")  c #2A2C2A",
"_  c #292627",
"`  c #362229",
"'  c #3C232B",
"]  c #372728",
"[  c #2C322D",
"{  c #232433",
"}  c #2A2635",
"|  c #242A34",
" . c #2A2A35",
".. c #24263A",
"X. c #252939",
"o. c #2A2D3B",
"O. c #29273A",
"+. c #3E2D32",
"@. c #2C3233",
"#. c #2C343D",
"$. c #2C393D",
"%. c #243638",
"&. c #333533",
"*. c #3D3331",
"=. c #343936",
"-. c #31343C",
";. c #32393D",
":. c #3A3E3B",
">. c #3A3B37",
",. c #363423",
"<. c #441A19",
"1. c #4A2916",
"2. c #4B281B",
"3. c #522019",
"4. c #431D2C",
"5. c #4A1D2C",
"6. c #401D23",
"7. c #461F32",
"8. c #43232D",
"9. c #4A212E",
"0. c #432B2B",
"q. c #4C2626",
"w. c #522621",
"e. c #5B2624",
"r. c #5C2925",
"t. c #5C2B29",
"y. c #542A25",
"u. c #48332D",
"i. c #55322B",
"p. c #573129",
"a. c #442533",
"s. c #4A2432",
"d. c #472B36",
"f. c #453132",
"g. c #4B3532",
"h. c #4C3B34",
"j. c #45363B",
"k. c #573837",
"l. c #653837",
"z. c #713431",
"x. c #3E403D",
"c. c #48403B",
"v. c #54463B",
"b. c #5D453D",
"n. c #574923",
"m. c #7C4036",
"M. c #2B2B40",
"N. c #2E3541",
"B. c #2D3941",
"V. c #2A3849",
"C. c #313542",
"Z. c #323943",
"A. c #39374B",
"S. c #2F3450",
"D. c #5C3F43",
"F. c #713F44",
"G. c #3E4446",
"H. c #4A4344",
"J. c #484948",
"K. c #55534C",
"L. c #4A5250",
"P. c #535452",
"I. c #595A5A",
"U. c #494E49",
"Y. c #69484C",
"T. c #7E4641",
"R. c #744A49",
"E. c #72574C",
"W. c #7C594C",
"Q. c #775149",
"!. c #6D5652",
"~. c #7C5651",
"^. c #765A54",
"/. c #6E5644",
"(. c #76625F",
"). c #6A6A66",
"_. c #6B716D",
"`. c #717272",
"'. c #874334",
"]. c #944A37",
"[. c #A75E3A",
"{. c #8B6634",
"}. c #986E36",
"|. c #8A6929",
" X c #A56F38",
".X c #CB7536",
"XX c #975842",
"oX c #904B4F",
"OX c #A35554",
"+X c #A54F59",
"@X c #81665E",
"#X c #8A6D41",
"$X c #B67655",
"%X c #A56A4E",
"&X c #905964",
"*X c #917268",
"=X c #A67D79",
"-X c #A57368",
";X c #CD7B44",
":X c #D27D45",
">X c #C67A52",
",X c #C57477",
"<X c #B18438",
"1X c #D59D3E",
"2X c #BF8544",
"3X c #9D827E",
"4X c #A38379",
"5X c #AF8B7C",
"6X c #DA9A5A",
"7X c #E09F47",
"8X c #D1AB4F",
"9X c #E7AB45",
"0X c #818283",
"qX c #929493",
"wX c #B38988",
"eX c #BD9992",
"rX c #AF8B80",
"tX c #C09184",
"yX c #D2978A",
"uX c #D18F85",
"iX c #E99793",
"pX c #EEB89D",
"aX c #F5A9A5",
"sX c #E8B5A4",
"dX c #FBBBAB",
"fX c #F7B6A5",
"gX c #F3B8B2",
"hX c None",
/* pixels */
"hXhXhXhXhXhXhXhXhXhXhXhXhXhXhXhXhXhXhXhXhXhXhXhXhXhXhXhXhXhXhXhXhXhXhXhXhXhXhXhXhXhXhXhXhXhXhXhXhXhXhXhXhXhXhXhXhXhXhXhXhXhX",
"hXhXhXhXhXhXhXhXhXhXhXhXhXhXhXhXhXhXhXhX@.u r r t r t > y B .             hXhXhXhXhXhXhXhXhXhXhXhXhXhXhXhXhXhXhXhXhXhXhXhXhX",
"hXhXhXhXhXhXhXhXhXhXhXhXhXhXhXhXhXhXhXhXX , l l l l l l l , - & . . # . # x.P.hXhXhXhXhXhXhXhXhXhXhXhXhXhXhXhXhXhXhXhXhXhXhX",
"hXhXhXhXhXhXhXhXhXhXhXhXhXhXhXhXhXhXhXhXX , l l l l l j f z B j v z b z l > : hXhXhXhXhXhXhXhXhXhXhXhXhXhXhXhXhXhXhXhXhXhXhX",
"hXhXhXhXhXhXhXhXhXhXhXhXhXhXhXhXhXhXhXhXX > l l l l l l l j f z j j k k l o : hXhXhXhXhXhXhXhXhXhXhXhXhXhXhXhXhXhXhXhXhXhXhX",
"hXhXhXhXhXhXhXhXhXhXhXhXhXhXhXhXhXhXhXhXhXo < l l l , # & , z B j 8 = . - y # s hXhXhXhXhXhXhXhXhXhXhXhXhXhXhXhXhXhXhXhXhXhX",
"hXhXhXhXhXhXhXhXhXhXhXhXhXhXhXhXhXhXhXhXhX  o > t ; - & & , B , 8 8 0 8 h t #   hXhXhXhXhXhXhXhXhXhXhXhXhXhXhXhXhXhXhXhXhXhX",
"hXhXhXhXhXhXhXhXhXhXhXhXhXhXhXhXhXhXhXhXhX          - z x l l B . c a.5.8., :   hXhXhXhXhXhXhXhXhXhXhXhXhXhXhXhXhXhXhXhXhXhX",
"hXhXhXhXhXhXhXhXhXhXhXhXhXhXhXhXhXhXhXhXhX  - u v x l j x v ; $ oX<.  g oXU   o hXhXhXhXhXhXhXhXhXhXhXhXhXhXhXhXhXhXhXhXhXhX",
"hXhXhXhXhXhXhXhXhXhXhXhXhXhXhXhXhXhXhXhX: - , l l z z l > & m D.OX-X=X=XuXg.. # E hXhXhXhXhXhXhXhXhXhXhXhXhXhXhXhXhXhXhXhXhX",
"hXhXhXhXhXhXhXhXhXhXhXhXhXhXhXhXhXhXhXhX  < j k j j b t o   <.+X,XiXaXdXsXh.# x   hXhXhXhXhXhXhXhXhXhXhXhXhXhXhXhXhXhXhXhXhX",
"hXhXhXhXhXhXhXhXhXhXhXhXhXhXhXhXhXhXhX_.X ; z b z z ,   e & 6.~.gXfXpXdXaXk.o u   hXhXhXhXhXhXhXhXhXhXhXhXhXhXhXhXhXhXhXhXhX",
"hXhXhXhXhXhXhXhXhXhXhXhXhXhXhXhXhXhXhXs t B l j l j , .   l.z.$ fXdXfXsX<   # t . &.hXhXhXhXhXhXhXhXhXhXhXhXhXhXhXhXhXhXhXhX",
"hXhXhXhXhXhXhXhXhXhXhXhXhXhXhXhXhXhXhX  v l l l v , & t . F.oXl.v.tXfXgX.   - v & ) =.hXhXhXhXhXhXhXhXhXhXhXhXhXhXhXhXhXhXhX",
"hXhXhXhXhXhXhXhXhXhXhXhXhXhXhXhXhXhXhXX v l , > # .   q . ] R.OX8.E.4X*Xg . # v x #   hXhXhXhXhXhXhXhXhXhXhXhXhXhXhXhXhXhXhX",
"hXhXhXhXhXhXhXhXhXhXhXhXhXhXhXhXhXhXhXo x v > .     X e 6 $ <.&X+XC O o 5 @ . x B &   hXhXhXhXhXhXhXhXhXhXhXhXhXhXhXhXhXhXhX",
"hXhXhXhXhXhXhXhXhXhXhXhXhXhXhXhXhXhXhXhXo   & r # # 0 g . #X|.; - # n.8Xd + # p u l l - hXhXhXhXhXhXhXhXhXhXhXhXhXhXhXhXhXhX",
"hXhXhXhXhXhXhXhXhXhXhXhXhXhXhXhXhXhXhXhX  & , r # 4 r : . #X2X X}.}.<X8X+ K O @ y u > # hXhXhXhXhXhXhXhXhXhXhXhXhXhXhXhXhXhX",
"hXhXhXhXhXhXhXhXhXhXhXhXhXhXhXhXhXhXhXJ.- u &   4 r 5 9 p i.XX%X6X9X1X{.j W S 4 # y y o P.hXhXhXhXhXhXhXhXhXhXhXhXhXhXhXhXhX",
"hXhXhXhXhXhXhXhXhXhXhXhXhXhXhXhXhXhXhX# u v - + # + 0 R *., X @ .X7X|.& ~ V.o.W O   r # # hXhXhXhXhXhXhXhXhXhXhXhXhXhXhXhXhX",
"hXhXhXhXhXhXhXhXhXhXhXhXhXhXhXhXhXhXhX  x o o # O i | %.%.S.A.@.+ 1 S $.=.C.M.M.-.a + r   hXhXhXhXhXhXhXhXhXhXhXhXhXhXhXhXhX",
"hXhXhXhXhXhXhXhXhXhXhXhXhXhXhXhXhXhXhX  v # # # O 5 } -.C.N.N.B.D # i #.B.$.N.N.C.i @ -   hXhXhXhXhXhXhXhXhXhXhXhXhXhXhXhXhX",
"hXhXhXhXhXhXhXhXhXhXhXhXhXhXhXhXhX_.J.X t o o # # 5 G o.C.N.#.N.;.a a | $.%.C.Z.o.i + >   hXhXhXhXhXhXhXhXhXhXhXhXhXhXhXhXhX",
"hXhXhXhXhXhXhXhXhXhXhXhXhXhXhXhXhXy > t . # # 4 4 + 5 W #.N.N.N.%.$.D # %.#.C.N.{ 4 # #   hXhXhXhXhXhXhXhXhXhXhXhXhXhXhXhXhX",
"hXhXhXhXhXhXhXhXhXhXhXhXhXhXhXhXhX  # v   # r r # X # Q #.N.N.#.$.;.W O @.%.C.N.( 3 # >   hXhXhXhXhXhXhXhXhXhXhXhXhXhXhXhXhX",
"hXhXhXhXhXhXhXhXhXhXhXhXhXhXhXhXhX  > x   # > r > # + i Q #.#.N.$.$.W O #.#.#.o.( 5 . #   hXhXhXhXhXhXhXhXhXhXhXhXhXhXhXhXhX",
"hXhXhXhXhXhXhXhXhXhXhXhXhXhXhXhXhX/ o j   + r p # # # O D o.C.C.$.B.W O -.-.o...G 9 . # # hXhXhXhXhXhXhXhXhXhXhXhXhXhXhXhXhX",
"hXhXhXhXhXhXhXhXhXhXhXhXhXhXhXhXo > v v 7 X X # r r # @ G R } C.N.$.E @ @.-.O.F 2 # # # hXhXhXhXhXhXhXhXhXhXhXhXhXhXhXhXhXhX",
"hXhXhXhXhXhXhXhXhXhXhXhXhXhXhXhXX < l t r # X . > r # # 3 D { } $.$.o.a a } #.G O O - X hXhXhXhXhXhXhXhXhXhXhXhXhXhXhXhXhXhX",
"hXhXhXhXhXhXhXhXhXhXhXhXhXhXhXhX  - B v # > #   : r r q O # H J C.$.$.&.# G W w # - # X hXhXhXhXhXhXhXhXhXhXhXhXhXhXhXhXhXhX",
"hXhXhXhXhXhXhXhXhXhXhXhXhXhXhXhX  > l , p r # X # 7 - r r X 2 H #.#.#.#.O S w   # y # # `.hXhXhXhXhXhXhXhXhXhXhXhXhXhXhXhXhX",
"hXhXhXhXhXhXhXhXhXhXhXhXhXhXJ.@ u j t & 4 7 : # X X @ r : : 4 1 F #.N.$.  F w   # #     # hXhXhXhXhXhXhXhXhXhXhXhXhXhXhXhXhX",
"hXhXhXhXhXhXhXhXhXhXhXhXhXhXhX  j l p 5 4 r 4 r   @ @ O X q #   W o.N.o.@ H 9   .   + r X s =.hXhXhXhXhXhXhXhXhXhXhXhXhXhXhX",
"hXhXhXhXhXhXhXhXhXhXhXhXhXhXhX  j j 8 5 : r r r   # #     + O @ i | B.o.O S i   O   O p # # N =.hXhXhXhXhXhXhXhXhXhXhXhXhXhX",
"hXhXhXhXhXhXhXhXhXhXhXhXhXhXhX  l j p 5 4 r # r   # r p #   O 7 O W V.N.3 i 5 O #   X 4 p v # o # P.hXhXhXhXhXhXhXhXhXhXhXhX",
"hXhXhXhXhXhXhXhXhXhXhXhXhXhX&.X j l t 5 q r q r   3 r # 7 4 X     w | N.} r O 1 9 X + 0 9 t l B u - X s _.hXhXhXhXhXhXhXhXhX",
"hXhXhXhXhXhXhXhXhXhXhXhXhX=.) p j l t 5 q y r r   # r 4 4 q : #   i | C.-.i O 2 i O O 2 9 t l l v u y y B   :.hXhXhXhXhXhXhX",
"hXhXhXhXhXhXhXhXhXhXhXhXhXX & L l , 7 r : r # r   # q p 8 r 8 4 2 9 W C.M.S X # r # X q # p x P j t > :   - &.j.hXhXhXhXhXhX",
"hXhXhXhXhXhXhXhXhXhXhXhXhX  - b j , 4 r q r q #   # : q r 4 4 q 5 O r ;.o.w O 7 # O @ r r - 8 u x .     . I k . - U.hXhXhXhX",
"hXhXhXhXhXhXhXhXhXhXhXhXhX  . v l t 7 5 r r : -     . r q q q q 4 O i #.Q 4   + r # X q 4 4 7 r   : :   ` Y s.a.' t 8 hXhXhX",
"hXhXhXhXhXhXhXhXhXhXhXhXhX  # b j t 7 4 r y : # . ; t . + # i q 7 # q a G 4 @ r O   @ r q r 4   : @ 4 # 8 ' n g ' ' g X @.hX",
"hXhXhXhXhXhXhXhXhXhXhXhXhX  & v j t 7 9 q r : > . t c 8 8 - # # # O X   w @ O # r #   @ # # @ @ a w q r   x c I h 4.m   @ hX",
"hXhXhXhXhXhXhXhXhXhXhXhXhX  - l u r 7 q q q r r   . ; ' ' 8 .             + . . / p O + # # # q # r 7 X 7   I r.h h `   [ hX",
"hXhXhXhXhXhXhXhXhXhXhXhXhXu & v a r # r r r 4 r   - ,   . k a.8.5.9.9.5.5.' 0.I = O 5   X X # : r y   r `.  k '.F.M 1 hXhXhX",
"hXhXhXhXhXhXhXhXhXhXhXhX>.v , v p : 4 q r q 5 >   > u > > ; g 8 - 8 8 8 8 7 p = # 2 5 # I.^   # # # ^ x.hX. ] [.m v.L.hXhXhX",
"hXhXhXhXhXhXhXhXhXhXhXhX  r x 8 q 4 > r 7 q 4 r   > z c j - X @ . X   O 2 2 O   r 9 O   qXI.# X @ @ [ hXhX  2.6X. K.hXhXhXhX",
"hXhXhXhXhXhXhXhXhXhXhXhXX t - 8 q # 7 r q q 4 r   > v b t t y @ 8 - + 0 P R i O 7 # # # 0XqXhXhXhXhXhXhXhX3 2..X+ hXhXhXhXhX",
"hXhXhXhXhXhXhXhXhXhXhXhX@ # 7 7 r r r r # q q r   o > : > > 8 0 q @ 4 F M...A O r 9 i u # c.hXhXhXhXhXhXhX1 1.;XO hXhXhXhXhX",
"hXhXhXhXhXhXhXhXhXhXhXB @ X 4 @ X . O # X O O O   3 r > # # O O + 2 A { C.#.W w 2 7 p p   hXhXhXhXhXhXhXhX  2.:X  hXhXhXhXhX",
"hXhXhXhXhXhXhXhX:.hX> #   # # @ X   X .   = 8 p   + # # # + O + 5 H ( | M.Z. .H O + p t   hXhXhXhXhXhXhXhX  1.:X. hXhXhXhXhX",
"hXhXhXhXhXhXhXhXy   & x .     5 r r > # X I a.I + .       2 5 5 ( G | N.N.#.o.G 2 # t t   hXhXhXhXhXhXhXhX  1.:X  hXhXhXhXhX",
"hXhXhXhXhXhXP.> t v b t     X             n 4.Y = . 4 3 5 H G R F O.N.#.#.-.C.o.H # # ;   hXhXhXhXhXhXhXhX  1.:X+ hXhXhXhXhX",
"hXhXhXhXhXhX_ # v j b b t t 7 # o # # # X T s.Y . O 2 w D G { o.o.o.N.B.$.%.C.-.( # # ;   hXhXhXhXhXhXhXhX  1.:X  hXhXhXhXhX",
"hXhXhXhX:.& * , j j j f j t r 4 q p : + 8 T 8.U   2 Z H H { o.o.N.N.N.$.N.$.$.o.W 5   >   hXhXhXhXhXhXhXhX3 2.>X<.H.hXhXhXhX",
"hXhXhXhX: - l x l l l j t t r 3 p 4 + = Y s.5.9.+ 5 Z G { o.#.C.#.N.#.N.#.B.N.N.( 4 O r   hXhXhXhXhXhXhXhX2 p.$X'.I O hXhXhX",
"hXhXhXr u l l l l l l u > # r r 4 +   = Y s.5.5.. 5 J W O.#.$.#.#.$.N.#.N.#.N.o.{ 9 X #   hXhXhXhXhXhXhXhXhXv.d l.c O hXhXhX",
"hXhXhX  v j l l l b l r 7 4 7 r X + O . 8 Y s.8.  A } O.N.%.N.N.N.#.#.N.#.N.#.M.W 5 X 7   hXhXhXhXhXhXhXhXhXhX  Q.m   hXhXhX",
"hXhX) , v l l f l j > 4 4 r q # + # @   + p c c 4 G { #.N.N.B.B.#.N.$.C.#.$.#.o.G 3 X -   hXhXhXhXhXhXhXhXhXhX+ m.3.x hXhXhX",
"hXy # u l z z z j t 7 : : 5 # O # 4 @   2 + . - p G O.N.N.#.#.B.-.#.-.C.#.$.o.{ G 4 O u   hXhXhXhXhXhXhXhXhXK.2 '.z.t.  s hX",
"hXr - l j z z l , r 7 > r # O # # 5 5 2 O 2 9 H { O.#.N.#.N.N.N.C.C.#.o.{ E 5 O O     r   hXhXhXhXhXhXhXhXhXhX  ;XXXw.    hX",
"hXs , b f z z l t r r r # O O 5 5 # O 1 2 O O 9 P { } X.X.X.| | O.......R i # O     # #   hXhXhXhXhXhXhXhXhX@.. .X[.w.    hX",
"hXr l b f z f j 8 5 r 4   O 9 5 4 4 O O 2 2 1 2 i H a K K K K A 9 9 A A A @ 3 A a #   . =.hXhXhXhXhXhXhXhXhX).& .X].t.    hX",
"hXr l b k z j t 5 q q # O 2 9 2 2 2 # + 9 9 5 3 O   O O O O O O O O   O O 3 H ....9   r hXhXhXhXhXhXhXhXhXhXK.@ $XoXe.    hX",
"hX- l j j f t 9 r 4 3 O + 7 4 5 5 O O 5 ( { | R A 5 4 O # @ O # 2   # 9 9 G R M.O.9   hXhXhXhXhXhXhXhXhXhXhXhXhXd i.r.    hX",
"hXt v v l L s + r # @ O O # O 9 7 O 1 1 { Q X...J A 2 O # 3 5 0 5 O 3 G H { ! ! X.q   hXhXhXhXhXhXhXhXhXhXhXhXhX  p.e.    hX",
"hX> v B j 8 r # a q #     # ^ @ + + 5 2 W { X...M.F 6   # 3 5 5 2 X 9 ..O.Q Q X.W 3   hXhXhXhXhXhXhXhXhXhXhXhXhX  i.e.    hX",
"hXy u x t 8 8 r #     hXhXhXI.# r + O O 9 G ....J S 3 O # 4 2 2 6 X 4 R { i w W 3 #   hXhXhXhXhXhXhXhXhXhXhXhXhX  i.e.    hX",
"hX^ . - t t # i a q   hXhXhXhXhXhX) X O 2   2 Z K 6 @ 3 4 5 5 5 5 O @ H i # O 2   .   hXhXhXhXhXhXhXhXhXhXhXhXhX  i.e.    hX",
"hX  O # t p + 7 O E hXhXhXhXhXhXhXo     8 t = + 2 X   O + 3 5 0 5 O O 5 1 7 ; g O L hXhXhXhXhXhXhXhXhXhXhXhXhXhX  p.e.    hX",
"hX  # u . 4 r r X &.hXhXhXhXhXhXhX@ X . a.' P = - r     @ O q q 2 O O 2 + c 5.d.@ G.hXhXhXhXhXhXhXhXhXhXhXhXhXhX  i.e.    hX",
"hX: # # u : # r   hXhXhXhXhXhXhXhX  u.wX% I 8.I 7 hXhXhXhX=.    9 +     Y 8 $ % . hXhXhXhXhXhXhXhXhXhXhXhXhXhXhX  i.e.    hX",
"hXP.&.@ r r # r   hXhXhXhXhXhXhXhXO i.yXE.0.z +.. hXhXhXhXhXhXhXO   p P k b.@X^.o hXhXhXhXhXhXhXhXhXhXhXhXhXhXhX  i.e.    hX",
"hXhXhXX r : q y   hXhXhXhXhXhXhXhXX B /.yX/.` b   hXhXhXhXhXhXhX# o 7 g k.E.*XtX. J.hXhXhXhXhXhXhXhXhXhXhXhXhXhX  i.e.    hX",
"hXhXhXi   # r # y hXhXhXhXhXhXhXhXX X d 5XeX!.& 8 hXhXhXhXhXhXhXhX@ O % 5X*.f.3X$ j.hXhXhXhXhXhXhXhXhXhXhXhXhXhX  i.e.    hX",
"hXhXhXhX> # : : `.hXhXhXhXhXhXhXhXO j.5X* $ * # 0XhXhXhXhXhXhXhXhXr O & 5XeXR.d X hXhXhXhXhXhXhXhXhXhXhXhXhXhXhX  p.e.    hX",
"hXhXhXhXX # : # hXhXhXhXhXhXhXhXhX  g k.!.@Xh.X hXhXhXhXhXhXhXhXhXhXt & h.g.v.^.& hXhXhXhXhXhXhXhXhXhXhXhXhXhXhX. p.w.    hX",
"hXhXhXhX>.y X @ hXhXhXhXhXhXhXhXhX@ - g (.4X@X. hXhXhXhXhXhXhXhXhXhXhX. k.h.v.^.. H.hXhXhXhXhXhXhXhXhXhXhXhXhXhX. y.3.    hX",
"hXhXhXhXhXs   r hXhXhXhXhXhXhXhXhXX t 0.% ^.E.> hXhXhXhXhXhXhXhXhXhXhXB *XwXY.o X I.hXhXhXhXhXhXhXhXhXhXhXhXhXhX. k.q.    hX",
"hXhXhXhXhXhXhXhXhXhXhXhXhXhXhXhXhXq ; 9.' k ] hXhXhXhXhXhXhXhXhXhXhXhX).0 o c q.$ hXhXhXhXhXhXhXhXhXhXhXhXhXhXhX* w.t.    hX",
"hXhXhXhXhXhXhXhXhXhXhXhXhXhXhXhXhXB h 5.7.u O hXhXhXhXhXhXhXhXhXhXhXhXhX. m U f.  hXhXhXhXhXhXhXhXhXhXhXhXhXhX,./.oXe.    hX",
"hXhXhXhXhXhXhXhXhXhXhXhXhXhXhXhXhX@ 9 d.n = # hXhXhXhXhXhXhXhXhXhXhXhXhX  I U I   hXhXhXhXhXhXhXhXhXhXhXhXhXhX. %X].p.  X hX",
"hXhXhXhXhXhXhXhXhXhXhXhXhXhXhXhXhX  h 5.; X   hXhXhXhXhXhXhXhXhXhXhXhXhX  } P % . hXhXhXhXhXhXhXhXhXhXhXhXhXhX. m.m.u.X ^ hX",
"hXhXhXhXhXhXhXhXhXhXhXhXhXhXhXhXhXy   % 4X0.  hXhXhXhXhXhXhXhXhXhXhXhXhX    u.tX% *.hXhXhXhXhXhXhXhXhXhXhXhXhX. oXM   hXhXhX",
"hXhXhXhXhXhXhXhXhXhXhXhXhXhXhXhXhX[ m ~.g.y o hXhXhXhXhXhXhXhXhXhXhXhXhX  b.*X5XW.h.. u hXhXhXhXhXhXhXhXhXhXG.. R.k @ hXhXhX",
"hXhXhXhXhXhXhXhXhXhXhXhXhXhXhXhXhXX ` @Xh t ^ L.hXhXhXhXhXhXhXhXhXhXhXhX  @X-XW.@X0.0 8 D.hXhXhXhXhXhXhXhXhXhX# y.0.hXhXhXhX",
"hXhXhXhXhXhXhXhXhXhXhXhXhXhXhXhXhXe X % Y 8.I x hXhXhXhXhXhXhXhXhXhXhXhX  (.!.* % P D.I =   :.hXhXhXhXhXhXhXhXX $ ] hXhXhXhX",
"hXhXhXhXhXhXhXhXhXhXhXhXhXhXhXhXhX. 8 T s.9.s.U t hXhXhXhXhXhXhXhXhXhXhX  $ g U a.7.4.5.8.' x 7 hXhXhXhXhXhXhX    hXhXhXhXhX",
"hXhXhXhXhXhXhXhXhXhXhXhXhXhXhXhXhX^ j Y s.s.8.j.= hXhXhXhXhXhXhXhXhXhXhX> . j ' 8.7.7.4.5.8.x . hXhXhXhXhXhXhX@ # hXhXhXhXhX",
"hXhXhXhXhXhXhXhXhXhXhXhXhXhXhXhXhXhXhXhXhXhXhXhXhXhXhXhXhXhXhXhXhXhXhXhXhXhXhXhXhXhXhXhXhXhXhXhXhXhXhXhXhXhXhXhXhXhXhXhXhXhX",
"hXhXhXhXhXhXhXhXhXhXhXhXhXhXhXhXhXhXhXhXhXhXhXhXhXhXhXhXhXhXhXhXhXhXhXhXhXhXhXhXhXhXhXhXhXhXhXhXhXhXhXhXhXhXhXhXhXhXhXhXhXhX"
};
