/* XPM */
static char *result[] = {
/* columns rows colors chars-per-pixel */
"63 90 219 2 ",
"   c #030303",
".  c #0A0405",
"X  c #020905",
"o  c #0A0906",
"O  c #05050A",
"+  c #0A060B",
"@  c #060A0B",
"#  c #0B0B0C",
"$  c #140405",
"%  c #130609",
"&  c #120C0C",
"*  c #1B0C0F",
"=  c #180607",
"-  c #0D120E",
";  c #12110E",
":  c #1B130E",
">  c #060610",
",  c #0A0714",
"<  c #0C0B13",
"1  c #060A1A",
"2  c #0D0C1A",
"3  c #060816",
"4  c #100712",
"5  c #120E13",
"6  c #1C0D12",
"7  c #110D1C",
"8  c #180B19",
"9  c #0D1412",
"0  c #0D1813",
"q  c #0E131A",
"w  c #121213",
"e  c #1B1413",
"r  c #131916",
"t  c #1E1A15",
"y  c #13131B",
"u  c #1C1519",
"i  c #151B19",
"p  c #1C1B1B",
"a  c #220B0D",
"s  c #200002",
"d  c #26180F",
"f  c #220B13",
"g  c #260F1A",
"h  c #231514",
"j  c #2D1516",
"k  c #231A15",
"l  c #291A15",
"z  c #231519",
"x  c #2B141B",
"c  c #241B19",
"v  c #2A1C1C",
"b  c #32151C",
"n  c #3C1D1C",
"m  c #361C1D",
"M  c #360D17",
"N  c #1B211E",
"B  c #2C241D",
"V  c #37251B",
"C  c #0D0E20",
"Z  c #110F21",
"A  c #161522",
"S  c #181622",
"D  c #151923",
"F  c #1A1B24",
"G  c #1D1C2C",
"H  c #171C2D",
"J  c #1E1D30",
"K  c #1F183E",
"L  c #2D1420",
"P  c #2C1A22",
"I  c #211D2B",
"U  c #361521",
"Y  c #331A23",
"T  c #3D1C25",
"R  c #341F2C",
"E  c #201E31",
"W  c #201E38",
"Q  c #1E2324",
"!  c #1E212D",
"~  c #1F2231",
"^  c #232322",
"/  c #2D2223",
"(  c #21232D",
")  c #2B2B2B",
"_  c #262D2F",
"`  c #352324",
"'  c #3A2321",
"]  c #35232B",
"[  c #3D222C",
"{  c #322C2B",
"}  c #382B27",
"|  c #232433",
" . c #252A35",
".. c #292A35",
"X. c #24253A",
"o. c #29273B",
"O. c #252A3A",
"+. c #2B2D3B",
"@. c #282735",
"#. c #3C2433",
"$. c #392538",
"%. c #2C3435",
"&. c #2C343E",
"*. c #2B343B",
"=. c #353634",
"-. c #343A35",
";. c #31363C",
":. c #343B3C",
">. c #3D3E3C",
",. c #3E3333",
"<. c #4B2A1C",
"1. c #402F18",
"2. c #52291D",
"3. c #4D3817",
"4. c #583B1D",
"5. c #633E0C",
"6. c #451E2C",
"7. c #4C1C2E",
"8. c #4B1F30",
"9. c #461F32",
"0. c #531D37",
"q. c #4D2C24",
"w. c #44222D",
"e. c #4C2E2A",
"r. c #462829",
"t. c #552D2D",
"y. c #5C2C25",
"u. c #45322B",
"i. c #4B332B",
"p. c #4B3A29",
"a. c #583327",
"s. c #432532",
"d. c #4C2433",
"f. c #482A36",
"g. c #552736",
"h. c #483735",
"j. c #563937",
"k. c #6C3E2E",
"l. c #743829",
"z. c #7F3F34",
"x. c #662C2F",
"c. c #3E423B",
"v. c #57423A",
"b. c #7F403F",
"n. c #784637",
"m. c #694533",
"M. c #2E3541",
"N. c #2D3941",
"B. c #313541",
"V. c #323942",
"C. c #383A40",
"Z. c #252340",
"A. c #3E4140",
"S. c #434143",
"D. c #474748",
"F. c #584946",
"G. c #4D514E",
"H. c #4E5452",
"J. c #555957",
"K. c #744742",
"L. c #6B564A",
"P. c #604850",
"I. c #7A5C57",
"U. c #75534A",
"Y. c #796359",
"T. c #686969",
"R. c #7E6262",
"E. c #6F7073",
"W. c #797F7C",
"Q. c #813E35",
"!. c #893925",
"~. c #84462D",
"^. c #854739",
"/. c #8F4E37",
"(. c #A55A3D",
"). c #807038",
"_. c #B2673E",
"`. c #8B4D4E",
"'. c #98535A",
"]. c #8D5053",
"[. c #A04D4F",
"{. c #A75458",
"}. c #86615B",
"|. c #836A5E",
" X c #8C694F",
".X c #B37842",
"XX c #805F60",
"oX c #9A5F63",
"OX c #9A6F64",
"+X c #906E6B",
"@X c #AB7A7A",
"#X c #CF7742",
"$X c #CD7944",
"%X c #D1794F",
"&X c #E27947",
"*X c #C77771",
"=X c #7B807C",
"-X c #DE863B",
";X c #D4A835",
":X c #B8886F",
">X c #B68878",
",X c #B28A7B",
"<X c #D7A858",
"1X c #D4A647",
"2X c #E7B04D",
"3X c #C28C7A",
"4X c #7F7F85",
"5X c #8D9290",
"6X c #A48D86",
"7X c #BC8D82",
"8X c #BB9384",
"9X c #C49786",
"0X c #EA8E91",
"qX c #EDAF9F",
"wX c #F5B69F",
"eX c #F7B6A7",
"rX c #FBBDB2",
"tX c #EDB2A5",
"yX c None",
/* pixels */
"yXyXyXyXyXyXyXyXyXyXyXyXyXyXyXyXyXyXyXyXyXyXyXyX#             yXyXyXyXyXyXyXyXyXyXyXyXyXyXyXyXyXyXyXyXyXyXyXyXyXyXyXyXyXyXyXyX",
"yXyXyXyXyXyXyXyXyXyXyXyXyXyXyXyXyXyXyXyXyXyXyX=.u ; e & e e & X o o o yXyXyXyXyXyXyXyXyXyXyXyXyXyXyXyXyXyXyXyXyXyXyXyXyXyXyXyX",
"yXyXyXyXyXyXyXyXyXyXyXyXyXyXyXyXyXyXyXyXyXyX=.o c c h c c h t o # & # # yXyXyXyXyXyXyXyXyXyXyXyXyXyXyXyXyXyXyXyXyXyXyXyXyXyXyX",
"yXyXyXyXyXyXyXyXyXyXyXyXyXyXyXyXyXyXyXyXyX- & c c h c c l c h h k k l &       h.yXyXyXyXyXyXyXyXyXyXyXyXyXyXyXyXyXyXyXyXyXyXyX",
"yXyXyXyXyXyXyXyXyXyXyXyXyXyXyXyXyXyXyXyXyX  # u z t t : k d l l l l l v k P z & $ yXyXyXyXyXyXyXyXyXyXyXyXyXyXyXyXyXyXyXyXyXyX",
"yXyXyXyXyXyXyXyXyXyXyXyXyXyXyXyXyXyXyXyXyXyXo @ k c k k t k l h d d j h j j / ; . yXyXyXyXyXyXyXyXyXyXyXyXyXyXyXyXyXyXyXyXyXyX",
"yXyXyXyXyXyXyXyXyXyXyXyXyXyXyXyXyXyXyXyXyXyXyXh.w t h B c h t c k : c k e & ; & & H.yXyXyXyXyXyXyXyXyXyXyXyXyXyXyXyXyXyXyXyXyX",
"yXyXyXyXyXyXyXyXyXyXyXyXyXyXyXyXyXyXyXyXyXyXyXyX# ; e e : #   % l l k w   . . * p # yXyXyXyXyXyXyXyXyXyXyXyXyXyXyXyXyXyXyXyXyX",
"yXyXyXyXyXyXyXyXyXyXyXyXyXyXyXyXyXyXyXyXyXyXyXyX        . - : B B a $ h 6.[ 7.U O   yXyXyXyXyXyXyXyXyXyXyXyXyXyXyXyXyXyXyXyXyX",
"yXyXyXyXyXyXyXyXyXyXyXyXyXyXyXyXyXyXyXyXyXyXyXyX  & : : : e k t - $ w.t.* 6 x.g.    yXyXyXyXyXyXyXyXyXyXyXyXyXyXyXyXyXyXyXyXyX",
"yXyXyXyXyXyXyXyXyXyXyXyXyXyXyXyXyXyXyXyXyXyXyXyX% : l l l k : : o Y K.`.v.v.oX`.. # o yXyXyXyXyXyXyXyXyXyXyXyXyXyXyXyXyXyXyXyX",
"yXyXyXyXyXyXyXyXyXyXyXyXyXyXyXyXyXyXyXyXyXyXyX  k l d d l k h ; $ '.[.*XrXtXeX@X  k #   yXyXyXyXyXyXyXyXyXyXyXyXyXyXyXyXyXyXyX",
"yXyXyXyXyXyXyXyXyXyXyXyXyXyXyXyXyXyXyXyXyXyX{ . h d d h v c h 5 # '.0XqXeXeXtX@Xo k o t yXyXyXyXyXyXyXyXyXyXyXyXyXyXyXyXyXyXyX",
"yXyXyXyXyXyXyXyXyXyXyXyXyXyXyXyXyXyXyXyXyXc.) : l c h k c u & z j.n @XrXeXeXOXh.  c : p >.yXyXyXyXyXyXyXyXyXyXyXyXyXyXyXyXyXyX",
"yXyXyXyXyXyXyXyXyXyXyXyXyXyXyXyXyXyXyXyXyX  o v h x h e e 5 # T {.n I.9XwXeXj.  . c v &   yXyXyXyXyXyXyXyXyXyXyXyXyXyXyXyXyXyX",
"yXyXyXyXyXyXyXyXyXyXyXyXyXyXyXyXyXyXyXyXyX  % v h v e & 5 5 # V {.'.n v.wXeXj.  . l h :   yXyXyXyXyXyXyXyXyXyXyXyXyXyXyXyXyXyX",
"yXyXyXyXyXyXyXyXyXyXyXyXyXyXyXyXyXyXyXyXyX  & v h %   . e ;   @ * `.[.k.o   4 7 X B k d h . yXyXyXyXyXyXyXyXyXyXyXyXyXyXyXyXyX",
"yXyXyXyXyXyXyXyXyXyXyXyXyXyXyXyXyXyXyXyXyXyX# & $ & & ; # o < B U.<.' t %  X1.O   e k c t   yXyXyXyXyXyXyXyXyXyXyXyXyXyXyXyXyX",
"yXyXyXyXyXyXyXyXyXyXyXyXyXyXyXyXyXyXyXyXyXyXyX  ; t t e o o < a.1X5.4.v.4.2X4.1 2 o e h h + A.H.yXyXyXyXyXyXyXyXyXyXyXyXyXyXyX",
"yXyXyXyXyXyXyXyXyXyXyXyXyXyXyXyXyXyXyXyXyXyXyX. & t # . # < @ V -X;X2X2X1X<X3.1 K O o : t ; # # yXyXyXyXyXyXyXyXyXyXyXyXyXyXyX",
"yXyXyXyXyXyXyXyXyXyXyXyXyXyXyXyXyXyXyXyXyXo o v l & & &   2  .) + . n.-X1Xh ( :.C.F # . e -     yXyXyXyXyXyXyXyXyXyXyXyXyXyXyX",
"yXyXyXyXyXyXyXyXyXyXyXyXyXyXyXyXyXyXyXyXyX  & c & o #   S ! M.O.! ! { 3.3.! *.%.*.+.@.i + 9 # -   yXyXyXyXyXyXyXyXyXyXyXyXyXyX",
"yXyXyXyXyXyXyXyXyXyXyXyXyXyXyXyXyXyXyXyXyXo & c   o #   ( +.B.&.&.&.! r X &.&.&.M.M.M.F   < 5 w   yXyXyXyXyXyXyXyXyXyXyXyXyXyX",
"yXyXyXyXyXyXyXyXyXyXyXyXyXyXyXyXyXyXyXyXyXo # c   # - + y ( +.M.N.&.N._ i D _ M.&.M.&.D   9 w o   yXyXyXyXyXyXyXyXyXyXyXyXyXyX",
"yXyXyXyXyXyXyXyXyXyXyXyXyXyXyXyXyXyXyXyXyX) & ^ . # ; - O D X.&.N.&.&.&.%.O H &.M.M.O.q   < w # p yXyXyXyXyXyXyXyXyXyXyXyXyXyX",
"yXyXyXyXyXyXyXyXyXyXyXyXyXyXyXyXyXyXyXyXw w e k   # - w   F | &.&.&.&.*.=.  Q V.M.M. .q   9 o ^ E.yXyXyXyXyXyXyXyXyXyXyXyXyXyX",
"yXyXyXyXyXyXyXyXyXyXyXyXyXyXyXyXyXyXyXyX  w / e   # # w < # y O.M.&.&.*.&.X Q *.+.X.X.y   w     yXyXyXyXyXyXyXyXyXyXyXyXyXyXyX",
"yXyXyXyXyXyXyXyXyXyXyXyXyXyXyXyXyXyXyXyX  w z 6   # & w 5 # o A @.V.&.&.&.  Q &.M.J A < @ w o X yXyXyXyXyXyXyXyXyXyXyXyXyXyXyX",
"yXyXyXyXyXyXyXyXyXyXyXyXyXyXyXyXyXyXyX=X. e e 4   # < w w w < # D *.V.&.&.# Q _ &.G 2 + e # - 9 yXyXyXyXyXyXyXyXyXyXyXyXyXyXyX",
"yXyXyXyXyXyXyXyXyXyXyXyXyXyXyXyXyXyXyX- e k z 5 < o o # ; w w o @ Q O.N.;. .r y *.F , o w   G.yXyXyXyXyXyXyXyXyXyXyXyXyXyXyXyX",
"yXyXyXyXyXyXyXyXyXyXyXyXyXyXyXyXyXyXyX  k c e 5 q # @ + - w - - @ < ! N.&.:.q 9  .< # < o   yXyXyXyXyXyXyXyXyXyXyXyXyXyXyXyXyX",
"yXyXyXyXyXyXyXyXyXyXyXyXyXyXyXyXyXyXyX  k k 6 5 9 q o   # 5 w ; 9 O D ;.*.*.y q !   < w   @   yXyXyXyXyXyXyXyXyXyXyXyXyXyXyXyX",
"yXyXyXyXyXyXyXyXyXyXyXyXyXyXyXyXyXyXh.. t z y 5 < 9 #   @   ; 5 < @ < ( *.;.r 2 W   + o       Q yXyXyXyXyXyXyXyXyXyXyXyXyXyXyX",
"yXyXyXyXyXyXyXyXyXyXyXyXyXyXyXyXyXp p e t e w 5 w w #   +   +   # , o y &.:.w 2 J     @   w o . r yXyXyXyXyXyXyXyXyXyXyXyXyXyX",
"yXyXyXyXyXyXyXyXyXyXyXyXyXyXyXyXyX  # v k r 5 w ; w ,   # # # @ + < o q &.V.q 3 G     @ O y p p e k   yXyXyXyXyXyXyXyXyXyXyXyX",
"yXyXyXyXyXyXyXyXyXyXyXyXyXyXyXyXyX  & c k & , w 5 9 #   w w w , @ +   q ~ :.Q y y O , #   , e & u & & . yXyXyXyXyXyXyXyXyXyXyX",
"yXyXyXyXyXyXyXyXyXyXyXyXyXyXyXyXyX  & e k ; # 7 ; w #   w < < < #     < H M.;.( O < < ,   < % h k z c :   X J.yXyXyXyXyXyXyXyX",
"yXyXyXyXyXyXyXyXyXyXyXyXyXyXyXyXyXc & v t 5 < y 9 5 o   w w ; w < < < 2   V.%.(   # q o   w 5 y p c k k h r o   . yXyXyXyXyXyX",
"yXyXyXyXyXyXyXyXyXyXyXyXyXyXyXyXc.c : h t w < 7 9 q o   r 5 9 w < , < #   :.:.(   < 5 ,   w w 5 5 k v d $ &   $ z .   yXyXyXyX",
"yXyXyXyXyXyXyXyXyXyXyXyXyXyXyXyX  ; c v e w < 9 < 9 #   # o w w w w < , @ Q  .F   < < #   w w < & r ; &     $ Y w.f h ] >.yXyX",
"yXyXyXyXyXyXyXyXyXyXyXyXyXyXyXyX  r k l 5 5 5 < 9 9 # . . + < < w y 2 < q   A u   < < o   < w w 5 # + # < + f s.7.[ [ x & yXyX",
"yXyXyXyXyXyXyXyXyXyXyXyXyXyXyXyX  e h c 2 5 ; ; < w . % P 6   @ 5 5 < , u   F y   < ,     ; - r < @ + < 9 5 # g 6.$ m w.Y & - ",
"yX  yXyXyXyXyXyXyXyXyXyXyXyXyXyX  t h d 2 5 w - 9 w # . * e / h . . @ @ +   # o   % u u   + o i 9 . o u w w X . 5 y.m b w..   ",
"yX@ Q H.yXyXyXyXyXyXyXyXyXyXyXyX  * k t < w < w e 5 #   # * j h 6 6 f f 6 6 6 6 6 6 u 6 ,   # # @ @ w # r # r #   n.r.j z -.=.",
"yX- @ 9 yXyXyXyXyXyXyXyXyXyXyXyX  e c t 5 w < w ; 9 #   : % . * ] f.d.8.w.s.w.6.s.] 6 + +     o   # # r #   yXyX  !.n.,.% W.yX",
"yX# - 9     -.yXyXyXyXyXyXyXyXyX& e p < < w < w w ; @   k d h 6 .         . . + + + & 5 5   T.J.  p - # # yXyXyX@ %X<.} 4XyXyX",
"yX# 9 9 - o i N   yXyXyXyXyXyX=.# & 5 < < w w w w w o   p k l t & 9 9 # .   5 y 7 @ # 5 @   T.yXyX# X o =.yXyXyXO $Xq.o yXyXyX",
"yX9 i 0 - 0 - o o X yXyXyXyXyX  u e 5 w w < 5 w w w o   e t t u & & 4 5 o , F @.E   + e & # S.yXyX  w yXyXyXyXyX  %X<.X yXyXyX",
"yX# i 0 - 0 0 - 0 X   - yXyXyXX w w # # e # w < w - o   # 9 w - < w e 5 , G +.+.G @ , & ; t #   yXyXyXyXyXyXyXyX  #X<.  yXyXyX",
"yX# 9 9 0 - - 0 - 0 9 @ w # o   # 9 # +           .     w w < #       , F I +.B.&.S # # : t o   yXyXyXyXyXyXyXyX  #X<.  yXyXyX",
"yX< r 9 0 0 - 0 0 - - 0 # r #     o # # # - @ o z L 6 O , @ O > > , < F | @.&.B.&.I , @ ; c #   yXyXyXyXyXyXyXyX  #X<.  yXyXyX",
"yXp 9 9 - 0 0 - - 0 9 9 9 9 @       o # - # X . #.d.L   O + + < y A G @.o.;.M.M.&.| S # # e #   yXyXyXyXyXyXyXyX  #X<.  yXyXyX",
"yX- @ 9 9 9 0 0 - 0 0 - i 0 -                 . 6.d.L + , 4 , Z G E @.B.&.M.&.M.N.&.@.5 . # .   yXyXyXyXyXyXyXyX  #X<.  yXyXyX",
"yX  o r 9 0 - 0 0 - 0 0 9 0 - - 0 w 9 9 q @ . . s.7.L   7 4 A  .&.M.B.&.&.M.M.&.&.+.X.y   <     yXyXyXyXyXyXyXyX  $Xq.@.yXyXyX",
"yX    i 9 0 - 0 0 - 0 - - 0 0 - - - 9 r - @ & g 7.7.Y   8 7 G +.&.M.B.M.&.&.&.&.&.M.@.q   < o   yXyXyXyXyXyXyXyX  &X~.} c.yXyX",
"yXc.) # 0 9 0 - 0 0 - 0 0 0 - - w 9 9 q #   e s.d.7.P O A G +.M.&.M.M.M.M.&.M.M.&.&.@.y   w +   yXyXyXyXyXyXyXyX-.~.^.t.  yXyX",
"yXyX=.X 0 - 9 9 - 0 - 0 0 - 0 - 9 9 9 < # @ & Y 0.7.P   ! X.M.M.M.&.M.M.&.&.M.&.M.+.| q   w X   yXyXyXyXyXyXyXyXyXo q.j.. yXyX",
"yXyXyXX - 0 9 9 0 - 0 0 - 0 0 0 9 q 1 9 @ O   % s.7.P   %.N.N.&.M.M.&.&.M.&.M.&.M.~ ~ q   w @   yXyXyXyXyXyXyXyXyX+ y.y.  yXyX",
"yXyXyXyX- @ 9 9 0 0 - 0 - q - # < < < , < O   , 6 8 I ( &.&.N.&.&.&.&.*.*.&.&.N.M.J W y   <     yXyXyXyXyXyXyXyXyXO y.l.t.    ",
"yXyXyXyX# r # w - - 0 - 0 9 9 < < < < , < > > O O 2 F X.M.M.M.M.M.M.N.N.N.&.*.O.+.Z A 5 > w o   yXyXyXyXyXyXyXyXyX  l./.^.    ",
"yXyXyXyXyX=.  9 o 5 y , q < < 2 2 < 2 2 , 2 > O + A J X.M.M.+.M.M.M.M.M.M.+.X.! H     O   w @   yXyXyXyXyXyXyXyXyXX ~.(.^.    ",
"yXyXyXyXyXyXyXT.w   O + # , , , , , , , , O O + O O 4 G ( | J | J | J ~ ! ~ H C < < 2 @   w     yXyXyXyXyXyXyXyXyX  /._.^.    ",
"yXyXyXyXyXyXyXyXyXyXyXD.9 o   @   O O O # O O > > O > 5 2 , # 2 2 , < < < < < 3 3 G E A O w     yXyXyXyXyXyXyXyXyX  `._.z.    ",
"yXyXyXyXyXyXyXyXyXyXyXyXo               @ O 2 y A S 4 O   O O   @ + O       @ < y Z.o.A   # @   yXyXyXyXyXyXyXyXyX> k.~.z.    ",
"yXyXyXyXyXyXyXyXyXyXyXyXyXyXyXyXyXyXyXyX  O A ~ O.X.H C 1 2 , > , 2 2 >   < 2 A X.X.Z.D   w     yXyXyXyXyXyXyXyXyXyXX j b.    ",
"yXyXyXyXyXyXyXyXyXyXyXyXyXyXyXyXyXyXyXyX  O y J Z.Z.~ G Z > O , 2 , , + @ | o.o.o.X.O.D O 5 o   yXyXyXyXyXyXyXyXyXyXX v z.    ",
"yXyXyXyXyXyXyXyXyXyXyXyXyXyXyXyXyXyXyXyX  O 7 H O.~ O.~ 7 > > 2 2 2 , > O W o.W D @.! q   q @   yXyXyXyXyXyXyXyXyXyXX j b.    ",
"yXyXyXyXyXyXyXyXyXyXyXyXyXyXyXyXyXyXyXyX    @ # 9 D H D > O > , , 2 2 >   A D < @ q 3     w .   yXyXyXyXyXyXyXyXyXyXX j b.    ",
"yXyXyXyXyXyXyXyXyXyXyXyXyXyXyXyXyXyXyXyX    + 8 * + > >   @ 2 2 < 2 2 <   4 < # * 5 .   # <   yXyXyXyXyXyXyXyXyXyXyXX j z.    ",
"yXyXyXyXyXyXyXyXyXyXyXyXyXyXyXyXyXyXyXyX  & z R 0.L >   O 3 > 2 7 C 2 > . 5 5 * r.#.6 . ;   yXyXyXyXyXyXyXyXyXyXyXyXX x b.    ",
"yXyXyXyXyXyXyXyXyXyXyXyXyXyXyXyXyXyXyXyX# Y.U.= $.#.g + + @ , , < , A , . @ P M . = . X w   yXyXyXyXyXyXyXyXyXyXyXyXX j b.    ",
"yXyXyXyXyXyXyXyXyXyXyXyXyXyXyXyXyXyXyXyXO |.>Xn.P R P 4 C.yX@ + 7 7 4 O + v k ` XXL.B X 9   yXyXyXyXyXyXyXyXyXyXyXyXX j b.    ",
"yXyXyXyXyXyXyXyXyXyXyXyXyXyXyXyXyXyXyXyXo i. X>Xi.` e + yXyXyXw   , 7 1 , M } F.Y.9Xi.@ q   yXyXyXyXyXyXyXyXyXyXyXyXX j b.    ",
"yXyXyXyXyXyXyXyXyXyXyXyXyXyXyXyXyXyXyXyXO o t.8X:Xu.o   yXyXyXyX@ y 2 2 2 . R.XX$ 3Xe.@ q   yXyXyXyXyXyXyXyXyXyXyXyXX j b.    ",
"yXyXyXyXyXyXyXyXyXyXyXyXyXyXyXyXyXyXyXyXX I.}.$ +     yXyXyXyXyX5X# # , Z   I.3X:X.   @ @ yXyXyXyXyXyXyXyXyXyXyXyXyXX v b.    ",
"yXyXyXyXyXyXyXyXyXyXyXyXyXyXyXyXyXyXyXyX. ' m.Y.I.B   yXyXyXyXyXyX=.^ + 4 + ` f.,.}.n ^ J.yXyXyXyXyXyXyXyXyXyXyXyXyXX j z.    ",
"yXyXyXyXyXyXyXyXyXyXyXyXyXyXyXyXyXyXyXyXO * ' I.3Xu.# yXyXyXyXyXyXyXX   >   ` i.u.Y.B . yXyXyXyXyXyXyXyXyXyXyXyXyXyXX l `.    ",
"yXyXyXyXyXyXyXyXyXyXyXyXyXyXyXyXyXyXyXyX+ R g = ,Xh.Q yXyXyXyXyXyXyX5 + 2 @ Y.7X:XX X X yXyXyXyXyXyXyXyXyXyXyXyXyXyXX j z.    ",
"yXyXyXyXyXyXyXyXyXyXyXyXyXyXyXyXyXyXyXyX@ U d.$.o D.yXyXyXyXyXyXyXyXyXyXO X + $ . s.e   yXyXyXyXyXyXyXyXyXyXyXyXyXyXX j b.    ",
"yXyXyXyXyXyXyXyXyXyXyXyXyXyXyXyXyXyXyXyX  U 9.f.  yXyXyXyXyXyXyXyXyXyXyX# 3 > 6 U s.f   yXyXyXyXyXyXyXyXyXyXyXyXyX. m.^.z.    ",
"yXyXyXyXyXyXyXyXyXyXyXyXyXyXyXyXyXyXyXyX+ P Y x . yXyXyXyXyXyXyXyXyXyXyXp @ @ h 6.P & o yXyXyXyXyXyXyXyXyXyXyXyXyX. m.[.n..   ",
"yXyXyXyXyXyXyXyXyXyXyXyXyXyXyXyXyXyXyXyX  / ' $   yXyXyXyXyXyXyXyXyXyXyXyX0   5 ] $ . o yXyXyXyXyXyXyXyXyXyXyXyXyX. y.^.t.u r ",
"yXyXyXyXyXyXyXyXyXyXyXyXyXyXyXyXyXyXyXyX  . u.6X  yXyXyXyXyXyXyXyXyXyXyXyXyX%.. = 6Xu.: yXyXyXyXyXyXyXyXyXyXyXyXyX+ q.y.6 E.yX",
"yXyXyXyXyXyXyXyXyXyXyXyXyXyXyXyXyXyXyXyX  v.L.j.  yXyXyXyXyXyXyXyXyXyXyXyXyXX ` }.9XOXv.t O yXyXyXyXyXyXyXyXyXyXyX. q.j.. yXyX",
"yXyXyXyXyXyXyXyXyXyXyXyXyXyXyXyXyXyXyXyX+ F.j.f 6 % yXyXyXyXyXyXyXyXyXyXyXyX  i.,X`.}.F.* h & yXyXyXyXyXyXyXyXyXyX  l r.+ yXyX",
"yXyXyXyXyXyXyXyXyXyXyXyXyXyXyXyXyXyXyXyX  . x w.d.6 p yXyXyXyXyXyXyXyXyXyXyX& u.,XX . f b 6.* . o yXyXyXyXyXyXyXyX    - yXyXyX",
"yXyXyXyXyXyXyXyXyXyXyXyXyXyXyXyXyXyXyXyX. 6 T w.6.[ P ; yXyXyXyXyXyXyXyXyXyX# . $ [ [ w.d.g.d.w.Y 6 S.yXyXyXyXyXyXX   N yXyXyX",
"yXyXyXyXyXyXyXyXyXyXyXyXyXyXyXyXyXyXyXyXyXyXyXyXyXF.yXyXyXyXyXyXyXyXyXyXyXyXyXyXyXyXyXyXyXyXP.yXyXyXyXyXyXyXyXyXyXyXyXyXyXyXyX",
"yXyXyXyXyXyXyXyXyXyXyXyXyXyXyXyXyXyXyXyXyXyXyXyXyXyXyXyXyXyXyXyXyXyXyXyXyXyXyXyXyXyXyXyXyXyXyXyXyXyXyXyXyXyXyXyXyXyXyXyXyXyXyX",
"yXyXyXyXyXyXyXyXyXyXyXyXyXyXyXyXyXyXyXyXyXyXyXyXyXyXyXyXyXyXyXyXyXyXyXyXyXyXyXyXyXyXyXyXyXyXyXyXyXyXyXyXyXyXyXyXyXyXyXyXyXyXyX"
};
