/* XPM */
static char *result[] = {
/* columns rows colors chars-per-pixel */
"45 90 217 2 ",
"   c #030303",
".  c #0A0404",
"X  c #050905",
"o  c #0A0906",
"O  c #05050A",
"+  c #0B060A",
"@  c #06090A",
"#  c #0B0B0C",
"$  c #130303",
"%  c #130A06",
"&  c #12050A",
"*  c #1B060A",
"=  c #120C0C",
"-  c #1A0C0D",
";  c #190504",
":  c #0E110E",
">  c #13110D",
",  c #1B130E",
"<  c #040412",
"1  c #0A0714",
"2  c #060A11",
"3  c #0D0C13",
"4  c #0D0C1A",
"5  c #060A1A",
"6  c #130D13",
"7  c #1C0D13",
"8  c #120D1A",
"9  c #180E1C",
"0  c #0E1113",
"q  c #0D131C",
"w  c #041616",
"e  c #131213",
"r  c #1B1413",
"t  c #161816",
"y  c #1D1915",
"u  c #13131B",
"i  c #1D1418",
"p  c #16191C",
"a  c #1D1A1A",
"s  c #240A0B",
"d  c #221B0F",
"f  c #2C1C0F",
"g  c #20150D",
"h  c #30190F",
"j  c #220C13",
"k  c #260917",
"l  c #231614",
"z  c #241A14",
"x  c #291A15",
"c  c #22151A",
"v  c #2A151D",
"b  c #241B1A",
"n  c #2A1C1B",
"m  c #291717",
"M  c #341713",
"N  c #35181B",
"B  c #38191E",
"V  c #320E19",
"C  c #1D2316",
"Z  c #21211F",
"A  c #2B211E",
"S  c #3B2C18",
"D  c #161324",
"F  c #161A24",
"G  c #1A1B23",
"H  c #1B1D2B",
"J  c #181526",
"K  c #2D1D22",
"L  c #2A1622",
"P  c #331B24",
"I  c #3A1B25",
"U  c #1E232E",
"Y  c #1A2623",
"T  c #092034",
"R  c #1F2432",
"E  c #222326",
"W  c #22242C",
"Q  c #2B2A2A",
"!  c #282828",
"~  c #322424",
"^  c #3C2124",
"/  c #342329",
"(  c #3D242D",
")  c #392A2A",
"_  c #30322F",
"`  c #232433",
"'  c #252A33",
"]  c #292C34",
"[  c #262A3A",
"{  c #2B2D3A",
"}  c #252739",
"|  c #3E2231",
" . c #3F2E38",
".. c #2C3137",
"X. c #2C343C",
"o. c #2C383B",
"O. c #273231",
"+. c #313333",
"@. c #343C36",
"#. c #32343D",
"$. c #343A3C",
"%. c #393A39",
"&. c #393133",
"*. c #2B332B",
"=. c #472A15",
"-. c #472D1A",
";. c #522D1C",
":. c #4A301C",
">. c #5B371A",
",. c #441C2B",
"<. c #491D27",
"1. c #4C1D30",
"2. c #44222E",
"3. c #4C2827",
"4. c #522C26",
"5. c #53262B",
"6. c #5B272A",
"7. c #45332B",
"8. c #543923",
"9. c #442431",
"0. c #4A2231",
"q. c #422B32",
"w. c #492C33",
"e. c #4B2138",
"r. c #542532",
"t. c #473934",
"y. c #573E38",
"u. c #683024",
"i. c #633B39",
"p. c #693436",
"a. c #3A453B",
"s. c #504321",
"d. c #45403E",
"f. c #5B423C",
"g. c #56443D",
"h. c #494025",
"j. c #7C422B",
"k. c #61453E",
"l. c #774332",
"z. c #2D2B40",
"x. c #2F3640",
"c. c #313541",
"v. c #313941",
"b. c #333D52",
"n. c #523C44",
"m. c #3F4843",
"M. c #474949",
"N. c #474746",
"B. c #5B4242",
"V. c #4D524F",
"C. c #535452",
"Z. c #585755",
"A. c #6F4948",
"S. c #6A5854",
"D. c #625654",
"F. c #7A5E5A",
"G. c #785A52",
"H. c #6B544A",
"J. c #5D665A",
"K. c #76615C",
"L. c #766A40",
"P. c #705B60",
"I. c #7A6963",
"U. c #6A726E",
"Y. c #70706E",
"T. c #6F7071",
"R. c #787676",
"E. c #646464",
"W. c #8D3A38",
"Q. c #86482A",
"!. c #894536",
"~. c #935230",
"^. c #A45737",
"/. c #8E6A38",
"(. c #C97E3D",
"). c #89474A",
"_. c #945546",
"`. c #9E545E",
"'. c #9A4E58",
"]. c #AE564B",
"[. c #94675D",
"{. c #BD7547",
"}. c #825D68",
"|. c #9B6764",
" X c #9E7674",
".X c #CB7947",
"XX c #CD7948",
"oX c #D0784F",
"OX c #CB7555",
"+X c #CF7E74",
"@X c #708874",
"#X c #CC8338",
"$X c #AE8176",
"%X c #B78C78",
"&X c #CF814E",
"*X c #DC8E44",
"=X c #D48357",
"-X c #E09649",
";X c #DDA550",
":X c #D4A642",
">X c #E4A34B",
",X c #E0B346",
"<X c #C28E74",
"1X c #C99963",
"2X c #E5AC66",
"3X c #838383",
"4X c #9B948C",
"5X c #A58A85",
"6X c #B09187",
"7X c #B49088",
"8X c #8AA48D",
"9X c #F3AE9C",
"0X c #ECA89B",
"qX c #F8B7A9",
"wX c #F2ABA4",
"eX c #FBC7B4",
"rX c None",
/* pixels */
"rXrXrXrXrXrXrX            +.rXrXrXrXrXrXrXrXrXrXrXrXrXrXrXrXrXrXrXrXrXrXrXrXrXrXrXrXrXrXrX",
"rXrXrXrXrXrXr e r = , e = C X   e rXrXrXrXrXrXrXrXrXrXrXrXrXrXrXrXrXrXrXrXrXrXrXrXrXrXrXrX",
"rXrXrXrXrXr = b l b c c c , + r = ~ rXrXrXrXrXrXrXrXrXrXrXrXrXrXrXrXrXrXrXrXrXrXrXrXrXrXrX",
"rXrXrXrXe = b c b x x x z z z b , % o . # N.rXrXrXrXrXrXrXrXrXrXrXrXrXrXrXrXrXrXrXrXrXrXrX",
"rXrXrXo t b b z d y l z z A z z A x b b t t m.rXrXrXrXrXrXrXrXrXrXrXrXrXrXrXrXrXrXrXrXrXrX",
"rXrXrXrX# o r b l l z b z z m l g Z A x x y o rXrXrXrXrXrXrXrXrXrXrXrXrXrXrXrXrXrXrXrXrXrX",
"rXrXrXrX: X ! = z b y b , , l g b z y - , > : Q V.rXrXrXrXrXrXrXrXrXrXrXrXrXrXrXrXrXrXrXrX",
"rXrXrXrXrXrXrX> r b z b > = . . b y - .   . r # # rXrXrXrXrXrXrXrXrXrXrXrXrXrXrXrXrXrXrXrX",
"rXrXrXrXrXrXrXrX= # e +     = r z - s ~ ^ r.j # > e rXrXrXrXrXrXrXrXrXrXrXrXrXrXrXrXrXrXrX",
"rXrXrXrXrXrXrXrXX o o X r r , z * 2.<.l j 6.N # Z   rXrXrXrXrXrXrXrXrXrXrXrXrXrXrXrXrXrXrX",
"rXrXrXrXrXrXrXrXo = # o z n l c $ i.).k.y.|.2.= z   rXrXrXrXrXrXrXrXrXrXrXrXrXrXrXrXrXrXrX",
"rXrXrXrXrXrX%.o y b z x , b c 2 % p.<XqX9XqXy.+ y % N.rXrXrXrXrXrXrXrXrXrXrXrXrXrXrXrXrXrX",
"rXrXrXrXrXt e , y l m b b L @ w .  X0XqXqXqXg.  . - > e rXrXrXrXrXrXrXrXrXrXrXrXrXrXrXrXrX",
"rXrXrXrXrX  # b l l b l i 9 2 @ $ 5XeX9XqX|.b O . z % : rXrXrXrXrXrXrXrXrXrXrXrXrXrXrXrXrX",
"rXrXrXrXrX  # b g x c 9 6 # e <.3.H.%X0XqXy.+ o . , o   rXrXrXrXrXrXrXrXrXrXrXrXrXrXrXrXrX",
"rXrXrXrXrX  o l l b i 6 = X N '.`.^ B.qXwXg.6 # . Z o   rXrXrXrXrXrXrXrXrXrXrXrXrXrXrXrXrX",
"rXrXrXrXrX  o y     .   > # 2 * }.].i.* X w 8 4 8   9 r o rXrXrXrXrXrXrXrXrXrXrXrXrXrXrXrX",
"rXrXrXrXrX  o > % o   o > o S /.) B L = L.7.+ < 2   > r X rXrXrXrXrXrXrXrXrXrXrXrXrXrXrXrX",
"rXrXrXrXrX  X > y > X e 3 @ >.-X8.8.s.>.,X>.q 0 X O # # o V.rXrXrXrXrXrXrXrXrXrXrXrXrXrXrX",
"rXrXrXrXrX  o y c # o t : 5 ;.#X1X2X>X>X;X>.T W O @ O + e # M.rXrXrXrXrXrXrXrXrXrXrXrXrXrX",
"rXrXrXrXrX  o r z o o # + F U $ - Q.*X:Xr C b.o.X.c.] 8   # t ..rXrXrXrXrXrXrXrXrXrXrXrXrX",
"rXrXrXrX  = r z # 6 O   W X.x.U W Q -.h.U O.#.o.x.X.} 9   > : t %.rXrXrXrXrXrXrXrXrXrXrXrX",
"rXrXrXrX  r a i 6 # < u ..x.x.x.x.U t   X.o.X.o.X.{ [ 8 O 0 : #   rXrXrXrXrXrXrXrXrXrXrXrX",
"rXrXrXrX  r c e u < 1 W [ X.x.x.v.o.' p F ] X.o.X.[ ` e X 0 : #   rXrXrXrXrXrXrXrXrXrXrXrX",
"rXrXrXrX  = l 6 6 O 1 J H ' x.X.X.x.o...O ' X.o...R F 4 X e 0 #   rXrXrXrXrXrXrXrXrXrXrXrX",
"rXrXrXrX  e i =   o 0 O 2 q [ x.X.x.$.#.  ` X.o.x.H 4 < @ t e #   rXrXrXrXrXrXrXrXrXrXrXrX",
"rXrXrXrX  l i +   @ e 3 o @ q ` X.#.o.o.O U #.{ W 3 @ 3 e : t X   rXrXrXrXrXrXrXrXrXrXrXrX",
"rXrXrXC.- x 6   O # e e # X 3 W z.#.o.o.O W $.+.G O @ u e 0 # t @.rXrXrXrXrXrXrXrXrXrXrXrX",
"rXrXrX= , x 7   # e 0 3 e X 1 H { v.o...2 U { { F # @ e o t @ t 3XrXrXrXrXrXrXrXrXrXrXrXrX",
"rXrXrX  z l i + O # e e 3 6 @ @ H z.o...O.q W W 1 2 3 t 0 0 # # rXrXrXrXrXrXrXrXrXrXrXrXrX",
"rXrXrX  r x i # o @ + + # e o   F z.o.o.v.u G F O 3 u 3 o @ @.C.rXrXrXrXrXrXrXrXrXrXrXrXrX",
"rXrXrX  x b 6 6 e @ O # # 3 3 o u } x.X.o.u p F   u e       rXrXrXrXrXrXrXrXrXrXrXrXrXrXrX",
"rXrXrX  c b 6 3 u @ @ r + + = # + u ` z.#.F u u O 3 @     X rXrXrXrXrXrXrXrXrXrXrXrXrXrXrX",
"rXrXrX  z l t 3 u O O r e 3   X # # 4 ` { u u a       o c .   E rXrXrXrXrXrXrXrXrXrXrXrXrX",
"rXrXrX. b r 8 3 t O   8 6 6 > % & + # 3 Q 8 F u O O   o e , a t e X rXrXrXrXrXrXrXrXrXrXrX",
"rXV.d.% b 6 3 0 0 @ + 6 6 i A z = + O O e 1 8 3 + 2 X   o = a z = > Q rXrXrXrXrXrXrXrXrXrX",
"rX# > z l 6 q 0 : @ + 6 8 r x z c & X e   u 3 O + 3 O X X t e b l n 0   X rXrXrXrXrXrXrXrX",
"rX  # d l 9 1 0 e X   t # 6 e r z g #   O J 2   # e O + 6 3 r y z d y z Z .   e rXrXrXrXrX",
"rX  # d z 9 1 e =   @ e 3 3 6 r i r 3 o   J 2   # e + X 6 6 e r z z x x x . l v r X rXrXrX",
"rX  % d x u 1 e 0 X   + 6 0 3 3 6 8 e #   J 3   e e O O e 6 e e r z m 7 = j P ,.i r / rXrX",
"rX  # d x 9 1 0 e +   & # 3 3 3 8 1 6 >   D 2   6 # O O e 0 e 6 e r x 6 + / 9.1.2.( 7 Q U.",
"rX  & d l 9 3 # t X 7 K +   @ 3 8 8 2 =   J # O +     + 0 0 u e 6 # .     & L P $ w.0.L t ",
"  = g d b 6 4 q 0 o + - x P 7 + o O X o   + X O + P 7 @ 0 e t # e # o   # # - N ;.c ,.n   ",
"  e f d b e 3 u # + o = c c j k k k 7 - 7 j - 6 7 v 7 @ 0 X # t e e # o > 6 X h Q.K V E %.",
"  = x l i 6 3 4 0 X = y $   r I e.1.| | 9.9.( ( /   o #   e X e # X # e 0 # @ x W.y.I *.rX",
"  r x r r e 3 0 u @ # c l c 6 +     .     . + & + 0 0 3 o rX! + p   o e o o   -.OX& D.@XrX",
"  6 c 6 e t 0 q 0 o # c x l r % e 0 3 @ O # p a   e 6 t   rXE.%.# # : > # C.E :.OXo J.8XrX",
"  = 6 e 3 q 0 0 :   = z b b g - m - 3 2 O u { Y   9 c r O rXrXrX6 e # e # rX  =.oX  a.rXrX",
"  o + e # e 0 0 3 o % y l b , > a > 3 e   u z.K O e p r   rXrXrXrXt : E rXrXX =..X. rXrXrX",
"    e >       . .   # z x y r , y e 3 e   u { E   6 r r   rXrXrXrXrXrXrXrXrX  =..X  rXrXrX",
"  X O o X . = L v # o c x r r y t 6 3 e   u z.W   e r r   rXrXrXrXrXrXrXrXrX  =..X  rXrXrX",
"  X     @ o j 0.9.7 o x b r r y 6 e 3 e   8 z.W   e a e X rXrXrXrXrXrXrXrXrX  =.XX  rXrXrX",
"    .       j <.,.r o b x i r c e 6 3 e   u { U   6 r e   rXrXrXrXrXrXrXrXrX  =.XX. rXrXrX",
"rXrXrXrXrX7 j ,.2.- # b c l z y 3 4 e # < 4 ] U   e r r   rXrXrXrXrXrXrXrXrX  :.(.o $.4XrX",
"rXrXrXrXE n V 1.2.- # b c l y y 3 4 # O 4 R #.K   e p r   rXrXrXrXrXrXrXrXrX  4.=X<. .t.rX",
"rXrXrXrX  P r.1.1.- o b x x l e 6 0 o O H z.#.E   6 y r   rXrXrXrXrXrXrXrXrX@.t.l.!.B O rX",
"rXrXrXrX# v ,.1.2.- # x l x y 6 0 0 # O K z.c.W   r y e   rXrXrXrXrXrXrXrXrXrXa.% j.x Y rX",
"rXrXrXrXrXK j <.2.- # b l z 7 6 3 e #   U R v.E   6 p r   rXrXrXrXrXrXrXrXrXrXN.2 j.f 2 rX",
"rXrXrXrX  = l 7 7 = , x z z r 3 u 4 @ O H R b.Y   6 a r   rXrXrXrXrXrXrXrXrXrXrX< Q.u.,.  ",
"rXrXrXrX  , r % - , l x x z r 8 8 3 1 O H z.v.Y   # y >   rXrXrXrXrXrXrXrXrXrXrXO ^.!.r.  ",
"rXrXrXrX  > l , y z l x z y 6 8 u 3 # O G [ ] G X # y 7   rXrXrXrXrXrXrXrXrXrXrX  {.^.5.  ",
"rXrXrXrX  , r z y y l x l e 6 6 e e o O F G u 2 O 6 y e   rXrXrXrXrXrXrXrXrXrXrX. oX^.5.  ",
"rXrXrXrX  r z y z y l l l 6 8 6 6 #   O 3 4 @ O   > y r   rXrXrXrXrXrXrXrXrXrXrXo XX^.5.  ",
"rXrXrXrX  , z z z z z x c i + u #       < 2 u 3 O 6 t 6   rXrXrXrXrXrXrXrXrXrXrX% Q.!.5.  ",
"rXrXrXY.= z x z d l x b c e # e 3 X   O 8 H z.F   u e @   rXrXrXrXrXrXrXrXrXrXrXrX  4.6.  ",
"rXrXrXe % r d A d l x c y e o e # O   O ` } R F O 3 t o   rXrXrXrXrXrXrXrXrXrXrXrX  4.6.X ",
"rXrXrX  Z z z d z d b c r e # e + O   @ ` [ H u p @ 2 #   rXrXrXrXrXrXrXrXrXrXrXrX  4.6.  ",
"rXrXrX  z b x x d d b l e # e 3 X O 1 O D ` q + t   # e   rXrXrXrXrXrXrXrXrXrXrXrX  4.6.  ",
"rXrXrX  z b , f d l z l = 3 e #   @ @ O 4 H p 7 7 . # @   rXrXrXrXrXrXrXrXrXrXrXrX  4.6.  ",
"rXrXrX  z n g z f d z z 6 3 e # O 1 1   ] 6 v 7.(   w @   rXrXrXrXrXrXrXrXrXrXrXrX  4.6.X ",
"rXrXrX. l l z l x d x i 6 3 # O < 3 1 O   n j X +   0 =   rXrXrXrXrXrXrXrXrXrXrXrX  4.6.  ",
"rXrXrX  n l f z x z y 6 6 e @   1 4 & + / l B.}.H.$ @ :   rXrXrXrXrXrXrXrXrXrXrXrX  4.6.  ",
"rXV.a.# n x x x x b y 6 8 u o   1 4 2 & n ) H.|.7Xs : @   rXrXrXrXrXrXrXrXrXrXrXrX  4.6.  ",
"rX# e c x x n l l n 7 6 9 t #   3 1 1 3 $ F.t.7.6X. : o   rXrXrXrXrXrXrXrXrXrXrXrX  4.6.  ",
"rX  o z m x z f l 9 8 1 = e #   4 4 5 8 . G.<XK..   2 3   rXrXrXrXrXrXrXrXrXrXrXrX  4.6.  ",
"rX  X z z x y d l 9 8 8 3 e + O 3 1 8 2 o ) q.f.H.o # 3   rXrXrXrXrXrXrXrXrXrXrXrX  4.4.  ",
"rX  o z d x l r r 6 3 6 0 # + O 1 4 3 2 . ~ 7.k.K.  : :   rXrXrXrXrXrXrXrXrXrXrXrX  4.6.  ",
"rX  o d l x , r e 6 0 e : o   2 1 4 5 1 % H.%XK.%   O @   rXrXrXrXrXrXrXrXrXrXrXrX  4.6.  ",
"rX  o Z g m , 7 6 3 : 0 0   X 3 1 1 8 3 # # $ k  .O 3 :   rXrXrXrXrXrXrXrXrXrXrXrX  4.6.  ",
"rX  : Z = 7 = e 6 e e 0 e O O # 6 2 1 8 4 2 k I | O 0 : X rXrXrXrXrXrXrXrXrXrXrXX _.!.4.  ",
"rX@.X e # u e 3 e 0 e 3 6 1 @ @ + @ 3 4 1 2 K ^ I + # #   rXrXrXrXrXrXrXrXrXrXrXX ]._.4.  ",
"rXrXrX# @ u 3 0 0 0 e 0 e @ @ 3 O O   e @ @ v P -   # e   rXrXrXrXrXrXrXrXrXrXrXX W.l.w.t ",
"rXrXrX3X# 8 0 3 3 e t 0 3 @ Q rXrXrXrXR.:   ; 7.5X. > 3   rXrXrXrXrXrXrXrXrXrXrX  ).N / T.",
"rXrXZ.&.K 7 O # 3 e e e 3 X o rXrXrXrXrXM.Z t.[.6X  X @   rXrXrXrXrXrXrXrXrXrXrX  ).x . rX",
"rXrXrX. ~ c 9 6 # # 3 # # X e rXrXrXrXrXrX  }.$XG.$ = 8 e rXrXrXrXrXrXrXrXrXrXrX. 4.z rXrX",
"rXrXrX  % P 0.,.*     o . # a.rXrXrXrXrXrXo P.S.- + P 1.( . . +.rXrXrXrXrXrXrXrXO X rXrXrX",
"rXrXrX% P 2.,.2.( = +.rXrXrXrXrXrXrXrXrXrX: = s I I 0.,.e.( I n = rXrXrXrXrXrXrXX o rXrXrX",
"rXrXR.rXrXrXrXrXrXrXrXrXrXrXrXrXrXrXrXrXrXrXN.rXrXrXrXrXrXrXrXrXrXrXrXrXrXrXrXrXrXrXrXrXrX",
"rXrXrXrXrXrXrXrXrXrXrXrXrXrXrXrXrXrXrXrXrXrXrXrXrXrXrXrXrXrXrXrXrXrXrXrXrXrXrXrXrXrXrXrXrX",
"rXrXrXrXrXrXrXrXrXrXrXrXrXrXrXrXrXrXrXrXrXrXrXrXrXrXrXrXrXrXrXrXrXrXrXrXrXrXrXrXrXrXrXrXrX"
};
