/* XPM */
static char *result[] = {
/* columns rows colors chars-per-pixel */
"36 90 173 2 ",
"   c #1B070A",
".  c #1C160B",
"X  c #000815",
"o  c #010C1B",
"O  c #0F0B14",
"+  c #150F17",
"@  c #05121F",
"#  c #08121B",
"$  c #1A1E1C",
"%  c #370E07",
"&  c #201404",
"*  c #251909",
"=  c #2C1C0C",
"-  c #331D0D",
";  c #220F12",
":  c #381310",
">  c #321C1C",
",  c #2D2010",
"<  c #332313",
"1  c #3D2918",
"2  c #041525",
"3  c #071A2A",
"4  c #091D2D",
"5  c #171820",
"6  c #101B28",
"7  c #191B24",
"8  c #1D242E",
"9  c #0E2333",
"0  c #112636",
"q  c #142B3B",
"w  c #192F3E",
"e  c #1B2935",
"r  c #1B313F",
"t  c #252124",
"y  c #36342C",
"u  c #282D34",
"i  c #203039",
"p  c #2C383B",
"a  c #37383A",
"s  c #491A0F",
"d  c #442F1D",
"f  c #5D2C1C",
"g  c #46311F",
"h  c #482F2A",
"j  c #443423",
"k  c #463A29",
"l  c #493726",
"z  c #483630",
"x  c #473C3A",
"c  c #503C37",
"v  c #6E3E2A",
"b  c #5B402E",
"n  c #40403C",
"m  c #5C4B3A",
"M  c #5F453B",
"N  c #794931",
"B  c #1C3344",
"V  c #213645",
"C  c #243947",
"Z  c #233A4A",
"A  c #293E4D",
"S  c #383F47",
"D  c #2C424E",
"F  c #3E454B",
"G  c #2E4350",
"H  c #324652",
"J  c #364955",
"K  c #394B56",
"L  c #3C4D59",
"P  c #3F505B",
"I  c #484848",
"U  c #5C4840",
"Y  c #514E4E",
"T  c #42525D",
"R  c #4C5355",
"E  c #545C5F",
"W  c #674C42",
"Q  c #68504C",
"!  c #6D5D4A",
"~  c #745546",
"^  c #765748",
"/  c #65695F",
"(  c #7D6957",
")  c #465661",
"_  c #485762",
"`  c #4C5A64",
"'  c #4D5E6A",
"]  c #505D66",
"[  c #525F68",
"{  c #4D606C",
"}  c #55626B",
"|  c #5A666E",
" . c #556671",
".. c #586671",
"X. c #5D6A73",
"o. c #5E6F79",
"O. c #576975",
"+. c #66696D",
"@. c #706D6C",
"#. c #606E76",
"$. c #616F78",
"%. c #687377",
"&. c #65747D",
"*. c #737376",
"=. c #7E7E7E",
"-. c #865D49",
";. c #8C5C41",
":. c #86624F",
">. c #9C6F4F",
",. c #8B6D5B",
"<. c #856B5A",
"1. c #926B57",
"2. c #946E5A",
"3. c #8F725F",
"4. c #98725E",
"5. c #A57758",
"6. c #AB7F5E",
"7. c #8E7966",
"8. c #8A7663",
"9. c #977B68",
"0. c #857F7C",
"q. c #A57E6C",
"w. c #84807E",
"e. c #9E8674",
"r. c #958778",
"t. c #A1826C",
"y. c #B28665",
"u. c #B68B69",
"i. c #B88D6A",
"p. c #AF906A",
"a. c #A08977",
"s. c #AD8877",
"d. c #AA8C7A",
"f. c #A6907D",
"g. c #C3A669",
"h. c #667680",
"j. c #687781",
"k. c #6A7984",
"l. c #6D7D8A",
"z. c #707E89",
"x. c #6F808C",
"c. c #71818E",
"v. c #758692",
"b. c #778894",
"n. c #788B96",
"m. c #7A8E9A",
"M. c #7D929E",
"N. c #7F94A0",
"B. c #898683",
"V. c #888985",
"C. c #94978C",
"Z. c #AB9683",
"A. c #BA9786",
"S. c #AFA18A",
"D. c #B1A68F",
"F. c #B4AB95",
"G. c #B6AD99",
"H. c #8196A4",
"J. c #8498A7",
"K. c #869AAA",
"L. c #C0A18D",
"P. c #C7AF89",
"I. c #C5AE99",
"U. c #C5AA96",
"Y. c #C7B09C",
"T. c #C9B29E",
"R. c #CDBBA4",
"E. c #C6B6A1",
"W. c #D1C3AB",
"Q. c #D6CDB5",
"!. c #D8CFB9",
"~. c #DAD2BC",
"^. c None",
/* pixels */
"^.^.^.^.^.^.^.^.^.^.^.^.^.^.^.s.y.2.1.1.4.^.^.^.^.^.^.^.^.^.^.^.^.^.^.^.",
"^.^.^.^.^.^.^.^.^.^.^.^.^.^.2.s.A.D.D.L.L.^.^.^.^.^.^.^.^.^.^.^.^.^.^.^.",
"^.^.^.^.^.^.^.^.^.^.^.^.^.^.2.,.,.7.3.f.U.Y.Y.^.^.^.^.^.^.^.^.^.^.^.^.^.",
"^.^.^.^.^.^.^.^.^.^.^.^.^.,.m , * * * k a.W.R.^.^.^.^.^.^.^.^.^.^.^.^.^.",
"^.^.^.^.^.^.^.^.^.^.^.^.^.l < & * * * * m T.~.~.^.^.^.^.^.^.^.^.^.^.^.^.",
"^.^.^.^.^.^.^.^.^.^.^.^.^.* * * * * & * k G.~.~.^.^.^.^.^.^.^.^.^.^.^.^.",
"^.^.^.^.^.^.^.^.^.^.^.^.^.l * * * * * * k G.Q.Q.^.^.^.^.^.^.^.^.^.^.^.^.",
"^.^.^.^.^.^.^.^.^.^.^.^.^.d * & * * * * y F.Q.Q.^.^.^.^.^.^.^.^.^.^.^.^.",
"^.^.^.^.^.^.^.^.^.^.^.^.^.g * * * * * * k D.W.W.^.^.^.^.^.^.^.^.^.^.^.^.",
"^.^.^.^.^.^.^.^.^.^.^.^.^.1 * = = = - = k S.W.R.^.^.^.^.^.^.^.^.^.^.^.^.",
"^.^.^.^.^.^.^.^.^.^.^.^.^.c d = = = = < ! Y.E.R.^.^.^.^.^.^.^.^.^.^.^.^.",
"^.^.^.^.^.^.^.^.^.^.^.^.^.^.< = = = = < ( T.T.^.^.^.^.^.^.^.^.^.^.^.^.^.",
"^.^.^.^.^.^.^.^.^.^.^.^.^.^.- = = = = < ( U.^.^.^.^.^.^.^.^.^.^.^.^.^.^.",
"^.^.^.^.^.^.^.^.^.^.^.^.^.^.= = = = = = ^.^.^.^.^.^.^.^.^.^.^.^.^.^.^.^.",
"^.^.^.^.^.^.^.^.^.^.^.^.^.^.= = = = = * ^.^.^.^.^.^.^.^.^.^.^.^.^.^.^.^.",
"^.^.^.^.^.^.^.^.^.^.^.^.^.^.= = = = - j ^.^.^.^.^.^.^.^.^.^.^.^.^.^.^.^.",
"^.^.^.^.^.^.^.^.^.^.^.^.^.^.^.= = = < 8.^.^.^.^.^.^.^.^.^.^.^.^.^.^.^.^.",
"^.^.^.^.^.^.^.^.^.^.^.^.^.^.^.g.P.R.W.Q.^.^.^.^.^.^.^.^.^.^.^.^.^.^.^.^.",
"^.^.^.^.^.^.^.^.^.^.^.^.2 q A / 7.9.t.t.p.g.^.^.^.^.^.^.^.^.^.^.^.^.^.^.",
"^.^.^.^.^.^.^.^.^.^.^.2 9 C J ] +.@.*.w.V.C.V.%.| ^.^.^.^.^.^.^.^.^.^.^.",
"^.^.^.^.^.^.^.^.^.o 4 q D P } %.&.&.&.l.M.H.M.c.#.} } ^.^.^.^.^.^.^.^.^.",
"^.^.^.^.^.^.^.^.2 4 q Z K } &.k.l.l.l.l.b.N.M.c.&.X.| ^.^.^.^.^.^.^.^.^.",
"^.^.^.^.^.^.^.6 q A K ` X.j.x.c.v.l.z.b.b.m.H.m.l.j.&.' K ^.^.^.^.^.^.^.",
"^.^.^.^.^.o 0 A J ) | X.h.v.v.v.v.n.n.n.n.m.H.H.v.c.l.l.X._ ^.^.^.^.^.^.",
"^.^.^.^.^.r K _ } $.j.c.n.m.m.m.m.M.M.M.N.H.H.K.M.m.n.v.v.h.L V ^.^.^.^.",
"^.^.^.^.8 T ] X.$.j.x.b.M.M.M.M.N.M.J.H.K.K.K.K.K.H.N.m.m.l...T ^.^.^.^.",
"^.^.^.@ r T | X.&.l.c.v.m.M.M.M.M.M.K.K.K.K.K.K.K.K.J.H.J.M.l.[ L ^.^.^.",
"^.^.^.4 C _ X.#.&.x.c.v.b.m.M.M.N.M.K.K.K.K.K.K.K.K.K.K.K.K.J.l.} ^.^.^.",
"^.^.o 4 r T X.&.k.c.b.v.b.m.M.M.M.M.K.K.K.K.K.K.K.K.K.K.K.K.K.M.O.H ^.^.",
"^.^.@ 4 V T X.&.l.c.c.v.v.m.M.M.M.M.K.K.K.K.K.K.K.K.K.K.K.K.J.H.n.O.^.^.",
"^.^.2 9 V T X.&.l.l.c.b.v.b.M.M.M.N.K.K.K.K.K.K.K.K.K.K.K.K.K.N.n.' ^.^.",
"^.^.2 e Z T X.l.l.l.c.b.v.b.m.M.M.N.H.K.K.K.K.K.K.K.K.K.K.K.K.N.M.o.^.^.",
"^.^.3 B D ` #.k.l.l.v.v.v.b.m.M.M.M.M.N.J.K.K.K.K.K.K.K.K.K.N.N.m.x.{ ^.",
"^.^.4 r K } &.x.l.l.l.v.v.b.M.M.M.M.M.M.N.J.K.K.K.K.K.K.K.K.J.N.m.b. .^.",
"^.o 3 r K } &.&.l.l.l.x.v.v.b.m.M.M.N.M.N.N.J.J.K.K.K.K.K.K.J.N.M.b.O.^.",
"^.2 9 C H { o.j.l.l.l.l.v.v.n.m.M.N.M.M.M.N.N.N.J.K.K.K.K.K.N.m.n.v.h.C ",
"@ 2 9 Z P } &.j.l.l.l.l.v.v.v.n.M.N.M.M.M.M.M.M.N.N.J.K.K.N.N.m.n.b.l.$.",
"o 4 q G _ o.&.h.l.l.l.l.v.v.v.m.m.M.M.M.M.M.N.M.N.N.N.K.J.N.N.n.b.v.l. .",
"o 4 r G _ X.&.&.h.l.l.l.c.v.v.n.M.M.M.M.M.M.M.M.M.M.N.N.N.m.M.m.b.c.l.&.",
"o 4 r J ` &.&.&.&.l.l.l.x.v.v.m.M.M.M.M.M.M.M.M.M.N.N.N.M.N.m.v.v.l.l.h.",
"o 4 r J ] #.&.&.&.h.l.l.x.v.v.n.M.M.M.M.M.M.M.M.M.M.M.M.M.m.b.v.v.l.l.` ",
"o 4 r J ] } | #.&.l.l.l.x.v.v.v.m.M.M.M.M.M.M.M.M.M.M.M.M.n.v.v.v.j.h.X.",
"o 4 r H K L T T } &.l.l.x.v.v.v.n.M.M.M.M.M.M.M.N.M.M.n.v.c.v.l.l.#...[ ",
"o 4 r H H D D H L } $.l.l.c.v.v.n.M.M.M.M.M.m.m.m.m.v.x.k.j.j.j.#.X.[ T ",
"@ 4 q D D C B B A ` X.&.k.l.x.v.v.m.m.m.n.b.v.v.v.c.h.$.#.....o.| [ T H ",
"o 4 q B r 0 0 0 0 C ` ..&.l.l.c.v.v.v.v.v.v.v.v.v.k.` _ _ _ _ ) _ T K D ",
"o 3 9 0 9 9 4 4 4 4 J [ o.&.k.c.v.v.v.v.v.v.v.v.v.h.J A H J K J J J G B ",
"o 3 3 4 3 3 2 @ o + S ) | &.k.l.x.v.v.v.v.v.v.v.x.[ V w B V Z A A Z B ^.",
"X o 7 W -.-.z X X   8 G ) ' ..&.l.c.v.v.v.v.v.v.%.W ` A w 9 9 0 q q q ^.",
"^.^.-.-.-.-.t X o   % s f v N ;.>.0.w.w.w.B.B.0.:.^ #.T A B M ~ x a a ^.",
"^.^.-.-.-.-.t X o O ; > h m ~ <.7.i.i.i.u.y.y.y.5.3.%.| L C a -.-.-.-.^.",
"^.^.-.-.-.-.t o 2 4 q B H _ | h.c.Z.Z.Z.f.e.e.e.e.r.z.$.' J I -.-.-.-.^.",
"^.^.-.-.-.c 6 4 9 B A L [ #.k.z.v.M.M.M.M.M.m.m.b.v.v.l.X._ Y -.-.-.-.^.",
"^.^.^.^.^.5 2 9 0 B J ] #.h.l.z.v.M.M.M.M.M.M.M.m.n.v.v.k.' F -.-.-.-.^.",
"^.^.^.^.^.X @ 0 B Z T [ o.j.l.z.v.n.M.M.M.M.M.M.N.m.m.b.l. .Z ^.^.^.^.^.",
"^.^.^.^.^.X 2 r J [ [ ..o.j.l.z.v.v.M.M.M.M.M.M.M.M.N.N.m.h.G ^.^.^.^.^.",
"^.^.^.^.^.X 4 B L ' } | #.%.&.z.x.b.M.M.M.M.N.M.M.M.M.M.m.X.A ^.^.^.^.^.",
"^.^.^.^.^.o 3 B J _ [ } #.#.&.l.x.v.N.N.M.M.M.M.M.M.N.M.n. .A ^.^.^.^.^.",
"^.^.^.^.^.o 2 9 H T ' } X.$.j.l.v.v.J.N.N.N.M.M.M.M.M.M.b.` w ^.^.^.^.^.",
"^.^.^.^.^.o 2 0 A L ` } X.X.&.l.x.m.N.K.K.J.H.N.M.M.M.m.x. .V ^.^.^.^.^.",
"^.^.^.^.^.o 3 0 Z L T } | X.&.j.x.m.M.K.K.K.K.J.N.M.M.n.x. .C ^.^.^.^.^.",
"^.^.^.^.^.X 2 0 Z H P } | +.&.k.l.v.N.J.K.K.K.K.J.M.M.n.v.o.H ^.^.^.^.^.",
"^.^.^.^.^.o 3 9 r D P T | #.&.j.l.v.N.K.K.K.K.K.N.M.m.v.h.) C ^.^.^.^.^.",
"^.^.^.^.^.o 2 9 r Z D P { X.&.k.l.v.N.K.K.K.K.N.M.M.n.v.l.| C ^.^.^.^.^.",
"^.^.^.^.^.o 3 9 B B G K ) X.#.j.l.v.M.K.K.K.J.H.M.n.v.v.l.} Z ^.^.^.^.^.",
"^.^.^.^.^.o 3 9 B Z G K ) } X.&.l.v.M.J.K.K.H.M.M.v.v.v.l.[ C ^.^.^.^.^.",
"^.^.^.^.^.o 2 9 q B G L ` | X.&.l.v.n.H.K.J.N.M.m.v.v.v.l.X.J ^.^.^.^.^.",
"^.^.^.^.^.o 2 9 B B G K ) [ ..&.h.v.v.H.K.K.H.M.m.b.v.v.l.o.L ^.^.^.^.^.",
"^.^.^.^.^.X 3 9 q B G J T ] | #.j.v.b.H.K.J.N.M.m.v.v.v.x.X.J ^.^.^.^.^.",
"^.^.^.^.^.X o 3 9 B G H _ | | #.&.l.v.m.K.K.J.N.M.b.v.z.&...J ^.^.^.^.^.",
"^.^.^.^.^.X o 3 0 Z D J _ | | #.X.l.v.n.H.H.M.M.m.v.v.c.&.| K ^.^.^.^.^.",
"^.^.^.^.^.X 2 4 q Z G L E } | #.| l.v.n.M.M.M.M.m.n.v.c.h.X.} ^.^.^.^.^.",
"^.^.^.^.^.X 2 9 q Z G P ` | X.| | c.c.m.M.M.M.M.m.v.v.c.&.X.} ^.^.^.^.^.",
"^.^.^.^.^.X o 3 0 B G K _ } | } } &.c.b.M.M.M.M.m.v.v.z.j..._ ^.^.^.^.^.",
"^.^.^.^.^.X o 3 9 B D J T } } } } +.l.m.M.M.M.M.m.v.v.c.&.| T ^.^.^.^.^.",
"^.^.^.^.^.X o 3 9 B D J _ } } _ T | c.c.b.m.M.H.n.v.v.z.h.| T ^.^.^.^.^.",
"^.^.^.^.^.X 2 9 B B G P ) ' ) T T | x.v.v.v.v.m.m.b.c.c.&.X.} ^.^.^.^.^.",
"^.^.^.^.^.X o 3 0 B G P T ) T K J } k.c.v.v.v.v.v.v.b.l.&.| _ ^.^.^.^.^.",
"^.^.^.^.^.^.o 3 0 Z G K T T K H H ` &.x.b.b.v.v.v.v.v.j.X.] ^.^.^.^.^.^.",
"^.^.^.^.^.^.@ 4 9 Z H P P J J H D T X.x.c.v.v.v.v.v.c.&.X.R ^.^.^.^.^.^.",
"^.^.^.^.^.^.. . $ V G L H G G D Z P X.l.x.c.v.c.b.b.c.&.n * ^.^.^.^.^.^.",
"^.^.^.^.^.^.& & . w G H G D Z Z B K  .l.k.x.x.c.v.c.b.I , . & ^.^.^.^.^.",
"^.^.^.^.^.^.& & & & p H D B B Z B G } j.l.l.x.x.l.l.E & & & ^.^.^.^.^.^.",
"^.^.^.^.^.^.^.& & & & & : p B w q G ) &.l.l.l.Q - & & & & & ^.^.^.^.^.^.",
"^.^.^.^.^.^.^.^.& & & & & & & & $ 8 a y & & & & & & & & & ^.^.^.^.^.^.^.",
"^.^.^.^.^.^.^.^.^.& & & & & & & & & & & & & & & & & & & ^.^.^.^.^.^.^.^.",
"^.^.^.^.^.^.^.^.^.^.& & & & & & & & & & & & & & & & & ^.^.^.^.^.^.^.^.^.",
"^.^.^.^.^.^.^.^.^.^.^.^.& & & & & & & & . & & & & ^.^.^.^.^.^.^.^.^.^.^.",
"^.^.^.^.^.^.^.^.^.^.^.^.^.& & & & & & & & & & & ^.^.^.^.^.^.^.^.^.^.^.^.",
"^.^.^.^.^.^.^.^.^.^.^.^.^.^.^.& & & & & & ^.^.^.^.^.^.^.^.^.^.^.^.^.^.^."
};
