/* XPM */
static char *result[] = {
/* columns rows colors chars-per-pixel */
"36 90 192 2 ",
"   c #1F070C",
".  c #1C080E",
"X  c #1E160D",
"o  c #0C0D1C",
"O  c #190912",
"+  c #130B17",
"@  c #0F131B",
"#  c #151415",
"$  c #1A1718",
"%  c #260506",
"&  c #280404",
"*  c #220609",
"=  c #2B1505",
"-  c #281804",
";  c #21170C",
":  c #2A1909",
">  c #301C08",
",  c #331808",
"<  c #271715",
"1  c #361011",
"2  c #35210A",
"3  c #39230C",
"4  c #2E211C",
"5  c #060F22",
"6  c #090E21",
"7  c #041024",
"8  c #0B1425",
"9  c #07142A",
"0  c #09132C",
"q  c #07182E",
"w  c #08192E",
"e  c #141B29",
"r  c #171A26",
"t  c #0C1531",
"y  c #0B1C35",
"u  c #0D1E39",
"i  c #121D33",
"p  c #1E242B",
"a  c #0D243C",
"s  c #10233E",
"d  c #142534",
"f  c #24262B",
"g  c #2D2D2D",
"h  c #3A362F",
"j  c #3D3830",
"k  c #44180C",
"l  c #591712",
"z  c #440D0B",
"x  c #49251F",
"c  c #4D2511",
"v  c #692819",
"b  c #7D281D",
"n  c #411C20",
"m  c #4C2628",
"M  c #4C3D3C",
"N  c #533C2C",
"B  c #62362D",
"V  c #7D3B31",
"C  c #5C4C34",
"Z  c #544936",
"A  c #5F5036",
"S  c #57452B",
"D  c #635337",
"F  c #6E5B3A",
"G  c #755F3B",
"H  c #7C643C",
"J  c #0E2A42",
"K  c #0F2740",
"L  c #112B44",
"P  c #132F48",
"I  c #112640",
"U  c #13334C",
"Y  c #1B3445",
"T  c #153751",
"R  c #163A54",
"E  c #1B3D55",
"W  c #173F59",
"Q  c #213A4F",
"!  c #213E55",
"~  c #17415B",
"^  c #18435E",
"/  c #2F4957",
"(  c #184662",
")  c #194A66",
"_  c #1A4D6A",
"`  c #174561",
"'  c #1A506D",
"]  c #1C5574",
"[  c #1D5B7B",
"{  c #1D5778",
"}  c #205977",
"|  c #2E4F64",
" . c #1D607F",
".. c #5B4C40",
"X. c #504D50",
"o. c #5A5556",
"O. c #595B5E",
"+. c #424845",
"@. c #625E59",
"#. c #6A5642",
"$. c #786055",
"%. c #586572",
"&. c #726E7E",
"*. c #6D6B67",
"=. c #963A29",
"-. c #A1422F",
";. c #866B3E",
":. c #815644",
">. c #86614E",
",. c #89664E",
"<. c #9C7B43",
"1. c #967641",
"2. c #956C55",
"3. c #9A6D55",
"4. c #966E5C",
"5. c #9E7159",
"6. c #896B4D",
"7. c #A3765C",
"8. c #A5785E",
"9. c #A37F44",
"0. c #846F6F",
"q. c #936F61",
"w. c #8C706C",
"e. c #897271",
"r. c #AB7D63",
"t. c #73826F",
"y. c #92845C",
"u. c #A88243",
"i. c #B48B46",
"p. c #B88D4C",
"a. c #BC924A",
"s. c #BE9955",
"d. c #AF8265",
"f. c #B28569",
"g. c #BA8C6D",
"h. c #B48669",
"j. c #BE8F71",
"k. c #B39C74",
"l. c #AB8F71",
"z. c #C5974A",
"x. c #CB9B4C",
"c. c #D09F4F",
"v. c #C49B52",
"b. c #C99E52",
"n. c #CFA457",
"m. c #D7A956",
"M. c #D4A24F",
"N. c #E2AC50",
"B. c #F3B855",
"V. c #E6B156",
"C. c #C39474",
"Z. c #CA9D7A",
"A. c #CEA27E",
"S. c #D4AA61",
"D. c #ECBA61",
"F. c #EBC47F",
"G. c #1E6384",
"H. c #1F6C8C",
"J. c #1F7091",
"K. c #226B8B",
"L. c #236080",
"P. c #216F90",
"I. c #217293",
"U. c #237A9B",
"Y. c #297899",
"T. c #347B9A",
"R. c #2C7FA1",
"E. c #7D7482",
"W. c #817480",
"Q. c #2481A1",
"!. c #2C85A7",
"~. c #358AAD",
"^. c #3685A6",
"/. c #4A8B9D",
"(. c #4595B8",
"). c #4293B7",
"_. c #5396B8",
"`. c #478FB3",
"'. c #5CA1C5",
"]. c #6AA9CA",
"[. c #77B0D2",
"{. c #839981",
"}. c #A4A793",
"|. c #CFA581",
" X c #CAAD84",
".X c #D3AC86",
"XX c #D5AF88",
"oX c #D3B48B",
"OX c #DAB88D",
"+X c #CCB789",
"@X c #88BBD9",
"#X c None",
/* pixels */
"#X#X#X#X#X#X#X#X#X#X#X#X#X#X#X#X#X#X#X#X#X#X#X#X- - - - - - - #X#X#X#X#X",
"#X#X#X#X#X#X#X#X#X#X#X#X#X#X#X#X#X#X#X#X#X#X#X- - - - - - - - - > 2 #X#X",
"#X#X#X#X#X#X#X#X#X#X#X#X#X#X#X#X#X#X#X#X#X#X#X- - - - - - - - - : > > #X",
"#X#X#X#X#X#X#X#X#X#X#X#X#X#X#X#X#X#X#X#X#X#X#X- - - - - - - - : > > > #X",
"#X#X#X#X#X#X#X#X#X#X#X#X#X#X#X#X#X#X#X#X#X#X#X: - - - - - - - : > > > 3 ",
"#X#X#X#X#X#X#X#X#X#X#X#X#X#X#X#X#X#X#X|.XXOX X6.N - - - - - - - : > > 3 ",
"#X#X#X#X#X#X#X#X#X#X#X#X#X#X3.5.r.j.C.Z.A..XOXoXl.S - - - - - - > > 2 3 ",
"#X#X#X#X#X#X#X#X#X#X#X#X#X3.3.3.7.r.d.g.j.C.Z.XX+Xk.C - - - - - 2 3 3 3 ",
"#X#X#X#X#X#X#X#X#X#X#X#X#X3.3.3.5.5.5.7.r.h.C.Z.XXOXk.#X#X#X#X#X#X#X#X#X",
"#X#X#X#X#X#X#X#X#X#X#X#X#Xw.5.3.3.3.3.3.8.r.g.C.|.oX#X#X#X#X#X#X#X#X#X#X",
"#X#X#X#X#X#X#X#X#X#X#X#X%.&.e.4.3.3.3.3.8.r.h.C.Z.|.#X#X#X#X#X#X#X#X#X#X",
"#X#X#X#X#X#X#X#X#X#X#X#X0.e.4.3.3.3.3.2.5.8.d.g.C.C.#X#X#X#X#X#X#X#X#X#X",
"#X#X#X#X#X#X#X#X#X#X#X#X2.3.3.q.E.) E.4.5.7.r.f.h.C.#X#X#X#X#X#X#X#X#X#X",
"#X#X#X#X#X#X#X#X#X#X#X#X3.3.3.q.W.W.E.4.5.5.r.f.h.j.#X#X#X#X#X#X#X#X#X#X",
"#X#X#X#X#X#X#X#X#X#X#X#X3.3.3.3.3.3.2.5.5.5.7.r.f.#X#X#X#X#X#X#X#X#X#X#X",
"#X#X#X#X#X#X#X#X#X#X#X#X3.3.3.3.3.3.2.5.5.5.5.r.d.#X#X#X#X#X#X#X#X#X#X#X",
"#X#X#X#X#X#X#X#X#X#X#X#X3.3.3.3.3.3.3.3.3.3.3.7.#X#X#X#X#X#X#X#X#X#X#X#X",
"#X#X#X#X#X#X#X#X#X#X#X#X3.3.3.3.3.3.3.3.3.3.#X#X#X#X#X#X#X#X#X#X#X#X#X#X",
"#X#X#X#X#X#X#X#X#X#X#X#X#X3.3.3.3.4.3.5.8.d.#X#X#X#X#X#X#X#X#X#X#X#X#X#X",
"#X#X#X#X#X#X#X#X#X#X#X#X#X#X$.o.O.*.2.r.g.Z.#X#X#X#X#X#X#X#X#X#X#X#X#X#X",
"#X#X#X#X#X#X#X#X#X#X#X#X#XL U / y.*.3.h.A.OXF.#X#X#X#X#X#X#X#X#X#X#X#X#X",
"#X#X#X#X#X#X#X#X#X#X0 0 u s +.6.D 2.3.8.l.}.+X#X#X#X#X#X#X#X#X#X#X#X#X#X",
"#X#X#X#X#X#X#X#X#X7 0 0 y u Z a.,.3.3.3.g.k.t./.).#X#X#X#X#X#X#X#X#X#X#X",
"#X#X#X#X#X#X#X#X7 7 7 0 9 Z ;.h p f 2.2.@.y.t.I.T.(.#X#X#X#X#X#X#X#X#X#X",
"#X#X#X#X#X#X#X#X7 7 7 7 7 D ;.p 5 7 e w d Y ! ) ] K.^.'.#X#X#X#X#X#X#X#X",
"#X#X#X#X#X#X7 7 7 7 7 7 5 D ;.p 7 7 7 r <.Z L T ) { P.^.].[.#X#X#X#X#X#X",
"#X#X#X#X#X#X7 7 7 7 7 7 F G f 7 7 7 r p.M 9 I T ` _ { K.~.].@X#X#X#X#X#X",
"#X#X#X#X#X7 7 7 7 7 7 7 F H f 7 7 e N.g 7 7 w s T W ` ) K.`.'.#X#X#X#X#X",
"#X#X#X#X#X7 7 7 7 7 7 7 C G h 9 8 j i.f 7 7 w s P U R T ' T._.].#X#X#X#X",
"#X#X#X#X#X7 7 7 7 7 7 7 5 D <.A C u.8 7 7 7 7 9 u s L L U ( T._.#X#X#X#X",
"#X#X#X#X7 7 7 7 7 7 7 g Z 1.z.u.;.9 7 7 7 7 9 7 0 t u u a U ] T._.#X#X#X",
"#X#X#X#X7 7 7 7 7 7 h 1.m.V.a.A 8 7 7 7 7 7 7 7 5 0 0 t t u U ] I.#X#X#X",
"#X#X#X7 7 7 7 7 7 7 H a.m.v.a.n.#.7 7 7 7 7 7 7 7 7 7 0 t t L L.^.#X#X#X",
"#X#X#X7 7 7 7 7 7 7 H u.b.v.v.D.M.5 7 7 7 7 7 7 7 7 7 0 t t I { ^.(.#X#X",
"#X#X7 7 7 7 7 7 7 7 H i.i.v.m.m.c.8 7 7 7 7 7 7 7 7 7 7 0 t t W G.Y.~.#X",
"#X#X7 7 7 7 7 7 7 7 H S.n.a.a.z.x.8 7 7 7 7 7 7 7 7 7 7 0 t t L _ K.U.#X",
"#X#X7 7 7 7 7 7 7 7 e F s.n.i.z.x.8 0 5 7 7 7 7 7 7 7 7 7 t u T _ [ I.#X",
"#X#X7 7 7 7 7 7 7 7 7 H n.B.B.a.f 6 5 5 7 7 7 7 7 7 7 7 0 t t u R { I.#X",
"#X7 7 7 7 7 7 7 7 7 7 7 9 5 5 9 7 7 5 7 7 7 7 7 7 7 7 7 9 t t y J ` G.#X",
"#X7 7 7 7 7 7 7 7 7 7 7 5 7 5 5 7 7 7 7 7 7 7 7 7 7 7 7 5 9 t u T _ I.#X",
"#X7 7 7 7 7 7 7 7 7 7 7 7 7 7 7 5 7 7 7 7 7 7 7 7 7 7 7 7 9 0 u U ^ L.(.",
"#X7 7 7 7 7 7 7 7 7 7 7 7 7 7 7 7 7 7 7 7 7 7 7 7 7 7 7 5 5 9 u U _ G.Q.",
"7 7 7 7 7 7 7 7 5 5 5 5 7 7 7 7 7 7 7 7 7 7 7 7 7 7 7 7 7 7 9 y L ` [ U.",
"7 7 7 7 7 7 6 o 6 7 7 5 7 7 7 7 7 7 7 7 7 7 7 7 7 7 7 7 7 5 5 7 t U ] U.",
"#X#X#X#X#X#X:.m   o 5 5 7 7 7 7 7 7 7 7 7 7 7 7 7 7 7 7 7 7 7 7 q P ' H.",
"#X#X#X3.3.3.,.B &   o 5 7 7 7 7 7 7 7 7 7 5 7 7 7 7 7 7 7 7 7 7 q J ( H.",
"#X#X3.3.3.3.,.N   & * + 5 5 5 7 7 7 7 7 7 7 7 7 7 7 7 7 7 7 7 7 9 J ( J.",
"#X#X3.3.3.2...r 6 o .     o 5 7 7 7 7 7 7 7 7 7 5 7 7 7 7 7 7 5 q J _ J.",
"#X#X3.3.3.>.M 5 5 5 5 O * &   . 5 5 5 7 7 7 7 7 7 7 7 7 7 7 7 5 q U [ H.",
"#X#X3.3.3.>.M 6 7 7 7 5 6 + * & * * 5 7 7 7 7 7 7 7 7 7 7 7 7 q a ^ ] { ",
"#X#X#X3.,.M 7 7 7 7 7 7 9 5 6 o % & * * 6 5 7 7 7 7 7 5 7 7 5 q U _ _ ) ",
"#X#X#X#X#X7 7 7 7 7 7 7 5 5 5 5 6 & & % * + 7 7 7 7 7 7 7 7 5 q P ` ^ R ",
"#X#X#X#X#X7 7 7 7 7 7 7 5 5 5 5 7 7 7 7 t y q 7 7 7 5 5 7 7 9 u T ~ T P ",
"#X#X#X#X#X7 7 7 7 7 7 7 5 9 7 7 7 7 7 7 0 u K y 9 7 5 9 7 7 q K P L P P ",
"#X#X#X#X#X7 7 7 7 7 7 7 7 7 7 7 7 7 7 5 7 y a J K q 5 5 7 5 y J J a a d ",
"#X#X#X#X#X7 7 7 7 7 7 7 7 7 7 7 7 7 7 7 t y K T R P q 7 7 9 q y u y 9 7 ",
"#X#X#X#X#X7 7 7 7 5 7 7 7 7 7 7 7 7 7 7 t t u L T W R y 7 0 0 0 0 0 7 7 ",
"#X#X#X#X7 7 7 7 7 7 7 7 7 7 7 7 7 5 9 t t t y I U ! | X.Z M M M M #X#X#X",
"#X#X#X#X7 7 7 7 7 7 7 7 7 7 7 7 5 5 t t t t y I P Q o.2.3.3.3.3.3.#X#X#X",
"#X#X#X#X7 7 7 7 7 7 7 7 7 7 7 7 5 0 t t t t u K P Q o.2.3.3.3.3.3.#X#X#X",
"#X#X#X#X7 7 7 7 7 7 7 7 7 5 7 7 9 t t t 0 y a a L Q o.2.3.3.3.3.3.#X#X#X",
"#X#X#X#X7 7 7 7 7 7 7 7 7 7 7 7 5 t 0 t a a a a L ! O.3.3.3.3.3.3.#X#X#X",
"#X#X#X#X7 7 7 7 7 7 7 7 7 7 7 7 7 9 0 t t u a a s U ^ @.2.3.3.3.#X#X#X#X",
"#X#X#X#X7 5 7 7 7 7 7 7 7 7 7 7 7 7 7 0 t t a a s U ^ } K.T.^.#X#X#X#X#X",
"#X#X#X#X9 5 9 5 7 7 7 7 7 7 7 7 7 7 7 7 t t t y a L ` L.H.R.R.#X#X#X#X#X",
"#X#X#X#X5 5 5 5 7 7 7 7 7 7 7 7 7 5 7 7 0 t t y K L W _ L.J.R.#X#X#X#X#X",
"#X#X#X#X7 7 7 7 7 7 7 5 7 7 7 7 7 7 7 7 7 0 t t u L R _ G.R.U.#X#X#X#X#X",
"#X#X#X#X7 7 7 7 7 7 7 7 7 7 7 7 7 7 7 7 7 7 9 t t s T ) [ J.!.#X#X#X#X#X",
"#X#X#X#X5 7 7 7 7 7 7 7 7 7 7 7 7 7 7 7 7 7 9 t y a T ` { J.!.~.#X#X#X#X",
"#X#X#X#X7 7 7 7 7 7 7 7 7 7 7 7 7 7 7 7 7 7 7 9 0 u P ~ ] G.U.!.#X#X#X#X",
"#X#X#X#X7 7 7 7 7 7 7 7 7 7 7 7 7 7 7 7 7 7 7 7 7 y P W _ G.J.Q.#X#X#X#X",
"#X#X#X#X7 7 7 7 7 7 7 7 7 7 7 5 7 7 7 7 7 7 7 7 7 y J T ) [ J.U.#X#X#X#X",
"#X#X#X#X7 7 7 7 7 7 7 7 7 7 7 7 7 7 7 7 7 7 5 7 7 q K U ` { K.P.#X#X#X#X",
"#X#X#X#X7 7 7 7 7 7 7 7 7 7 7 7 7 7 7 7 7 7 7 5 5 9 y L T _ [ G.#X#X#X#X",
"#X#X#X#X#X7 7 7 7 7 7 7 7 7 7 7 7 7 7 7 7 7 9 5 7 0 y J R ) [ I.^.#X#X#X",
"#X#X#X#X#X7 7 7 7 5 7 7 7 7 7 7 7 7 7 7 7 7 5 7 7 0 t u P W } P.Q.#X#X#X",
"#X#X#X#X#X9 5 7 7 7 7 5 7 7 7 7 7 7 7 7 7 7 7 7 6 0 y L T W _ G.I.#X#X#X",
"#X#X#X#X#XX # 6 7 7 7 7 7 7 7 7 7 7 5 7 7 7 7 7 7 0 t y L R _ [ I.#X#X#X",
"#X#X#X#X#X; # 8 7 5 5 7 7 7 7 7 7 7 7 7 7 7 9 5 7 0 t y a U W ' [ #X#X#X",
"#X#X#X#X#X#X= = < r 5 7 7 7 7 7 7 7 7 7 5 5 5 5 9 t y a L U W ` #X#X#X#X",
"#X#X#X#X#X#X- : c m $ o 7 7 7 7 7 7 7 7 7 7 7 9 9 t u a L L U Q #X#X#X#X",
"#X#X#X#X#X#X- - - - : X @ 7 7 7 7 7 7 7 7 7 7 7 9 t u a L L p - - #X#X#X",
"#X#X#X#X#X#X- - - - - - ; # # o 5 7 7 7 5 7 5 5 0 t t s d d < : - #X#X#X",
"#X#X#X#X#X#X#X- - - - - - - , k 4 n m m r 7 5 0 0 8 r $ ; - - - - #X#X#X",
"#X#X#X#X#X#X#X- - - - - - - = k l =.=.=.=.B 4 ; X X - - - - - - - #X#X#X",
"#X#X#X#X#X#X#X#X- - - - - - = & z z v =.=.v 3 - - - - - - - - - #X#X#X#X",
"#X#X#X#X#X#X#X#X#X#X- - - - - - & = , c 2 : - - - - - - - - - - #X#X#X#X",
"#X#X#X#X#X#X#X#X#X#X#X#X#X- - - = - = - ; : - - - - - - - - - #X#X#X#X#X",
"#X#X#X#X#X#X#X#X#X#X#X#X#X#X#X- - - - - - - - - - - - - - - #X#X#X#X#X#X",
"#X#X#X#X#X#X#X#X#X#X#X#X#X#X#X#X#X#X#X#X- - - - - - - #X#X#X#X#X#X#X#X#X"
};
