/* XPM */
static char *result[] = {
/* columns rows colors chars-per-pixel */
"36 90 195 2 ",
"   c #1D080D",
".  c #1E160D",
"X  c #0C0D1C",
"o  c #190912",
"O  c #130B17",
"+  c #0F131B",
"@  c #151415",
"#  c #1A1718",
"$  c #260506",
"%  c #280404",
"&  c #220609",
"*  c #2B1505",
"=  c #281804",
"-  c #21170C",
";  c #291909",
":  c #301C08",
">  c #331709",
",  c #271715",
"<  c #361011",
"1  c #35210A",
"2  c #39240C",
"3  c #21201A",
"4  c #3B231F",
"5  c #060F22",
"6  c #090E21",
"7  c #041024",
"8  c #0B1425",
"9  c #07142A",
"0  c #09132C",
"q  c #07182D",
"w  c #08192F",
"e  c #141B29",
"r  c #171A26",
"t  c #0C1531",
"y  c #0B1C35",
"u  c #0D1E38",
"i  c #121D33",
"p  c #1E242B",
"a  c #0D243C",
"s  c #0C2137",
"d  c #11243B",
"f  c #24262B",
"g  c #2D2D2D",
"h  c #3B372F",
"j  c #3D3831",
"k  c #44180C",
"l  c #591712",
"z  c #440D0B",
"x  c #49251F",
"c  c #4D2511",
"v  c #692819",
"b  c #7D281D",
"n  c #411C20",
"m  c #4C2628",
"M  c #4C3D3C",
"N  c #533C2C",
"B  c #62362D",
"V  c #7D3B31",
"C  c #5C4C34",
"Z  c #554A39",
"A  c #5F5036",
"S  c #57452B",
"D  c #635237",
"F  c #6E5B3A",
"G  c #745E3B",
"H  c #7C643C",
"J  c #76603B",
"K  c #0E2A42",
"L  c #0F2740",
"P  c #112640",
"I  c #112C45",
"U  c #122F48",
"Y  c #13334C",
"T  c #1B3445",
"R  c #153751",
"E  c #163A54",
"W  c #1B3D55",
"Q  c #173F59",
"!  c #203A4F",
"~  c #203E54",
"^  c #17415B",
"/  c #18435E",
"(  c #2F4957",
")  c #184762",
"_  c #194A66",
"`  c #194D6A",
"'  c #174561",
"]  c #1A506D",
"[  c #1C5573",
"{  c #1D5C7C",
"}  c #1D5878",
"|  c #385160",
" . c #22526E",
".. c #5C4B41",
"X. c #504D50",
"o. c #5A5556",
"O. c #595B5E",
"+. c #424845",
"@. c #625E59",
"#. c #6A5542",
"$. c #786055",
"%. c #586572",
"&. c #726E7E",
"*. c #6D6B67",
"=. c #963A29",
"-. c #A1422F",
";. c #866B3E",
":. c #815644",
">. c #87614E",
",. c #89664E",
"<. c #9C7B43",
"1. c #967641",
"2. c #956B55",
"3. c #9A6D55",
"4. c #966E5C",
"5. c #9E7159",
"6. c #896B4D",
"7. c #A3765C",
"8. c #A5785E",
"9. c #A37F44",
"0. c #846F6F",
"q. c #936F61",
"w. c #8C706C",
"e. c #897271",
"r. c #AB7D62",
"t. c #73826E",
"y. c #92845C",
"u. c #A88243",
"i. c #B48B46",
"p. c #B88D4C",
"a. c #BC924A",
"s. c #BE9955",
"d. c #AF8265",
"f. c #B38469",
"g. c #BB8C6E",
"h. c #B38568",
"j. c #BD8F71",
"k. c #B39B74",
"l. c #AB8F71",
"z. c #C5974A",
"x. c #CC9B4C",
"c. c #D09F4F",
"v. c #C49B52",
"b. c #C99E52",
"n. c #CFA458",
"m. c #D7A856",
"M. c #D4A24F",
"N. c #E2AC50",
"B. c #F3B855",
"V. c #E6B157",
"C. c #C39374",
"Z. c #CA9D7A",
"A. c #C99977",
"S. c #CEA27E",
"D. c #D4AA61",
"F. c #ECBA61",
"G. c #EBC47F",
"H. c #1E6384",
"J. c #1F6C8C",
"K. c #1F7091",
"L. c #216B8B",
"P. c #236080",
"I. c #216F90",
"U. c #217293",
"Y. c #237A9B",
"T. c #297899",
"R. c #347A9A",
"E. c #2C7FA1",
"W. c #7D7482",
"Q. c #817480",
"!. c #2481A1",
"~. c #2C85A7",
"^. c #3384A5",
"/. c #348AAD",
"(. c #3885A7",
"). c #4A8B9D",
"_. c #4595B8",
"`. c #4293B7",
"'. c #5396B8",
"]. c #478FB3",
"[. c #5CA1C5",
"{. c #6AA9CA",
"}. c #77B0D2",
"|. c #839981",
" X c #A4A793",
".X c #CFA581",
"XX c #CAAD84",
"oX c #D2AB85",
"OX c #D5AF88",
"+X c #D3B48B",
"@X c #D9B68D",
"#X c #DDBB8C",
"$X c #CCB789",
"%X c #88BBD9",
"&X c None",
/* pixels */
"&X&X&X&X&X= = = = = = = &X&X&X&X&X&X&X&X&X&X&X&X&X&X&X&X&X&X&X&X&X&X&X&X",
"&X&X: ; = = = = = = = = = &X&X&X&X&X&X&X&X&X&X&X&X&X&X&X&X&X&X&X&X&X&X&X",
"&X: : : = = = = = = = = = &X&X&X&X&X&X&X&X&X&X&X&X&X&X&X&X&X&X&X&X&X&X&X",
"&X: : : = = = = = = = = = &X&X&X&X&X&X&X&X&X&X&X&X&X&X&X&X&X&X&X&X&X&X&X",
"2 : : : = = = = = = = = = &X&X&X&X&X&X&X&X&X&X&X&X&X&X&X&X&X&X&X&X&X&X&X",
"2 : : : = = = = = = = N 6.XX@XOX.X&X&X&X&X&X&X&X&X&X&X&X&X&X&X&X&X&X&X&X",
"2 1 : ; = = = = = = S l.+X@XoXS.Z.C.g.r.5.3.&X&X&X&X&X&X&X&X&X&X&X&X&X&X",
"2 2 1 1 : = = = = C k.+X+XS.C.j.j.d.r.8.3.3.3.&X&X&X&X&X&X&X&X&X&X&X&X&X",
"&X&X&X&X&X&X&X&X&Xk.@X+XZ.C.h.r.7.5.5.3.3.3.3.&X&X&X&X&X&X&X&X&X&X&X&X&X",
"&X&X&X&X&X&X&X&X&X@XOXS.C.g.d.7.3.3.3.3.3.4.w.&X&X&X&X&X&X&X&X&X&X&X&X&X",
"&X&X&X&X&X&X&X&X&XoXS.A.j.h.r.7.3.3.2.2.2.e.W.%.&X&X&X&X&X&X&X&X&X&X&X&X",
"&X&X&X&X&X&X&X&X&XZ.C.C.g.d.8.5.3.3.3.2.5.q.0.0.&X&X&X&X&X&X&X&X&X&X&X&X",
"&X&X&X&X&X&X&X&X&XZ.j.g.d.r.7.5.4.W. .W.q.3.3.3.&X&X&X&X&X&X&X&X&X&X&X&X",
"&X&X&X&X&X&X&X&X&X&Xg.g.f.r.7.3.4.W.W.e.q.3.3.3.&X&X&X&X&X&X&X&X&X&X&X&X",
"&X&X&X&X&X&X&X&X&X&X&Xf.r.7.5.5.5.3.3.3.3.3.3.3.&X&X&X&X&X&X&X&X&X&X&X&X",
"&X&X&X&X&X&X&X&X&X&X&Xr.r.5.5.5.3.3.3.3.3.3.3.3.&X&X&X&X&X&X&X&X&X&X&X&X",
"&X&X&X&X&X&X&X&X&X&X&X&X7.5.3.3.3.3.3.3.3.3.3.3.&X&X&X&X&X&X&X&X&X&X&X&X",
"&X&X&X&X&X&X&X&X&X&X&X&X&X&X3.3.3.3.3.3.3.3.3.3.&X&X&X&X&X&X&X&X&X&X&X&X",
"&X&X&X&X&X&X&X&X&X&X&X&X&X&Xh.8.5.3.3.3.3.5.3.&X&X&X&X&X&X&X&X&X&X&X&X&X",
"&X&X&X&X&X&X&X&X&X&X&X&X&X&XZ.g.d.2.%.O.o.$.&X&X&X&X&X&X&X&X&X&X&X&X&X&X",
"&X&X&X&X&X&X&X&X&X&X&X&X&XG.#XS.h.4.*.q.( T d &X&X&X&X&X&X&X&X&X&X&X&X&X",
"&X&X&X&X&X&X&X&X&X&X&X&X&XXX Xl.7.3.2.#.1.( a s 0 0 &X&X&X&X&X&X&X&X&X&X",
"&X&X&X&X&X&X&X&X&X&X&X/.).|.k.h.3.3.3.>.a.Z y y 0 0 7 &X&X&X&X&X&X&X&X&X",
"&X&X&X&X&X&X&X&X&X&X_.^.L.t.y.@.2.2.f p j ;.Z 0 0 7 7 &X&X&X&X&X&X&X&X&X",
"&X&X&X&X&X&X&X&X[.^.L.} ) W T i w 8 7 7 p ;.D 7 7 7 7 7 &X&X&X&X&X&X&X&X",
"&X&X&X&X&X&X}.{.(.I.} ) E P ..<.p X 7 7 p ;.D 7 7 7 7 7 7 7 &X&X&X&X&X&X",
"&X&X&X&X&X%X{.(.L.[ ` ) E P t j i.p 7 7 7 f J F 7 7 7 7 7 7 &X&X&X&X&X&X",
"&X&X&X&X&X[.].L._ ) ^ R P w 7 7 g N.w 7 7 f J F 7 7 7 7 7 7 7 &X&X&X&X&X",
"&X&X&X&X{.'.R.` E E Y U d 0 7 7 f i.h 8 8 h F C 7 7 7 7 7 7 7 &X&X&X&X&X",
"&X&X&X&X'.R._ Y I I P y 0 5 5 7 7 8 u.C A <.A 5 7 7 7 7 7 7 7 &X&X&X&X&X",
"&X&X&X'.R.[ Y a y u t 0 9 7 7 7 7 7 8 ;.u.z.<.Z g 7 7 7 7 7 7 7 &X&X&X&X",
"&X&X&XU.[ Y y y t 0 9 7 5 7 7 7 7 7 7 8 A a.V.m.;.N 7 7 7 7 7 7 &X&X&X&X",
"&X&X&XE.{ I t t 0 7 7 7 7 7 7 7 7 7 7 H n.a.v.m.a.;.7 7 7 7 7 7 7 &X&X&X",
"&X&X_.E.} P t 0 9 7 7 7 7 7 7 7 7 7 8 M.F.v.v.n.u.#.7 7 7 7 7 7 7 &X&X&X",
"&X/.E.P.E y 0 0 7 7 7 7 7 7 7 7 7 7 8 x.m.m.v.i.i.H 7 7 7 7 5 7 7 7 &X&X",
"&XE.L.` I t 0 0 7 7 7 7 7 7 5 7 7 7 8 x.z.a.a.n.m.H 7 7 7 7 7 7 7 7 &X&X",
"&XU.P._ R u t 0 7 7 5 7 7 7 7 7 7 7 8 x.z.a.n.s.F e 7 7 7 7 7 7 7 7 &X&X",
"&XT.} E u t 0 0 7 7 7 7 7 7 7 7 7 7 7 f a.B.B.M.G 5 7 7 7 7 7 7 7 7 &X&X",
"&XH.' P y t t 9 7 7 7 7 7 7 7 7 7 7 7 7 7 9 7 7 7 7 7 7 7 7 7 7 7 7 7 &X",
"&XK.] R u 0 9 7 7 7 7 7 7 7 7 7 7 7 7 7 7 7 7 7 7 7 7 7 7 7 7 7 7 7 7 &X",
"_.P.' U u 0 0 5 7 7 7 7 7 7 7 7 7 7 7 7 7 7 7 7 7 7 7 7 7 7 7 7 7 7 7 &X",
"!.H.` R u 0 5 5 7 7 7 7 7 7 7 7 7 7 7 7 7 7 7 7 7 7 7 7 7 7 7 7 7 7 7 &X",
"Y.} ' I y 9 5 5 7 7 7 7 5 7 7 7 7 7 7 7 7 7 7 7 7 7 6 5 7 7 7 7 7 7 7 7 ",
"Y.[ Y w 5 7 7 7 7 7 7 7 7 7 7 7 7 7 7 7 7 7 7 7 7 7 7 6 6 5 7 7 7 7 7 7 ",
"J.` U q 5 7 7 7 7 7 7 7 7 7 7 7 7 7 7 7 7 7 7 7 7 7 X   x :.&X&X&X&X&X&X",
"J.' K q 7 7 7 7 7 7 7 7 7 7 7 7 7 7 7 7 7 7 7 7 6 X   % B >.3.3.3.&X&X&X",
"J.) K q 7 7 7 7 7 5 7 7 7 7 7 7 7 7 7 7 7 7 7 7 O & % & N ,.3.3.3.3.&X&X",
"K.` K 9 7 7 7 7 7 7 7 7 7 7 7 7 7 7 7 7 7 7 O & &   X 6 p ..,.3.3.3.&X&X",
"J.{ U q 5 7 7 7 7 7 7 7 7 7 7 7 5 5 7 5 o & & $ o 5 5 7 5 M >.3.3.3.&X&X",
"} } ' K q 7 7 7 7 7 7 7 7 7 7 7 5 6   & % & O 5 6 5 7 7 5 M >.2.3.3.&X&X",
"_ ` ` U q 7 7 7 7 7 5 7 7 5 7 X & & % & X 5 5 7 7 7 7 7 7 9 M >.3.&X&X&X",
"E _ ' K q 7 7 7 7 7 7 7 7 5 X & % % % 5 5 5 7 7 7 7 7 7 7 7 5 &X&X&X&X&X",
"U E E R u 7 7 7 7 7 7 7 7 w y q 7 7 7 7 7 7 7 7 7 5 7 7 7 7 5 &X&X&X&X&X",
"U U I U L w 7 7 7 7 7 7 y a s 0 7 7 7 7 7 7 7 7 7 7 7 7 7 7 9 &X&X&X&X&X",
"u s L K L y 7 7 7 7 q P K a t 9 7 7 7 7 7 7 7 7 7 7 7 7 7 7 7 &X&X&X&X&X",
"0 0 y u u w 7 7 7 w Y E Y K u 0 7 7 7 7 7 7 7 5 7 7 7 7 7 7 7 &X&X&X&X&X",
"7 7 0 0 0 0 0 7 y E ^ R I s t t 7 5 7 7 7 7 7 7 7 7 7 7 7 7 7 &X&X&X&X&X",
"&X&X&XM M M M M X.| W Y d y t t t 9 7 7 7 7 7 7 7 7 5 7 7 7 7 7 &X&X&X&X",
"&X&X&X3.3.3.3.3.2.o.W I d y t t t t 7 7 7 7 7 7 7 7 7 7 7 7 7 7 &X&X&X&X",
"&X&X&X3.3.3.3.3.2.o.W I P u t t t t 0 7 7 7 7 7 7 7 7 7 7 7 7 7 &X&X&X&X",
"&X&X&X3.3.3.3.3.3.o.W K P s u t t t t 7 7 7 7 5 7 7 7 7 7 7 7 7 &X&X&X&X",
"&X&X&X3.3.3.3.3.2.O.W K a a a u t t t 5 7 7 7 7 7 7 7 7 7 7 7 7 &X&X&X&X",
"&X&X&X&X3.3.3.2.@.( Y K a a u q t 0 7 7 7 7 7 7 7 7 7 7 7 7 7 7 &X&X&X&X",
"&X&X&X&X&X(.R.L.[ / U L a u t t t 7 7 7 7 7 7 7 7 7 7 7 7 7 7 7 &X&X&X&X",
"&X&X&X&X&X~.~.L.{ ' I a y t t 0 5 7 7 7 7 7 5 7 7 7 7 7 7 7 7 7 &X&X&X&X",
"&X&X&X&X&XE.U.{ ` Q I a u t t 0 7 5 7 7 7 7 7 7 7 7 7 7 7 7 7 7 &X&X&X&X",
"&X&X&X&X&X!.Y.H.` Q I u t t 9 9 7 7 7 7 7 7 7 7 7 7 7 7 7 7 7 7 &X&X&X&X",
"&X&X&X&X&X!.U.} ) R a t t 9 5 5 7 7 7 7 7 7 7 7 7 7 7 7 7 7 7 7 &X&X&X&X",
"&X&X&X&X/.~.K.} ) Y a t t 0 7 7 7 7 7 7 7 7 7 7 7 7 7 7 7 7 7 7 &X&X&X&X",
"&X&X&X&X~.E.H.[ ^ U u t 7 7 7 7 7 7 7 7 7 7 7 7 7 7 7 7 5 7 7 7 &X&X&X&X",
"&X&X&X&X!.K.H.` Q U y 7 7 7 7 7 7 7 5 7 7 7 7 7 7 7 7 7 7 7 7 7 &X&X&X&X",
"&X&X&X&XY.J.} _ E K y 0 7 7 7 7 7 7 7 7 7 7 7 7 7 7 7 7 7 7 7 7 &X&X&X&X",
"&X&X&X&XU.L.[ ^ R d 0 7 7 7 7 7 5 7 7 7 7 7 7 7 7 7 7 7 7 7 7 7 &X&X&X&X",
"&X&X&X&XL.{ _ R U y 9 7 7 7 7 7 7 7 7 7 7 7 7 7 7 7 7 7 7 7 7 7 &X&X&X&X",
"&X&X&X^.U.{ ` E I y 0 7 7 7 7 7 7 7 7 7 7 7 7 7 7 7 7 7 7 7 7 &X&X&X&X&X",
"&X&X&X!.L.[ ^ Y y t 0 7 7 7 7 7 7 7 7 7 7 7 7 7 5 7 7 7 7 7 7 &X&X&X&X&X",
"&X&X&XK.H._ ^ Y I y 9 5 5 5 7 7 7 7 7 7 7 7 7 7 7 7 7 5 7 7 7 &X&X&X&X&X",
"&X&X&XK.H._ E P y 0 9 9 7 7 7 7 7 7 7 7 7 7 7 7 7 7 7 5 7 @ - &X&X&X&X&X",
"&X&X&XH.` Q U a y t 0 7 7 7 7 7 7 7 7 7 5 7 7 7 7 7 5 6 7 @ . &X&X&X&X&X",
"&X&X&X&X) Q Y I a y t 9 7 7 7 7 7 7 7 7 7 7 7 7 7 7 r , > * &X&X&X&X&X&X",
"&X&X&X&XT T U K L t t 9 7 7 7 7 7 7 7 7 7 7 7 7 9 # m c ; = &X&X&X&X&X&X",
"&X&X&X= ; p U K u u t 0 9 7 7 7 7 7 7 7 7 7 7 + . * = = = = &X&X&X&X&X&X",
"&X&X&X= ; 3 p d a y t 7 5 5 7 7 7 9 7 5 @ @ @ . * = = = = = &X&X&X&X&X&X",
"&X&X&X= = = = # # r e 0 7 7 7 r m m n < > * = = = = = = = &X&X&X&X&X&X&X",
"&X&X&X= = = = = ; = . . . 4 B V -.=.b l z > = = = = = = = &X&X&X&X&X&X&X",
"&X&X&X&X= = = = = = = = * 2 v =.=.v l z % * = = = = = = &X&X&X&X&X&X&X&X",
"&X&X&X&X= = = = = = = = = = : > k > * * * * = = = = &X&X&X&X&X&X&X&X&X&X",
"&X&X&X&X&X= = = = = = = = = = = ; ; = = ; = = &X&X&X&X&X&X&X&X&X&X&X&X&X",
"&X&X&X&X&X&X= = = = = = = = = = = = = = = &X&X&X&X&X&X&X&X&X&X&X&X&X&X&X",
"&X&X&X&X&X&X&X&X&X= = = = = = = &X&X&X&X&X&X&X&X&X&X&X&X&X&X&X&X&X&X&X&X"
};
