/* XPM */
static char *result[] = {
/* columns rows colors chars-per-pixel */
"36 90 201 2 ",
"   c #1E070D",
".  c #1D080E",
"X  c #1D160D",
"o  c #0C0D1D",
"O  c #150B15",
"+  c #190913",
"@  c #120B19",
"#  c #0D121D",
"$  c #1A1512",
"%  c #171719",
"&  c #260405",
"*  c #20070B",
"=  c #2B1505",
"-  c #271805",
";  c #291804",
":  c #271809",
">  c #321907",
",  c #311D08",
"<  c #35160A",
"1  c #231C12",
"2  c #36161A",
"3  c #330906",
"4  c #38230C",
"5  c #35210B",
"6  c #30221C",
"7  c #060F22",
"8  c #090F20",
"9  c #041024",
"0  c #0A1425",
"q  c #07142A",
"w  c #09132C",
"e  c #08192F",
"r  c #0B182A",
"t  c #111927",
"y  c #1A1E2A",
"u  c #161626",
"i  c #0C1531",
"p  c #0B1B34",
"a  c #0D1E38",
"s  c #171E30",
"d  c #1D252B",
"f  c #0D243D",
"g  c #0D243B",
"h  c #10243E",
"j  c #162535",
"k  c #1E323A",
"l  c #22242B",
"z  c #2E2D2D",
"x  c #322F2D",
"c  c #35322E",
"v  c #3B362F",
"b  c #2C2A32",
"n  c #3A3539",
"m  c #43180C",
"M  c #571612",
"N  c #440D0B",
"B  c #462317",
"V  c #45210E",
"C  c #662619",
"Z  c #7A281D",
"A  c #451D20",
"S  c #4C2623",
"D  c #423B30",
"F  c #4B3C3B",
"G  c #52342B",
"H  c #64362D",
"J  c #494134",
"K  c #5D4D35",
"L  c #524538",
"P  c #56442B",
"I  c #635337",
"U  c #6D5A3A",
"Y  c #665538",
"T  c #725D3A",
"R  c #7B643D",
"E  c #76603B",
"W  c #0E2A42",
"Q  c #112C45",
"!  c #122E48",
"~  c #112741",
"^  c #0F3049",
"/  c #13324B",
"(  c #1B3649",
")  c #153751",
"_  c #163A54",
"`  c #163E59",
"'  c #1E3E55",
"]  c #203A4F",
"[  c #17415C",
"{  c #18425D",
"}  c #2D495A",
"|  c #3C4F58",
" . c #3B4344",
".. c #184662",
"X. c #194A66",
"o. c #1A4D6A",
"O. c #1B516F",
"+. c #1C5573",
"@. c #1D5B7B",
"#. c #1D5877",
"$. c #34586D",
"%. c #396B7F",
"&. c #564341",
"*. c #574F4E",
"=. c #5F5440",
"-. c #585557",
";. c #414848",
":. c #644D44",
">. c #7E5C4D",
",. c #7E5543",
"<. c #655D58",
"1. c #785F53",
"2. c #6D695C",
"3. c #596477",
"4. c #686A69",
"5. c #7A717C",
"6. c #6F7573",
"7. c #8F3727",
"8. c #803C32",
"9. c #9D3E2B",
"0. c #9E412F",
"q. c #856A3D",
"w. c #87614E",
"e. c #85694B",
"r. c #987842",
"t. c #8B6957",
"y. c #956B55",
"u. c #9A6D55",
"i. c #966E5B",
"p. c #986E59",
"a. c #9E7159",
"s. c #8C7850",
"d. c #A3765C",
"f. c #A5785E",
"g. c #A37E48",
"h. c #806D6D",
"j. c #946F60",
"k. c #8B706B",
"l. c #81737D",
"z. c #AB7D62",
"x. c #A07E65",
"c. c #AC8545",
"v. c #A48146",
"b. c #B58C48",
"n. c #BA924C",
"m. c #BC9654",
"M. c #88997F",
"N. c #AF8165",
"B. c #A58E6B",
"V. c #B38569",
"C. c #BA8C6D",
"Z. c #B38669",
"A. c #BE8F71",
"S. c #AB9773",
"D. c #BA9172",
"F. c #C1964B",
"G. c #C5994C",
"H. c #CC9C4D",
"J. c #C39A52",
"K. c #C99F54",
"L. c #CCA256",
"P. c #D7A855",
"I. c #E8B45B",
"U. c #C29273",
"Y. c #C69876",
"T. c #CA9C7A",
"R. c #C59B7A",
"E. c #CEA27E",
"W. c #1E6383",
"Q. c #1F698A",
"!. c #216C8C",
"~. c #216485",
"^. c #217495",
"/. c #2A7192",
"(. c #2B7C9E",
"). c #247C9D",
"_. c #367999",
"`. c #337FA1",
"'. c #4E7D8F",
"]. c #2580A1",
"[. c #2A83A4",
"{. c #2F86A8",
"}. c #3687A9",
"|. c #3C8EB1",
" X c #3C91B3",
".X c #578A91",
"XX c #4892B5",
"oX c #5397B9",
"OX c #5DA1C3",
"+X c #66A6C8",
"@X c #74AFD0",
"#X c #B4AC8E",
"$X c #CCA882",
"%X c #D2AB85",
"&X c #D5AF88",
"*X c #D3B38B",
"=X c #D9B78D",
"-X c #D7B88F",
";X c #C2B580",
":X c #E1BE81",
">X c None",
/* pixels */
">X>X>X>X>X; ; ; ; ; ; ; >X>X>X>X>X>X>X>X>X>X>X>X>X>X>X>X>X>X>X>X>X>X>X>X",
">X>X, ; ; ; ; ; ; ; ; ; ; >X>X>X>X>X>X>X>X>X>X>X>X>X>X>X>X>X>X>X>X>X>X>X",
">X, , , ; ; ; ; ; ; ; ; ; >X>X>X>X>X>X>X>X>X>X>X>X>X>X>X>X>X>X>X>X>X>X>X",
">X, , , ; ; ; ; ; ; ; ; ; >X>X>X>X>X>X>X>X>X>X>X>X>X>X>X>X>X>X>X>X>X>X>X",
"4 , , , ; ; ; ; ; ; ; ; , >X>X>X>X>X>X>X>X>X>X>X>X>X>X>X>X>X>X>X>X>X>X>X",
"4 , , , ; ; ; ; ; ; ; P 1.E.-X*X%X>X>X>X>X>X>X>X>X>X>X>X>X>X>X>X>X>X>X>X",
"4 5 , ; ; ; ; ; ; ; P B.*X=X%XE.T.U.C.z.a.u.>X>X>X>X>X>X>X>X>X>X>X>X>X>X",
"4 4 5 5 , ; ; ; ; K S.*X*XE.Y.A.C.z.z.z.u.u.u.>X>X>X>X>X>X>X>X>X>X>X>X>X",
">X>X>X>X>X>X>X>X>XS.=X&XT.U.Z.z.d.a.d.u.u.u.i.>X>X>X>X>X>X>X>X>X>X>X>X>X",
">X>X>X>X>X>X>X>X>X=X*XE.Y.C.N.d.u.u.u.u.u.i.j.>X>X>X>X>X>X>X>X>X>X>X>X>X",
">X>X>X>X>X>X>X>X>X%XE.Y.U.Z.z.d.u.u.u.u.p.k.5.3.>X>X>X>X>X>X>X>X>X>X>X>X",
">X>X>X>X>X>X>X>X>XT.Y.U.Z.N.f.d.u.u.t.y.p.j.k.5.>X>X>X>X>X>X>X>X>X>X>X>X",
">X>X>X>X>X>X>X>X>XT.U.C.Z.z.d.u.i.5.$.5.j.u.p.p.>X>X>X>X>X>X>X>X>X>X>X>X",
">X>X>X>X>X>X>X>X>X>XC.C.N.z.d.d.i.l.l.l.j.u.u.u.>X>X>X>X>X>X>X>X>X>X>X>X",
">X>X>X>X>X>X>X>X>X>XZ.V.z.d.u.u.d.u.u.u.u.u.u.u.>X>X>X>X>X>X>X>X>X>X>X>X",
">X>X>X>X>X>X>X>X>X>X>Xz.z.a.u.d.u.u.u.u.u.u.u.u.>X>X>X>X>X>X>X>X>X>X>X>X",
">X>X>X>X>X>X>X>X>X>X>X>Xd.u.u.u.u.u.u.u.u.u.u.u.>X>X>X>X>X>X>X>X>X>X>X>X",
">X>X>X>X>X>X>X>X>X>X>X>X>X>Xu.u.u.u.u.u.u.u.u.u.>X>X>X>X>X>X>X>X>X>X>X>X",
">X>X>X>X>X>X>X>X>X>X>X>X>X>XN.f.d.u.y.y.y.u.u.>X>X>X>X>X>X>X>X>X>X>X>X>X",
">X>X>X>X>X>X>X>X>X>X>X>X>X>XT.D.f.u.4.2.<.>.t.>X>X>X>X>X>X>X>X>X>X>X>X>X",
">X>X>X>X>X>X>X>X>X>X>X>X>X=X-XD.N.i.4.2.| ( >X>X>X>X>X>X>X>X>X>X>X>X>X>X",
">X>X>X>X>X>X>X>X>X>X>X>X>X;X#XS.f.u.y.e.e. .f a w q >X>X>X>X>X>X>X>X>X>X",
">X>X>X>X>X>X>X>X>X>X>XXX.XM.#Xj.u.y.w.=.v.I j i w w 9 >X>X>X>X>X>X>X>X>X",
">X>X>X>X>X>X>X>X>X>X|.].!.6.v.<.>.w.n c L >.J e w 9 9 9 >X>X>X>X>X>X>X>X",
">X>X>X>X>X>X>X>XoX}./.#.X.} ;.n b b 9 9 d q.I 9 9 9 9 9 >X>X>X>X>X>X>X>X",
">X>X>X>X>X>X@XOX|.!.#..._ Q n T c 9 9 9 d E I y 9 9 9 9 9 >X>X>X>X>X>X>X",
">X>X>X>X>X>X+XXX!.+.o.{ ) h j D q.v q 9 q c E K 9 9 9 9 9 9 >X>X>X>X>X>X",
">X>X>X>X>XOXXX!.X...{ ) ~ i 8 0 v G.t 9 9 l E U 9 9 9 9 9 9 9 >X>X>X>X>X",
">X>X>X>X+XoX/.O.) ) / ! a w 9 9 d v.J t 0 D T P 9 9 9 9 9 9 9 >X>X>X>X>X",
">X>X>X>XoX_.o./ ! ! f a w 9 9 9 9 t r.I I g.I 9 9 9 9 9 9 9 9 >X>X>X>X>X",
">X>X>XoX_.+./ f g a i w q 9 9 9 9 9 0 q.c.G.q.P z 0 9 9 9 9 9 9 >X>X>X>X",
">X>X>X^.+./ a i w w 0 9 9 9 9 9 9 9 9 t K b.I.I.q.v 9 9 9 9 9 9 >X>X>X>X",
">X>X>X`.#.Q w i w 9 9 9 9 9 9 9 9 9 0 U L.G.L.P.n.,.9 9 9 9 9 9 9 >X>X>X",
">X>XXX`.+.~ i w q 9 9 9 9 9 9 9 9 9 t H.I.J.m.L.c.E 9 9 9 9 9 9 9 >X>X>X",
">X}.(.~.` a i w q 7 9 9 7 9 9 9 9 9 r H.P.L.J.n.b.R 9 9 9 9 9 7 9 >X>X>X",
">X(.!.O.! i i q 7 7 9 9 9 9 9 9 9 9 r H.G.G.J.J.m.U 9 9 9 9 9 9 9 9 >X>X",
">X^.W...Q p i q 7 9 9 9 9 9 9 9 9 9 0 c.H.G.P.L.s.z 9 # 9 9 9 9 9 9 >X>X",
">X^.+._ ~ i i q 9 9 9 9 9 9 9 9 9 9 9 J q.b.b.v.P 9 9 9 9 9 9 9 9 9 >X>X",
">XQ.o.^ a i i 9 9 9 9 9 9 9 9 9 9 9 9 0 c v D c d 9 9 9 9 9 9 9 9 9 9 >X",
">XQ.o./ a i w 9 9 9 9 9 7 9 9 9 9 9 9 9 9 9 9 9 9 9 9 9 9 9 9 9 9 9 9 >X",
" X~.../ a i 9 9 9 9 9 9 9 9 9 9 9 9 9 9 9 9 9 9 9 9 9 9 9 9 9 9 9 9 9 >X",
"(.W.X.) a q 9 9 9 9 9 7 9 9 9 9 9 9 9 9 7 9 9 9 9 9 9 9 9 9 7 9 9 9 9 >X",
").@...W i 9 9 9 9 9 9 9 9 9 9 9 9 # 9 9 9 9 9 9 9 7 9 7 9 7 7 9 9 9 9 9 ",
"^.+.) e 9 9 9 9 9 9 9 9 9 9 9 9 9 9 9 9 9 9 9 9 9 9 9 o 8 8 9 9 9 9 9 9 ",
"Q.o.^ e 9 9 9 9 9 9 9 9 9 9 9 9 9 9 9 9 9 9 9 9 9 9 8 * B w.>X>X>X>X>X>X",
"Q...W q 9 9 9 9 9 9 9 9 9 9 9 9 9 9 9 9 9 9 9 9 7 @ * & H w.u.u.u.>X>X>X",
"Q.X.W e 9 9 9 9 9 7 9 9 9 9 9 9 9 9 9 9 9 9 7 o @   &   G w.u.u.u.u.>X>X",
"^.O.W e 9 9 9 9 9 9 9 9 9 9 9 7 9 9 9 9 7 o @ +   . @ o l :.t.u.u.u.>X>X",
"Q.#.^ e 9 9 9 9 9 9 9 9 9 9 9 9 7 7 7 8 O   * * + o 9 9 9 F w.p.u.u.>X>X",
"#.+.[ W q 9 9 9 9 9 9 9 9 9 9 7 8 o .   *   O o 8 9 9 9 9 n >.y.u.u.>X>X",
"X.o.X.^ e 7 9 9 9 9 9 9 9 7 7 o     & * O o 7 9 9 9 9 9 9 y L w.u.>X>X>X",
"` [ ..^ e 9 9 9 9 9 9 9 9 9 0 O       o 7 7 7 7 9 9 9 9 9 9 y >X>X>X>X>X",
"^ _ _ ! a q 9 9 9 9 9 9 w e p 0 8 8 8 7 9 9 9 9 9 9 9 9 9 9 9 >X>X>X>X>X",
"Q Q ^ Q ~ e 9 9 9 9 9 q a g p q 9 9 7 7 9 9 9 9 9 9 9 9 7 9 9 >X>X>X>X>X",
"a a ~ W W e 7 9 9 9 p f Q h p q 9 9 9 9 9 9 9 9 9 9 9 9 9 9 9 >X>X>X>X>X",
"i e p a p e 9 9 9 e / ) ! ~ p w 9 9 9 9 9 9 9 7 9 9 9 9 9 9 9 >X>X>X>X>X",
"0 q w w w w w q g _ [ ) Q g e w q 7 7 9 9 9 9 9 9 9 9 9 9 9 9 >X>X>X>X>X",
">X>X>XF &.&.&.L *.| ' / h p i i w w 7 9 9 9 9 9 9 9 9 9 9 9 9 9 >X>X>X>X",
">X>X>Xy.y.y.y.y.t.-.' ! h a i i i i 9 9 9 9 9 9 9 9 9 9 9 9 9 9 >X>X>X>X",
">X>X>Xu.u.u.u.u.y.-.] Q h a i i i i w 9 9 9 9 9 9 9 7 9 9 9 9 9 >X>X>X>X",
">X>X>Xu.u.u.u.u.y.-.] Q f g a w w i i 9 9 9 9 9 9 9 9 9 9 9 9 9 >X>X>X>X",
">X>X>Xu.u.y.u.u.y.-.' W h f g a i i i 7 9 9 9 9 9 9 9 9 9 9 9 9 >X>X>X>X",
">X>X>X>Xi.i.t.t.4.} / W f g a p i i 9 9 9 9 9 9 9 9 7 9 9 9 9 9 >X>X>X>X",
">X>X>X>X>X.X'.%.#.` / f g a i w i 9 9 9 7 9 9 9 9 9 9 9 9 9 9 9 >X>X>X>X",
">X>X>X>X>X{.(.!.+.` ! f a p i w q 7 7 9 9 9 9 7 9 9 9 9 9 9 9 7 >X>X>X>X",
">X>X>X>X>X].^.W.+.` Q f p i w w 7 7 9 9 9 9 9 9 9 9 9 9 9 9 9 9 >X>X>X>X",
">X>X>X>X>X].^.W.o._ ~ a i w w 7 9 9 9 9 9 9 9 9 9 9 9 9 9 9 9 9 >X>X>X>X",
">X>X>X>X>X[.^.#.X.) h p i w w 7 9 9 9 9 9 9 9 9 9 9 9 9 9 9 9 9 >X>X>X>X",
">X>X>X>X}.[.!.@.../ f i w w 9 9 9 9 9 9 9 9 9 9 9 9 9 9 9 9 9 9 >X>X>X>X",
">X>X>X>X{.).W.+.[ ^ a i q 9 9 9 9 9 9 9 9 9 9 9 9 9 9 9 9 9 9 9 >X>X>X>X",
">X>X>X>X].^.W.o.` ^ a w 7 7 9 9 9 9 9 9 9 9 9 9 9 9 9 9 9 9 9 9 >X>X>X>X",
">X>X>X>X^.Q.@.X._ W e 9 9 9 9 9 7 9 9 9 9 9 9 7 9 9 9 9 9 9 9 7 >X>X>X>X",
">X>X>X>X^.Q.+.[ / h e 9 9 9 9 9 9 9 9 9 9 9 9 9 7 9 9 9 9 9 9 7 >X>X>X>X",
">X>X>X>XQ.@.X._ Q a q 9 9 9 9 9 7 9 9 9 9 9 9 7 9 9 9 9 9 9 9 9 >X>X>X>X",
">X>X>X}./.@.X._ ~ a w 9 9 9 7 9 9 9 9 9 9 9 9 9 9 9 9 9 9 9 9 >X>X>X>X>X",
">X>X>X].!.+.{ / g w q 9 9 9 9 9 9 9 9 9 9 9 9 9 9 9 9 9 9 9 9 >X>X>X>X>X",
">X>X>X^.W.o.[ / h i w 9 9 9 9 9 9 9 9 9 9 9 9 9 9 9 9 9 9 7 7 >X>X>X>X>X",
">X>X>XQ.@.X._ ~ g i w 9 7 9 9 9 9 9 9 9 9 9 9 9 9 9 9 9 9 % $ >X>X>X>X>X",
">X>X>XW.+.[ / f a i q 9 9 7 7 9 9 9 9 9 9 9 9 7 9 9 7 8 o $ : >X>X>X>X>X",
">X>X>X>X..` / W g p i q q 7 9 9 9 9 9 9 9 9 9 7 7 q u 2 = - >X>X>X>X>X>X",
">X>X>X>Xk / / W a p i 9 0 9 9 9 9 9 9 9 9 9 9 7 # % A V , ; >X>X>X>X>X>X",
">X>X>X- 1 d Q W ~ a i w 9 9 9 9 7 9 9 9 9 9 9 % X - - ; ; ; >X>X>X>X>X>X",
">X>X>X- - 1 d j a a i w 9 9 8 9 7 q 9 9 @ % $ X - ; ; ; ; ; >X>X>X>X>X>X",
">X>X>X- - : : X y % u w 9 9 8 y S S A 2 < - ; ; - - ; ; ; >X>X>X>X>X>X>X",
">X>X>X; ; ; ; - ; ; : $ $ 6 H 8.0.7.Z M N < ; ; ; ; ; ; ; >X>X>X>X>X>X>X",
">X>X>X>X; ; ; ; ; ; - - ; 4 C 7.0.C M N 3 = ; ; ; ; ; ; >X>X>X>X>X>X>X>X",
">X>X>X>X; ; ; ; ; ; - - ; ; , < V < = = = ; ; ; ; ; >X>X>X>X>X>X>X>X>X>X",
">X>X>X>X>X; ; ; ; ; ; ; ; ; ; ; = - = - ; ; ; >X>X>X>X>X>X>X>X>X>X>X>X>X",
">X>X>X>X>X>X- ; ; ; ; ; ; ; ; ; ; ; ; ; ; >X>X>X>X>X>X>X>X>X>X>X>X>X>X>X",
">X>X>X>X>X>X>X>X>X; ; ; ; ; ; ; >X>X>X>X>X>X>X>X>X>X>X>X>X>X>X>X>X>X>X>X"
};
